G04 #@! TF.FileFunction,Copper,L1,Top,Signal*
%FSLAX46Y46*%
G04 Gerber Fmt 4.6, Leading zero omitted, Abs format (unit mm)*
G04 Created by KiCad (PCBNEW 4.0.7-e2-6376~58~ubuntu16.04.1) date Thu Mar 22 00:37:00 2018*
%MOMM*%
%LPD*%
G01*
G04 APERTURE LIST*
%ADD10C,0.100000*%
%ADD11C,5.000000*%
%ADD12C,1.100000*%
%ADD13C,6.350000*%
%ADD14R,1.400000X0.350000*%
%ADD15C,1.600000*%
%ADD16C,1.720000*%
%ADD17C,0.600000*%
%ADD18C,0.250000*%
%ADD19C,1.000000*%
%ADD20C,0.400000*%
%ADD21C,0.152400*%
%ADD22C,0.200000*%
%ADD23C,0.254000*%
G04 APERTURE END LIST*
D10*
D11*
X117960000Y-96140000D03*
X182730000Y-61850000D03*
X182730000Y-96140000D03*
D12*
X184000000Y-70000000D03*
X184000000Y-72000000D03*
X184000000Y-74000000D03*
X184000000Y-76000000D03*
X184000000Y-78000000D03*
X184000000Y-80000000D03*
X184000000Y-82000000D03*
X184000000Y-84000000D03*
X184000000Y-86000000D03*
X184000000Y-88000000D03*
X182000000Y-70000000D03*
X182000000Y-72000000D03*
X182000000Y-74000000D03*
X182000000Y-76000000D03*
X182000000Y-78000000D03*
X182000000Y-80000000D03*
X182000000Y-82000000D03*
X182000000Y-84000000D03*
X182000000Y-86000000D03*
X182000000Y-88000000D03*
D13*
X110080000Y-126110000D03*
X110080000Y-52450000D03*
X195810000Y-49910000D03*
X195810000Y-129920000D03*
D14*
X193800000Y-80675000D03*
X193800000Y-81325000D03*
X193800000Y-82625000D03*
X193800000Y-81975000D03*
X193800000Y-80025000D03*
X193800000Y-78725000D03*
X193800000Y-79375000D03*
X193800000Y-83275000D03*
X199200000Y-80025000D03*
X199200000Y-81325000D03*
X199200000Y-82625000D03*
X199200000Y-81975000D03*
X199200000Y-83275000D03*
X199200000Y-78725000D03*
X199200000Y-79375000D03*
X199200000Y-80675000D03*
D15*
X177800000Y-125500000D03*
X182800000Y-125500000D03*
X180300000Y-125500000D03*
D16*
X188190000Y-49910000D03*
X188190000Y-52450000D03*
X188190000Y-54990000D03*
X188190000Y-57530000D03*
X188190000Y-60070000D03*
X188190000Y-62610000D03*
X188190000Y-65150000D03*
X188190000Y-67690000D03*
X188190000Y-70230000D03*
X188190000Y-72770000D03*
X188190000Y-75310000D03*
X188190000Y-77850000D03*
X188190000Y-80390000D03*
X188190000Y-82930000D03*
X188190000Y-85470000D03*
X188190000Y-88010000D03*
X188190000Y-90550000D03*
X188190000Y-93090000D03*
X188190000Y-95630000D03*
X188190000Y-98170000D03*
X188190000Y-100710000D03*
X188190000Y-103250000D03*
X188190000Y-105790000D03*
X188190000Y-108330000D03*
X188190000Y-110870000D03*
X188190000Y-113410000D03*
X188190000Y-115950000D03*
X188190000Y-118490000D03*
X188190000Y-121030000D03*
X188190000Y-123570000D03*
X188190000Y-126110000D03*
X188190000Y-128650000D03*
X190730000Y-49910000D03*
X190730000Y-52450000D03*
X190730000Y-54990000D03*
X190730000Y-57530000D03*
X190730000Y-60070000D03*
X190730000Y-62610000D03*
X190730000Y-65150000D03*
X190730000Y-67690000D03*
X190730000Y-70230000D03*
X190730000Y-72770000D03*
X190730000Y-75310000D03*
X190730000Y-77850000D03*
X190730000Y-80390000D03*
X190730000Y-82930000D03*
X190730000Y-85470000D03*
X190730000Y-88010000D03*
X190730000Y-90550000D03*
X190730000Y-93090000D03*
X190730000Y-95630000D03*
X190730000Y-98170000D03*
X190730000Y-100710000D03*
X190730000Y-103250000D03*
X190730000Y-105790000D03*
X190730000Y-108330000D03*
X190730000Y-110870000D03*
X190730000Y-113410000D03*
X190730000Y-115950000D03*
X190730000Y-118490000D03*
X190730000Y-121030000D03*
X190730000Y-123570000D03*
X190730000Y-126110000D03*
X190730000Y-128650000D03*
D17*
X141600000Y-62600000D03*
X110799980Y-90800000D03*
X192043737Y-92738291D03*
X195625000Y-87500000D03*
X114250000Y-90000000D03*
X151750000Y-121000000D03*
X154750000Y-117250000D03*
X134750000Y-62500000D03*
X154000000Y-113250000D03*
X152500000Y-113250000D03*
X111750000Y-87000000D03*
X111000000Y-84250000D03*
X110799980Y-93000000D03*
X132000000Y-100250000D03*
X129750000Y-95000000D03*
X132000000Y-57750000D03*
X159750000Y-86500000D03*
X159000000Y-84508602D03*
X142000000Y-73500000D03*
X196750000Y-78750000D03*
X191927065Y-89904524D03*
X192250000Y-87250000D03*
X195750000Y-84500000D03*
X195500000Y-95500000D03*
X195500000Y-93250000D03*
X179500000Y-75500000D03*
X179500000Y-76500000D03*
X179500000Y-77500000D03*
X156500000Y-124000000D03*
X150000000Y-125500000D03*
X153000000Y-126000000D03*
X156500000Y-129500000D03*
X155500000Y-128000000D03*
X169000000Y-132000000D03*
X168000000Y-132000000D03*
X167000000Y-132000000D03*
X115103555Y-93896445D03*
X108000000Y-106000000D03*
X108000000Y-105000000D03*
X108000000Y-104000000D03*
X147000000Y-50500000D03*
X150000000Y-50500000D03*
X150500000Y-52000000D03*
X152307061Y-54156208D03*
X155503352Y-54503352D03*
X159000000Y-50500000D03*
X156000000Y-50500000D03*
X156000000Y-60500000D03*
X159000000Y-60500000D03*
X155500000Y-62000000D03*
X153000000Y-64000000D03*
X151000000Y-64000000D03*
X150000000Y-60500000D03*
X146500000Y-61000000D03*
X141000000Y-53000000D03*
X141000000Y-52000000D03*
X141000000Y-51000000D03*
X158000000Y-130000000D03*
X148000000Y-129500000D03*
X110500000Y-85000000D03*
X152200000Y-66200000D03*
X147600000Y-71900000D03*
X143000000Y-73600000D03*
X151200000Y-75500000D03*
X153000000Y-82500000D03*
X152800000Y-80600000D03*
X153800000Y-81700000D03*
X161800000Y-123800000D03*
X114450000Y-104800000D03*
X175300000Y-85700000D03*
X166400000Y-118100000D03*
X120150000Y-109400000D03*
X169600000Y-81100000D03*
X172700000Y-116400000D03*
X121850000Y-115700000D03*
X167900000Y-74800000D03*
X171000000Y-116400000D03*
X121850000Y-114000000D03*
X167900000Y-76500000D03*
X162800000Y-114500000D03*
X123750000Y-105800000D03*
X166000000Y-84700000D03*
X161000000Y-107500000D03*
X130750000Y-104000000D03*
X161200000Y-109400000D03*
X128850000Y-104200000D03*
X160900000Y-86300000D03*
X160200000Y-108300000D03*
X129950000Y-103200000D03*
X134500000Y-90500000D03*
X157500000Y-121500000D03*
X136500000Y-53000000D03*
X127300000Y-99700000D03*
X129300000Y-62200000D03*
X132900000Y-99300000D03*
X134900000Y-61800000D03*
X198400000Y-76000000D03*
X196600000Y-76200000D03*
X192600000Y-76000000D03*
X185000000Y-105500000D03*
X184000000Y-104500000D03*
X183000000Y-103500000D03*
X179000000Y-99500000D03*
X179000000Y-98500000D03*
X179000000Y-97500000D03*
X166000000Y-91500000D03*
X166000000Y-90500000D03*
X166000000Y-89500000D03*
X177500000Y-101000000D03*
X176500000Y-101000000D03*
X175300000Y-100743796D03*
X169600000Y-96143796D03*
X167900000Y-89843796D03*
X167900000Y-91543796D03*
X166000000Y-99743796D03*
X159000000Y-101543796D03*
X160900000Y-101343796D03*
X159800000Y-102343796D03*
X164300000Y-85900000D03*
X157900000Y-81600000D03*
X173900000Y-64700000D03*
X138100000Y-112300000D03*
X128700000Y-68600000D03*
X164300000Y-100943796D03*
X169600000Y-71100000D03*
X142400000Y-105900000D03*
X135100000Y-72900000D03*
X157900000Y-96643796D03*
X132000000Y-109000000D03*
X127000000Y-78500000D03*
X128000000Y-78500000D03*
X129000000Y-78500000D03*
X119000000Y-80000000D03*
X117500000Y-80000000D03*
X116000000Y-80000000D03*
X117700000Y-68800000D03*
X123400000Y-73400000D03*
X125100000Y-79700000D03*
X125100000Y-78000000D03*
X127000000Y-69800000D03*
X134000000Y-68000000D03*
X132100000Y-68200000D03*
X133200000Y-67200000D03*
X125450000Y-104600000D03*
X148000000Y-111500000D03*
X149000000Y-111500000D03*
X150000000Y-111500000D03*
X145000000Y-127000000D03*
X145000000Y-128000000D03*
X145000000Y-129000000D03*
X138300000Y-123300000D03*
X142900000Y-117600000D03*
X149200000Y-115900000D03*
X147500000Y-115900000D03*
X139300000Y-114000000D03*
X137500000Y-107000000D03*
X137700000Y-108900000D03*
X136700000Y-107800000D03*
X161600000Y-112800000D03*
X165900000Y-106400000D03*
X166000000Y-65000000D03*
X165000000Y-65000000D03*
X164000000Y-65000000D03*
X162500000Y-55000000D03*
X162500000Y-54000000D03*
X162500000Y-53000000D03*
X162500000Y-52000000D03*
X152400000Y-77200000D03*
X148100000Y-83600000D03*
X173700000Y-53700000D03*
X169100000Y-59400000D03*
X162800000Y-61100000D03*
X164500000Y-61100000D03*
X172700000Y-63000000D03*
X174500000Y-70000000D03*
X174300000Y-68100000D03*
X175300000Y-69200000D03*
X143500000Y-61500000D03*
X143500000Y-62500000D03*
X143500000Y-63500000D03*
X145000000Y-53000000D03*
X145000000Y-52000000D03*
X145000000Y-51000000D03*
X194200000Y-71600000D03*
X194400000Y-74800000D03*
X180500000Y-84499999D03*
X180500000Y-88250000D03*
X158500000Y-89500000D03*
X157250000Y-88250000D03*
X132750000Y-88500000D03*
X178750000Y-73000000D03*
X179500000Y-84500000D03*
X179500000Y-88750000D03*
X159750000Y-119500000D03*
X135750000Y-50000000D03*
X113000000Y-94000000D03*
X192600000Y-75000000D03*
X196200000Y-73000000D03*
X195497018Y-83741052D03*
X183000000Y-69000000D03*
X149750000Y-88250000D03*
X140250000Y-88250000D03*
X148000000Y-62250000D03*
X159750000Y-62000000D03*
X150500000Y-118750000D03*
X150415888Y-115929907D03*
X155750000Y-114500000D03*
X159500000Y-127750000D03*
X146500000Y-127750000D03*
X127250000Y-97750000D03*
X131273607Y-98952785D03*
X129750000Y-88000000D03*
X112500000Y-83500000D03*
X129750000Y-60000000D03*
X130500000Y-50750000D03*
X133273607Y-61452785D03*
X160000000Y-52250000D03*
X146000000Y-51000000D03*
X192027183Y-78258561D03*
X193500000Y-78250000D03*
X153500000Y-93493796D03*
X153250000Y-86250000D03*
X157500000Y-112750000D03*
X138500000Y-71500000D03*
X135500000Y-86500000D03*
X143000000Y-87500000D03*
X158500000Y-112750000D03*
X135500000Y-87500000D03*
X195098662Y-86607359D03*
X194325000Y-85750000D03*
X193848661Y-86985223D03*
X197465544Y-85857772D03*
X132000000Y-89500000D03*
X127500000Y-90000000D03*
X131067583Y-90125000D03*
X127500000Y-91000000D03*
X130250000Y-93875000D03*
X131750000Y-95000000D03*
X155000000Y-124000000D03*
X155500000Y-118500000D03*
X156500000Y-118000000D03*
X157500000Y-125000000D03*
X134000000Y-52000000D03*
X139500000Y-54625000D03*
X132500000Y-52000000D03*
X138000000Y-54000000D03*
X165000000Y-98543796D03*
X158000000Y-94793796D03*
X165000000Y-83500000D03*
X158000000Y-79750000D03*
X128000000Y-71000000D03*
X135000000Y-74750000D03*
X132000000Y-110750000D03*
X124750000Y-107000000D03*
X140500000Y-113000000D03*
X144250000Y-106000000D03*
X164000000Y-113500000D03*
X167750000Y-106500000D03*
X171500000Y-64000000D03*
X167750000Y-71000000D03*
X150000000Y-76500000D03*
X146250000Y-83500000D03*
X185250000Y-88500000D03*
X185250000Y-84499999D03*
X195069358Y-88569357D03*
X155500000Y-122500000D03*
X153500000Y-124500000D03*
X136000000Y-54625001D03*
X137000000Y-59625000D03*
X196750001Y-85500000D03*
X198238640Y-86063506D03*
X199000000Y-86500000D03*
X132550003Y-95000000D03*
X125010147Y-95510147D03*
X134000000Y-96500000D03*
X126500000Y-96500000D03*
D18*
X198025000Y-80025000D02*
X196750000Y-78750000D01*
X199200000Y-80025000D02*
X198025000Y-80025000D01*
D19*
X141000000Y-52000000D02*
X141000000Y-53000000D01*
X141000000Y-51000000D02*
X141000000Y-52000000D01*
D18*
X198400000Y-76000000D02*
X199200000Y-76800000D01*
X199200000Y-76800000D02*
X199200000Y-78725000D01*
X196600000Y-76200000D02*
X196600000Y-76624264D01*
X197600000Y-77624264D02*
X197600000Y-78725000D01*
X196600000Y-76624264D02*
X197600000Y-77624264D01*
X197600000Y-78725000D02*
X198250000Y-79375000D01*
X198250000Y-79375000D02*
X199200000Y-79375000D01*
X192800000Y-78024998D02*
X192800000Y-76200000D01*
X192800000Y-76200000D02*
X192600000Y-76000000D01*
X192774999Y-78075001D02*
X192774999Y-78049999D01*
X192774999Y-78049999D02*
X192800000Y-78024998D01*
X193800000Y-79375000D02*
X192850000Y-79375000D01*
X192850000Y-79375000D02*
X192774999Y-79299999D01*
X192774999Y-79299999D02*
X192774999Y-78075001D01*
D19*
X179000000Y-98500000D02*
X179000000Y-97500000D01*
X179000000Y-99500000D02*
X179000000Y-98500000D01*
X184000000Y-104500000D02*
X185000000Y-105500000D01*
X183000000Y-103500000D02*
X184000000Y-104500000D01*
X179000000Y-99500000D02*
X183000000Y-103500000D01*
D18*
X176500000Y-101000000D02*
X177500000Y-101000000D01*
D20*
X164300000Y-85900000D02*
X160000000Y-81600000D01*
X160000000Y-81600000D02*
X157900000Y-81600000D01*
D19*
X171100000Y-67500000D02*
X171100000Y-69600000D01*
X171100000Y-69600000D02*
X169600000Y-71100000D01*
X173900000Y-64700000D02*
X171100000Y-67500000D01*
X128700000Y-68600000D02*
X130800000Y-68600000D01*
X130800000Y-68600000D02*
X135100000Y-72900000D01*
X161106204Y-97750000D02*
X159006204Y-97750000D01*
X159006204Y-97750000D02*
X157900000Y-96643796D01*
X164300000Y-100943796D02*
X161106204Y-97750000D01*
D20*
X138100000Y-112300000D02*
X142400000Y-108000000D01*
X142400000Y-108000000D02*
X142400000Y-105900000D01*
X132000000Y-109000000D02*
X129850000Y-109000000D01*
X129850000Y-109000000D02*
X129750000Y-108900000D01*
X125450000Y-104600000D02*
X129750000Y-108900000D01*
D19*
X145000000Y-127000000D02*
X145000000Y-123000000D01*
D20*
X161600000Y-112800000D02*
X165900000Y-108500000D01*
X165900000Y-108500000D02*
X165900000Y-106400000D01*
X152400000Y-77200000D02*
X148100000Y-81500000D01*
X148100000Y-81500000D02*
X148100000Y-83600000D01*
D19*
X145000000Y-53000000D02*
X145000000Y-60000000D01*
X145000000Y-60000000D02*
X143500000Y-61500000D01*
X145000000Y-52000000D02*
X145000000Y-53000000D01*
X145000000Y-51000000D02*
X145000000Y-52000000D01*
X143500000Y-62500000D02*
X143500000Y-61500000D01*
X143500000Y-63500000D02*
X143500000Y-62500000D01*
D18*
X194200000Y-69406198D02*
X194200000Y-71600000D01*
X195224989Y-75999989D02*
X195224989Y-75624989D01*
X195224989Y-75624989D02*
X194400000Y-74800000D01*
X193800000Y-83275000D02*
X194750000Y-83275000D01*
X194750000Y-83275000D02*
X195224989Y-82800011D01*
X195224989Y-82800011D02*
X195224989Y-75999989D01*
X188190000Y-65150000D02*
X189544999Y-66504999D01*
X189544999Y-66504999D02*
X191298801Y-66504999D01*
X191298801Y-66504999D02*
X194200000Y-69406198D01*
X180500000Y-84499999D02*
X180500000Y-84075735D01*
X180500000Y-84075735D02*
X178874999Y-82450734D01*
X178874999Y-82450734D02*
X178874999Y-73829999D01*
X186973777Y-70230000D02*
X188190000Y-70230000D01*
X178874999Y-73829999D02*
X181829997Y-70875001D01*
X181829997Y-70875001D02*
X186328776Y-70875001D01*
X186328776Y-70875001D02*
X186973777Y-70230000D01*
X178000000Y-88000000D02*
X180250000Y-88000000D01*
X180250000Y-88000000D02*
X180500000Y-88250000D01*
X164500000Y-88000000D02*
X178000000Y-88000000D01*
X162522820Y-88000000D02*
X164500000Y-88000000D01*
X162047791Y-88475029D02*
X162522820Y-88000000D01*
X159049999Y-89200001D02*
X159774971Y-88475029D01*
X159774971Y-88475029D02*
X162047791Y-88475029D01*
X158500000Y-89500000D02*
X158799999Y-89200001D01*
X158799999Y-89200001D02*
X159049999Y-89200001D01*
X153000000Y-89000000D02*
X156500000Y-89000000D01*
X156500000Y-89000000D02*
X157250000Y-88250000D01*
X132750000Y-88500000D02*
X133250000Y-89000000D01*
X133250000Y-89000000D02*
X153000000Y-89000000D01*
X178424989Y-77250000D02*
X178424989Y-73325011D01*
X178424989Y-73325011D02*
X178750000Y-73000000D01*
X178424989Y-82637134D02*
X178424989Y-77250000D01*
X179500000Y-84500000D02*
X178424989Y-83424989D01*
X178424989Y-83424989D02*
X178424989Y-82637134D01*
X177950010Y-88450010D02*
X179200010Y-88450010D01*
X179200010Y-88450010D02*
X179500000Y-88750000D01*
X164250000Y-88450010D02*
X177950010Y-88450010D01*
X162709220Y-88450010D02*
X164250000Y-88450010D01*
X162234192Y-88925038D02*
X162709220Y-88450010D01*
X159049990Y-89950010D02*
X161209220Y-89950010D01*
X161209220Y-89950010D02*
X162234192Y-88925038D01*
X156750000Y-90750000D02*
X158250000Y-90750000D01*
X158250000Y-90750000D02*
X159049990Y-89950010D01*
X154750000Y-92750000D02*
X156750000Y-90750000D01*
X154750000Y-100250000D02*
X154750000Y-92750000D01*
X158200010Y-103700010D02*
X154750000Y-100250000D01*
X159750000Y-119075736D02*
X159750000Y-112939326D01*
X159750000Y-112939326D02*
X158200010Y-111389336D01*
X158200010Y-111389336D02*
X158200010Y-103700010D01*
X159750000Y-119500000D02*
X159750000Y-119075736D01*
X135750000Y-50000000D02*
X136049999Y-50299999D01*
X176224999Y-86525001D02*
X177974979Y-84775021D01*
X136049999Y-50299999D02*
X136235673Y-50299999D01*
X183014998Y-67690000D02*
X186973777Y-67690000D01*
X136235673Y-50299999D02*
X140250000Y-54314326D01*
X161374999Y-87125001D02*
X161974999Y-86525001D01*
X140250000Y-54314326D02*
X140250000Y-73000000D01*
X158625001Y-87125001D02*
X161374999Y-87125001D01*
X140250000Y-73000000D02*
X140750000Y-73500000D01*
X142624999Y-85624999D02*
X157124999Y-85624999D01*
X140750000Y-73500000D02*
X140750000Y-83750000D01*
X140750000Y-83750000D02*
X142624999Y-85624999D01*
X157124999Y-85624999D02*
X158625001Y-87125001D01*
X177974979Y-84775021D02*
X177974979Y-72730019D01*
X161974999Y-86525001D02*
X176224999Y-86525001D01*
X177974979Y-72730019D02*
X183014998Y-67690000D01*
X186973777Y-67690000D02*
X188190000Y-67690000D01*
D19*
X109499999Y-94000000D02*
X109499999Y-91750000D01*
X109499999Y-95250000D02*
X109499999Y-94000000D01*
D18*
X109499999Y-94000000D02*
X113000000Y-94000000D01*
X195674999Y-72800000D02*
X195674999Y-72600000D01*
X195674999Y-72600000D02*
X195674999Y-72400000D01*
X192600000Y-75000000D02*
X195000000Y-72600000D01*
X195000000Y-72600000D02*
X195674999Y-72600000D01*
X195674999Y-72400000D02*
X195674999Y-63261197D01*
X196200000Y-73000000D02*
X195674999Y-72474999D01*
X195674999Y-72474999D02*
X195674999Y-72400000D01*
X195674999Y-74075001D02*
X195674999Y-72800000D01*
X195674999Y-78600001D02*
X195674999Y-83563071D01*
X195674999Y-83563071D02*
X195497018Y-83741052D01*
X195674999Y-63261197D02*
X191128803Y-58715001D01*
X189049999Y-58389999D02*
X188190000Y-57530000D01*
X191128803Y-58715001D02*
X189375001Y-58715001D01*
X189375001Y-58715001D02*
X189049999Y-58389999D01*
X195674999Y-78600001D02*
X195674999Y-74750000D01*
X195674999Y-74750000D02*
X195674999Y-74075001D01*
X195674999Y-74825001D02*
X195674999Y-74750000D01*
D20*
X182000000Y-70000000D02*
X183000000Y-69000000D01*
D18*
X199200000Y-80675000D02*
X197749998Y-80675000D01*
X197749998Y-80675000D02*
X195674999Y-78600001D01*
X140250000Y-88250000D02*
X149750000Y-88250000D01*
X129750000Y-88000000D02*
X130049999Y-87700001D01*
X130049999Y-87700001D02*
X132875003Y-87700001D01*
X132875003Y-87700001D02*
X133425002Y-88250000D01*
X133425002Y-88250000D02*
X140250000Y-88250000D01*
X148000000Y-62250000D02*
X148000000Y-61825736D01*
X148000000Y-61825736D02*
X148325001Y-61500735D01*
X148325001Y-61500735D02*
X148325001Y-53325001D01*
X148325001Y-53325001D02*
X146299999Y-51299999D01*
X146299999Y-51299999D02*
X146000000Y-51000000D01*
X159750000Y-62000000D02*
X159750000Y-52500000D01*
X159750000Y-52500000D02*
X160000000Y-52250000D01*
X150750000Y-117000000D02*
X150750000Y-119500000D01*
X150750000Y-119500000D02*
X150750000Y-130750001D01*
X150500000Y-118750000D02*
X150500000Y-119174264D01*
X150500000Y-119174264D02*
X150750000Y-119424264D01*
X150750000Y-119424264D02*
X150750000Y-119500000D01*
X150415888Y-115929907D02*
X150415888Y-116665888D01*
X150415888Y-116665888D02*
X150500000Y-116750000D01*
D19*
X159750000Y-131000001D02*
X150500000Y-131000001D01*
X150500000Y-131000001D02*
X146500000Y-131000001D01*
D18*
X150500000Y-116750000D02*
X150750000Y-117000000D01*
X150750000Y-130750001D02*
X150500000Y-131000001D01*
X152750000Y-114500000D02*
X150500000Y-116750000D01*
X155750000Y-114500000D02*
X152750000Y-114500000D01*
D19*
X162000001Y-131000001D02*
X159750000Y-131000001D01*
D18*
X159500000Y-127750000D02*
X159500000Y-130750001D01*
X159500000Y-130750001D02*
X159750000Y-131000001D01*
D19*
X146500000Y-131000001D02*
X122750001Y-131000001D01*
D18*
X146500000Y-127750000D02*
X146500000Y-128174264D01*
X146500000Y-128174264D02*
X146500000Y-131000001D01*
X127527783Y-98952785D02*
X126324998Y-97750000D01*
X126324998Y-97750000D02*
X122500000Y-93925002D01*
X127250000Y-97750000D02*
X126324998Y-97750000D01*
X131273607Y-98952785D02*
X127527783Y-98952785D01*
X122500000Y-93925002D02*
X122500000Y-92750000D01*
X122500000Y-92750000D02*
X127250000Y-88000000D01*
X127250000Y-88000000D02*
X129750000Y-88000000D01*
D20*
X117247998Y-92750000D02*
X122500000Y-92750000D01*
D19*
X109499999Y-91750000D02*
X109499999Y-83500000D01*
D20*
X109499999Y-91750000D02*
X116247998Y-91750000D01*
X116247998Y-91750000D02*
X117247998Y-92750000D01*
D19*
X109499999Y-117749999D02*
X109499999Y-95250000D01*
X109499999Y-83500000D02*
X109499999Y-61500001D01*
D18*
X112500000Y-83500000D02*
X109499999Y-83500000D01*
X129750000Y-60000000D02*
X130049999Y-59700001D01*
X130049999Y-59700001D02*
X130049999Y-57804913D01*
X130049999Y-57804913D02*
X130000000Y-57754914D01*
X130000000Y-57754914D02*
X130000000Y-50500000D01*
X130000000Y-50500000D02*
X130000000Y-48250000D01*
X130500000Y-50750000D02*
X130200001Y-50450001D01*
X130200001Y-50450001D02*
X130049999Y-50450001D01*
X130049999Y-50450001D02*
X130000000Y-50500000D01*
D19*
X122750000Y-48250000D02*
X130000000Y-48250000D01*
X130000000Y-48250000D02*
X146000000Y-48250000D01*
D18*
X133273607Y-61452785D02*
X133273607Y-61028521D01*
X133273607Y-61028521D02*
X130000000Y-57754914D01*
D19*
X154049999Y-48200001D02*
X160000000Y-48200001D01*
X160000000Y-48200001D02*
X178860001Y-48200001D01*
D18*
X160000000Y-51825736D02*
X160000000Y-48200001D01*
X160000000Y-52250000D02*
X160000000Y-51825736D01*
D19*
X146000000Y-48250000D02*
X154000000Y-48250000D01*
D18*
X146000000Y-51000000D02*
X146000000Y-48250000D01*
D19*
X188190000Y-123570000D02*
X183179998Y-123570000D01*
X183179998Y-123570000D02*
X175749999Y-130999999D01*
X175749999Y-130999999D02*
X162000003Y-130999999D01*
X162000003Y-130999999D02*
X162000001Y-131000001D01*
X181160000Y-50500000D02*
X188190000Y-57530000D01*
X122750001Y-131000001D02*
X109499999Y-117749999D01*
X109499999Y-61500001D02*
X122750000Y-48250000D01*
X154000000Y-48250000D02*
X154049999Y-48200001D01*
X178860001Y-48200001D02*
X181160000Y-50500000D01*
D18*
X185750000Y-78500000D02*
X185750000Y-83636410D01*
X185750000Y-83636410D02*
X186628776Y-84515186D01*
X186628776Y-84515186D02*
X186628776Y-85124999D01*
X187585001Y-76664999D02*
X185750000Y-78500000D01*
X192027183Y-78258561D02*
X192327182Y-77958562D01*
X192327182Y-77958562D02*
X192327182Y-77693380D01*
X192327182Y-77693380D02*
X191298801Y-76664999D01*
X191298801Y-76664999D02*
X187585001Y-76664999D01*
X193800000Y-78725000D02*
X193800000Y-78550000D01*
X193800000Y-78550000D02*
X193500000Y-78250000D01*
X153250000Y-86750000D02*
X153299990Y-86799990D01*
X180125001Y-85124999D02*
X186628776Y-85124999D01*
X153299990Y-86799990D02*
X157663580Y-86799990D01*
X157663580Y-86799990D02*
X158438601Y-87575011D01*
X158438601Y-87575011D02*
X161674989Y-87575011D01*
X186973777Y-85470000D02*
X188190000Y-85470000D01*
X161674989Y-87575011D02*
X162250000Y-87000000D01*
X186628776Y-85124999D02*
X186973777Y-85470000D01*
X162250000Y-87000000D02*
X178250000Y-87000000D01*
X178250000Y-87000000D02*
X180125001Y-85124999D01*
X153750000Y-99000000D02*
X153750000Y-93743796D01*
X153750000Y-93743796D02*
X153500000Y-93493796D01*
X140250000Y-86750000D02*
X153250000Y-86750000D01*
X153250000Y-86750000D02*
X153250000Y-86250000D01*
X153750000Y-100750000D02*
X153750000Y-99000000D01*
X157250000Y-104250000D02*
X153750000Y-100750000D01*
X157250000Y-110250000D02*
X157250000Y-104250000D01*
X157250000Y-112500000D02*
X157250000Y-110250000D01*
X157500000Y-112750000D02*
X157250000Y-112500000D01*
X136500000Y-86750000D02*
X140250000Y-86750000D01*
X138500000Y-71500000D02*
X138500000Y-71924264D01*
X138500000Y-71924264D02*
X140250000Y-73674264D01*
X140250000Y-73674264D02*
X140250000Y-86750000D01*
X135500000Y-86750000D02*
X136500000Y-86750000D01*
X135500000Y-86500000D02*
X135500000Y-86750000D01*
X186500000Y-83750000D02*
X187034999Y-84284999D01*
X187034999Y-84284999D02*
X188928799Y-84284999D01*
X188928799Y-84284999D02*
X189375001Y-84731201D01*
X189375001Y-84731201D02*
X189375001Y-86824999D01*
X189375001Y-86824999D02*
X189049999Y-87150001D01*
X189049999Y-87150001D02*
X188190000Y-88010000D01*
X186500000Y-80326198D02*
X186500000Y-83750000D01*
X193800000Y-80025000D02*
X192118802Y-80025000D01*
X192118802Y-80025000D02*
X191298801Y-79204999D01*
X191298801Y-79204999D02*
X187621199Y-79204999D01*
X187621199Y-79204999D02*
X186500000Y-80326198D01*
X143000000Y-87500000D02*
X143250000Y-87250000D01*
X158250000Y-88136410D02*
X158363590Y-88136410D01*
X158363590Y-88136410D02*
X158474979Y-88025021D01*
X158474979Y-88025021D02*
X161861390Y-88025020D01*
X161861390Y-88025020D02*
X162386410Y-87500000D01*
X162386410Y-87500000D02*
X181204998Y-87500000D01*
X181204998Y-87500000D02*
X181579999Y-87124999D01*
X181579999Y-87124999D02*
X187304999Y-87124999D01*
X187304999Y-87124999D02*
X187330001Y-87150001D01*
X187330001Y-87150001D02*
X188190000Y-88010000D01*
X157363590Y-87250000D02*
X158250000Y-88136410D01*
X158250000Y-88250000D02*
X158250000Y-88136410D01*
X154250000Y-92250000D02*
X158250000Y-88250000D01*
X154250000Y-87250000D02*
X153500000Y-87250000D01*
X153500000Y-87250000D02*
X143250000Y-87250000D01*
X154250000Y-100500000D02*
X154250000Y-92250000D01*
X154250000Y-87250000D02*
X157363590Y-87250000D01*
X143250000Y-87250000D02*
X135500000Y-87250000D01*
X158500000Y-112750000D02*
X158500000Y-112325736D01*
X158500000Y-112325736D02*
X157750000Y-111575736D01*
X157750000Y-111575736D02*
X157750000Y-104000000D01*
X157750000Y-104000000D02*
X154250000Y-100500000D01*
X135500000Y-87250000D02*
X135500000Y-87500000D01*
D21*
X193725011Y-84225011D02*
X192879466Y-84225011D01*
X192879466Y-84225011D02*
X192471389Y-83816934D01*
X192471389Y-83816934D02*
X192471389Y-82451211D01*
X192471389Y-82451211D02*
X192947600Y-81975000D01*
X192947600Y-81975000D02*
X193800000Y-81975000D01*
D18*
X195098662Y-86607359D02*
X195098662Y-85598662D01*
X195098662Y-85598662D02*
X193725011Y-84225011D01*
X192750000Y-84750000D02*
X192900736Y-84750000D01*
X192900736Y-84750000D02*
X193900736Y-85750000D01*
D21*
X192118979Y-84118979D02*
X192750000Y-84750000D01*
X193800000Y-81325000D02*
X192947600Y-81325000D01*
X192947600Y-81325000D02*
X192118979Y-82153621D01*
X192118979Y-82153621D02*
X192118979Y-84118979D01*
D18*
X194325000Y-85750000D02*
X193900736Y-85750000D01*
X193848661Y-86985223D02*
X191874980Y-85011542D01*
X191874980Y-85011542D02*
X191874980Y-84691180D01*
X189544999Y-83498801D02*
X189544999Y-82361199D01*
X191874980Y-84691180D02*
X191298801Y-84115001D01*
X191298801Y-84115001D02*
X190161199Y-84115001D01*
X189544999Y-82361199D02*
X190161199Y-81744999D01*
X190161199Y-84115001D02*
X189544999Y-83498801D01*
X190161199Y-81744999D02*
X191780001Y-81744999D01*
X191780001Y-81744999D02*
X192850000Y-80675000D01*
X192850000Y-80675000D02*
X193800000Y-80675000D01*
X197465544Y-85857772D02*
X197465544Y-82759456D01*
X198250000Y-81975000D02*
X199200000Y-81975000D01*
X197465544Y-82759456D02*
X198250000Y-81975000D01*
X127500000Y-90000000D02*
X128000000Y-89500000D01*
X128000000Y-89500000D02*
X132000000Y-89500000D01*
X127500000Y-91000000D02*
X128375000Y-90125000D01*
X128375000Y-90125000D02*
X131067583Y-90125000D01*
X130250000Y-93875000D02*
X130549999Y-94174999D01*
X130549999Y-94174999D02*
X130924999Y-94174999D01*
X130924999Y-94174999D02*
X131000000Y-94250000D01*
X131750000Y-95000000D02*
X131000000Y-94250000D01*
X131590019Y-94840019D02*
X131750000Y-95000000D01*
X155000000Y-124000000D02*
X156125001Y-122874999D01*
X156125001Y-122874999D02*
X156125001Y-119125001D01*
X156125001Y-119125001D02*
X155799999Y-118799999D01*
X155799999Y-118799999D02*
X155500000Y-118500000D01*
X157500000Y-125000000D02*
X158125001Y-124374999D01*
X158125001Y-124374999D02*
X158125001Y-119625001D01*
X158125001Y-119625001D02*
X156500000Y-118000000D01*
X139500000Y-54625000D02*
X139500000Y-54200736D01*
X139500000Y-54200736D02*
X137299264Y-52000000D01*
X137299264Y-52000000D02*
X134000000Y-52000000D01*
X138000000Y-54000000D02*
X134500000Y-54000000D01*
X134500000Y-54000000D02*
X132500000Y-52000000D01*
D20*
X165000000Y-98543796D02*
X164500000Y-98543796D01*
X164500000Y-98543796D02*
X160750000Y-94793796D01*
X160750000Y-94793796D02*
X158000000Y-94793796D01*
X165000000Y-83500000D02*
X164500000Y-83500000D01*
X164500000Y-83500000D02*
X160750000Y-79750000D01*
X160750000Y-79750000D02*
X158000000Y-79750000D01*
X128000000Y-71000000D02*
X128500000Y-71000000D01*
X128500000Y-71000000D02*
X132250000Y-74750000D01*
X132250000Y-74750000D02*
X135000000Y-74750000D01*
X132000000Y-110750000D02*
X129000000Y-110750000D01*
X124750000Y-107000000D02*
X125250000Y-107000000D01*
X125250000Y-107000000D02*
X129000000Y-110750000D01*
X140500000Y-113000000D02*
X140500000Y-112500000D01*
X140500000Y-112500000D02*
X144250000Y-108750000D01*
X144250000Y-108750000D02*
X144250000Y-106000000D01*
X164000000Y-113500000D02*
X164000000Y-113000000D01*
X164000000Y-113000000D02*
X167750000Y-109250000D01*
X167750000Y-109250000D02*
X167750000Y-106500000D01*
X171500000Y-64000000D02*
X171500000Y-64500000D01*
X171500000Y-64500000D02*
X167750000Y-68250000D01*
X167750000Y-68250000D02*
X167750000Y-71000000D01*
X150000000Y-76500000D02*
X150000000Y-77000000D01*
X150000000Y-77000000D02*
X146250000Y-80750000D01*
X146250000Y-80750000D02*
X146250000Y-83500000D01*
D18*
X188190000Y-108330000D02*
X185980018Y-108330000D01*
X185980018Y-108330000D02*
X185825009Y-108174991D01*
X185250000Y-88500000D02*
X185825009Y-89075009D01*
X185825009Y-89075009D02*
X185825009Y-108174991D01*
X184000000Y-74000000D02*
X185250000Y-75250000D01*
X185250000Y-75250000D02*
X185250000Y-84499999D01*
D21*
X194099999Y-83775001D02*
X192927839Y-83775001D01*
X192927839Y-83775001D02*
X192823799Y-83670961D01*
X192823799Y-83670961D02*
X192823799Y-82748801D01*
X192823799Y-82748801D02*
X192947600Y-82625000D01*
X192947600Y-82625000D02*
X193800000Y-82625000D01*
D18*
X196125001Y-85800003D02*
X196000000Y-85675002D01*
X196000000Y-85675002D02*
X194099999Y-83775001D01*
X195069358Y-88569357D02*
X195493622Y-88569357D01*
X195493622Y-88569357D02*
X196250001Y-87812978D01*
X196250001Y-87812978D02*
X196250001Y-85925003D01*
X196250001Y-85925003D02*
X196000000Y-85675002D01*
X153500000Y-124500000D02*
X155500000Y-122500000D01*
X137000000Y-59625000D02*
X136000000Y-58625000D01*
X136000000Y-58625000D02*
X136000000Y-54625001D01*
X196750001Y-85500000D02*
X196750001Y-85075736D01*
X196750001Y-85075736D02*
X197015534Y-84810203D01*
X198113591Y-81474999D02*
X199050001Y-81474999D01*
X197015534Y-84810203D02*
X197015535Y-82573055D01*
X197015535Y-82573055D02*
X198113591Y-81474999D01*
X199050001Y-81474999D02*
X199200000Y-81325000D01*
X198238640Y-86063506D02*
X198238640Y-84959642D01*
X198238640Y-84959642D02*
X198174999Y-84896001D01*
X198174999Y-84896001D02*
X198174999Y-82700001D01*
X198174999Y-82700001D02*
X198250000Y-82625000D01*
X198250000Y-82625000D02*
X199200000Y-82625000D01*
X199000000Y-86924264D02*
X200150000Y-85774264D01*
X200150000Y-85774264D02*
X200150000Y-83700000D01*
X200150000Y-83700000D02*
X199725000Y-83275000D01*
X199725000Y-83275000D02*
X199200000Y-83275000D01*
X199000000Y-86500000D02*
X199000000Y-86924264D01*
X125010147Y-95510147D02*
X125310146Y-95810146D01*
X125310146Y-95810146D02*
X131864856Y-95810146D01*
X131864856Y-95810146D02*
X132550003Y-95124999D01*
X132550003Y-95124999D02*
X132550003Y-95000000D01*
X126500000Y-96500000D02*
X134000000Y-96500000D01*
D22*
G36*
X200415000Y-79505158D02*
X200307836Y-79397994D01*
X200307836Y-79200000D01*
X200279944Y-79051769D01*
X200277782Y-79048409D01*
X200307836Y-78900000D01*
X200307836Y-78550000D01*
X200279944Y-78401769D01*
X200192340Y-78265628D01*
X200058671Y-78174296D01*
X199900000Y-78142164D01*
X199725000Y-78142164D01*
X199725000Y-76800000D01*
X199685037Y-76599091D01*
X199571231Y-76428769D01*
X199100037Y-75957575D01*
X199100121Y-75861372D01*
X198993777Y-75604000D01*
X198797036Y-75406915D01*
X198539850Y-75300122D01*
X198261372Y-75299879D01*
X198004000Y-75406223D01*
X197806915Y-75602964D01*
X197700122Y-75860150D01*
X197699879Y-76138628D01*
X197806223Y-76396000D01*
X198002964Y-76593085D01*
X198260150Y-76699878D01*
X198357501Y-76699963D01*
X198675000Y-77017462D01*
X198675000Y-78142164D01*
X198500000Y-78142164D01*
X198351769Y-78170056D01*
X198215628Y-78257660D01*
X198125000Y-78390299D01*
X198125000Y-77624264D01*
X198085037Y-77423355D01*
X197971231Y-77253033D01*
X197228924Y-76510726D01*
X197299878Y-76339850D01*
X197300121Y-76061372D01*
X197193777Y-75804000D01*
X196997036Y-75606915D01*
X196739850Y-75500122D01*
X196461372Y-75499879D01*
X196204000Y-75606223D01*
X196199999Y-75610217D01*
X196199999Y-73700000D01*
X196338628Y-73700121D01*
X196596000Y-73593777D01*
X196793085Y-73397036D01*
X196899878Y-73139850D01*
X196900121Y-72861372D01*
X196793777Y-72604000D01*
X196597036Y-72406915D01*
X196339850Y-72300122D01*
X196242499Y-72300037D01*
X196199999Y-72257537D01*
X196199999Y-63261197D01*
X196160036Y-63060288D01*
X196046230Y-62889966D01*
X191599068Y-58442804D01*
X191797553Y-58244665D01*
X191989781Y-57781729D01*
X191990218Y-57280470D01*
X191798799Y-56817200D01*
X191444665Y-56462447D01*
X190981729Y-56270219D01*
X190480470Y-56269782D01*
X190017200Y-56461201D01*
X189662447Y-56815335D01*
X189470219Y-57278271D01*
X189469782Y-57779530D01*
X189639385Y-58190001D01*
X189592463Y-58190001D01*
X189371856Y-57969394D01*
X189449781Y-57781729D01*
X189450218Y-57280470D01*
X189258799Y-56817200D01*
X188904665Y-56462447D01*
X188441729Y-56270219D01*
X188202803Y-56270011D01*
X188182786Y-56249994D01*
X188439530Y-56250218D01*
X188902800Y-56058799D01*
X189257553Y-55704665D01*
X189449781Y-55241729D01*
X189449782Y-55239530D01*
X189469782Y-55239530D01*
X189661201Y-55702800D01*
X190015335Y-56057553D01*
X190478271Y-56249781D01*
X190979530Y-56250218D01*
X191442800Y-56058799D01*
X191797553Y-55704665D01*
X191989781Y-55241729D01*
X191990218Y-54740470D01*
X191798799Y-54277200D01*
X191444665Y-53922447D01*
X190981729Y-53730219D01*
X190480470Y-53729782D01*
X190017200Y-53921201D01*
X189662447Y-54275335D01*
X189470219Y-54738271D01*
X189469782Y-55239530D01*
X189449782Y-55239530D01*
X189450218Y-54740470D01*
X189258799Y-54277200D01*
X188904665Y-53922447D01*
X188441729Y-53730219D01*
X187940470Y-53729782D01*
X187477200Y-53921201D01*
X187122447Y-54275335D01*
X186930219Y-54738271D01*
X186929993Y-54997201D01*
X184632322Y-52699530D01*
X186929782Y-52699530D01*
X187121201Y-53162800D01*
X187475335Y-53517553D01*
X187938271Y-53709781D01*
X188439530Y-53710218D01*
X188902800Y-53518799D01*
X189257553Y-53164665D01*
X189449781Y-52701729D01*
X189449782Y-52699530D01*
X189469782Y-52699530D01*
X189661201Y-53162800D01*
X190015335Y-53517553D01*
X190478271Y-53709781D01*
X190979530Y-53710218D01*
X191442800Y-53518799D01*
X191797553Y-53164665D01*
X191989781Y-52701729D01*
X191989837Y-52636541D01*
X193301248Y-52636541D01*
X193669242Y-53118501D01*
X195060037Y-53693501D01*
X196565007Y-53692497D01*
X197950758Y-53118501D01*
X198318752Y-52636541D01*
X195810000Y-50127789D01*
X193301248Y-52636541D01*
X191989837Y-52636541D01*
X191990218Y-52200470D01*
X191798799Y-51737200D01*
X191444665Y-51382447D01*
X191248630Y-51301046D01*
X191480515Y-51204996D01*
X191565739Y-50963528D01*
X190730000Y-50127789D01*
X189894261Y-50963528D01*
X189979485Y-51204996D01*
X190233683Y-51291752D01*
X190017200Y-51381201D01*
X189662447Y-51735335D01*
X189470219Y-52198271D01*
X189469782Y-52699530D01*
X189449782Y-52699530D01*
X189450218Y-52200470D01*
X189258799Y-51737200D01*
X188904665Y-51382447D01*
X188708630Y-51301046D01*
X188940515Y-51204996D01*
X189025739Y-50963528D01*
X188190000Y-50127789D01*
X187354261Y-50963528D01*
X187439485Y-51204996D01*
X187693683Y-51291752D01*
X187477200Y-51381201D01*
X187122447Y-51735335D01*
X186930219Y-52198271D01*
X186929782Y-52699530D01*
X184632322Y-52699530D01*
X181644980Y-49712188D01*
X186706370Y-49712188D01*
X186743605Y-50295006D01*
X186895004Y-50660515D01*
X187136472Y-50745739D01*
X187972211Y-49910000D01*
X188407789Y-49910000D01*
X189243528Y-50745739D01*
X189460000Y-50669337D01*
X189676472Y-50745739D01*
X190512211Y-49910000D01*
X190947789Y-49910000D01*
X191783528Y-50745739D01*
X192024996Y-50660515D01*
X192027495Y-50653193D01*
X192027503Y-50665007D01*
X192601499Y-52050758D01*
X193083459Y-52418752D01*
X195592211Y-49910000D01*
X196027789Y-49910000D01*
X198536541Y-52418752D01*
X199018501Y-52050758D01*
X199593501Y-50659963D01*
X199592497Y-49154993D01*
X199018501Y-47769242D01*
X198536541Y-47401248D01*
X196027789Y-49910000D01*
X195592211Y-49910000D01*
X193083459Y-47401248D01*
X192601499Y-47769242D01*
X192026499Y-49160037D01*
X192026501Y-49163119D01*
X192024996Y-49159485D01*
X191783528Y-49074261D01*
X190947789Y-49910000D01*
X190512211Y-49910000D01*
X189676472Y-49074261D01*
X189460000Y-49150663D01*
X189243528Y-49074261D01*
X188407789Y-49910000D01*
X187972211Y-49910000D01*
X187136472Y-49074261D01*
X186895004Y-49159485D01*
X186706370Y-49712188D01*
X181644980Y-49712188D01*
X180789264Y-48856472D01*
X187354261Y-48856472D01*
X188190000Y-49692211D01*
X189025739Y-48856472D01*
X189894261Y-48856472D01*
X190730000Y-49692211D01*
X191565739Y-48856472D01*
X191480515Y-48615004D01*
X190927812Y-48426370D01*
X190344994Y-48463605D01*
X189979485Y-48615004D01*
X189894261Y-48856472D01*
X189025739Y-48856472D01*
X188940515Y-48615004D01*
X188387812Y-48426370D01*
X187804994Y-48463605D01*
X187439485Y-48615004D01*
X187354261Y-48856472D01*
X180789264Y-48856472D01*
X179496397Y-47563605D01*
X179204416Y-47368509D01*
X178860001Y-47300001D01*
X159349934Y-47300001D01*
X159398326Y-47183459D01*
X193301248Y-47183459D01*
X195810000Y-49692211D01*
X198318752Y-47183459D01*
X197950758Y-46701499D01*
X196559963Y-46126499D01*
X195054993Y-46127503D01*
X193669242Y-46701499D01*
X193301248Y-47183459D01*
X159398326Y-47183459D01*
X159399843Y-47179806D01*
X159400156Y-46821764D01*
X159263428Y-46490857D01*
X159010475Y-46237462D01*
X158679806Y-46100157D01*
X158321764Y-46099844D01*
X157990857Y-46236572D01*
X157737462Y-46489525D01*
X157600157Y-46820194D01*
X157599844Y-47178236D01*
X157650156Y-47300001D01*
X154049999Y-47300001D01*
X153798635Y-47350000D01*
X148329173Y-47350000D01*
X148399843Y-47179806D01*
X148400156Y-46821764D01*
X148263428Y-46490857D01*
X148010475Y-46237462D01*
X147679806Y-46100157D01*
X147321764Y-46099844D01*
X146990857Y-46236572D01*
X146737462Y-46489525D01*
X146600157Y-46820194D01*
X146599844Y-47178236D01*
X146670815Y-47350000D01*
X122750000Y-47350000D01*
X122405584Y-47418508D01*
X122113604Y-47613604D01*
X108863603Y-60863605D01*
X108668507Y-61155586D01*
X108599999Y-61500001D01*
X108599999Y-117749999D01*
X108668507Y-118094414D01*
X108863603Y-118386395D01*
X122113605Y-131636397D01*
X122405586Y-131831493D01*
X122750001Y-131900001D01*
X162000001Y-131900001D01*
X162000011Y-131899999D01*
X175749999Y-131899999D01*
X176094414Y-131831491D01*
X176386395Y-131636395D01*
X178319262Y-129703528D01*
X187354261Y-129703528D01*
X187439485Y-129944996D01*
X187992188Y-130133630D01*
X188575006Y-130096395D01*
X188940515Y-129944996D01*
X189025739Y-129703528D01*
X188190000Y-128867789D01*
X187354261Y-129703528D01*
X178319262Y-129703528D01*
X179570602Y-128452188D01*
X186706370Y-128452188D01*
X186743605Y-129035006D01*
X186895004Y-129400515D01*
X187136472Y-129485739D01*
X187972211Y-128650000D01*
X188407789Y-128650000D01*
X189243528Y-129485739D01*
X189484996Y-129400515D01*
X189571752Y-129146317D01*
X189661201Y-129362800D01*
X190015335Y-129717553D01*
X190478271Y-129909781D01*
X190979530Y-129910218D01*
X191442800Y-129718799D01*
X191797553Y-129364665D01*
X191878369Y-129170037D01*
X192026499Y-129170037D01*
X192027503Y-130675007D01*
X192601499Y-132060758D01*
X193083459Y-132428752D01*
X195592211Y-129920000D01*
X196027789Y-129920000D01*
X198536541Y-132428752D01*
X199018501Y-132060758D01*
X199593501Y-130669963D01*
X199592497Y-129164993D01*
X199018501Y-127779242D01*
X198536541Y-127411248D01*
X196027789Y-129920000D01*
X195592211Y-129920000D01*
X193083459Y-127411248D01*
X192601499Y-127779242D01*
X192026499Y-129170037D01*
X191878369Y-129170037D01*
X191989781Y-128901729D01*
X191990218Y-128400470D01*
X191798799Y-127937200D01*
X191444665Y-127582447D01*
X190981729Y-127390219D01*
X190480470Y-127389782D01*
X190017200Y-127581201D01*
X189662447Y-127935335D01*
X189581046Y-128131370D01*
X189484996Y-127899485D01*
X189243528Y-127814261D01*
X188407789Y-128650000D01*
X187972211Y-128650000D01*
X187136472Y-127814261D01*
X186895004Y-127899485D01*
X186706370Y-128452188D01*
X179570602Y-128452188D01*
X181512821Y-126509969D01*
X182007820Y-126509969D01*
X182085643Y-126745229D01*
X182616548Y-126923815D01*
X183175382Y-126885637D01*
X183514357Y-126745229D01*
X183592180Y-126509969D01*
X183441741Y-126359530D01*
X186929782Y-126359530D01*
X187121201Y-126822800D01*
X187475335Y-127177553D01*
X187671370Y-127258954D01*
X187439485Y-127355004D01*
X187354261Y-127596472D01*
X188190000Y-128432211D01*
X189025739Y-127596472D01*
X188940515Y-127355004D01*
X188686317Y-127268248D01*
X188902800Y-127178799D01*
X189257553Y-126824665D01*
X189449781Y-126361729D01*
X189449782Y-126359530D01*
X189469782Y-126359530D01*
X189661201Y-126822800D01*
X190015335Y-127177553D01*
X190478271Y-127369781D01*
X190979530Y-127370218D01*
X191407320Y-127193459D01*
X193301248Y-127193459D01*
X195810000Y-129702211D01*
X198318752Y-127193459D01*
X197950758Y-126711499D01*
X196559963Y-126136499D01*
X195054993Y-126137503D01*
X193669242Y-126711499D01*
X193301248Y-127193459D01*
X191407320Y-127193459D01*
X191442800Y-127178799D01*
X191797553Y-126824665D01*
X191989781Y-126361729D01*
X191990218Y-125860470D01*
X191798799Y-125397200D01*
X191444665Y-125042447D01*
X190981729Y-124850219D01*
X190480470Y-124849782D01*
X190017200Y-125041201D01*
X189662447Y-125395335D01*
X189470219Y-125858271D01*
X189469782Y-126359530D01*
X189449782Y-126359530D01*
X189450218Y-125860470D01*
X189258799Y-125397200D01*
X188904665Y-125042447D01*
X188441729Y-124850219D01*
X187940470Y-124849782D01*
X187477200Y-125041201D01*
X187122447Y-125395335D01*
X186930219Y-125858271D01*
X186929782Y-126359530D01*
X183441741Y-126359530D01*
X182800000Y-125717789D01*
X182007820Y-126509969D01*
X181512821Y-126509969D01*
X181745380Y-126277410D01*
X181790031Y-126292180D01*
X182582211Y-125500000D01*
X183017789Y-125500000D01*
X183809969Y-126292180D01*
X184045229Y-126214357D01*
X184223815Y-125683452D01*
X184185637Y-125124618D01*
X184045229Y-124785643D01*
X183809969Y-124707820D01*
X183017789Y-125500000D01*
X182582211Y-125500000D01*
X182568069Y-125485858D01*
X182785858Y-125268069D01*
X182800000Y-125282211D01*
X183592180Y-124490031D01*
X183585554Y-124470000D01*
X187308074Y-124470000D01*
X187475335Y-124637553D01*
X187938271Y-124829781D01*
X188439530Y-124830218D01*
X188902800Y-124638799D01*
X189257553Y-124284665D01*
X189449781Y-123821729D01*
X189449782Y-123819530D01*
X189469782Y-123819530D01*
X189661201Y-124282800D01*
X190015335Y-124637553D01*
X190478271Y-124829781D01*
X190979530Y-124830218D01*
X191442800Y-124638799D01*
X191797553Y-124284665D01*
X191989781Y-123821729D01*
X191990218Y-123320470D01*
X191798799Y-122857200D01*
X191444665Y-122502447D01*
X190981729Y-122310219D01*
X190480470Y-122309782D01*
X190017200Y-122501201D01*
X189662447Y-122855335D01*
X189470219Y-123318271D01*
X189469782Y-123819530D01*
X189449782Y-123819530D01*
X189450218Y-123320470D01*
X189258799Y-122857200D01*
X188904665Y-122502447D01*
X188441729Y-122310219D01*
X187940470Y-122309782D01*
X187477200Y-122501201D01*
X187308106Y-122670000D01*
X183179998Y-122670000D01*
X182835582Y-122738508D01*
X182543602Y-122933604D01*
X181066079Y-124411127D01*
X181014357Y-124254771D01*
X180483452Y-124076185D01*
X179924618Y-124114363D01*
X179585643Y-124254771D01*
X179507820Y-124490031D01*
X180247498Y-125229709D01*
X180029709Y-125447498D01*
X179290031Y-124707820D01*
X179054771Y-124785643D01*
X178941891Y-125121217D01*
X178817903Y-124821143D01*
X178480633Y-124483283D01*
X178039742Y-124300209D01*
X177562353Y-124299793D01*
X177121143Y-124482097D01*
X176783283Y-124819367D01*
X176600209Y-125260258D01*
X176599793Y-125737647D01*
X176782097Y-126178857D01*
X177119367Y-126516717D01*
X177560258Y-126699791D01*
X178037647Y-126700207D01*
X178478857Y-126517903D01*
X178816717Y-126180633D01*
X178928898Y-125910472D01*
X179054771Y-126214357D01*
X179211127Y-126266079D01*
X175377207Y-130099999D01*
X162000003Y-130099999D01*
X161999993Y-130100001D01*
X160025000Y-130100001D01*
X160025000Y-128215002D01*
X160093085Y-128147036D01*
X160199878Y-127889850D01*
X160200121Y-127611372D01*
X160093777Y-127354000D01*
X159897036Y-127156915D01*
X159639850Y-127050122D01*
X159361372Y-127049879D01*
X159104000Y-127156223D01*
X158906915Y-127352964D01*
X158800122Y-127610150D01*
X158799879Y-127888628D01*
X158906223Y-128146000D01*
X158975000Y-128214897D01*
X158975000Y-130100001D01*
X151275000Y-130100001D01*
X151275000Y-124638628D01*
X152799879Y-124638628D01*
X152906223Y-124896000D01*
X153102964Y-125093085D01*
X153360150Y-125199878D01*
X153638628Y-125200121D01*
X153896000Y-125093777D01*
X154093085Y-124897036D01*
X154199878Y-124639850D01*
X154199963Y-124542499D01*
X154388750Y-124353712D01*
X154406223Y-124396000D01*
X154602964Y-124593085D01*
X154860150Y-124699878D01*
X155138628Y-124700121D01*
X155396000Y-124593777D01*
X155593085Y-124397036D01*
X155699878Y-124139850D01*
X155699963Y-124042499D01*
X156496232Y-123246230D01*
X156610038Y-123075908D01*
X156650001Y-122874999D01*
X156650001Y-119125001D01*
X156610038Y-118924092D01*
X156496232Y-118753770D01*
X156442412Y-118699950D01*
X156457501Y-118699963D01*
X157600001Y-119842463D01*
X157600001Y-124157537D01*
X157457575Y-124299963D01*
X157361372Y-124299879D01*
X157104000Y-124406223D01*
X156906915Y-124602964D01*
X156800122Y-124860150D01*
X156799879Y-125138628D01*
X156906223Y-125396000D01*
X157102964Y-125593085D01*
X157360150Y-125699878D01*
X157638628Y-125700121D01*
X157896000Y-125593777D01*
X158093085Y-125397036D01*
X158199878Y-125139850D01*
X158199963Y-125042499D01*
X158496232Y-124746230D01*
X158610038Y-124575908D01*
X158650001Y-124374999D01*
X158650001Y-119625001D01*
X158610038Y-119424092D01*
X158496232Y-119253770D01*
X157200037Y-117957575D01*
X157200121Y-117861372D01*
X157093777Y-117604000D01*
X156897036Y-117406915D01*
X156639850Y-117300122D01*
X156361372Y-117299879D01*
X156104000Y-117406223D01*
X155906915Y-117602964D01*
X155800122Y-117860150D01*
X155800116Y-117866670D01*
X155639850Y-117800122D01*
X155361372Y-117799879D01*
X155104000Y-117906223D01*
X154906915Y-118102964D01*
X154800122Y-118360150D01*
X154799879Y-118638628D01*
X154906223Y-118896000D01*
X155102964Y-119093085D01*
X155360150Y-119199878D01*
X155457501Y-119199963D01*
X155600001Y-119342463D01*
X155600001Y-121800087D01*
X155361372Y-121799879D01*
X155104000Y-121906223D01*
X154906915Y-122102964D01*
X154800122Y-122360150D01*
X154800037Y-122457501D01*
X153457575Y-123799963D01*
X153361372Y-123799879D01*
X153104000Y-123906223D01*
X152906915Y-124102964D01*
X152800122Y-124360150D01*
X152799879Y-124638628D01*
X151275000Y-124638628D01*
X151275000Y-117000000D01*
X151235037Y-116799091D01*
X151218348Y-116774114D01*
X152967462Y-115025000D01*
X155284998Y-115025000D01*
X155352964Y-115093085D01*
X155610150Y-115199878D01*
X155888628Y-115200121D01*
X156146000Y-115093777D01*
X156343085Y-114897036D01*
X156449878Y-114639850D01*
X156450121Y-114361372D01*
X156343777Y-114104000D01*
X156147036Y-113906915D01*
X155889850Y-113800122D01*
X155611372Y-113799879D01*
X155354000Y-113906223D01*
X155285103Y-113975000D01*
X152750000Y-113975000D01*
X152549091Y-114014963D01*
X152432174Y-114093085D01*
X152378769Y-114128769D01*
X151058000Y-115449538D01*
X151058000Y-104300000D01*
X151016419Y-104079018D01*
X150885819Y-103876059D01*
X150686546Y-103739902D01*
X150450000Y-103692000D01*
X135700000Y-103692000D01*
X135479018Y-103733581D01*
X135276059Y-103864181D01*
X135139902Y-104063454D01*
X135092000Y-104300000D01*
X135092000Y-125600000D01*
X135133581Y-125820982D01*
X135264181Y-126023941D01*
X135463454Y-126160098D01*
X135700000Y-126208000D01*
X144100000Y-126208000D01*
X144100000Y-127000000D01*
X144168508Y-127344415D01*
X144363604Y-127636396D01*
X144386641Y-127651789D01*
X144300122Y-127860150D01*
X144299879Y-128138628D01*
X144406223Y-128396000D01*
X144510050Y-128500009D01*
X144406915Y-128602964D01*
X144300122Y-128860150D01*
X144299879Y-129138628D01*
X144406223Y-129396000D01*
X144602964Y-129593085D01*
X144860150Y-129699878D01*
X145138628Y-129700121D01*
X145396000Y-129593777D01*
X145593085Y-129397036D01*
X145699878Y-129139850D01*
X145700121Y-128861372D01*
X145593777Y-128604000D01*
X145489950Y-128499991D01*
X145593085Y-128397036D01*
X145699878Y-128139850D01*
X145700121Y-127861372D01*
X145613487Y-127651703D01*
X145636396Y-127636396D01*
X145831492Y-127344415D01*
X145900000Y-127000000D01*
X145900000Y-126208000D01*
X150225000Y-126208000D01*
X150225000Y-130100001D01*
X147025000Y-130100001D01*
X147025000Y-128215002D01*
X147093085Y-128147036D01*
X147199878Y-127889850D01*
X147200121Y-127611372D01*
X147093777Y-127354000D01*
X146897036Y-127156915D01*
X146639850Y-127050122D01*
X146361372Y-127049879D01*
X146104000Y-127156223D01*
X145906915Y-127352964D01*
X145800122Y-127610150D01*
X145799879Y-127888628D01*
X145906223Y-128146000D01*
X145975000Y-128214897D01*
X145975000Y-130100001D01*
X123122793Y-130100001D01*
X110399999Y-117377207D01*
X110399999Y-107138628D01*
X124049879Y-107138628D01*
X124156223Y-107396000D01*
X124352964Y-107593085D01*
X124610150Y-107699878D01*
X124888628Y-107700121D01*
X125039326Y-107637854D01*
X128575736Y-111174264D01*
X128770390Y-111304328D01*
X129000000Y-111350000D01*
X131619617Y-111350000D01*
X131860150Y-111449878D01*
X132138628Y-111450121D01*
X132396000Y-111343777D01*
X132593085Y-111147036D01*
X132699878Y-110889850D01*
X132700121Y-110611372D01*
X132593777Y-110354000D01*
X132397036Y-110156915D01*
X132139850Y-110050122D01*
X131861372Y-110049879D01*
X131619061Y-110150000D01*
X129248528Y-110150000D01*
X125674264Y-106575736D01*
X125479610Y-106445672D01*
X125250000Y-106400000D01*
X125130383Y-106400000D01*
X124889850Y-106300122D01*
X124611372Y-106299879D01*
X124354000Y-106406223D01*
X124156915Y-106602964D01*
X124050122Y-106860150D01*
X124049879Y-107138628D01*
X110399999Y-107138628D01*
X110399999Y-104738628D01*
X124749879Y-104738628D01*
X124856223Y-104996000D01*
X125052964Y-105193085D01*
X125295101Y-105293629D01*
X129425736Y-109424264D01*
X129620389Y-109554328D01*
X129850000Y-109600000D01*
X131619617Y-109600000D01*
X131860150Y-109699878D01*
X132138628Y-109700121D01*
X132396000Y-109593777D01*
X132593085Y-109397036D01*
X132699878Y-109139850D01*
X132700121Y-108861372D01*
X132593777Y-108604000D01*
X132397036Y-108406915D01*
X132139850Y-108300122D01*
X131861372Y-108299879D01*
X131619061Y-108400000D01*
X130098528Y-108400000D01*
X126143235Y-104444707D01*
X126043777Y-104204000D01*
X125847036Y-104006915D01*
X125589850Y-103900122D01*
X125311372Y-103899879D01*
X125054000Y-104006223D01*
X124856915Y-104202964D01*
X124750122Y-104460150D01*
X124749879Y-104738628D01*
X110399999Y-104738628D01*
X110399999Y-94525000D01*
X112534998Y-94525000D01*
X112602964Y-94593085D01*
X112860150Y-94699878D01*
X113138628Y-94700121D01*
X113396000Y-94593777D01*
X113593085Y-94397036D01*
X113699878Y-94139850D01*
X113700121Y-93861372D01*
X113593777Y-93604000D01*
X113397036Y-93406915D01*
X113139850Y-93300122D01*
X112861372Y-93299879D01*
X112604000Y-93406223D01*
X112535103Y-93475000D01*
X110399999Y-93475000D01*
X110399999Y-92350000D01*
X115999470Y-92350000D01*
X116823734Y-93174264D01*
X117018388Y-93304328D01*
X117160413Y-93332578D01*
X116319428Y-93680066D01*
X115502933Y-94495137D01*
X115060505Y-95560624D01*
X115059498Y-96714315D01*
X115500066Y-97780572D01*
X116315137Y-98597067D01*
X117380624Y-99039495D01*
X118534315Y-99040502D01*
X119600572Y-98599934D01*
X120417067Y-97784863D01*
X120859495Y-96719376D01*
X120860502Y-95565685D01*
X120419934Y-94499428D01*
X119604863Y-93682933D01*
X118803070Y-93350000D01*
X121975000Y-93350000D01*
X121975000Y-93925002D01*
X122014963Y-94125911D01*
X122128769Y-94296233D01*
X127156552Y-99324016D01*
X127326874Y-99437822D01*
X127527783Y-99477785D01*
X130808605Y-99477785D01*
X130876571Y-99545870D01*
X131133757Y-99652663D01*
X131412235Y-99652906D01*
X131669607Y-99546562D01*
X131866692Y-99349821D01*
X131973485Y-99092635D01*
X131973728Y-98814157D01*
X131867384Y-98556785D01*
X131670643Y-98359700D01*
X131413457Y-98252907D01*
X131134979Y-98252664D01*
X130877607Y-98359008D01*
X130808710Y-98427785D01*
X127745245Y-98427785D01*
X127653625Y-98336165D01*
X127843085Y-98147036D01*
X127949878Y-97889850D01*
X127950121Y-97611372D01*
X127843777Y-97354000D01*
X127647036Y-97156915D01*
X127389850Y-97050122D01*
X127111372Y-97049879D01*
X126854000Y-97156223D01*
X126785103Y-97225000D01*
X126542460Y-97225000D01*
X126517475Y-97200015D01*
X126638628Y-97200121D01*
X126896000Y-97093777D01*
X126964897Y-97025000D01*
X133534998Y-97025000D01*
X133602964Y-97093085D01*
X133860150Y-97199878D01*
X134138628Y-97200121D01*
X134396000Y-97093777D01*
X134593085Y-96897036D01*
X134699878Y-96639850D01*
X134700121Y-96361372D01*
X134593777Y-96104000D01*
X134397036Y-95906915D01*
X134139850Y-95800122D01*
X133861372Y-95799879D01*
X133604000Y-95906223D01*
X133535103Y-95975000D01*
X132442464Y-95975000D01*
X132737560Y-95679904D01*
X132946003Y-95593777D01*
X133143088Y-95397036D01*
X133249881Y-95139850D01*
X133250124Y-94861372D01*
X133143780Y-94604000D01*
X132947039Y-94406915D01*
X132689853Y-94300122D01*
X132411375Y-94299879D01*
X132154003Y-94406223D01*
X132150167Y-94410052D01*
X132147036Y-94406915D01*
X131889850Y-94300122D01*
X131792499Y-94300037D01*
X131296230Y-93803768D01*
X131125908Y-93689962D01*
X130924999Y-93649999D01*
X130914432Y-93649999D01*
X130843777Y-93479000D01*
X130647036Y-93281915D01*
X130389850Y-93175122D01*
X130111372Y-93174879D01*
X129854000Y-93281223D01*
X129656915Y-93477964D01*
X129550122Y-93735150D01*
X129549879Y-94013628D01*
X129656223Y-94271000D01*
X129852964Y-94468085D01*
X130110150Y-94574878D01*
X130221788Y-94574975D01*
X130349090Y-94660036D01*
X130549999Y-94699999D01*
X130707537Y-94699999D01*
X131049963Y-95042425D01*
X131049879Y-95138628D01*
X131110419Y-95285146D01*
X125674579Y-95285146D01*
X125603924Y-95114147D01*
X125407183Y-94917062D01*
X125149997Y-94810269D01*
X124871519Y-94810026D01*
X124614147Y-94916370D01*
X124423822Y-95106362D01*
X123025000Y-93707540D01*
X123025000Y-93023502D01*
X123054328Y-92979610D01*
X123064627Y-92927835D01*
X127467462Y-88525000D01*
X129284998Y-88525000D01*
X129352964Y-88593085D01*
X129610150Y-88699878D01*
X129888628Y-88700121D01*
X130146000Y-88593777D01*
X130343085Y-88397036D01*
X130414520Y-88225001D01*
X132106241Y-88225001D01*
X132050122Y-88360150D01*
X132049879Y-88638628D01*
X132116599Y-88800102D01*
X131861372Y-88799879D01*
X131604000Y-88906223D01*
X131535103Y-88975000D01*
X128000000Y-88975000D01*
X127799091Y-89014963D01*
X127628769Y-89128769D01*
X127457575Y-89299963D01*
X127361372Y-89299879D01*
X127104000Y-89406223D01*
X126906915Y-89602964D01*
X126800122Y-89860150D01*
X126799879Y-90138628D01*
X126906223Y-90396000D01*
X127010050Y-90500009D01*
X126906915Y-90602964D01*
X126800122Y-90860150D01*
X126799879Y-91138628D01*
X126906223Y-91396000D01*
X127102964Y-91593085D01*
X127360150Y-91699878D01*
X127638628Y-91700121D01*
X127896000Y-91593777D01*
X128093085Y-91397036D01*
X128199878Y-91139850D01*
X128199963Y-91042499D01*
X128592462Y-90650000D01*
X130602581Y-90650000D01*
X130670547Y-90718085D01*
X130927733Y-90824878D01*
X131206211Y-90825121D01*
X131463583Y-90718777D01*
X131660668Y-90522036D01*
X131767461Y-90264850D01*
X131767551Y-90161428D01*
X131860150Y-90199878D01*
X132138628Y-90200121D01*
X132396000Y-90093777D01*
X132593085Y-89897036D01*
X132699878Y-89639850D01*
X132700121Y-89361372D01*
X132633401Y-89199898D01*
X132707501Y-89199963D01*
X132878769Y-89371231D01*
X133049091Y-89485037D01*
X133250000Y-89525000D01*
X155692000Y-89525000D01*
X155692000Y-90065538D01*
X153878769Y-91878769D01*
X153764963Y-92049091D01*
X153725000Y-92250000D01*
X153725000Y-92829275D01*
X153639850Y-92793918D01*
X153361372Y-92793675D01*
X153104000Y-92900019D01*
X152906915Y-93096760D01*
X152800122Y-93353946D01*
X152799879Y-93632424D01*
X152906223Y-93889796D01*
X153102964Y-94086881D01*
X153225000Y-94137555D01*
X153225000Y-100750000D01*
X153264963Y-100950909D01*
X153378769Y-101121231D01*
X155713014Y-103455476D01*
X155733581Y-103564778D01*
X155864181Y-103767737D01*
X156063454Y-103903894D01*
X156186311Y-103928773D01*
X156725000Y-104467462D01*
X156725000Y-112500000D01*
X156764963Y-112700909D01*
X156799997Y-112753341D01*
X156799879Y-112888628D01*
X156906223Y-113146000D01*
X157102964Y-113343085D01*
X157360150Y-113449878D01*
X157638628Y-113450121D01*
X157896000Y-113343777D01*
X158000009Y-113239950D01*
X158102964Y-113343085D01*
X158360150Y-113449878D01*
X158638628Y-113450121D01*
X158896000Y-113343777D01*
X159093085Y-113147036D01*
X159100000Y-113130383D01*
X159100000Y-119240030D01*
X159050122Y-119360150D01*
X159049879Y-119638628D01*
X159100000Y-119759930D01*
X159100000Y-126100000D01*
X159106839Y-126136346D01*
X159128319Y-126169727D01*
X159161094Y-126192121D01*
X159200000Y-126200000D01*
X173950000Y-126200000D01*
X173986346Y-126193161D01*
X174019727Y-126171681D01*
X174042121Y-126138906D01*
X174050000Y-126100000D01*
X174050000Y-121279530D01*
X186929782Y-121279530D01*
X187121201Y-121742800D01*
X187475335Y-122097553D01*
X187938271Y-122289781D01*
X188439530Y-122290218D01*
X188902800Y-122098799D01*
X189257553Y-121744665D01*
X189449781Y-121281729D01*
X189449782Y-121279530D01*
X189469782Y-121279530D01*
X189661201Y-121742800D01*
X190015335Y-122097553D01*
X190478271Y-122289781D01*
X190979530Y-122290218D01*
X191442800Y-122098799D01*
X191797553Y-121744665D01*
X191989781Y-121281729D01*
X191990218Y-120780470D01*
X191798799Y-120317200D01*
X191444665Y-119962447D01*
X190981729Y-119770219D01*
X190480470Y-119769782D01*
X190017200Y-119961201D01*
X189662447Y-120315335D01*
X189470219Y-120778271D01*
X189469782Y-121279530D01*
X189449782Y-121279530D01*
X189450218Y-120780470D01*
X189258799Y-120317200D01*
X188904665Y-119962447D01*
X188441729Y-119770219D01*
X187940470Y-119769782D01*
X187477200Y-119961201D01*
X187122447Y-120315335D01*
X186930219Y-120778271D01*
X186929782Y-121279530D01*
X174050000Y-121279530D01*
X174050000Y-118739530D01*
X186929782Y-118739530D01*
X187121201Y-119202800D01*
X187475335Y-119557553D01*
X187938271Y-119749781D01*
X188439530Y-119750218D01*
X188902800Y-119558799D01*
X189257553Y-119204665D01*
X189449781Y-118741729D01*
X189449782Y-118739530D01*
X189469782Y-118739530D01*
X189661201Y-119202800D01*
X190015335Y-119557553D01*
X190478271Y-119749781D01*
X190979530Y-119750218D01*
X191442800Y-119558799D01*
X191797553Y-119204665D01*
X191989781Y-118741729D01*
X191990218Y-118240470D01*
X191798799Y-117777200D01*
X191444665Y-117422447D01*
X190981729Y-117230219D01*
X190480470Y-117229782D01*
X190017200Y-117421201D01*
X189662447Y-117775335D01*
X189470219Y-118238271D01*
X189469782Y-118739530D01*
X189449782Y-118739530D01*
X189450218Y-118240470D01*
X189258799Y-117777200D01*
X188904665Y-117422447D01*
X188441729Y-117230219D01*
X187940470Y-117229782D01*
X187477200Y-117421201D01*
X187122447Y-117775335D01*
X186930219Y-118238271D01*
X186929782Y-118739530D01*
X174050000Y-118739530D01*
X174050000Y-116199530D01*
X186929782Y-116199530D01*
X187121201Y-116662800D01*
X187475335Y-117017553D01*
X187938271Y-117209781D01*
X188439530Y-117210218D01*
X188902800Y-117018799D01*
X189257553Y-116664665D01*
X189449781Y-116201729D01*
X189449782Y-116199530D01*
X189469782Y-116199530D01*
X189661201Y-116662800D01*
X190015335Y-117017553D01*
X190478271Y-117209781D01*
X190979530Y-117210218D01*
X191442800Y-117018799D01*
X191797553Y-116664665D01*
X191989781Y-116201729D01*
X191990218Y-115700470D01*
X191798799Y-115237200D01*
X191444665Y-114882447D01*
X190981729Y-114690219D01*
X190480470Y-114689782D01*
X190017200Y-114881201D01*
X189662447Y-115235335D01*
X189470219Y-115698271D01*
X189469782Y-116199530D01*
X189449782Y-116199530D01*
X189450218Y-115700470D01*
X189258799Y-115237200D01*
X188904665Y-114882447D01*
X188441729Y-114690219D01*
X187940470Y-114689782D01*
X187477200Y-114881201D01*
X187122447Y-115235335D01*
X186930219Y-115698271D01*
X186929782Y-116199530D01*
X174050000Y-116199530D01*
X174050000Y-113659530D01*
X186929782Y-113659530D01*
X187121201Y-114122800D01*
X187475335Y-114477553D01*
X187938271Y-114669781D01*
X188439530Y-114670218D01*
X188902800Y-114478799D01*
X189257553Y-114124665D01*
X189449781Y-113661729D01*
X189449782Y-113659530D01*
X189469782Y-113659530D01*
X189661201Y-114122800D01*
X190015335Y-114477553D01*
X190478271Y-114669781D01*
X190979530Y-114670218D01*
X191442800Y-114478799D01*
X191797553Y-114124665D01*
X191989781Y-113661729D01*
X191990218Y-113160470D01*
X191798799Y-112697200D01*
X191444665Y-112342447D01*
X190981729Y-112150219D01*
X190480470Y-112149782D01*
X190017200Y-112341201D01*
X189662447Y-112695335D01*
X189470219Y-113158271D01*
X189469782Y-113659530D01*
X189449782Y-113659530D01*
X189450218Y-113160470D01*
X189258799Y-112697200D01*
X188904665Y-112342447D01*
X188441729Y-112150219D01*
X187940470Y-112149782D01*
X187477200Y-112341201D01*
X187122447Y-112695335D01*
X186930219Y-113158271D01*
X186929782Y-113659530D01*
X174050000Y-113659530D01*
X174050000Y-111119530D01*
X186929782Y-111119530D01*
X187121201Y-111582800D01*
X187475335Y-111937553D01*
X187938271Y-112129781D01*
X188439530Y-112130218D01*
X188902800Y-111938799D01*
X189257553Y-111584665D01*
X189449781Y-111121729D01*
X189449782Y-111119530D01*
X189469782Y-111119530D01*
X189661201Y-111582800D01*
X190015335Y-111937553D01*
X190478271Y-112129781D01*
X190979530Y-112130218D01*
X191442800Y-111938799D01*
X191797553Y-111584665D01*
X191989781Y-111121729D01*
X191990218Y-110620470D01*
X191798799Y-110157200D01*
X191444665Y-109802447D01*
X190981729Y-109610219D01*
X190480470Y-109609782D01*
X190017200Y-109801201D01*
X189662447Y-110155335D01*
X189470219Y-110618271D01*
X189469782Y-111119530D01*
X189449782Y-111119530D01*
X189450218Y-110620470D01*
X189258799Y-110157200D01*
X188904665Y-109802447D01*
X188441729Y-109610219D01*
X187940470Y-109609782D01*
X187477200Y-109801201D01*
X187122447Y-110155335D01*
X186930219Y-110618271D01*
X186929782Y-111119530D01*
X174050000Y-111119530D01*
X174050000Y-104800000D01*
X174043161Y-104763654D01*
X174021681Y-104730273D01*
X173988906Y-104707879D01*
X173950000Y-104700000D01*
X159200000Y-104700000D01*
X159163654Y-104706839D01*
X159130273Y-104728319D01*
X159107879Y-104761094D01*
X159100000Y-104800000D01*
X159100000Y-111546864D01*
X158725010Y-111171874D01*
X158725010Y-103951796D01*
X177600000Y-103951796D01*
X177820982Y-103910215D01*
X178023941Y-103779615D01*
X178160098Y-103580342D01*
X178208000Y-103343796D01*
X178208000Y-99903519D01*
X178363604Y-100136396D01*
X184363604Y-106136396D01*
X184655585Y-106331492D01*
X185000000Y-106400000D01*
X185300009Y-106340325D01*
X185300009Y-108174991D01*
X185339972Y-108375900D01*
X185453778Y-108546222D01*
X185608787Y-108701231D01*
X185779109Y-108815037D01*
X185980018Y-108855000D01*
X187043604Y-108855000D01*
X187121201Y-109042800D01*
X187475335Y-109397553D01*
X187938271Y-109589781D01*
X188439530Y-109590218D01*
X188902800Y-109398799D01*
X189257553Y-109044665D01*
X189449781Y-108581729D01*
X189449782Y-108579530D01*
X189469782Y-108579530D01*
X189661201Y-109042800D01*
X190015335Y-109397553D01*
X190478271Y-109589781D01*
X190979530Y-109590218D01*
X191442800Y-109398799D01*
X191797553Y-109044665D01*
X191989781Y-108581729D01*
X191990218Y-108080470D01*
X191798799Y-107617200D01*
X191444665Y-107262447D01*
X190981729Y-107070219D01*
X190480470Y-107069782D01*
X190017200Y-107261201D01*
X189662447Y-107615335D01*
X189470219Y-108078271D01*
X189469782Y-108579530D01*
X189449782Y-108579530D01*
X189450218Y-108080470D01*
X189258799Y-107617200D01*
X188904665Y-107262447D01*
X188441729Y-107070219D01*
X187940470Y-107069782D01*
X187477200Y-107261201D01*
X187122447Y-107615335D01*
X187043691Y-107805000D01*
X186350009Y-107805000D01*
X186350009Y-106039530D01*
X186929782Y-106039530D01*
X187121201Y-106502800D01*
X187475335Y-106857553D01*
X187938271Y-107049781D01*
X188439530Y-107050218D01*
X188902800Y-106858799D01*
X189257553Y-106504665D01*
X189449781Y-106041729D01*
X189449782Y-106039530D01*
X189469782Y-106039530D01*
X189661201Y-106502800D01*
X190015335Y-106857553D01*
X190478271Y-107049781D01*
X190979530Y-107050218D01*
X191442800Y-106858799D01*
X191797553Y-106504665D01*
X191989781Y-106041729D01*
X191990218Y-105540470D01*
X191798799Y-105077200D01*
X191444665Y-104722447D01*
X190981729Y-104530219D01*
X190480470Y-104529782D01*
X190017200Y-104721201D01*
X189662447Y-105075335D01*
X189470219Y-105538271D01*
X189469782Y-106039530D01*
X189449782Y-106039530D01*
X189450218Y-105540470D01*
X189258799Y-105077200D01*
X188904665Y-104722447D01*
X188441729Y-104530219D01*
X187940470Y-104529782D01*
X187477200Y-104721201D01*
X187122447Y-105075335D01*
X186930219Y-105538271D01*
X186929782Y-106039530D01*
X186350009Y-106039530D01*
X186350009Y-103499530D01*
X186929782Y-103499530D01*
X187121201Y-103962800D01*
X187475335Y-104317553D01*
X187938271Y-104509781D01*
X188439530Y-104510218D01*
X188902800Y-104318799D01*
X189257553Y-103964665D01*
X189449781Y-103501729D01*
X189449782Y-103499530D01*
X189469782Y-103499530D01*
X189661201Y-103962800D01*
X190015335Y-104317553D01*
X190478271Y-104509781D01*
X190979530Y-104510218D01*
X191442800Y-104318799D01*
X191797553Y-103964665D01*
X191989781Y-103501729D01*
X191990218Y-103000470D01*
X191798799Y-102537200D01*
X191444665Y-102182447D01*
X190981729Y-101990219D01*
X190480470Y-101989782D01*
X190017200Y-102181201D01*
X189662447Y-102535335D01*
X189470219Y-102998271D01*
X189469782Y-103499530D01*
X189449782Y-103499530D01*
X189450218Y-103000470D01*
X189258799Y-102537200D01*
X188904665Y-102182447D01*
X188441729Y-101990219D01*
X187940470Y-101989782D01*
X187477200Y-102181201D01*
X187122447Y-102535335D01*
X186930219Y-102998271D01*
X186929782Y-103499530D01*
X186350009Y-103499530D01*
X186350009Y-100959530D01*
X186929782Y-100959530D01*
X187121201Y-101422800D01*
X187475335Y-101777553D01*
X187938271Y-101969781D01*
X188439530Y-101970218D01*
X188902800Y-101778799D01*
X189257553Y-101424665D01*
X189449781Y-100961729D01*
X189449782Y-100959530D01*
X189469782Y-100959530D01*
X189661201Y-101422800D01*
X190015335Y-101777553D01*
X190478271Y-101969781D01*
X190979530Y-101970218D01*
X191442800Y-101778799D01*
X191797553Y-101424665D01*
X191989781Y-100961729D01*
X191990218Y-100460470D01*
X191798799Y-99997200D01*
X191444665Y-99642447D01*
X190981729Y-99450219D01*
X190480470Y-99449782D01*
X190017200Y-99641201D01*
X189662447Y-99995335D01*
X189470219Y-100458271D01*
X189469782Y-100959530D01*
X189449782Y-100959530D01*
X189450218Y-100460470D01*
X189258799Y-99997200D01*
X188904665Y-99642447D01*
X188441729Y-99450219D01*
X187940470Y-99449782D01*
X187477200Y-99641201D01*
X187122447Y-99995335D01*
X186930219Y-100458271D01*
X186929782Y-100959530D01*
X186350009Y-100959530D01*
X186350009Y-98419530D01*
X186929782Y-98419530D01*
X187121201Y-98882800D01*
X187475335Y-99237553D01*
X187938271Y-99429781D01*
X188439530Y-99430218D01*
X188902800Y-99238799D01*
X189257553Y-98884665D01*
X189449781Y-98421729D01*
X189449782Y-98419530D01*
X189469782Y-98419530D01*
X189661201Y-98882800D01*
X190015335Y-99237553D01*
X190478271Y-99429781D01*
X190979530Y-99430218D01*
X191442800Y-99238799D01*
X191797553Y-98884665D01*
X191989781Y-98421729D01*
X191990218Y-97920470D01*
X191798799Y-97457200D01*
X191444665Y-97102447D01*
X190981729Y-96910219D01*
X190480470Y-96909782D01*
X190017200Y-97101201D01*
X189662447Y-97455335D01*
X189470219Y-97918271D01*
X189469782Y-98419530D01*
X189449782Y-98419530D01*
X189450218Y-97920470D01*
X189258799Y-97457200D01*
X188904665Y-97102447D01*
X188441729Y-96910219D01*
X187940470Y-96909782D01*
X187477200Y-97101201D01*
X187122447Y-97455335D01*
X186930219Y-97918271D01*
X186929782Y-98419530D01*
X186350009Y-98419530D01*
X186350009Y-95879530D01*
X186929782Y-95879530D01*
X187121201Y-96342800D01*
X187475335Y-96697553D01*
X187938271Y-96889781D01*
X188439530Y-96890218D01*
X188902800Y-96698799D01*
X189257553Y-96344665D01*
X189449781Y-95881729D01*
X189449782Y-95879530D01*
X189469782Y-95879530D01*
X189661201Y-96342800D01*
X190015335Y-96697553D01*
X190478271Y-96889781D01*
X190979530Y-96890218D01*
X191442800Y-96698799D01*
X191797553Y-96344665D01*
X191989781Y-95881729D01*
X191989958Y-95678236D01*
X198099844Y-95678236D01*
X198236572Y-96009143D01*
X198489525Y-96262538D01*
X198820194Y-96399843D01*
X199178236Y-96400156D01*
X199509143Y-96263428D01*
X199762538Y-96010475D01*
X199899843Y-95679806D01*
X199900156Y-95321764D01*
X199763428Y-94990857D01*
X199510475Y-94737462D01*
X199179806Y-94600157D01*
X198821764Y-94599844D01*
X198490857Y-94736572D01*
X198237462Y-94989525D01*
X198100157Y-95320194D01*
X198099844Y-95678236D01*
X191989958Y-95678236D01*
X191990218Y-95380470D01*
X191798799Y-94917200D01*
X191444665Y-94562447D01*
X190981729Y-94370219D01*
X190480470Y-94369782D01*
X190017200Y-94561201D01*
X189662447Y-94915335D01*
X189470219Y-95378271D01*
X189469782Y-95879530D01*
X189449782Y-95879530D01*
X189450218Y-95380470D01*
X189258799Y-94917200D01*
X188904665Y-94562447D01*
X188441729Y-94370219D01*
X187940470Y-94369782D01*
X187477200Y-94561201D01*
X187122447Y-94915335D01*
X186930219Y-95378271D01*
X186929782Y-95879530D01*
X186350009Y-95879530D01*
X186350009Y-93339530D01*
X186929782Y-93339530D01*
X187121201Y-93802800D01*
X187475335Y-94157553D01*
X187938271Y-94349781D01*
X188439530Y-94350218D01*
X188902800Y-94158799D01*
X189257553Y-93804665D01*
X189449781Y-93341729D01*
X189449782Y-93339530D01*
X189469782Y-93339530D01*
X189661201Y-93802800D01*
X190015335Y-94157553D01*
X190478271Y-94349781D01*
X190979530Y-94350218D01*
X191442800Y-94158799D01*
X191797553Y-93804665D01*
X191989781Y-93341729D01*
X191990218Y-92840470D01*
X191798799Y-92377200D01*
X191444665Y-92022447D01*
X190981729Y-91830219D01*
X190480470Y-91829782D01*
X190017200Y-92021201D01*
X189662447Y-92375335D01*
X189470219Y-92838271D01*
X189469782Y-93339530D01*
X189449782Y-93339530D01*
X189450218Y-92840470D01*
X189258799Y-92377200D01*
X188904665Y-92022447D01*
X188441729Y-91830219D01*
X187940470Y-91829782D01*
X187477200Y-92021201D01*
X187122447Y-92375335D01*
X186930219Y-92838271D01*
X186929782Y-93339530D01*
X186350009Y-93339530D01*
X186350009Y-90799530D01*
X186929782Y-90799530D01*
X187121201Y-91262800D01*
X187475335Y-91617553D01*
X187938271Y-91809781D01*
X188439530Y-91810218D01*
X188902800Y-91618799D01*
X189257553Y-91264665D01*
X189449781Y-90801729D01*
X189449782Y-90799530D01*
X189469782Y-90799530D01*
X189661201Y-91262800D01*
X190015335Y-91617553D01*
X190478271Y-91809781D01*
X190979530Y-91810218D01*
X191442800Y-91618799D01*
X191797553Y-91264665D01*
X191989781Y-90801729D01*
X191990218Y-90300470D01*
X191798799Y-89837200D01*
X191444665Y-89482447D01*
X190981729Y-89290219D01*
X190480470Y-89289782D01*
X190017200Y-89481201D01*
X189662447Y-89835335D01*
X189470219Y-90298271D01*
X189469782Y-90799530D01*
X189449782Y-90799530D01*
X189450218Y-90300470D01*
X189258799Y-89837200D01*
X188904665Y-89482447D01*
X188441729Y-89290219D01*
X187940470Y-89289782D01*
X187477200Y-89481201D01*
X187122447Y-89835335D01*
X186930219Y-90298271D01*
X186929782Y-90799530D01*
X186350009Y-90799530D01*
X186350009Y-89075009D01*
X186310046Y-88874100D01*
X186196240Y-88703778D01*
X185950037Y-88457575D01*
X185950121Y-88361372D01*
X185843777Y-88104000D01*
X185647036Y-87906915D01*
X185389850Y-87800122D01*
X185111372Y-87799879D01*
X184950117Y-87866508D01*
X184950165Y-87811862D01*
X184883285Y-87649999D01*
X186975178Y-87649999D01*
X186930219Y-87758271D01*
X186929782Y-88259530D01*
X187121201Y-88722800D01*
X187475335Y-89077553D01*
X187938271Y-89269781D01*
X188439530Y-89270218D01*
X188902800Y-89078799D01*
X189257553Y-88724665D01*
X189449781Y-88261729D01*
X189449782Y-88259530D01*
X189469782Y-88259530D01*
X189661201Y-88722800D01*
X190015335Y-89077553D01*
X190478271Y-89269781D01*
X190979530Y-89270218D01*
X191442800Y-89078799D01*
X191797553Y-88724665D01*
X191989781Y-88261729D01*
X191990218Y-87760470D01*
X191798799Y-87297200D01*
X191444665Y-86942447D01*
X190981729Y-86750219D01*
X190480470Y-86749782D01*
X190017200Y-86941201D01*
X189662447Y-87295335D01*
X189470219Y-87758271D01*
X189469782Y-88259530D01*
X189449782Y-88259530D01*
X189450218Y-87760470D01*
X189371794Y-87570668D01*
X189746232Y-87196230D01*
X189860038Y-87025908D01*
X189900001Y-86824999D01*
X189900001Y-86422017D01*
X190015335Y-86537553D01*
X190478271Y-86729781D01*
X190979530Y-86730218D01*
X191442800Y-86538799D01*
X191797553Y-86184665D01*
X191946628Y-85825652D01*
X193148624Y-87027648D01*
X193148540Y-87123851D01*
X193254884Y-87381223D01*
X193451625Y-87578308D01*
X193708811Y-87685101D01*
X193987289Y-87685344D01*
X194244661Y-87579000D01*
X194441746Y-87382259D01*
X194548539Y-87125073D01*
X194548607Y-87047157D01*
X194701626Y-87200444D01*
X194958812Y-87307237D01*
X195237290Y-87307480D01*
X195494662Y-87201136D01*
X195691747Y-87004395D01*
X195725001Y-86924311D01*
X195725001Y-87595516D01*
X195380084Y-87940433D01*
X195209208Y-87869479D01*
X194930730Y-87869236D01*
X194673358Y-87975580D01*
X194476273Y-88172321D01*
X194369480Y-88429507D01*
X194369237Y-88707985D01*
X194475581Y-88965357D01*
X194672322Y-89162442D01*
X194929508Y-89269235D01*
X195207986Y-89269478D01*
X195465358Y-89163134D01*
X195544367Y-89084263D01*
X195694531Y-89054394D01*
X195864853Y-88940588D01*
X196621232Y-88184209D01*
X196735038Y-88013887D01*
X196775001Y-87812978D01*
X196775001Y-86200022D01*
X196849585Y-86200087D01*
X196871767Y-86253772D01*
X197068508Y-86450857D01*
X197325694Y-86557650D01*
X197604172Y-86557893D01*
X197702515Y-86517259D01*
X197841604Y-86656591D01*
X198098790Y-86763384D01*
X198351518Y-86763605D01*
X198406223Y-86896000D01*
X198485094Y-86975009D01*
X198514963Y-87125173D01*
X198628769Y-87295495D01*
X198799091Y-87409301D01*
X199000000Y-87449264D01*
X199200909Y-87409301D01*
X199371231Y-87295495D01*
X200415000Y-86251726D01*
X200415000Y-134525000D01*
X105475000Y-134525000D01*
X105475000Y-133178236D01*
X146599844Y-133178236D01*
X146736572Y-133509143D01*
X146989525Y-133762538D01*
X147320194Y-133899843D01*
X147678236Y-133900156D01*
X148009143Y-133763428D01*
X148262538Y-133510475D01*
X148399843Y-133179806D01*
X148399844Y-133178236D01*
X157599844Y-133178236D01*
X157736572Y-133509143D01*
X157989525Y-133762538D01*
X158320194Y-133899843D01*
X158678236Y-133900156D01*
X159009143Y-133763428D01*
X159262538Y-133510475D01*
X159399843Y-133179806D01*
X159400156Y-132821764D01*
X159327756Y-132646541D01*
X193301248Y-132646541D01*
X193669242Y-133128501D01*
X195060037Y-133703501D01*
X196565007Y-133702497D01*
X197950758Y-133128501D01*
X198318752Y-132646541D01*
X195810000Y-130137789D01*
X193301248Y-132646541D01*
X159327756Y-132646541D01*
X159263428Y-132490857D01*
X159010475Y-132237462D01*
X158679806Y-132100157D01*
X158321764Y-132099844D01*
X157990857Y-132236572D01*
X157737462Y-132489525D01*
X157600157Y-132820194D01*
X157599844Y-133178236D01*
X148399844Y-133178236D01*
X148400156Y-132821764D01*
X148263428Y-132490857D01*
X148010475Y-132237462D01*
X147679806Y-132100157D01*
X147321764Y-132099844D01*
X146990857Y-132236572D01*
X146737462Y-132489525D01*
X146600157Y-132820194D01*
X146599844Y-133178236D01*
X105475000Y-133178236D01*
X105475000Y-128836541D01*
X107571248Y-128836541D01*
X107939242Y-129318501D01*
X109330037Y-129893501D01*
X110835007Y-129892497D01*
X112220758Y-129318501D01*
X112588752Y-128836541D01*
X110080000Y-126327789D01*
X107571248Y-128836541D01*
X105475000Y-128836541D01*
X105475000Y-125360037D01*
X106296499Y-125360037D01*
X106297503Y-126865007D01*
X106871499Y-128250758D01*
X107353459Y-128618752D01*
X109862211Y-126110000D01*
X110297789Y-126110000D01*
X112806541Y-128618752D01*
X113288501Y-128250758D01*
X113863501Y-126859963D01*
X113862497Y-125354993D01*
X113288501Y-123969242D01*
X112806541Y-123601248D01*
X110297789Y-126110000D01*
X109862211Y-126110000D01*
X107353459Y-123601248D01*
X106871499Y-123969242D01*
X106296499Y-125360037D01*
X105475000Y-125360037D01*
X105475000Y-123383459D01*
X107571248Y-123383459D01*
X110080000Y-125892211D01*
X112588752Y-123383459D01*
X112220758Y-122901499D01*
X110829963Y-122326499D01*
X109324993Y-122327503D01*
X107939242Y-122901499D01*
X107571248Y-123383459D01*
X105475000Y-123383459D01*
X105475000Y-95524938D01*
X106099844Y-95524938D01*
X106236572Y-95855845D01*
X106489525Y-96109240D01*
X106820194Y-96246545D01*
X107178236Y-96246858D01*
X107509143Y-96110130D01*
X107762538Y-95857177D01*
X107899843Y-95526508D01*
X107900156Y-95168466D01*
X107763428Y-94837559D01*
X107510475Y-94584164D01*
X107179806Y-94446859D01*
X106821764Y-94446546D01*
X106490857Y-94583274D01*
X106237462Y-94836227D01*
X106100157Y-95166896D01*
X106099844Y-95524938D01*
X105475000Y-95524938D01*
X105475000Y-84524938D01*
X106099844Y-84524938D01*
X106236572Y-84855845D01*
X106489525Y-85109240D01*
X106820194Y-85246545D01*
X107178236Y-85246858D01*
X107509143Y-85110130D01*
X107762538Y-84857177D01*
X107899843Y-84526508D01*
X107900156Y-84168466D01*
X107763428Y-83837559D01*
X107510475Y-83584164D01*
X107179806Y-83446859D01*
X106821764Y-83446546D01*
X106490857Y-83583274D01*
X106237462Y-83836227D01*
X106100157Y-84166896D01*
X106099844Y-84524938D01*
X105475000Y-84524938D01*
X105475000Y-55176541D01*
X107571248Y-55176541D01*
X107939242Y-55658501D01*
X109330037Y-56233501D01*
X110835007Y-56232497D01*
X112220758Y-55658501D01*
X112588752Y-55176541D01*
X110080000Y-52667789D01*
X107571248Y-55176541D01*
X105475000Y-55176541D01*
X105475000Y-51700037D01*
X106296499Y-51700037D01*
X106297503Y-53205007D01*
X106871499Y-54590758D01*
X107353459Y-54958752D01*
X109862211Y-52450000D01*
X110297789Y-52450000D01*
X112806541Y-54958752D01*
X113288501Y-54590758D01*
X113863501Y-53199963D01*
X113862497Y-51694993D01*
X113288501Y-50309242D01*
X112806541Y-49941248D01*
X110297789Y-52450000D01*
X109862211Y-52450000D01*
X107353459Y-49941248D01*
X106871499Y-50309242D01*
X106296499Y-51700037D01*
X105475000Y-51700037D01*
X105475000Y-49723459D01*
X107571248Y-49723459D01*
X110080000Y-52232211D01*
X112588752Y-49723459D01*
X112220758Y-49241499D01*
X110829963Y-48666499D01*
X109324993Y-48667503D01*
X107939242Y-49241499D01*
X107571248Y-49723459D01*
X105475000Y-49723459D01*
X105475000Y-45305000D01*
X200415000Y-45305000D01*
X200415000Y-79505158D01*
X200415000Y-79505158D01*
G37*
X200415000Y-79505158D02*
X200307836Y-79397994D01*
X200307836Y-79200000D01*
X200279944Y-79051769D01*
X200277782Y-79048409D01*
X200307836Y-78900000D01*
X200307836Y-78550000D01*
X200279944Y-78401769D01*
X200192340Y-78265628D01*
X200058671Y-78174296D01*
X199900000Y-78142164D01*
X199725000Y-78142164D01*
X199725000Y-76800000D01*
X199685037Y-76599091D01*
X199571231Y-76428769D01*
X199100037Y-75957575D01*
X199100121Y-75861372D01*
X198993777Y-75604000D01*
X198797036Y-75406915D01*
X198539850Y-75300122D01*
X198261372Y-75299879D01*
X198004000Y-75406223D01*
X197806915Y-75602964D01*
X197700122Y-75860150D01*
X197699879Y-76138628D01*
X197806223Y-76396000D01*
X198002964Y-76593085D01*
X198260150Y-76699878D01*
X198357501Y-76699963D01*
X198675000Y-77017462D01*
X198675000Y-78142164D01*
X198500000Y-78142164D01*
X198351769Y-78170056D01*
X198215628Y-78257660D01*
X198125000Y-78390299D01*
X198125000Y-77624264D01*
X198085037Y-77423355D01*
X197971231Y-77253033D01*
X197228924Y-76510726D01*
X197299878Y-76339850D01*
X197300121Y-76061372D01*
X197193777Y-75804000D01*
X196997036Y-75606915D01*
X196739850Y-75500122D01*
X196461372Y-75499879D01*
X196204000Y-75606223D01*
X196199999Y-75610217D01*
X196199999Y-73700000D01*
X196338628Y-73700121D01*
X196596000Y-73593777D01*
X196793085Y-73397036D01*
X196899878Y-73139850D01*
X196900121Y-72861372D01*
X196793777Y-72604000D01*
X196597036Y-72406915D01*
X196339850Y-72300122D01*
X196242499Y-72300037D01*
X196199999Y-72257537D01*
X196199999Y-63261197D01*
X196160036Y-63060288D01*
X196046230Y-62889966D01*
X191599068Y-58442804D01*
X191797553Y-58244665D01*
X191989781Y-57781729D01*
X191990218Y-57280470D01*
X191798799Y-56817200D01*
X191444665Y-56462447D01*
X190981729Y-56270219D01*
X190480470Y-56269782D01*
X190017200Y-56461201D01*
X189662447Y-56815335D01*
X189470219Y-57278271D01*
X189469782Y-57779530D01*
X189639385Y-58190001D01*
X189592463Y-58190001D01*
X189371856Y-57969394D01*
X189449781Y-57781729D01*
X189450218Y-57280470D01*
X189258799Y-56817200D01*
X188904665Y-56462447D01*
X188441729Y-56270219D01*
X188202803Y-56270011D01*
X188182786Y-56249994D01*
X188439530Y-56250218D01*
X188902800Y-56058799D01*
X189257553Y-55704665D01*
X189449781Y-55241729D01*
X189449782Y-55239530D01*
X189469782Y-55239530D01*
X189661201Y-55702800D01*
X190015335Y-56057553D01*
X190478271Y-56249781D01*
X190979530Y-56250218D01*
X191442800Y-56058799D01*
X191797553Y-55704665D01*
X191989781Y-55241729D01*
X191990218Y-54740470D01*
X191798799Y-54277200D01*
X191444665Y-53922447D01*
X190981729Y-53730219D01*
X190480470Y-53729782D01*
X190017200Y-53921201D01*
X189662447Y-54275335D01*
X189470219Y-54738271D01*
X189469782Y-55239530D01*
X189449782Y-55239530D01*
X189450218Y-54740470D01*
X189258799Y-54277200D01*
X188904665Y-53922447D01*
X188441729Y-53730219D01*
X187940470Y-53729782D01*
X187477200Y-53921201D01*
X187122447Y-54275335D01*
X186930219Y-54738271D01*
X186929993Y-54997201D01*
X184632322Y-52699530D01*
X186929782Y-52699530D01*
X187121201Y-53162800D01*
X187475335Y-53517553D01*
X187938271Y-53709781D01*
X188439530Y-53710218D01*
X188902800Y-53518799D01*
X189257553Y-53164665D01*
X189449781Y-52701729D01*
X189449782Y-52699530D01*
X189469782Y-52699530D01*
X189661201Y-53162800D01*
X190015335Y-53517553D01*
X190478271Y-53709781D01*
X190979530Y-53710218D01*
X191442800Y-53518799D01*
X191797553Y-53164665D01*
X191989781Y-52701729D01*
X191989837Y-52636541D01*
X193301248Y-52636541D01*
X193669242Y-53118501D01*
X195060037Y-53693501D01*
X196565007Y-53692497D01*
X197950758Y-53118501D01*
X198318752Y-52636541D01*
X195810000Y-50127789D01*
X193301248Y-52636541D01*
X191989837Y-52636541D01*
X191990218Y-52200470D01*
X191798799Y-51737200D01*
X191444665Y-51382447D01*
X191248630Y-51301046D01*
X191480515Y-51204996D01*
X191565739Y-50963528D01*
X190730000Y-50127789D01*
X189894261Y-50963528D01*
X189979485Y-51204996D01*
X190233683Y-51291752D01*
X190017200Y-51381201D01*
X189662447Y-51735335D01*
X189470219Y-52198271D01*
X189469782Y-52699530D01*
X189449782Y-52699530D01*
X189450218Y-52200470D01*
X189258799Y-51737200D01*
X188904665Y-51382447D01*
X188708630Y-51301046D01*
X188940515Y-51204996D01*
X189025739Y-50963528D01*
X188190000Y-50127789D01*
X187354261Y-50963528D01*
X187439485Y-51204996D01*
X187693683Y-51291752D01*
X187477200Y-51381201D01*
X187122447Y-51735335D01*
X186930219Y-52198271D01*
X186929782Y-52699530D01*
X184632322Y-52699530D01*
X181644980Y-49712188D01*
X186706370Y-49712188D01*
X186743605Y-50295006D01*
X186895004Y-50660515D01*
X187136472Y-50745739D01*
X187972211Y-49910000D01*
X188407789Y-49910000D01*
X189243528Y-50745739D01*
X189460000Y-50669337D01*
X189676472Y-50745739D01*
X190512211Y-49910000D01*
X190947789Y-49910000D01*
X191783528Y-50745739D01*
X192024996Y-50660515D01*
X192027495Y-50653193D01*
X192027503Y-50665007D01*
X192601499Y-52050758D01*
X193083459Y-52418752D01*
X195592211Y-49910000D01*
X196027789Y-49910000D01*
X198536541Y-52418752D01*
X199018501Y-52050758D01*
X199593501Y-50659963D01*
X199592497Y-49154993D01*
X199018501Y-47769242D01*
X198536541Y-47401248D01*
X196027789Y-49910000D01*
X195592211Y-49910000D01*
X193083459Y-47401248D01*
X192601499Y-47769242D01*
X192026499Y-49160037D01*
X192026501Y-49163119D01*
X192024996Y-49159485D01*
X191783528Y-49074261D01*
X190947789Y-49910000D01*
X190512211Y-49910000D01*
X189676472Y-49074261D01*
X189460000Y-49150663D01*
X189243528Y-49074261D01*
X188407789Y-49910000D01*
X187972211Y-49910000D01*
X187136472Y-49074261D01*
X186895004Y-49159485D01*
X186706370Y-49712188D01*
X181644980Y-49712188D01*
X180789264Y-48856472D01*
X187354261Y-48856472D01*
X188190000Y-49692211D01*
X189025739Y-48856472D01*
X189894261Y-48856472D01*
X190730000Y-49692211D01*
X191565739Y-48856472D01*
X191480515Y-48615004D01*
X190927812Y-48426370D01*
X190344994Y-48463605D01*
X189979485Y-48615004D01*
X189894261Y-48856472D01*
X189025739Y-48856472D01*
X188940515Y-48615004D01*
X188387812Y-48426370D01*
X187804994Y-48463605D01*
X187439485Y-48615004D01*
X187354261Y-48856472D01*
X180789264Y-48856472D01*
X179496397Y-47563605D01*
X179204416Y-47368509D01*
X178860001Y-47300001D01*
X159349934Y-47300001D01*
X159398326Y-47183459D01*
X193301248Y-47183459D01*
X195810000Y-49692211D01*
X198318752Y-47183459D01*
X197950758Y-46701499D01*
X196559963Y-46126499D01*
X195054993Y-46127503D01*
X193669242Y-46701499D01*
X193301248Y-47183459D01*
X159398326Y-47183459D01*
X159399843Y-47179806D01*
X159400156Y-46821764D01*
X159263428Y-46490857D01*
X159010475Y-46237462D01*
X158679806Y-46100157D01*
X158321764Y-46099844D01*
X157990857Y-46236572D01*
X157737462Y-46489525D01*
X157600157Y-46820194D01*
X157599844Y-47178236D01*
X157650156Y-47300001D01*
X154049999Y-47300001D01*
X153798635Y-47350000D01*
X148329173Y-47350000D01*
X148399843Y-47179806D01*
X148400156Y-46821764D01*
X148263428Y-46490857D01*
X148010475Y-46237462D01*
X147679806Y-46100157D01*
X147321764Y-46099844D01*
X146990857Y-46236572D01*
X146737462Y-46489525D01*
X146600157Y-46820194D01*
X146599844Y-47178236D01*
X146670815Y-47350000D01*
X122750000Y-47350000D01*
X122405584Y-47418508D01*
X122113604Y-47613604D01*
X108863603Y-60863605D01*
X108668507Y-61155586D01*
X108599999Y-61500001D01*
X108599999Y-117749999D01*
X108668507Y-118094414D01*
X108863603Y-118386395D01*
X122113605Y-131636397D01*
X122405586Y-131831493D01*
X122750001Y-131900001D01*
X162000001Y-131900001D01*
X162000011Y-131899999D01*
X175749999Y-131899999D01*
X176094414Y-131831491D01*
X176386395Y-131636395D01*
X178319262Y-129703528D01*
X187354261Y-129703528D01*
X187439485Y-129944996D01*
X187992188Y-130133630D01*
X188575006Y-130096395D01*
X188940515Y-129944996D01*
X189025739Y-129703528D01*
X188190000Y-128867789D01*
X187354261Y-129703528D01*
X178319262Y-129703528D01*
X179570602Y-128452188D01*
X186706370Y-128452188D01*
X186743605Y-129035006D01*
X186895004Y-129400515D01*
X187136472Y-129485739D01*
X187972211Y-128650000D01*
X188407789Y-128650000D01*
X189243528Y-129485739D01*
X189484996Y-129400515D01*
X189571752Y-129146317D01*
X189661201Y-129362800D01*
X190015335Y-129717553D01*
X190478271Y-129909781D01*
X190979530Y-129910218D01*
X191442800Y-129718799D01*
X191797553Y-129364665D01*
X191878369Y-129170037D01*
X192026499Y-129170037D01*
X192027503Y-130675007D01*
X192601499Y-132060758D01*
X193083459Y-132428752D01*
X195592211Y-129920000D01*
X196027789Y-129920000D01*
X198536541Y-132428752D01*
X199018501Y-132060758D01*
X199593501Y-130669963D01*
X199592497Y-129164993D01*
X199018501Y-127779242D01*
X198536541Y-127411248D01*
X196027789Y-129920000D01*
X195592211Y-129920000D01*
X193083459Y-127411248D01*
X192601499Y-127779242D01*
X192026499Y-129170037D01*
X191878369Y-129170037D01*
X191989781Y-128901729D01*
X191990218Y-128400470D01*
X191798799Y-127937200D01*
X191444665Y-127582447D01*
X190981729Y-127390219D01*
X190480470Y-127389782D01*
X190017200Y-127581201D01*
X189662447Y-127935335D01*
X189581046Y-128131370D01*
X189484996Y-127899485D01*
X189243528Y-127814261D01*
X188407789Y-128650000D01*
X187972211Y-128650000D01*
X187136472Y-127814261D01*
X186895004Y-127899485D01*
X186706370Y-128452188D01*
X179570602Y-128452188D01*
X181512821Y-126509969D01*
X182007820Y-126509969D01*
X182085643Y-126745229D01*
X182616548Y-126923815D01*
X183175382Y-126885637D01*
X183514357Y-126745229D01*
X183592180Y-126509969D01*
X183441741Y-126359530D01*
X186929782Y-126359530D01*
X187121201Y-126822800D01*
X187475335Y-127177553D01*
X187671370Y-127258954D01*
X187439485Y-127355004D01*
X187354261Y-127596472D01*
X188190000Y-128432211D01*
X189025739Y-127596472D01*
X188940515Y-127355004D01*
X188686317Y-127268248D01*
X188902800Y-127178799D01*
X189257553Y-126824665D01*
X189449781Y-126361729D01*
X189449782Y-126359530D01*
X189469782Y-126359530D01*
X189661201Y-126822800D01*
X190015335Y-127177553D01*
X190478271Y-127369781D01*
X190979530Y-127370218D01*
X191407320Y-127193459D01*
X193301248Y-127193459D01*
X195810000Y-129702211D01*
X198318752Y-127193459D01*
X197950758Y-126711499D01*
X196559963Y-126136499D01*
X195054993Y-126137503D01*
X193669242Y-126711499D01*
X193301248Y-127193459D01*
X191407320Y-127193459D01*
X191442800Y-127178799D01*
X191797553Y-126824665D01*
X191989781Y-126361729D01*
X191990218Y-125860470D01*
X191798799Y-125397200D01*
X191444665Y-125042447D01*
X190981729Y-124850219D01*
X190480470Y-124849782D01*
X190017200Y-125041201D01*
X189662447Y-125395335D01*
X189470219Y-125858271D01*
X189469782Y-126359530D01*
X189449782Y-126359530D01*
X189450218Y-125860470D01*
X189258799Y-125397200D01*
X188904665Y-125042447D01*
X188441729Y-124850219D01*
X187940470Y-124849782D01*
X187477200Y-125041201D01*
X187122447Y-125395335D01*
X186930219Y-125858271D01*
X186929782Y-126359530D01*
X183441741Y-126359530D01*
X182800000Y-125717789D01*
X182007820Y-126509969D01*
X181512821Y-126509969D01*
X181745380Y-126277410D01*
X181790031Y-126292180D01*
X182582211Y-125500000D01*
X183017789Y-125500000D01*
X183809969Y-126292180D01*
X184045229Y-126214357D01*
X184223815Y-125683452D01*
X184185637Y-125124618D01*
X184045229Y-124785643D01*
X183809969Y-124707820D01*
X183017789Y-125500000D01*
X182582211Y-125500000D01*
X182568069Y-125485858D01*
X182785858Y-125268069D01*
X182800000Y-125282211D01*
X183592180Y-124490031D01*
X183585554Y-124470000D01*
X187308074Y-124470000D01*
X187475335Y-124637553D01*
X187938271Y-124829781D01*
X188439530Y-124830218D01*
X188902800Y-124638799D01*
X189257553Y-124284665D01*
X189449781Y-123821729D01*
X189449782Y-123819530D01*
X189469782Y-123819530D01*
X189661201Y-124282800D01*
X190015335Y-124637553D01*
X190478271Y-124829781D01*
X190979530Y-124830218D01*
X191442800Y-124638799D01*
X191797553Y-124284665D01*
X191989781Y-123821729D01*
X191990218Y-123320470D01*
X191798799Y-122857200D01*
X191444665Y-122502447D01*
X190981729Y-122310219D01*
X190480470Y-122309782D01*
X190017200Y-122501201D01*
X189662447Y-122855335D01*
X189470219Y-123318271D01*
X189469782Y-123819530D01*
X189449782Y-123819530D01*
X189450218Y-123320470D01*
X189258799Y-122857200D01*
X188904665Y-122502447D01*
X188441729Y-122310219D01*
X187940470Y-122309782D01*
X187477200Y-122501201D01*
X187308106Y-122670000D01*
X183179998Y-122670000D01*
X182835582Y-122738508D01*
X182543602Y-122933604D01*
X181066079Y-124411127D01*
X181014357Y-124254771D01*
X180483452Y-124076185D01*
X179924618Y-124114363D01*
X179585643Y-124254771D01*
X179507820Y-124490031D01*
X180247498Y-125229709D01*
X180029709Y-125447498D01*
X179290031Y-124707820D01*
X179054771Y-124785643D01*
X178941891Y-125121217D01*
X178817903Y-124821143D01*
X178480633Y-124483283D01*
X178039742Y-124300209D01*
X177562353Y-124299793D01*
X177121143Y-124482097D01*
X176783283Y-124819367D01*
X176600209Y-125260258D01*
X176599793Y-125737647D01*
X176782097Y-126178857D01*
X177119367Y-126516717D01*
X177560258Y-126699791D01*
X178037647Y-126700207D01*
X178478857Y-126517903D01*
X178816717Y-126180633D01*
X178928898Y-125910472D01*
X179054771Y-126214357D01*
X179211127Y-126266079D01*
X175377207Y-130099999D01*
X162000003Y-130099999D01*
X161999993Y-130100001D01*
X160025000Y-130100001D01*
X160025000Y-128215002D01*
X160093085Y-128147036D01*
X160199878Y-127889850D01*
X160200121Y-127611372D01*
X160093777Y-127354000D01*
X159897036Y-127156915D01*
X159639850Y-127050122D01*
X159361372Y-127049879D01*
X159104000Y-127156223D01*
X158906915Y-127352964D01*
X158800122Y-127610150D01*
X158799879Y-127888628D01*
X158906223Y-128146000D01*
X158975000Y-128214897D01*
X158975000Y-130100001D01*
X151275000Y-130100001D01*
X151275000Y-124638628D01*
X152799879Y-124638628D01*
X152906223Y-124896000D01*
X153102964Y-125093085D01*
X153360150Y-125199878D01*
X153638628Y-125200121D01*
X153896000Y-125093777D01*
X154093085Y-124897036D01*
X154199878Y-124639850D01*
X154199963Y-124542499D01*
X154388750Y-124353712D01*
X154406223Y-124396000D01*
X154602964Y-124593085D01*
X154860150Y-124699878D01*
X155138628Y-124700121D01*
X155396000Y-124593777D01*
X155593085Y-124397036D01*
X155699878Y-124139850D01*
X155699963Y-124042499D01*
X156496232Y-123246230D01*
X156610038Y-123075908D01*
X156650001Y-122874999D01*
X156650001Y-119125001D01*
X156610038Y-118924092D01*
X156496232Y-118753770D01*
X156442412Y-118699950D01*
X156457501Y-118699963D01*
X157600001Y-119842463D01*
X157600001Y-124157537D01*
X157457575Y-124299963D01*
X157361372Y-124299879D01*
X157104000Y-124406223D01*
X156906915Y-124602964D01*
X156800122Y-124860150D01*
X156799879Y-125138628D01*
X156906223Y-125396000D01*
X157102964Y-125593085D01*
X157360150Y-125699878D01*
X157638628Y-125700121D01*
X157896000Y-125593777D01*
X158093085Y-125397036D01*
X158199878Y-125139850D01*
X158199963Y-125042499D01*
X158496232Y-124746230D01*
X158610038Y-124575908D01*
X158650001Y-124374999D01*
X158650001Y-119625001D01*
X158610038Y-119424092D01*
X158496232Y-119253770D01*
X157200037Y-117957575D01*
X157200121Y-117861372D01*
X157093777Y-117604000D01*
X156897036Y-117406915D01*
X156639850Y-117300122D01*
X156361372Y-117299879D01*
X156104000Y-117406223D01*
X155906915Y-117602964D01*
X155800122Y-117860150D01*
X155800116Y-117866670D01*
X155639850Y-117800122D01*
X155361372Y-117799879D01*
X155104000Y-117906223D01*
X154906915Y-118102964D01*
X154800122Y-118360150D01*
X154799879Y-118638628D01*
X154906223Y-118896000D01*
X155102964Y-119093085D01*
X155360150Y-119199878D01*
X155457501Y-119199963D01*
X155600001Y-119342463D01*
X155600001Y-121800087D01*
X155361372Y-121799879D01*
X155104000Y-121906223D01*
X154906915Y-122102964D01*
X154800122Y-122360150D01*
X154800037Y-122457501D01*
X153457575Y-123799963D01*
X153361372Y-123799879D01*
X153104000Y-123906223D01*
X152906915Y-124102964D01*
X152800122Y-124360150D01*
X152799879Y-124638628D01*
X151275000Y-124638628D01*
X151275000Y-117000000D01*
X151235037Y-116799091D01*
X151218348Y-116774114D01*
X152967462Y-115025000D01*
X155284998Y-115025000D01*
X155352964Y-115093085D01*
X155610150Y-115199878D01*
X155888628Y-115200121D01*
X156146000Y-115093777D01*
X156343085Y-114897036D01*
X156449878Y-114639850D01*
X156450121Y-114361372D01*
X156343777Y-114104000D01*
X156147036Y-113906915D01*
X155889850Y-113800122D01*
X155611372Y-113799879D01*
X155354000Y-113906223D01*
X155285103Y-113975000D01*
X152750000Y-113975000D01*
X152549091Y-114014963D01*
X152432174Y-114093085D01*
X152378769Y-114128769D01*
X151058000Y-115449538D01*
X151058000Y-104300000D01*
X151016419Y-104079018D01*
X150885819Y-103876059D01*
X150686546Y-103739902D01*
X150450000Y-103692000D01*
X135700000Y-103692000D01*
X135479018Y-103733581D01*
X135276059Y-103864181D01*
X135139902Y-104063454D01*
X135092000Y-104300000D01*
X135092000Y-125600000D01*
X135133581Y-125820982D01*
X135264181Y-126023941D01*
X135463454Y-126160098D01*
X135700000Y-126208000D01*
X144100000Y-126208000D01*
X144100000Y-127000000D01*
X144168508Y-127344415D01*
X144363604Y-127636396D01*
X144386641Y-127651789D01*
X144300122Y-127860150D01*
X144299879Y-128138628D01*
X144406223Y-128396000D01*
X144510050Y-128500009D01*
X144406915Y-128602964D01*
X144300122Y-128860150D01*
X144299879Y-129138628D01*
X144406223Y-129396000D01*
X144602964Y-129593085D01*
X144860150Y-129699878D01*
X145138628Y-129700121D01*
X145396000Y-129593777D01*
X145593085Y-129397036D01*
X145699878Y-129139850D01*
X145700121Y-128861372D01*
X145593777Y-128604000D01*
X145489950Y-128499991D01*
X145593085Y-128397036D01*
X145699878Y-128139850D01*
X145700121Y-127861372D01*
X145613487Y-127651703D01*
X145636396Y-127636396D01*
X145831492Y-127344415D01*
X145900000Y-127000000D01*
X145900000Y-126208000D01*
X150225000Y-126208000D01*
X150225000Y-130100001D01*
X147025000Y-130100001D01*
X147025000Y-128215002D01*
X147093085Y-128147036D01*
X147199878Y-127889850D01*
X147200121Y-127611372D01*
X147093777Y-127354000D01*
X146897036Y-127156915D01*
X146639850Y-127050122D01*
X146361372Y-127049879D01*
X146104000Y-127156223D01*
X145906915Y-127352964D01*
X145800122Y-127610150D01*
X145799879Y-127888628D01*
X145906223Y-128146000D01*
X145975000Y-128214897D01*
X145975000Y-130100001D01*
X123122793Y-130100001D01*
X110399999Y-117377207D01*
X110399999Y-107138628D01*
X124049879Y-107138628D01*
X124156223Y-107396000D01*
X124352964Y-107593085D01*
X124610150Y-107699878D01*
X124888628Y-107700121D01*
X125039326Y-107637854D01*
X128575736Y-111174264D01*
X128770390Y-111304328D01*
X129000000Y-111350000D01*
X131619617Y-111350000D01*
X131860150Y-111449878D01*
X132138628Y-111450121D01*
X132396000Y-111343777D01*
X132593085Y-111147036D01*
X132699878Y-110889850D01*
X132700121Y-110611372D01*
X132593777Y-110354000D01*
X132397036Y-110156915D01*
X132139850Y-110050122D01*
X131861372Y-110049879D01*
X131619061Y-110150000D01*
X129248528Y-110150000D01*
X125674264Y-106575736D01*
X125479610Y-106445672D01*
X125250000Y-106400000D01*
X125130383Y-106400000D01*
X124889850Y-106300122D01*
X124611372Y-106299879D01*
X124354000Y-106406223D01*
X124156915Y-106602964D01*
X124050122Y-106860150D01*
X124049879Y-107138628D01*
X110399999Y-107138628D01*
X110399999Y-104738628D01*
X124749879Y-104738628D01*
X124856223Y-104996000D01*
X125052964Y-105193085D01*
X125295101Y-105293629D01*
X129425736Y-109424264D01*
X129620389Y-109554328D01*
X129850000Y-109600000D01*
X131619617Y-109600000D01*
X131860150Y-109699878D01*
X132138628Y-109700121D01*
X132396000Y-109593777D01*
X132593085Y-109397036D01*
X132699878Y-109139850D01*
X132700121Y-108861372D01*
X132593777Y-108604000D01*
X132397036Y-108406915D01*
X132139850Y-108300122D01*
X131861372Y-108299879D01*
X131619061Y-108400000D01*
X130098528Y-108400000D01*
X126143235Y-104444707D01*
X126043777Y-104204000D01*
X125847036Y-104006915D01*
X125589850Y-103900122D01*
X125311372Y-103899879D01*
X125054000Y-104006223D01*
X124856915Y-104202964D01*
X124750122Y-104460150D01*
X124749879Y-104738628D01*
X110399999Y-104738628D01*
X110399999Y-94525000D01*
X112534998Y-94525000D01*
X112602964Y-94593085D01*
X112860150Y-94699878D01*
X113138628Y-94700121D01*
X113396000Y-94593777D01*
X113593085Y-94397036D01*
X113699878Y-94139850D01*
X113700121Y-93861372D01*
X113593777Y-93604000D01*
X113397036Y-93406915D01*
X113139850Y-93300122D01*
X112861372Y-93299879D01*
X112604000Y-93406223D01*
X112535103Y-93475000D01*
X110399999Y-93475000D01*
X110399999Y-92350000D01*
X115999470Y-92350000D01*
X116823734Y-93174264D01*
X117018388Y-93304328D01*
X117160413Y-93332578D01*
X116319428Y-93680066D01*
X115502933Y-94495137D01*
X115060505Y-95560624D01*
X115059498Y-96714315D01*
X115500066Y-97780572D01*
X116315137Y-98597067D01*
X117380624Y-99039495D01*
X118534315Y-99040502D01*
X119600572Y-98599934D01*
X120417067Y-97784863D01*
X120859495Y-96719376D01*
X120860502Y-95565685D01*
X120419934Y-94499428D01*
X119604863Y-93682933D01*
X118803070Y-93350000D01*
X121975000Y-93350000D01*
X121975000Y-93925002D01*
X122014963Y-94125911D01*
X122128769Y-94296233D01*
X127156552Y-99324016D01*
X127326874Y-99437822D01*
X127527783Y-99477785D01*
X130808605Y-99477785D01*
X130876571Y-99545870D01*
X131133757Y-99652663D01*
X131412235Y-99652906D01*
X131669607Y-99546562D01*
X131866692Y-99349821D01*
X131973485Y-99092635D01*
X131973728Y-98814157D01*
X131867384Y-98556785D01*
X131670643Y-98359700D01*
X131413457Y-98252907D01*
X131134979Y-98252664D01*
X130877607Y-98359008D01*
X130808710Y-98427785D01*
X127745245Y-98427785D01*
X127653625Y-98336165D01*
X127843085Y-98147036D01*
X127949878Y-97889850D01*
X127950121Y-97611372D01*
X127843777Y-97354000D01*
X127647036Y-97156915D01*
X127389850Y-97050122D01*
X127111372Y-97049879D01*
X126854000Y-97156223D01*
X126785103Y-97225000D01*
X126542460Y-97225000D01*
X126517475Y-97200015D01*
X126638628Y-97200121D01*
X126896000Y-97093777D01*
X126964897Y-97025000D01*
X133534998Y-97025000D01*
X133602964Y-97093085D01*
X133860150Y-97199878D01*
X134138628Y-97200121D01*
X134396000Y-97093777D01*
X134593085Y-96897036D01*
X134699878Y-96639850D01*
X134700121Y-96361372D01*
X134593777Y-96104000D01*
X134397036Y-95906915D01*
X134139850Y-95800122D01*
X133861372Y-95799879D01*
X133604000Y-95906223D01*
X133535103Y-95975000D01*
X132442464Y-95975000D01*
X132737560Y-95679904D01*
X132946003Y-95593777D01*
X133143088Y-95397036D01*
X133249881Y-95139850D01*
X133250124Y-94861372D01*
X133143780Y-94604000D01*
X132947039Y-94406915D01*
X132689853Y-94300122D01*
X132411375Y-94299879D01*
X132154003Y-94406223D01*
X132150167Y-94410052D01*
X132147036Y-94406915D01*
X131889850Y-94300122D01*
X131792499Y-94300037D01*
X131296230Y-93803768D01*
X131125908Y-93689962D01*
X130924999Y-93649999D01*
X130914432Y-93649999D01*
X130843777Y-93479000D01*
X130647036Y-93281915D01*
X130389850Y-93175122D01*
X130111372Y-93174879D01*
X129854000Y-93281223D01*
X129656915Y-93477964D01*
X129550122Y-93735150D01*
X129549879Y-94013628D01*
X129656223Y-94271000D01*
X129852964Y-94468085D01*
X130110150Y-94574878D01*
X130221788Y-94574975D01*
X130349090Y-94660036D01*
X130549999Y-94699999D01*
X130707537Y-94699999D01*
X131049963Y-95042425D01*
X131049879Y-95138628D01*
X131110419Y-95285146D01*
X125674579Y-95285146D01*
X125603924Y-95114147D01*
X125407183Y-94917062D01*
X125149997Y-94810269D01*
X124871519Y-94810026D01*
X124614147Y-94916370D01*
X124423822Y-95106362D01*
X123025000Y-93707540D01*
X123025000Y-93023502D01*
X123054328Y-92979610D01*
X123064627Y-92927835D01*
X127467462Y-88525000D01*
X129284998Y-88525000D01*
X129352964Y-88593085D01*
X129610150Y-88699878D01*
X129888628Y-88700121D01*
X130146000Y-88593777D01*
X130343085Y-88397036D01*
X130414520Y-88225001D01*
X132106241Y-88225001D01*
X132050122Y-88360150D01*
X132049879Y-88638628D01*
X132116599Y-88800102D01*
X131861372Y-88799879D01*
X131604000Y-88906223D01*
X131535103Y-88975000D01*
X128000000Y-88975000D01*
X127799091Y-89014963D01*
X127628769Y-89128769D01*
X127457575Y-89299963D01*
X127361372Y-89299879D01*
X127104000Y-89406223D01*
X126906915Y-89602964D01*
X126800122Y-89860150D01*
X126799879Y-90138628D01*
X126906223Y-90396000D01*
X127010050Y-90500009D01*
X126906915Y-90602964D01*
X126800122Y-90860150D01*
X126799879Y-91138628D01*
X126906223Y-91396000D01*
X127102964Y-91593085D01*
X127360150Y-91699878D01*
X127638628Y-91700121D01*
X127896000Y-91593777D01*
X128093085Y-91397036D01*
X128199878Y-91139850D01*
X128199963Y-91042499D01*
X128592462Y-90650000D01*
X130602581Y-90650000D01*
X130670547Y-90718085D01*
X130927733Y-90824878D01*
X131206211Y-90825121D01*
X131463583Y-90718777D01*
X131660668Y-90522036D01*
X131767461Y-90264850D01*
X131767551Y-90161428D01*
X131860150Y-90199878D01*
X132138628Y-90200121D01*
X132396000Y-90093777D01*
X132593085Y-89897036D01*
X132699878Y-89639850D01*
X132700121Y-89361372D01*
X132633401Y-89199898D01*
X132707501Y-89199963D01*
X132878769Y-89371231D01*
X133049091Y-89485037D01*
X133250000Y-89525000D01*
X155692000Y-89525000D01*
X155692000Y-90065538D01*
X153878769Y-91878769D01*
X153764963Y-92049091D01*
X153725000Y-92250000D01*
X153725000Y-92829275D01*
X153639850Y-92793918D01*
X153361372Y-92793675D01*
X153104000Y-92900019D01*
X152906915Y-93096760D01*
X152800122Y-93353946D01*
X152799879Y-93632424D01*
X152906223Y-93889796D01*
X153102964Y-94086881D01*
X153225000Y-94137555D01*
X153225000Y-100750000D01*
X153264963Y-100950909D01*
X153378769Y-101121231D01*
X155713014Y-103455476D01*
X155733581Y-103564778D01*
X155864181Y-103767737D01*
X156063454Y-103903894D01*
X156186311Y-103928773D01*
X156725000Y-104467462D01*
X156725000Y-112500000D01*
X156764963Y-112700909D01*
X156799997Y-112753341D01*
X156799879Y-112888628D01*
X156906223Y-113146000D01*
X157102964Y-113343085D01*
X157360150Y-113449878D01*
X157638628Y-113450121D01*
X157896000Y-113343777D01*
X158000009Y-113239950D01*
X158102964Y-113343085D01*
X158360150Y-113449878D01*
X158638628Y-113450121D01*
X158896000Y-113343777D01*
X159093085Y-113147036D01*
X159100000Y-113130383D01*
X159100000Y-119240030D01*
X159050122Y-119360150D01*
X159049879Y-119638628D01*
X159100000Y-119759930D01*
X159100000Y-126100000D01*
X159106839Y-126136346D01*
X159128319Y-126169727D01*
X159161094Y-126192121D01*
X159200000Y-126200000D01*
X173950000Y-126200000D01*
X173986346Y-126193161D01*
X174019727Y-126171681D01*
X174042121Y-126138906D01*
X174050000Y-126100000D01*
X174050000Y-121279530D01*
X186929782Y-121279530D01*
X187121201Y-121742800D01*
X187475335Y-122097553D01*
X187938271Y-122289781D01*
X188439530Y-122290218D01*
X188902800Y-122098799D01*
X189257553Y-121744665D01*
X189449781Y-121281729D01*
X189449782Y-121279530D01*
X189469782Y-121279530D01*
X189661201Y-121742800D01*
X190015335Y-122097553D01*
X190478271Y-122289781D01*
X190979530Y-122290218D01*
X191442800Y-122098799D01*
X191797553Y-121744665D01*
X191989781Y-121281729D01*
X191990218Y-120780470D01*
X191798799Y-120317200D01*
X191444665Y-119962447D01*
X190981729Y-119770219D01*
X190480470Y-119769782D01*
X190017200Y-119961201D01*
X189662447Y-120315335D01*
X189470219Y-120778271D01*
X189469782Y-121279530D01*
X189449782Y-121279530D01*
X189450218Y-120780470D01*
X189258799Y-120317200D01*
X188904665Y-119962447D01*
X188441729Y-119770219D01*
X187940470Y-119769782D01*
X187477200Y-119961201D01*
X187122447Y-120315335D01*
X186930219Y-120778271D01*
X186929782Y-121279530D01*
X174050000Y-121279530D01*
X174050000Y-118739530D01*
X186929782Y-118739530D01*
X187121201Y-119202800D01*
X187475335Y-119557553D01*
X187938271Y-119749781D01*
X188439530Y-119750218D01*
X188902800Y-119558799D01*
X189257553Y-119204665D01*
X189449781Y-118741729D01*
X189449782Y-118739530D01*
X189469782Y-118739530D01*
X189661201Y-119202800D01*
X190015335Y-119557553D01*
X190478271Y-119749781D01*
X190979530Y-119750218D01*
X191442800Y-119558799D01*
X191797553Y-119204665D01*
X191989781Y-118741729D01*
X191990218Y-118240470D01*
X191798799Y-117777200D01*
X191444665Y-117422447D01*
X190981729Y-117230219D01*
X190480470Y-117229782D01*
X190017200Y-117421201D01*
X189662447Y-117775335D01*
X189470219Y-118238271D01*
X189469782Y-118739530D01*
X189449782Y-118739530D01*
X189450218Y-118240470D01*
X189258799Y-117777200D01*
X188904665Y-117422447D01*
X188441729Y-117230219D01*
X187940470Y-117229782D01*
X187477200Y-117421201D01*
X187122447Y-117775335D01*
X186930219Y-118238271D01*
X186929782Y-118739530D01*
X174050000Y-118739530D01*
X174050000Y-116199530D01*
X186929782Y-116199530D01*
X187121201Y-116662800D01*
X187475335Y-117017553D01*
X187938271Y-117209781D01*
X188439530Y-117210218D01*
X188902800Y-117018799D01*
X189257553Y-116664665D01*
X189449781Y-116201729D01*
X189449782Y-116199530D01*
X189469782Y-116199530D01*
X189661201Y-116662800D01*
X190015335Y-117017553D01*
X190478271Y-117209781D01*
X190979530Y-117210218D01*
X191442800Y-117018799D01*
X191797553Y-116664665D01*
X191989781Y-116201729D01*
X191990218Y-115700470D01*
X191798799Y-115237200D01*
X191444665Y-114882447D01*
X190981729Y-114690219D01*
X190480470Y-114689782D01*
X190017200Y-114881201D01*
X189662447Y-115235335D01*
X189470219Y-115698271D01*
X189469782Y-116199530D01*
X189449782Y-116199530D01*
X189450218Y-115700470D01*
X189258799Y-115237200D01*
X188904665Y-114882447D01*
X188441729Y-114690219D01*
X187940470Y-114689782D01*
X187477200Y-114881201D01*
X187122447Y-115235335D01*
X186930219Y-115698271D01*
X186929782Y-116199530D01*
X174050000Y-116199530D01*
X174050000Y-113659530D01*
X186929782Y-113659530D01*
X187121201Y-114122800D01*
X187475335Y-114477553D01*
X187938271Y-114669781D01*
X188439530Y-114670218D01*
X188902800Y-114478799D01*
X189257553Y-114124665D01*
X189449781Y-113661729D01*
X189449782Y-113659530D01*
X189469782Y-113659530D01*
X189661201Y-114122800D01*
X190015335Y-114477553D01*
X190478271Y-114669781D01*
X190979530Y-114670218D01*
X191442800Y-114478799D01*
X191797553Y-114124665D01*
X191989781Y-113661729D01*
X191990218Y-113160470D01*
X191798799Y-112697200D01*
X191444665Y-112342447D01*
X190981729Y-112150219D01*
X190480470Y-112149782D01*
X190017200Y-112341201D01*
X189662447Y-112695335D01*
X189470219Y-113158271D01*
X189469782Y-113659530D01*
X189449782Y-113659530D01*
X189450218Y-113160470D01*
X189258799Y-112697200D01*
X188904665Y-112342447D01*
X188441729Y-112150219D01*
X187940470Y-112149782D01*
X187477200Y-112341201D01*
X187122447Y-112695335D01*
X186930219Y-113158271D01*
X186929782Y-113659530D01*
X174050000Y-113659530D01*
X174050000Y-111119530D01*
X186929782Y-111119530D01*
X187121201Y-111582800D01*
X187475335Y-111937553D01*
X187938271Y-112129781D01*
X188439530Y-112130218D01*
X188902800Y-111938799D01*
X189257553Y-111584665D01*
X189449781Y-111121729D01*
X189449782Y-111119530D01*
X189469782Y-111119530D01*
X189661201Y-111582800D01*
X190015335Y-111937553D01*
X190478271Y-112129781D01*
X190979530Y-112130218D01*
X191442800Y-111938799D01*
X191797553Y-111584665D01*
X191989781Y-111121729D01*
X191990218Y-110620470D01*
X191798799Y-110157200D01*
X191444665Y-109802447D01*
X190981729Y-109610219D01*
X190480470Y-109609782D01*
X190017200Y-109801201D01*
X189662447Y-110155335D01*
X189470219Y-110618271D01*
X189469782Y-111119530D01*
X189449782Y-111119530D01*
X189450218Y-110620470D01*
X189258799Y-110157200D01*
X188904665Y-109802447D01*
X188441729Y-109610219D01*
X187940470Y-109609782D01*
X187477200Y-109801201D01*
X187122447Y-110155335D01*
X186930219Y-110618271D01*
X186929782Y-111119530D01*
X174050000Y-111119530D01*
X174050000Y-104800000D01*
X174043161Y-104763654D01*
X174021681Y-104730273D01*
X173988906Y-104707879D01*
X173950000Y-104700000D01*
X159200000Y-104700000D01*
X159163654Y-104706839D01*
X159130273Y-104728319D01*
X159107879Y-104761094D01*
X159100000Y-104800000D01*
X159100000Y-111546864D01*
X158725010Y-111171874D01*
X158725010Y-103951796D01*
X177600000Y-103951796D01*
X177820982Y-103910215D01*
X178023941Y-103779615D01*
X178160098Y-103580342D01*
X178208000Y-103343796D01*
X178208000Y-99903519D01*
X178363604Y-100136396D01*
X184363604Y-106136396D01*
X184655585Y-106331492D01*
X185000000Y-106400000D01*
X185300009Y-106340325D01*
X185300009Y-108174991D01*
X185339972Y-108375900D01*
X185453778Y-108546222D01*
X185608787Y-108701231D01*
X185779109Y-108815037D01*
X185980018Y-108855000D01*
X187043604Y-108855000D01*
X187121201Y-109042800D01*
X187475335Y-109397553D01*
X187938271Y-109589781D01*
X188439530Y-109590218D01*
X188902800Y-109398799D01*
X189257553Y-109044665D01*
X189449781Y-108581729D01*
X189449782Y-108579530D01*
X189469782Y-108579530D01*
X189661201Y-109042800D01*
X190015335Y-109397553D01*
X190478271Y-109589781D01*
X190979530Y-109590218D01*
X191442800Y-109398799D01*
X191797553Y-109044665D01*
X191989781Y-108581729D01*
X191990218Y-108080470D01*
X191798799Y-107617200D01*
X191444665Y-107262447D01*
X190981729Y-107070219D01*
X190480470Y-107069782D01*
X190017200Y-107261201D01*
X189662447Y-107615335D01*
X189470219Y-108078271D01*
X189469782Y-108579530D01*
X189449782Y-108579530D01*
X189450218Y-108080470D01*
X189258799Y-107617200D01*
X188904665Y-107262447D01*
X188441729Y-107070219D01*
X187940470Y-107069782D01*
X187477200Y-107261201D01*
X187122447Y-107615335D01*
X187043691Y-107805000D01*
X186350009Y-107805000D01*
X186350009Y-106039530D01*
X186929782Y-106039530D01*
X187121201Y-106502800D01*
X187475335Y-106857553D01*
X187938271Y-107049781D01*
X188439530Y-107050218D01*
X188902800Y-106858799D01*
X189257553Y-106504665D01*
X189449781Y-106041729D01*
X189449782Y-106039530D01*
X189469782Y-106039530D01*
X189661201Y-106502800D01*
X190015335Y-106857553D01*
X190478271Y-107049781D01*
X190979530Y-107050218D01*
X191442800Y-106858799D01*
X191797553Y-106504665D01*
X191989781Y-106041729D01*
X191990218Y-105540470D01*
X191798799Y-105077200D01*
X191444665Y-104722447D01*
X190981729Y-104530219D01*
X190480470Y-104529782D01*
X190017200Y-104721201D01*
X189662447Y-105075335D01*
X189470219Y-105538271D01*
X189469782Y-106039530D01*
X189449782Y-106039530D01*
X189450218Y-105540470D01*
X189258799Y-105077200D01*
X188904665Y-104722447D01*
X188441729Y-104530219D01*
X187940470Y-104529782D01*
X187477200Y-104721201D01*
X187122447Y-105075335D01*
X186930219Y-105538271D01*
X186929782Y-106039530D01*
X186350009Y-106039530D01*
X186350009Y-103499530D01*
X186929782Y-103499530D01*
X187121201Y-103962800D01*
X187475335Y-104317553D01*
X187938271Y-104509781D01*
X188439530Y-104510218D01*
X188902800Y-104318799D01*
X189257553Y-103964665D01*
X189449781Y-103501729D01*
X189449782Y-103499530D01*
X189469782Y-103499530D01*
X189661201Y-103962800D01*
X190015335Y-104317553D01*
X190478271Y-104509781D01*
X190979530Y-104510218D01*
X191442800Y-104318799D01*
X191797553Y-103964665D01*
X191989781Y-103501729D01*
X191990218Y-103000470D01*
X191798799Y-102537200D01*
X191444665Y-102182447D01*
X190981729Y-101990219D01*
X190480470Y-101989782D01*
X190017200Y-102181201D01*
X189662447Y-102535335D01*
X189470219Y-102998271D01*
X189469782Y-103499530D01*
X189449782Y-103499530D01*
X189450218Y-103000470D01*
X189258799Y-102537200D01*
X188904665Y-102182447D01*
X188441729Y-101990219D01*
X187940470Y-101989782D01*
X187477200Y-102181201D01*
X187122447Y-102535335D01*
X186930219Y-102998271D01*
X186929782Y-103499530D01*
X186350009Y-103499530D01*
X186350009Y-100959530D01*
X186929782Y-100959530D01*
X187121201Y-101422800D01*
X187475335Y-101777553D01*
X187938271Y-101969781D01*
X188439530Y-101970218D01*
X188902800Y-101778799D01*
X189257553Y-101424665D01*
X189449781Y-100961729D01*
X189449782Y-100959530D01*
X189469782Y-100959530D01*
X189661201Y-101422800D01*
X190015335Y-101777553D01*
X190478271Y-101969781D01*
X190979530Y-101970218D01*
X191442800Y-101778799D01*
X191797553Y-101424665D01*
X191989781Y-100961729D01*
X191990218Y-100460470D01*
X191798799Y-99997200D01*
X191444665Y-99642447D01*
X190981729Y-99450219D01*
X190480470Y-99449782D01*
X190017200Y-99641201D01*
X189662447Y-99995335D01*
X189470219Y-100458271D01*
X189469782Y-100959530D01*
X189449782Y-100959530D01*
X189450218Y-100460470D01*
X189258799Y-99997200D01*
X188904665Y-99642447D01*
X188441729Y-99450219D01*
X187940470Y-99449782D01*
X187477200Y-99641201D01*
X187122447Y-99995335D01*
X186930219Y-100458271D01*
X186929782Y-100959530D01*
X186350009Y-100959530D01*
X186350009Y-98419530D01*
X186929782Y-98419530D01*
X187121201Y-98882800D01*
X187475335Y-99237553D01*
X187938271Y-99429781D01*
X188439530Y-99430218D01*
X188902800Y-99238799D01*
X189257553Y-98884665D01*
X189449781Y-98421729D01*
X189449782Y-98419530D01*
X189469782Y-98419530D01*
X189661201Y-98882800D01*
X190015335Y-99237553D01*
X190478271Y-99429781D01*
X190979530Y-99430218D01*
X191442800Y-99238799D01*
X191797553Y-98884665D01*
X191989781Y-98421729D01*
X191990218Y-97920470D01*
X191798799Y-97457200D01*
X191444665Y-97102447D01*
X190981729Y-96910219D01*
X190480470Y-96909782D01*
X190017200Y-97101201D01*
X189662447Y-97455335D01*
X189470219Y-97918271D01*
X189469782Y-98419530D01*
X189449782Y-98419530D01*
X189450218Y-97920470D01*
X189258799Y-97457200D01*
X188904665Y-97102447D01*
X188441729Y-96910219D01*
X187940470Y-96909782D01*
X187477200Y-97101201D01*
X187122447Y-97455335D01*
X186930219Y-97918271D01*
X186929782Y-98419530D01*
X186350009Y-98419530D01*
X186350009Y-95879530D01*
X186929782Y-95879530D01*
X187121201Y-96342800D01*
X187475335Y-96697553D01*
X187938271Y-96889781D01*
X188439530Y-96890218D01*
X188902800Y-96698799D01*
X189257553Y-96344665D01*
X189449781Y-95881729D01*
X189449782Y-95879530D01*
X189469782Y-95879530D01*
X189661201Y-96342800D01*
X190015335Y-96697553D01*
X190478271Y-96889781D01*
X190979530Y-96890218D01*
X191442800Y-96698799D01*
X191797553Y-96344665D01*
X191989781Y-95881729D01*
X191989958Y-95678236D01*
X198099844Y-95678236D01*
X198236572Y-96009143D01*
X198489525Y-96262538D01*
X198820194Y-96399843D01*
X199178236Y-96400156D01*
X199509143Y-96263428D01*
X199762538Y-96010475D01*
X199899843Y-95679806D01*
X199900156Y-95321764D01*
X199763428Y-94990857D01*
X199510475Y-94737462D01*
X199179806Y-94600157D01*
X198821764Y-94599844D01*
X198490857Y-94736572D01*
X198237462Y-94989525D01*
X198100157Y-95320194D01*
X198099844Y-95678236D01*
X191989958Y-95678236D01*
X191990218Y-95380470D01*
X191798799Y-94917200D01*
X191444665Y-94562447D01*
X190981729Y-94370219D01*
X190480470Y-94369782D01*
X190017200Y-94561201D01*
X189662447Y-94915335D01*
X189470219Y-95378271D01*
X189469782Y-95879530D01*
X189449782Y-95879530D01*
X189450218Y-95380470D01*
X189258799Y-94917200D01*
X188904665Y-94562447D01*
X188441729Y-94370219D01*
X187940470Y-94369782D01*
X187477200Y-94561201D01*
X187122447Y-94915335D01*
X186930219Y-95378271D01*
X186929782Y-95879530D01*
X186350009Y-95879530D01*
X186350009Y-93339530D01*
X186929782Y-93339530D01*
X187121201Y-93802800D01*
X187475335Y-94157553D01*
X187938271Y-94349781D01*
X188439530Y-94350218D01*
X188902800Y-94158799D01*
X189257553Y-93804665D01*
X189449781Y-93341729D01*
X189449782Y-93339530D01*
X189469782Y-93339530D01*
X189661201Y-93802800D01*
X190015335Y-94157553D01*
X190478271Y-94349781D01*
X190979530Y-94350218D01*
X191442800Y-94158799D01*
X191797553Y-93804665D01*
X191989781Y-93341729D01*
X191990218Y-92840470D01*
X191798799Y-92377200D01*
X191444665Y-92022447D01*
X190981729Y-91830219D01*
X190480470Y-91829782D01*
X190017200Y-92021201D01*
X189662447Y-92375335D01*
X189470219Y-92838271D01*
X189469782Y-93339530D01*
X189449782Y-93339530D01*
X189450218Y-92840470D01*
X189258799Y-92377200D01*
X188904665Y-92022447D01*
X188441729Y-91830219D01*
X187940470Y-91829782D01*
X187477200Y-92021201D01*
X187122447Y-92375335D01*
X186930219Y-92838271D01*
X186929782Y-93339530D01*
X186350009Y-93339530D01*
X186350009Y-90799530D01*
X186929782Y-90799530D01*
X187121201Y-91262800D01*
X187475335Y-91617553D01*
X187938271Y-91809781D01*
X188439530Y-91810218D01*
X188902800Y-91618799D01*
X189257553Y-91264665D01*
X189449781Y-90801729D01*
X189449782Y-90799530D01*
X189469782Y-90799530D01*
X189661201Y-91262800D01*
X190015335Y-91617553D01*
X190478271Y-91809781D01*
X190979530Y-91810218D01*
X191442800Y-91618799D01*
X191797553Y-91264665D01*
X191989781Y-90801729D01*
X191990218Y-90300470D01*
X191798799Y-89837200D01*
X191444665Y-89482447D01*
X190981729Y-89290219D01*
X190480470Y-89289782D01*
X190017200Y-89481201D01*
X189662447Y-89835335D01*
X189470219Y-90298271D01*
X189469782Y-90799530D01*
X189449782Y-90799530D01*
X189450218Y-90300470D01*
X189258799Y-89837200D01*
X188904665Y-89482447D01*
X188441729Y-89290219D01*
X187940470Y-89289782D01*
X187477200Y-89481201D01*
X187122447Y-89835335D01*
X186930219Y-90298271D01*
X186929782Y-90799530D01*
X186350009Y-90799530D01*
X186350009Y-89075009D01*
X186310046Y-88874100D01*
X186196240Y-88703778D01*
X185950037Y-88457575D01*
X185950121Y-88361372D01*
X185843777Y-88104000D01*
X185647036Y-87906915D01*
X185389850Y-87800122D01*
X185111372Y-87799879D01*
X184950117Y-87866508D01*
X184950165Y-87811862D01*
X184883285Y-87649999D01*
X186975178Y-87649999D01*
X186930219Y-87758271D01*
X186929782Y-88259530D01*
X187121201Y-88722800D01*
X187475335Y-89077553D01*
X187938271Y-89269781D01*
X188439530Y-89270218D01*
X188902800Y-89078799D01*
X189257553Y-88724665D01*
X189449781Y-88261729D01*
X189449782Y-88259530D01*
X189469782Y-88259530D01*
X189661201Y-88722800D01*
X190015335Y-89077553D01*
X190478271Y-89269781D01*
X190979530Y-89270218D01*
X191442800Y-89078799D01*
X191797553Y-88724665D01*
X191989781Y-88261729D01*
X191990218Y-87760470D01*
X191798799Y-87297200D01*
X191444665Y-86942447D01*
X190981729Y-86750219D01*
X190480470Y-86749782D01*
X190017200Y-86941201D01*
X189662447Y-87295335D01*
X189470219Y-87758271D01*
X189469782Y-88259530D01*
X189449782Y-88259530D01*
X189450218Y-87760470D01*
X189371794Y-87570668D01*
X189746232Y-87196230D01*
X189860038Y-87025908D01*
X189900001Y-86824999D01*
X189900001Y-86422017D01*
X190015335Y-86537553D01*
X190478271Y-86729781D01*
X190979530Y-86730218D01*
X191442800Y-86538799D01*
X191797553Y-86184665D01*
X191946628Y-85825652D01*
X193148624Y-87027648D01*
X193148540Y-87123851D01*
X193254884Y-87381223D01*
X193451625Y-87578308D01*
X193708811Y-87685101D01*
X193987289Y-87685344D01*
X194244661Y-87579000D01*
X194441746Y-87382259D01*
X194548539Y-87125073D01*
X194548607Y-87047157D01*
X194701626Y-87200444D01*
X194958812Y-87307237D01*
X195237290Y-87307480D01*
X195494662Y-87201136D01*
X195691747Y-87004395D01*
X195725001Y-86924311D01*
X195725001Y-87595516D01*
X195380084Y-87940433D01*
X195209208Y-87869479D01*
X194930730Y-87869236D01*
X194673358Y-87975580D01*
X194476273Y-88172321D01*
X194369480Y-88429507D01*
X194369237Y-88707985D01*
X194475581Y-88965357D01*
X194672322Y-89162442D01*
X194929508Y-89269235D01*
X195207986Y-89269478D01*
X195465358Y-89163134D01*
X195544367Y-89084263D01*
X195694531Y-89054394D01*
X195864853Y-88940588D01*
X196621232Y-88184209D01*
X196735038Y-88013887D01*
X196775001Y-87812978D01*
X196775001Y-86200022D01*
X196849585Y-86200087D01*
X196871767Y-86253772D01*
X197068508Y-86450857D01*
X197325694Y-86557650D01*
X197604172Y-86557893D01*
X197702515Y-86517259D01*
X197841604Y-86656591D01*
X198098790Y-86763384D01*
X198351518Y-86763605D01*
X198406223Y-86896000D01*
X198485094Y-86975009D01*
X198514963Y-87125173D01*
X198628769Y-87295495D01*
X198799091Y-87409301D01*
X199000000Y-87449264D01*
X199200909Y-87409301D01*
X199371231Y-87295495D01*
X200415000Y-86251726D01*
X200415000Y-134525000D01*
X105475000Y-134525000D01*
X105475000Y-133178236D01*
X146599844Y-133178236D01*
X146736572Y-133509143D01*
X146989525Y-133762538D01*
X147320194Y-133899843D01*
X147678236Y-133900156D01*
X148009143Y-133763428D01*
X148262538Y-133510475D01*
X148399843Y-133179806D01*
X148399844Y-133178236D01*
X157599844Y-133178236D01*
X157736572Y-133509143D01*
X157989525Y-133762538D01*
X158320194Y-133899843D01*
X158678236Y-133900156D01*
X159009143Y-133763428D01*
X159262538Y-133510475D01*
X159399843Y-133179806D01*
X159400156Y-132821764D01*
X159327756Y-132646541D01*
X193301248Y-132646541D01*
X193669242Y-133128501D01*
X195060037Y-133703501D01*
X196565007Y-133702497D01*
X197950758Y-133128501D01*
X198318752Y-132646541D01*
X195810000Y-130137789D01*
X193301248Y-132646541D01*
X159327756Y-132646541D01*
X159263428Y-132490857D01*
X159010475Y-132237462D01*
X158679806Y-132100157D01*
X158321764Y-132099844D01*
X157990857Y-132236572D01*
X157737462Y-132489525D01*
X157600157Y-132820194D01*
X157599844Y-133178236D01*
X148399844Y-133178236D01*
X148400156Y-132821764D01*
X148263428Y-132490857D01*
X148010475Y-132237462D01*
X147679806Y-132100157D01*
X147321764Y-132099844D01*
X146990857Y-132236572D01*
X146737462Y-132489525D01*
X146600157Y-132820194D01*
X146599844Y-133178236D01*
X105475000Y-133178236D01*
X105475000Y-128836541D01*
X107571248Y-128836541D01*
X107939242Y-129318501D01*
X109330037Y-129893501D01*
X110835007Y-129892497D01*
X112220758Y-129318501D01*
X112588752Y-128836541D01*
X110080000Y-126327789D01*
X107571248Y-128836541D01*
X105475000Y-128836541D01*
X105475000Y-125360037D01*
X106296499Y-125360037D01*
X106297503Y-126865007D01*
X106871499Y-128250758D01*
X107353459Y-128618752D01*
X109862211Y-126110000D01*
X110297789Y-126110000D01*
X112806541Y-128618752D01*
X113288501Y-128250758D01*
X113863501Y-126859963D01*
X113862497Y-125354993D01*
X113288501Y-123969242D01*
X112806541Y-123601248D01*
X110297789Y-126110000D01*
X109862211Y-126110000D01*
X107353459Y-123601248D01*
X106871499Y-123969242D01*
X106296499Y-125360037D01*
X105475000Y-125360037D01*
X105475000Y-123383459D01*
X107571248Y-123383459D01*
X110080000Y-125892211D01*
X112588752Y-123383459D01*
X112220758Y-122901499D01*
X110829963Y-122326499D01*
X109324993Y-122327503D01*
X107939242Y-122901499D01*
X107571248Y-123383459D01*
X105475000Y-123383459D01*
X105475000Y-95524938D01*
X106099844Y-95524938D01*
X106236572Y-95855845D01*
X106489525Y-96109240D01*
X106820194Y-96246545D01*
X107178236Y-96246858D01*
X107509143Y-96110130D01*
X107762538Y-95857177D01*
X107899843Y-95526508D01*
X107900156Y-95168466D01*
X107763428Y-94837559D01*
X107510475Y-94584164D01*
X107179806Y-94446859D01*
X106821764Y-94446546D01*
X106490857Y-94583274D01*
X106237462Y-94836227D01*
X106100157Y-95166896D01*
X106099844Y-95524938D01*
X105475000Y-95524938D01*
X105475000Y-84524938D01*
X106099844Y-84524938D01*
X106236572Y-84855845D01*
X106489525Y-85109240D01*
X106820194Y-85246545D01*
X107178236Y-85246858D01*
X107509143Y-85110130D01*
X107762538Y-84857177D01*
X107899843Y-84526508D01*
X107900156Y-84168466D01*
X107763428Y-83837559D01*
X107510475Y-83584164D01*
X107179806Y-83446859D01*
X106821764Y-83446546D01*
X106490857Y-83583274D01*
X106237462Y-83836227D01*
X106100157Y-84166896D01*
X106099844Y-84524938D01*
X105475000Y-84524938D01*
X105475000Y-55176541D01*
X107571248Y-55176541D01*
X107939242Y-55658501D01*
X109330037Y-56233501D01*
X110835007Y-56232497D01*
X112220758Y-55658501D01*
X112588752Y-55176541D01*
X110080000Y-52667789D01*
X107571248Y-55176541D01*
X105475000Y-55176541D01*
X105475000Y-51700037D01*
X106296499Y-51700037D01*
X106297503Y-53205007D01*
X106871499Y-54590758D01*
X107353459Y-54958752D01*
X109862211Y-52450000D01*
X110297789Y-52450000D01*
X112806541Y-54958752D01*
X113288501Y-54590758D01*
X113863501Y-53199963D01*
X113862497Y-51694993D01*
X113288501Y-50309242D01*
X112806541Y-49941248D01*
X110297789Y-52450000D01*
X109862211Y-52450000D01*
X107353459Y-49941248D01*
X106871499Y-50309242D01*
X106296499Y-51700037D01*
X105475000Y-51700037D01*
X105475000Y-49723459D01*
X107571248Y-49723459D01*
X110080000Y-52232211D01*
X112588752Y-49723459D01*
X112220758Y-49241499D01*
X110829963Y-48666499D01*
X109324993Y-48667503D01*
X107939242Y-49241499D01*
X107571248Y-49723459D01*
X105475000Y-49723459D01*
X105475000Y-45305000D01*
X200415000Y-45305000D01*
X200415000Y-79505158D01*
G36*
X159475000Y-51784998D02*
X159406915Y-51852964D01*
X159300122Y-52110150D01*
X159300003Y-52246650D01*
X159264963Y-52299091D01*
X159225000Y-52500000D01*
X159225000Y-56452362D01*
X159010475Y-56237462D01*
X158679806Y-56100157D01*
X158321764Y-56099844D01*
X157990857Y-56236572D01*
X157737462Y-56489525D01*
X157600157Y-56820194D01*
X157599844Y-57178236D01*
X157736572Y-57509143D01*
X157989525Y-57762538D01*
X158320194Y-57899843D01*
X158678236Y-57900156D01*
X159009143Y-57763428D01*
X159225000Y-57547948D01*
X159225000Y-61534998D01*
X159156915Y-61602964D01*
X159050122Y-61860150D01*
X159049879Y-62138628D01*
X159156223Y-62396000D01*
X159352964Y-62593085D01*
X159610150Y-62699878D01*
X159888628Y-62700121D01*
X160146000Y-62593777D01*
X160343085Y-62397036D01*
X160449878Y-62139850D01*
X160450121Y-61861372D01*
X160343777Y-61604000D01*
X160275000Y-61535103D01*
X160275000Y-52893773D01*
X160396000Y-52843777D01*
X160593085Y-52647036D01*
X160699878Y-52389850D01*
X160700121Y-52111372D01*
X160593777Y-51854000D01*
X160525000Y-51785103D01*
X160525000Y-51400000D01*
X160942000Y-51400000D01*
X160942000Y-72700000D01*
X160983581Y-72920982D01*
X161114181Y-73123941D01*
X161313454Y-73260098D01*
X161550000Y-73308000D01*
X176300000Y-73308000D01*
X176520982Y-73266419D01*
X176723941Y-73135819D01*
X176860098Y-72936546D01*
X176908000Y-72700000D01*
X176908000Y-65399530D01*
X186929782Y-65399530D01*
X187121201Y-65862800D01*
X187475335Y-66217553D01*
X187938271Y-66409781D01*
X188439530Y-66410218D01*
X188629332Y-66331794D01*
X189173768Y-66876230D01*
X189344090Y-66990036D01*
X189544999Y-67029999D01*
X189639749Y-67029999D01*
X189470219Y-67438271D01*
X189469782Y-67939530D01*
X189661201Y-68402800D01*
X190015335Y-68757553D01*
X190478271Y-68949781D01*
X190979530Y-68950218D01*
X191442800Y-68758799D01*
X191797553Y-68404665D01*
X191989781Y-67941729D01*
X191989784Y-67938444D01*
X193675000Y-69623660D01*
X193675000Y-71134998D01*
X193606915Y-71202964D01*
X193500122Y-71460150D01*
X193499879Y-71738628D01*
X193606223Y-71996000D01*
X193802964Y-72193085D01*
X194060150Y-72299878D01*
X194338628Y-72300121D01*
X194596000Y-72193777D01*
X194793085Y-71997036D01*
X194899878Y-71739850D01*
X194900121Y-71461372D01*
X194793777Y-71204000D01*
X194725000Y-71135103D01*
X194725000Y-69406198D01*
X194685037Y-69205289D01*
X194571231Y-69034967D01*
X191670032Y-66133768D01*
X191584938Y-66076909D01*
X191797553Y-65864665D01*
X191989781Y-65401729D01*
X191990218Y-64900470D01*
X191798799Y-64437200D01*
X191444665Y-64082447D01*
X190981729Y-63890219D01*
X190480470Y-63889782D01*
X190017200Y-64081201D01*
X189662447Y-64435335D01*
X189470219Y-64898271D01*
X189469782Y-65399530D01*
X189661201Y-65862800D01*
X189778196Y-65979999D01*
X189762461Y-65979999D01*
X189371856Y-65589394D01*
X189449781Y-65401729D01*
X189450218Y-64900470D01*
X189258799Y-64437200D01*
X188904665Y-64082447D01*
X188441729Y-63890219D01*
X187940470Y-63889782D01*
X187477200Y-64081201D01*
X187122447Y-64435335D01*
X186930219Y-64898271D01*
X186929782Y-65399530D01*
X176908000Y-65399530D01*
X176908000Y-62424315D01*
X179829498Y-62424315D01*
X180270066Y-63490572D01*
X181085137Y-64307067D01*
X182150624Y-64749495D01*
X183304315Y-64750502D01*
X184370572Y-64309934D01*
X185187067Y-63494863D01*
X185450879Y-62859530D01*
X186929782Y-62859530D01*
X187121201Y-63322800D01*
X187475335Y-63677553D01*
X187938271Y-63869781D01*
X188439530Y-63870218D01*
X188902800Y-63678799D01*
X189257553Y-63324665D01*
X189449781Y-62861729D01*
X189449782Y-62859530D01*
X189469782Y-62859530D01*
X189661201Y-63322800D01*
X190015335Y-63677553D01*
X190478271Y-63869781D01*
X190979530Y-63870218D01*
X191442800Y-63678799D01*
X191797553Y-63324665D01*
X191989781Y-62861729D01*
X191990218Y-62360470D01*
X191798799Y-61897200D01*
X191444665Y-61542447D01*
X190981729Y-61350219D01*
X190480470Y-61349782D01*
X190017200Y-61541201D01*
X189662447Y-61895335D01*
X189470219Y-62358271D01*
X189469782Y-62859530D01*
X189449782Y-62859530D01*
X189450218Y-62360470D01*
X189258799Y-61897200D01*
X188904665Y-61542447D01*
X188441729Y-61350219D01*
X187940470Y-61349782D01*
X187477200Y-61541201D01*
X187122447Y-61895335D01*
X186930219Y-62358271D01*
X186929782Y-62859530D01*
X185450879Y-62859530D01*
X185629495Y-62429376D01*
X185630502Y-61275685D01*
X185235428Y-60319530D01*
X186929782Y-60319530D01*
X187121201Y-60782800D01*
X187475335Y-61137553D01*
X187938271Y-61329781D01*
X188439530Y-61330218D01*
X188902800Y-61138799D01*
X189257553Y-60784665D01*
X189449781Y-60321729D01*
X189450218Y-59820470D01*
X189258799Y-59357200D01*
X188904665Y-59002447D01*
X188441729Y-58810219D01*
X187940470Y-58809782D01*
X187477200Y-59001201D01*
X187122447Y-59355335D01*
X186930219Y-59818271D01*
X186929782Y-60319530D01*
X185235428Y-60319530D01*
X185189934Y-60209428D01*
X184374863Y-59392933D01*
X183309376Y-58950505D01*
X182155685Y-58949498D01*
X181089428Y-59390066D01*
X180272933Y-60205137D01*
X179830505Y-61270624D01*
X179829498Y-62424315D01*
X176908000Y-62424315D01*
X176908000Y-51400000D01*
X176866419Y-51179018D01*
X176735819Y-50976059D01*
X176536546Y-50839902D01*
X176300000Y-50792000D01*
X161550000Y-50792000D01*
X161329018Y-50833581D01*
X161126059Y-50964181D01*
X160989902Y-51163454D01*
X160942000Y-51400000D01*
X160525000Y-51400000D01*
X160525000Y-49100001D01*
X178487209Y-49100001D01*
X186929988Y-57542780D01*
X186929782Y-57779530D01*
X187121201Y-58242800D01*
X187475335Y-58597553D01*
X187938271Y-58789781D01*
X188439530Y-58790218D01*
X188629332Y-58711794D01*
X189003770Y-59086232D01*
X189174092Y-59200038D01*
X189375001Y-59240001D01*
X189777983Y-59240001D01*
X189662447Y-59355335D01*
X189470219Y-59818271D01*
X189469782Y-60319530D01*
X189661201Y-60782800D01*
X190015335Y-61137553D01*
X190478271Y-61329781D01*
X190979530Y-61330218D01*
X191442800Y-61138799D01*
X191797553Y-60784665D01*
X191989781Y-60321729D01*
X191989784Y-60318444D01*
X195149999Y-63478659D01*
X195149999Y-72075000D01*
X195000000Y-72075000D01*
X194799091Y-72114963D01*
X194628769Y-72228769D01*
X192557575Y-74299963D01*
X192461372Y-74299879D01*
X192204000Y-74406223D01*
X192006915Y-74602964D01*
X191903794Y-74851307D01*
X191798799Y-74597200D01*
X191444665Y-74242447D01*
X190981729Y-74050219D01*
X190480470Y-74049782D01*
X190017200Y-74241201D01*
X189662447Y-74595335D01*
X189470219Y-75058271D01*
X189469782Y-75559530D01*
X189661201Y-76022800D01*
X189778196Y-76139999D01*
X189142017Y-76139999D01*
X189257553Y-76024665D01*
X189449781Y-75561729D01*
X189450218Y-75060470D01*
X189258799Y-74597200D01*
X188904665Y-74242447D01*
X188441729Y-74050219D01*
X187940470Y-74049782D01*
X187477200Y-74241201D01*
X187122447Y-74595335D01*
X186930219Y-75058271D01*
X186929782Y-75559530D01*
X187121201Y-76022800D01*
X187320503Y-76222451D01*
X187213770Y-76293768D01*
X185775000Y-77732538D01*
X185775000Y-75250000D01*
X185735037Y-75049091D01*
X185621231Y-74878769D01*
X184944678Y-74202216D01*
X184949835Y-74189796D01*
X184950165Y-73811862D01*
X184805841Y-73462571D01*
X184538835Y-73195098D01*
X184189796Y-73050165D01*
X183811862Y-73049835D01*
X183462571Y-73194159D01*
X183195098Y-73461165D01*
X183050165Y-73810204D01*
X183049835Y-74188138D01*
X183194159Y-74537429D01*
X183461165Y-74804902D01*
X183810204Y-74949835D01*
X184188138Y-74950165D01*
X184201983Y-74944445D01*
X184391427Y-75133889D01*
X184189796Y-75050165D01*
X183811862Y-75049835D01*
X183462571Y-75194159D01*
X183195098Y-75461165D01*
X183050165Y-75810204D01*
X183049835Y-76188138D01*
X183194159Y-76537429D01*
X183461165Y-76804902D01*
X183810204Y-76949835D01*
X184188138Y-76950165D01*
X184537429Y-76805841D01*
X184725000Y-76618597D01*
X184725000Y-77381589D01*
X184538835Y-77195098D01*
X184189796Y-77050165D01*
X183811862Y-77049835D01*
X183462571Y-77194159D01*
X183195098Y-77461165D01*
X183121339Y-77638798D01*
X183037555Y-77436526D01*
X182828089Y-77389700D01*
X182217789Y-78000000D01*
X182828089Y-78610300D01*
X183037555Y-78563474D01*
X183109378Y-78332243D01*
X183194159Y-78537429D01*
X183461165Y-78804902D01*
X183810204Y-78949835D01*
X184188138Y-78950165D01*
X184537429Y-78805841D01*
X184725000Y-78618597D01*
X184725000Y-79381589D01*
X184538835Y-79195098D01*
X184189796Y-79050165D01*
X183811862Y-79049835D01*
X183462571Y-79194159D01*
X183195098Y-79461165D01*
X183050165Y-79810204D01*
X183049835Y-80188138D01*
X183194159Y-80537429D01*
X183461165Y-80804902D01*
X183638798Y-80878661D01*
X183436526Y-80962445D01*
X183389700Y-81171911D01*
X184000000Y-81782211D01*
X184014142Y-81768069D01*
X184231931Y-81985858D01*
X184217789Y-82000000D01*
X184231931Y-82014142D01*
X184014142Y-82231931D01*
X184000000Y-82217789D01*
X183389700Y-82828089D01*
X183436526Y-83037555D01*
X183667757Y-83109378D01*
X183462571Y-83194159D01*
X183195098Y-83461165D01*
X183121339Y-83638798D01*
X183037555Y-83436526D01*
X182828089Y-83389700D01*
X182217789Y-84000000D01*
X182231931Y-84014142D01*
X182014142Y-84231931D01*
X182000000Y-84217789D01*
X181985858Y-84231931D01*
X181768069Y-84014142D01*
X181782211Y-84000000D01*
X181171911Y-83389700D01*
X180962445Y-83436526D01*
X180876676Y-83712654D01*
X180871231Y-83704504D01*
X179399999Y-82233272D01*
X179399999Y-82188138D01*
X181049835Y-82188138D01*
X181194159Y-82537429D01*
X181461165Y-82804902D01*
X181638798Y-82878661D01*
X181436526Y-82962445D01*
X181389700Y-83171911D01*
X182000000Y-83782211D01*
X182610300Y-83171911D01*
X182563474Y-82962445D01*
X182332243Y-82890622D01*
X182537429Y-82805841D01*
X182804902Y-82538835D01*
X182878661Y-82361202D01*
X182962445Y-82563474D01*
X183171911Y-82610300D01*
X183782211Y-82000000D01*
X183171911Y-81389700D01*
X182962445Y-81436526D01*
X182890622Y-81667757D01*
X182805841Y-81462571D01*
X182538835Y-81195098D01*
X182189796Y-81050165D01*
X181811862Y-81049835D01*
X181462571Y-81194159D01*
X181195098Y-81461165D01*
X181050165Y-81810204D01*
X181049835Y-82188138D01*
X179399999Y-82188138D01*
X179399999Y-80188138D01*
X181049835Y-80188138D01*
X181194159Y-80537429D01*
X181461165Y-80804902D01*
X181810204Y-80949835D01*
X182188138Y-80950165D01*
X182537429Y-80805841D01*
X182804902Y-80538835D01*
X182949835Y-80189796D01*
X182950165Y-79811862D01*
X182805841Y-79462571D01*
X182538835Y-79195098D01*
X182361202Y-79121339D01*
X182563474Y-79037555D01*
X182610300Y-78828089D01*
X182000000Y-78217789D01*
X181389700Y-78828089D01*
X181436526Y-79037555D01*
X181667757Y-79109378D01*
X181462571Y-79194159D01*
X181195098Y-79461165D01*
X181050165Y-79810204D01*
X181049835Y-80188138D01*
X179399999Y-80188138D01*
X179399999Y-77876473D01*
X180825792Y-77876473D01*
X180867902Y-78335226D01*
X180962445Y-78563474D01*
X181171911Y-78610300D01*
X181782211Y-78000000D01*
X181171911Y-77389700D01*
X180962445Y-77436526D01*
X180825792Y-77876473D01*
X179399999Y-77876473D01*
X179399999Y-76188138D01*
X181049835Y-76188138D01*
X181194159Y-76537429D01*
X181461165Y-76804902D01*
X181638798Y-76878661D01*
X181436526Y-76962445D01*
X181389700Y-77171911D01*
X182000000Y-77782211D01*
X182610300Y-77171911D01*
X182563474Y-76962445D01*
X182332243Y-76890622D01*
X182537429Y-76805841D01*
X182804902Y-76538835D01*
X182949835Y-76189796D01*
X182950165Y-75811862D01*
X182805841Y-75462571D01*
X182538835Y-75195098D01*
X182189796Y-75050165D01*
X181811862Y-75049835D01*
X181462571Y-75194159D01*
X181195098Y-75461165D01*
X181050165Y-75810204D01*
X181049835Y-76188138D01*
X179399999Y-76188138D01*
X179399999Y-74188138D01*
X181049835Y-74188138D01*
X181194159Y-74537429D01*
X181461165Y-74804902D01*
X181810204Y-74949835D01*
X182188138Y-74950165D01*
X182537429Y-74805841D01*
X182804902Y-74538835D01*
X182949835Y-74189796D01*
X182950165Y-73811862D01*
X182805841Y-73462571D01*
X182538835Y-73195098D01*
X182189796Y-73050165D01*
X181811862Y-73049835D01*
X181462571Y-73194159D01*
X181195098Y-73461165D01*
X181050165Y-73810204D01*
X181049835Y-74188138D01*
X179399999Y-74188138D01*
X179399999Y-74047461D01*
X180427930Y-73019530D01*
X186929782Y-73019530D01*
X187121201Y-73482800D01*
X187475335Y-73837553D01*
X187938271Y-74029781D01*
X188439530Y-74030218D01*
X188902800Y-73838799D01*
X189257553Y-73484665D01*
X189449781Y-73021729D01*
X189449782Y-73019530D01*
X189469782Y-73019530D01*
X189661201Y-73482800D01*
X190015335Y-73837553D01*
X190478271Y-74029781D01*
X190979530Y-74030218D01*
X191442800Y-73838799D01*
X191797553Y-73484665D01*
X191989781Y-73021729D01*
X191990218Y-72520470D01*
X191798799Y-72057200D01*
X191444665Y-71702447D01*
X190981729Y-71510219D01*
X190480470Y-71509782D01*
X190017200Y-71701201D01*
X189662447Y-72055335D01*
X189470219Y-72518271D01*
X189469782Y-73019530D01*
X189449782Y-73019530D01*
X189450218Y-72520470D01*
X189258799Y-72057200D01*
X188904665Y-71702447D01*
X188441729Y-71510219D01*
X187940470Y-71509782D01*
X187477200Y-71701201D01*
X187122447Y-72055335D01*
X186930219Y-72518271D01*
X186929782Y-73019530D01*
X180427930Y-73019530D01*
X181111085Y-72336375D01*
X181194159Y-72537429D01*
X181461165Y-72804902D01*
X181810204Y-72949835D01*
X182188138Y-72950165D01*
X182537429Y-72805841D01*
X182804902Y-72538835D01*
X182949835Y-72189796D01*
X182950165Y-71811862D01*
X182805841Y-71462571D01*
X182743380Y-71400001D01*
X183256369Y-71400001D01*
X183195098Y-71461165D01*
X183050165Y-71810204D01*
X183049835Y-72188138D01*
X183194159Y-72537429D01*
X183461165Y-72804902D01*
X183810204Y-72949835D01*
X184188138Y-72950165D01*
X184537429Y-72805841D01*
X184804902Y-72538835D01*
X184949835Y-72189796D01*
X184950165Y-71811862D01*
X184805841Y-71462571D01*
X184743380Y-71400001D01*
X186328776Y-71400001D01*
X186529685Y-71360038D01*
X186700007Y-71246232D01*
X187086770Y-70859469D01*
X187121201Y-70942800D01*
X187475335Y-71297553D01*
X187938271Y-71489781D01*
X188439530Y-71490218D01*
X188902800Y-71298799D01*
X189257553Y-70944665D01*
X189449781Y-70481729D01*
X189449782Y-70479530D01*
X189469782Y-70479530D01*
X189661201Y-70942800D01*
X190015335Y-71297553D01*
X190478271Y-71489781D01*
X190979530Y-71490218D01*
X191442800Y-71298799D01*
X191797553Y-70944665D01*
X191989781Y-70481729D01*
X191990218Y-69980470D01*
X191798799Y-69517200D01*
X191444665Y-69162447D01*
X190981729Y-68970219D01*
X190480470Y-68969782D01*
X190017200Y-69161201D01*
X189662447Y-69515335D01*
X189470219Y-69978271D01*
X189469782Y-70479530D01*
X189449782Y-70479530D01*
X189450218Y-69980470D01*
X189258799Y-69517200D01*
X188904665Y-69162447D01*
X188441729Y-68970219D01*
X187940470Y-68969782D01*
X187477200Y-69161201D01*
X187122447Y-69515335D01*
X187043691Y-69705000D01*
X186973777Y-69705000D01*
X186772868Y-69744963D01*
X186602546Y-69858769D01*
X186111314Y-70350001D01*
X184883312Y-70350001D01*
X184949835Y-70189796D01*
X184950165Y-69811862D01*
X184805841Y-69462571D01*
X184538835Y-69195098D01*
X184189796Y-69050165D01*
X183811862Y-69049835D01*
X183699916Y-69096090D01*
X183700121Y-68861372D01*
X183593777Y-68604000D01*
X183397036Y-68406915D01*
X183145141Y-68302319D01*
X183232460Y-68215000D01*
X187043604Y-68215000D01*
X187121201Y-68402800D01*
X187475335Y-68757553D01*
X187938271Y-68949781D01*
X188439530Y-68950218D01*
X188902800Y-68758799D01*
X189257553Y-68404665D01*
X189449781Y-67941729D01*
X189450218Y-67440470D01*
X189258799Y-66977200D01*
X188904665Y-66622447D01*
X188441729Y-66430219D01*
X187940470Y-66429782D01*
X187477200Y-66621201D01*
X187122447Y-66975335D01*
X187043691Y-67165000D01*
X183014998Y-67165000D01*
X182814089Y-67204963D01*
X182643767Y-67318769D01*
X177603748Y-72358788D01*
X177489942Y-72529110D01*
X177449979Y-72730019D01*
X177449979Y-84557559D01*
X176007537Y-86000001D01*
X164999913Y-86000001D01*
X165000121Y-85761372D01*
X164893777Y-85504000D01*
X164697036Y-85306915D01*
X164454899Y-85206371D01*
X160424264Y-81175736D01*
X160229610Y-81045672D01*
X160000000Y-81000000D01*
X158280383Y-81000000D01*
X158039850Y-80900122D01*
X157761372Y-80899879D01*
X157504000Y-81006223D01*
X157306915Y-81202964D01*
X157200122Y-81460150D01*
X157199879Y-81738628D01*
X157306223Y-81996000D01*
X157502964Y-82193085D01*
X157760150Y-82299878D01*
X158038628Y-82300121D01*
X158280939Y-82200000D01*
X159751472Y-82200000D01*
X163551473Y-86000001D01*
X161974999Y-86000001D01*
X161774090Y-86039964D01*
X161603768Y-86153770D01*
X161157537Y-86600001D01*
X158842463Y-86600001D01*
X157496230Y-85253768D01*
X157325908Y-85139962D01*
X157124999Y-85099999D01*
X142842461Y-85099999D01*
X141381090Y-83638628D01*
X145549879Y-83638628D01*
X145656223Y-83896000D01*
X145852964Y-84093085D01*
X146110150Y-84199878D01*
X146388628Y-84200121D01*
X146646000Y-84093777D01*
X146843085Y-83897036D01*
X146908861Y-83738628D01*
X147399879Y-83738628D01*
X147506223Y-83996000D01*
X147702964Y-84193085D01*
X147960150Y-84299878D01*
X148238628Y-84300121D01*
X148496000Y-84193777D01*
X148693085Y-83997036D01*
X148799878Y-83739850D01*
X148800121Y-83461372D01*
X148700000Y-83219061D01*
X148700000Y-81748528D01*
X150559900Y-79888628D01*
X157299879Y-79888628D01*
X157406223Y-80146000D01*
X157602964Y-80343085D01*
X157860150Y-80449878D01*
X158138628Y-80450121D01*
X158380939Y-80350000D01*
X160501472Y-80350000D01*
X164075736Y-83924264D01*
X164270390Y-84054328D01*
X164500000Y-84100000D01*
X164619617Y-84100000D01*
X164860150Y-84199878D01*
X165138628Y-84200121D01*
X165396000Y-84093777D01*
X165593085Y-83897036D01*
X165699878Y-83639850D01*
X165700121Y-83361372D01*
X165593777Y-83104000D01*
X165397036Y-82906915D01*
X165139850Y-82800122D01*
X164861372Y-82799879D01*
X164710674Y-82862146D01*
X161174264Y-79325736D01*
X160979610Y-79195672D01*
X160750000Y-79150000D01*
X158380383Y-79150000D01*
X158139850Y-79050122D01*
X157861372Y-79049879D01*
X157604000Y-79156223D01*
X157406915Y-79352964D01*
X157300122Y-79610150D01*
X157299879Y-79888628D01*
X150559900Y-79888628D01*
X152555293Y-77893235D01*
X152796000Y-77793777D01*
X152993085Y-77597036D01*
X153099878Y-77339850D01*
X153100121Y-77061372D01*
X152993777Y-76804000D01*
X152797036Y-76606915D01*
X152539850Y-76500122D01*
X152261372Y-76499879D01*
X152004000Y-76606223D01*
X151806915Y-76802964D01*
X151706371Y-77045101D01*
X147675736Y-81075736D01*
X147545672Y-81270390D01*
X147500000Y-81500000D01*
X147500000Y-83219617D01*
X147400122Y-83460150D01*
X147399879Y-83738628D01*
X146908861Y-83738628D01*
X146949878Y-83639850D01*
X146950121Y-83361372D01*
X146850000Y-83119061D01*
X146850000Y-80998528D01*
X150424264Y-77424264D01*
X150554328Y-77229610D01*
X150600000Y-77000000D01*
X150600000Y-76880383D01*
X150699878Y-76639850D01*
X150700121Y-76361372D01*
X150593777Y-76104000D01*
X150397036Y-75906915D01*
X150139850Y-75800122D01*
X149861372Y-75799879D01*
X149604000Y-75906223D01*
X149406915Y-76102964D01*
X149300122Y-76360150D01*
X149299879Y-76638628D01*
X149362146Y-76789326D01*
X145825736Y-80325736D01*
X145695672Y-80520390D01*
X145650000Y-80750000D01*
X145650000Y-83119617D01*
X145550122Y-83360150D01*
X145549879Y-83638628D01*
X141381090Y-83638628D01*
X141275000Y-83532538D01*
X141275000Y-73500000D01*
X141235037Y-73299091D01*
X141121231Y-73128769D01*
X140775000Y-72782538D01*
X140775000Y-54314326D01*
X140735037Y-54113417D01*
X140621231Y-53943095D01*
X136606904Y-49928768D01*
X136436582Y-49814962D01*
X136430440Y-49813740D01*
X136343777Y-49604000D01*
X136147036Y-49406915D01*
X135889850Y-49300122D01*
X135611372Y-49299879D01*
X135354000Y-49406223D01*
X135156915Y-49602964D01*
X135050122Y-49860150D01*
X135049879Y-50138628D01*
X135156223Y-50396000D01*
X135352964Y-50593085D01*
X135610150Y-50699878D01*
X135721788Y-50699975D01*
X135849090Y-50785036D01*
X136010318Y-50817106D01*
X136668212Y-51475000D01*
X134465002Y-51475000D01*
X134397036Y-51406915D01*
X134139850Y-51300122D01*
X133861372Y-51299879D01*
X133604000Y-51406223D01*
X133406915Y-51602964D01*
X133300122Y-51860150D01*
X133299950Y-52057488D01*
X133200037Y-51957575D01*
X133200121Y-51861372D01*
X133093777Y-51604000D01*
X132897036Y-51406915D01*
X132639850Y-51300122D01*
X132361372Y-51299879D01*
X132104000Y-51406223D01*
X131906915Y-51602964D01*
X131800122Y-51860150D01*
X131799879Y-52138628D01*
X131906223Y-52396000D01*
X132102964Y-52593085D01*
X132360150Y-52699878D01*
X132457501Y-52699963D01*
X134128769Y-54371231D01*
X134299091Y-54485037D01*
X134500000Y-54525000D01*
X135300087Y-54525000D01*
X135299879Y-54763629D01*
X135406223Y-55021001D01*
X135475000Y-55089898D01*
X135475000Y-58625000D01*
X135514963Y-58825909D01*
X135628769Y-58996231D01*
X136299963Y-59667425D01*
X136299879Y-59763628D01*
X136406223Y-60021000D01*
X136602964Y-60218085D01*
X136860150Y-60324878D01*
X137138628Y-60325121D01*
X137396000Y-60218777D01*
X137593085Y-60022036D01*
X137699878Y-59764850D01*
X137700121Y-59486372D01*
X137593777Y-59229000D01*
X137397036Y-59031915D01*
X137139850Y-58925122D01*
X137042499Y-58925037D01*
X136525000Y-58407538D01*
X136525000Y-55090003D01*
X136593085Y-55022037D01*
X136699878Y-54764851D01*
X136700087Y-54525000D01*
X137534998Y-54525000D01*
X137602964Y-54593085D01*
X137860150Y-54699878D01*
X138138628Y-54700121D01*
X138396000Y-54593777D01*
X138593085Y-54397036D01*
X138698931Y-54142129D01*
X138871076Y-54314274D01*
X138800122Y-54485150D01*
X138799879Y-54763628D01*
X138906223Y-55021000D01*
X139102964Y-55218085D01*
X139360150Y-55324878D01*
X139638628Y-55325121D01*
X139725000Y-55289433D01*
X139725000Y-72406802D01*
X139128924Y-71810726D01*
X139199878Y-71639850D01*
X139200121Y-71361372D01*
X139093777Y-71104000D01*
X138897036Y-70906915D01*
X138639850Y-70800122D01*
X138361372Y-70799879D01*
X138104000Y-70906223D01*
X137906915Y-71102964D01*
X137800122Y-71360150D01*
X137799879Y-71638628D01*
X137906223Y-71896000D01*
X137985094Y-71975009D01*
X138014963Y-72125173D01*
X138128769Y-72295495D01*
X139725000Y-73891726D01*
X139725000Y-86225000D01*
X136143773Y-86225000D01*
X136093777Y-86104000D01*
X135897036Y-85906915D01*
X135639850Y-85800122D01*
X135361372Y-85799879D01*
X135104000Y-85906223D01*
X134906915Y-86102964D01*
X134800122Y-86360150D01*
X134799879Y-86638628D01*
X134906223Y-86896000D01*
X135010050Y-87000009D01*
X134906915Y-87102964D01*
X134800122Y-87360150D01*
X134799879Y-87638628D01*
X134835567Y-87725000D01*
X133642464Y-87725000D01*
X133246234Y-87328770D01*
X133075912Y-87214964D01*
X132875003Y-87175001D01*
X130049999Y-87175001D01*
X129849090Y-87214964D01*
X129721862Y-87299975D01*
X129611372Y-87299879D01*
X129354000Y-87406223D01*
X129285103Y-87475000D01*
X127250000Y-87475000D01*
X127049091Y-87514963D01*
X126878769Y-87628769D01*
X122357538Y-92150000D01*
X117496526Y-92150000D01*
X117012967Y-91666441D01*
X118151161Y-92139060D01*
X120299414Y-92140935D01*
X122284858Y-91320566D01*
X123805228Y-89802848D01*
X124629060Y-87818839D01*
X124630935Y-85670586D01*
X123810566Y-83685142D01*
X122292848Y-82164772D01*
X120831578Y-81558000D01*
X136700000Y-81558000D01*
X136920982Y-81516419D01*
X137123941Y-81385819D01*
X137260098Y-81186546D01*
X137308000Y-80950000D01*
X137308000Y-66200000D01*
X137266419Y-65979018D01*
X137135819Y-65776059D01*
X136936546Y-65639902D01*
X136700000Y-65592000D01*
X115400000Y-65592000D01*
X115179018Y-65633581D01*
X114976059Y-65764181D01*
X114839902Y-65963454D01*
X114792000Y-66200000D01*
X114792000Y-80950000D01*
X114833581Y-81170982D01*
X114964181Y-81373941D01*
X115163454Y-81510098D01*
X115400000Y-81558000D01*
X117630723Y-81558000D01*
X116175142Y-82159434D01*
X114654772Y-83677152D01*
X113830940Y-85661161D01*
X113829065Y-87809414D01*
X114649434Y-89794858D01*
X116002212Y-91150000D01*
X110399999Y-91150000D01*
X110399999Y-84025000D01*
X112034998Y-84025000D01*
X112102964Y-84093085D01*
X112360150Y-84199878D01*
X112638628Y-84200121D01*
X112896000Y-84093777D01*
X113093085Y-83897036D01*
X113199878Y-83639850D01*
X113200121Y-83361372D01*
X113093777Y-83104000D01*
X112897036Y-82906915D01*
X112639850Y-82800122D01*
X112361372Y-82799879D01*
X112104000Y-82906223D01*
X112035103Y-82975000D01*
X110399999Y-82975000D01*
X110399999Y-62270834D01*
X115834632Y-62270834D01*
X116157462Y-63052143D01*
X116754713Y-63650437D01*
X117535457Y-63974630D01*
X118380834Y-63975368D01*
X119162143Y-63652538D01*
X119760437Y-63055287D01*
X120084630Y-62274543D01*
X120085368Y-61429166D01*
X119762538Y-60647857D01*
X119165287Y-60049563D01*
X118384543Y-59725370D01*
X117539166Y-59724632D01*
X116757857Y-60047462D01*
X116159563Y-60644713D01*
X115835370Y-61425457D01*
X115834632Y-62270834D01*
X110399999Y-62270834D01*
X110399999Y-61872793D01*
X123122792Y-49150000D01*
X129475000Y-49150000D01*
X129475000Y-57754914D01*
X129514963Y-57955823D01*
X129524999Y-57970843D01*
X129524999Y-59335568D01*
X129354000Y-59406223D01*
X129156915Y-59602964D01*
X129050122Y-59860150D01*
X129049879Y-60138628D01*
X129156223Y-60396000D01*
X129352964Y-60593085D01*
X129610150Y-60699878D01*
X129888628Y-60700121D01*
X130146000Y-60593777D01*
X130343085Y-60397036D01*
X130449878Y-60139850D01*
X130449975Y-60028212D01*
X130535036Y-59900910D01*
X130574999Y-59700001D01*
X130574999Y-59072375D01*
X132644683Y-61142059D01*
X132573729Y-61312935D01*
X132573486Y-61591413D01*
X132679830Y-61848785D01*
X132876571Y-62045870D01*
X133133757Y-62152663D01*
X133412235Y-62152906D01*
X133669607Y-62046562D01*
X133866692Y-61849821D01*
X133973485Y-61592635D01*
X133973728Y-61314157D01*
X133867384Y-61056785D01*
X133788513Y-60977776D01*
X133758644Y-60827612D01*
X133644838Y-60657290D01*
X130525000Y-57537452D01*
X130525000Y-51450022D01*
X130638628Y-51450121D01*
X130896000Y-51343777D01*
X131093085Y-51147036D01*
X131199878Y-50889850D01*
X131200121Y-50611372D01*
X131093777Y-50354000D01*
X130897036Y-50156915D01*
X130639850Y-50050122D01*
X130528212Y-50050025D01*
X130525000Y-50047879D01*
X130525000Y-49150000D01*
X145475000Y-49150000D01*
X145475000Y-50255762D01*
X145344415Y-50168508D01*
X145000000Y-50100000D01*
X144655585Y-50168508D01*
X144363604Y-50363604D01*
X144168508Y-50655585D01*
X144100000Y-51000000D01*
X144100000Y-59627208D01*
X142863604Y-60863604D01*
X142668508Y-61155585D01*
X142600000Y-61500000D01*
X142600000Y-63500000D01*
X142668508Y-63844415D01*
X142863604Y-64136396D01*
X143155585Y-64331492D01*
X143500000Y-64400000D01*
X143844415Y-64331492D01*
X144136396Y-64136396D01*
X144331492Y-63844415D01*
X144400000Y-63500000D01*
X144400000Y-61872792D01*
X145636396Y-60636396D01*
X145831492Y-60344416D01*
X145900000Y-60000000D01*
X145900000Y-51699913D01*
X145957501Y-51699963D01*
X147800001Y-53542463D01*
X147800001Y-56150066D01*
X147679806Y-56100157D01*
X147321764Y-56099844D01*
X146990857Y-56236572D01*
X146737462Y-56489525D01*
X146600157Y-56820194D01*
X146599844Y-57178236D01*
X146736572Y-57509143D01*
X146989525Y-57762538D01*
X147320194Y-57899843D01*
X147678236Y-57900156D01*
X147800001Y-57849844D01*
X147800001Y-61283273D01*
X147628769Y-61454505D01*
X147514963Y-61624827D01*
X147485111Y-61774905D01*
X147406915Y-61852964D01*
X147300122Y-62110150D01*
X147299879Y-62388628D01*
X147406223Y-62646000D01*
X147602964Y-62843085D01*
X147860150Y-62949878D01*
X148138628Y-62950121D01*
X148396000Y-62843777D01*
X148593085Y-62647036D01*
X148699878Y-62389850D01*
X148700121Y-62111372D01*
X148628986Y-61939212D01*
X148696232Y-61871966D01*
X148810038Y-61701644D01*
X148850001Y-61500735D01*
X148850001Y-53325001D01*
X148810038Y-53124092D01*
X148696232Y-52953770D01*
X146700037Y-50957575D01*
X146700121Y-50861372D01*
X146593777Y-50604000D01*
X146525000Y-50535103D01*
X146525000Y-49150000D01*
X154000000Y-49150000D01*
X154251363Y-49100001D01*
X159475000Y-49100001D01*
X159475000Y-51784998D01*
X159475000Y-51784998D01*
G37*
X159475000Y-51784998D02*
X159406915Y-51852964D01*
X159300122Y-52110150D01*
X159300003Y-52246650D01*
X159264963Y-52299091D01*
X159225000Y-52500000D01*
X159225000Y-56452362D01*
X159010475Y-56237462D01*
X158679806Y-56100157D01*
X158321764Y-56099844D01*
X157990857Y-56236572D01*
X157737462Y-56489525D01*
X157600157Y-56820194D01*
X157599844Y-57178236D01*
X157736572Y-57509143D01*
X157989525Y-57762538D01*
X158320194Y-57899843D01*
X158678236Y-57900156D01*
X159009143Y-57763428D01*
X159225000Y-57547948D01*
X159225000Y-61534998D01*
X159156915Y-61602964D01*
X159050122Y-61860150D01*
X159049879Y-62138628D01*
X159156223Y-62396000D01*
X159352964Y-62593085D01*
X159610150Y-62699878D01*
X159888628Y-62700121D01*
X160146000Y-62593777D01*
X160343085Y-62397036D01*
X160449878Y-62139850D01*
X160450121Y-61861372D01*
X160343777Y-61604000D01*
X160275000Y-61535103D01*
X160275000Y-52893773D01*
X160396000Y-52843777D01*
X160593085Y-52647036D01*
X160699878Y-52389850D01*
X160700121Y-52111372D01*
X160593777Y-51854000D01*
X160525000Y-51785103D01*
X160525000Y-51400000D01*
X160942000Y-51400000D01*
X160942000Y-72700000D01*
X160983581Y-72920982D01*
X161114181Y-73123941D01*
X161313454Y-73260098D01*
X161550000Y-73308000D01*
X176300000Y-73308000D01*
X176520982Y-73266419D01*
X176723941Y-73135819D01*
X176860098Y-72936546D01*
X176908000Y-72700000D01*
X176908000Y-65399530D01*
X186929782Y-65399530D01*
X187121201Y-65862800D01*
X187475335Y-66217553D01*
X187938271Y-66409781D01*
X188439530Y-66410218D01*
X188629332Y-66331794D01*
X189173768Y-66876230D01*
X189344090Y-66990036D01*
X189544999Y-67029999D01*
X189639749Y-67029999D01*
X189470219Y-67438271D01*
X189469782Y-67939530D01*
X189661201Y-68402800D01*
X190015335Y-68757553D01*
X190478271Y-68949781D01*
X190979530Y-68950218D01*
X191442800Y-68758799D01*
X191797553Y-68404665D01*
X191989781Y-67941729D01*
X191989784Y-67938444D01*
X193675000Y-69623660D01*
X193675000Y-71134998D01*
X193606915Y-71202964D01*
X193500122Y-71460150D01*
X193499879Y-71738628D01*
X193606223Y-71996000D01*
X193802964Y-72193085D01*
X194060150Y-72299878D01*
X194338628Y-72300121D01*
X194596000Y-72193777D01*
X194793085Y-71997036D01*
X194899878Y-71739850D01*
X194900121Y-71461372D01*
X194793777Y-71204000D01*
X194725000Y-71135103D01*
X194725000Y-69406198D01*
X194685037Y-69205289D01*
X194571231Y-69034967D01*
X191670032Y-66133768D01*
X191584938Y-66076909D01*
X191797553Y-65864665D01*
X191989781Y-65401729D01*
X191990218Y-64900470D01*
X191798799Y-64437200D01*
X191444665Y-64082447D01*
X190981729Y-63890219D01*
X190480470Y-63889782D01*
X190017200Y-64081201D01*
X189662447Y-64435335D01*
X189470219Y-64898271D01*
X189469782Y-65399530D01*
X189661201Y-65862800D01*
X189778196Y-65979999D01*
X189762461Y-65979999D01*
X189371856Y-65589394D01*
X189449781Y-65401729D01*
X189450218Y-64900470D01*
X189258799Y-64437200D01*
X188904665Y-64082447D01*
X188441729Y-63890219D01*
X187940470Y-63889782D01*
X187477200Y-64081201D01*
X187122447Y-64435335D01*
X186930219Y-64898271D01*
X186929782Y-65399530D01*
X176908000Y-65399530D01*
X176908000Y-62424315D01*
X179829498Y-62424315D01*
X180270066Y-63490572D01*
X181085137Y-64307067D01*
X182150624Y-64749495D01*
X183304315Y-64750502D01*
X184370572Y-64309934D01*
X185187067Y-63494863D01*
X185450879Y-62859530D01*
X186929782Y-62859530D01*
X187121201Y-63322800D01*
X187475335Y-63677553D01*
X187938271Y-63869781D01*
X188439530Y-63870218D01*
X188902800Y-63678799D01*
X189257553Y-63324665D01*
X189449781Y-62861729D01*
X189449782Y-62859530D01*
X189469782Y-62859530D01*
X189661201Y-63322800D01*
X190015335Y-63677553D01*
X190478271Y-63869781D01*
X190979530Y-63870218D01*
X191442800Y-63678799D01*
X191797553Y-63324665D01*
X191989781Y-62861729D01*
X191990218Y-62360470D01*
X191798799Y-61897200D01*
X191444665Y-61542447D01*
X190981729Y-61350219D01*
X190480470Y-61349782D01*
X190017200Y-61541201D01*
X189662447Y-61895335D01*
X189470219Y-62358271D01*
X189469782Y-62859530D01*
X189449782Y-62859530D01*
X189450218Y-62360470D01*
X189258799Y-61897200D01*
X188904665Y-61542447D01*
X188441729Y-61350219D01*
X187940470Y-61349782D01*
X187477200Y-61541201D01*
X187122447Y-61895335D01*
X186930219Y-62358271D01*
X186929782Y-62859530D01*
X185450879Y-62859530D01*
X185629495Y-62429376D01*
X185630502Y-61275685D01*
X185235428Y-60319530D01*
X186929782Y-60319530D01*
X187121201Y-60782800D01*
X187475335Y-61137553D01*
X187938271Y-61329781D01*
X188439530Y-61330218D01*
X188902800Y-61138799D01*
X189257553Y-60784665D01*
X189449781Y-60321729D01*
X189450218Y-59820470D01*
X189258799Y-59357200D01*
X188904665Y-59002447D01*
X188441729Y-58810219D01*
X187940470Y-58809782D01*
X187477200Y-59001201D01*
X187122447Y-59355335D01*
X186930219Y-59818271D01*
X186929782Y-60319530D01*
X185235428Y-60319530D01*
X185189934Y-60209428D01*
X184374863Y-59392933D01*
X183309376Y-58950505D01*
X182155685Y-58949498D01*
X181089428Y-59390066D01*
X180272933Y-60205137D01*
X179830505Y-61270624D01*
X179829498Y-62424315D01*
X176908000Y-62424315D01*
X176908000Y-51400000D01*
X176866419Y-51179018D01*
X176735819Y-50976059D01*
X176536546Y-50839902D01*
X176300000Y-50792000D01*
X161550000Y-50792000D01*
X161329018Y-50833581D01*
X161126059Y-50964181D01*
X160989902Y-51163454D01*
X160942000Y-51400000D01*
X160525000Y-51400000D01*
X160525000Y-49100001D01*
X178487209Y-49100001D01*
X186929988Y-57542780D01*
X186929782Y-57779530D01*
X187121201Y-58242800D01*
X187475335Y-58597553D01*
X187938271Y-58789781D01*
X188439530Y-58790218D01*
X188629332Y-58711794D01*
X189003770Y-59086232D01*
X189174092Y-59200038D01*
X189375001Y-59240001D01*
X189777983Y-59240001D01*
X189662447Y-59355335D01*
X189470219Y-59818271D01*
X189469782Y-60319530D01*
X189661201Y-60782800D01*
X190015335Y-61137553D01*
X190478271Y-61329781D01*
X190979530Y-61330218D01*
X191442800Y-61138799D01*
X191797553Y-60784665D01*
X191989781Y-60321729D01*
X191989784Y-60318444D01*
X195149999Y-63478659D01*
X195149999Y-72075000D01*
X195000000Y-72075000D01*
X194799091Y-72114963D01*
X194628769Y-72228769D01*
X192557575Y-74299963D01*
X192461372Y-74299879D01*
X192204000Y-74406223D01*
X192006915Y-74602964D01*
X191903794Y-74851307D01*
X191798799Y-74597200D01*
X191444665Y-74242447D01*
X190981729Y-74050219D01*
X190480470Y-74049782D01*
X190017200Y-74241201D01*
X189662447Y-74595335D01*
X189470219Y-75058271D01*
X189469782Y-75559530D01*
X189661201Y-76022800D01*
X189778196Y-76139999D01*
X189142017Y-76139999D01*
X189257553Y-76024665D01*
X189449781Y-75561729D01*
X189450218Y-75060470D01*
X189258799Y-74597200D01*
X188904665Y-74242447D01*
X188441729Y-74050219D01*
X187940470Y-74049782D01*
X187477200Y-74241201D01*
X187122447Y-74595335D01*
X186930219Y-75058271D01*
X186929782Y-75559530D01*
X187121201Y-76022800D01*
X187320503Y-76222451D01*
X187213770Y-76293768D01*
X185775000Y-77732538D01*
X185775000Y-75250000D01*
X185735037Y-75049091D01*
X185621231Y-74878769D01*
X184944678Y-74202216D01*
X184949835Y-74189796D01*
X184950165Y-73811862D01*
X184805841Y-73462571D01*
X184538835Y-73195098D01*
X184189796Y-73050165D01*
X183811862Y-73049835D01*
X183462571Y-73194159D01*
X183195098Y-73461165D01*
X183050165Y-73810204D01*
X183049835Y-74188138D01*
X183194159Y-74537429D01*
X183461165Y-74804902D01*
X183810204Y-74949835D01*
X184188138Y-74950165D01*
X184201983Y-74944445D01*
X184391427Y-75133889D01*
X184189796Y-75050165D01*
X183811862Y-75049835D01*
X183462571Y-75194159D01*
X183195098Y-75461165D01*
X183050165Y-75810204D01*
X183049835Y-76188138D01*
X183194159Y-76537429D01*
X183461165Y-76804902D01*
X183810204Y-76949835D01*
X184188138Y-76950165D01*
X184537429Y-76805841D01*
X184725000Y-76618597D01*
X184725000Y-77381589D01*
X184538835Y-77195098D01*
X184189796Y-77050165D01*
X183811862Y-77049835D01*
X183462571Y-77194159D01*
X183195098Y-77461165D01*
X183121339Y-77638798D01*
X183037555Y-77436526D01*
X182828089Y-77389700D01*
X182217789Y-78000000D01*
X182828089Y-78610300D01*
X183037555Y-78563474D01*
X183109378Y-78332243D01*
X183194159Y-78537429D01*
X183461165Y-78804902D01*
X183810204Y-78949835D01*
X184188138Y-78950165D01*
X184537429Y-78805841D01*
X184725000Y-78618597D01*
X184725000Y-79381589D01*
X184538835Y-79195098D01*
X184189796Y-79050165D01*
X183811862Y-79049835D01*
X183462571Y-79194159D01*
X183195098Y-79461165D01*
X183050165Y-79810204D01*
X183049835Y-80188138D01*
X183194159Y-80537429D01*
X183461165Y-80804902D01*
X183638798Y-80878661D01*
X183436526Y-80962445D01*
X183389700Y-81171911D01*
X184000000Y-81782211D01*
X184014142Y-81768069D01*
X184231931Y-81985858D01*
X184217789Y-82000000D01*
X184231931Y-82014142D01*
X184014142Y-82231931D01*
X184000000Y-82217789D01*
X183389700Y-82828089D01*
X183436526Y-83037555D01*
X183667757Y-83109378D01*
X183462571Y-83194159D01*
X183195098Y-83461165D01*
X183121339Y-83638798D01*
X183037555Y-83436526D01*
X182828089Y-83389700D01*
X182217789Y-84000000D01*
X182231931Y-84014142D01*
X182014142Y-84231931D01*
X182000000Y-84217789D01*
X181985858Y-84231931D01*
X181768069Y-84014142D01*
X181782211Y-84000000D01*
X181171911Y-83389700D01*
X180962445Y-83436526D01*
X180876676Y-83712654D01*
X180871231Y-83704504D01*
X179399999Y-82233272D01*
X179399999Y-82188138D01*
X181049835Y-82188138D01*
X181194159Y-82537429D01*
X181461165Y-82804902D01*
X181638798Y-82878661D01*
X181436526Y-82962445D01*
X181389700Y-83171911D01*
X182000000Y-83782211D01*
X182610300Y-83171911D01*
X182563474Y-82962445D01*
X182332243Y-82890622D01*
X182537429Y-82805841D01*
X182804902Y-82538835D01*
X182878661Y-82361202D01*
X182962445Y-82563474D01*
X183171911Y-82610300D01*
X183782211Y-82000000D01*
X183171911Y-81389700D01*
X182962445Y-81436526D01*
X182890622Y-81667757D01*
X182805841Y-81462571D01*
X182538835Y-81195098D01*
X182189796Y-81050165D01*
X181811862Y-81049835D01*
X181462571Y-81194159D01*
X181195098Y-81461165D01*
X181050165Y-81810204D01*
X181049835Y-82188138D01*
X179399999Y-82188138D01*
X179399999Y-80188138D01*
X181049835Y-80188138D01*
X181194159Y-80537429D01*
X181461165Y-80804902D01*
X181810204Y-80949835D01*
X182188138Y-80950165D01*
X182537429Y-80805841D01*
X182804902Y-80538835D01*
X182949835Y-80189796D01*
X182950165Y-79811862D01*
X182805841Y-79462571D01*
X182538835Y-79195098D01*
X182361202Y-79121339D01*
X182563474Y-79037555D01*
X182610300Y-78828089D01*
X182000000Y-78217789D01*
X181389700Y-78828089D01*
X181436526Y-79037555D01*
X181667757Y-79109378D01*
X181462571Y-79194159D01*
X181195098Y-79461165D01*
X181050165Y-79810204D01*
X181049835Y-80188138D01*
X179399999Y-80188138D01*
X179399999Y-77876473D01*
X180825792Y-77876473D01*
X180867902Y-78335226D01*
X180962445Y-78563474D01*
X181171911Y-78610300D01*
X181782211Y-78000000D01*
X181171911Y-77389700D01*
X180962445Y-77436526D01*
X180825792Y-77876473D01*
X179399999Y-77876473D01*
X179399999Y-76188138D01*
X181049835Y-76188138D01*
X181194159Y-76537429D01*
X181461165Y-76804902D01*
X181638798Y-76878661D01*
X181436526Y-76962445D01*
X181389700Y-77171911D01*
X182000000Y-77782211D01*
X182610300Y-77171911D01*
X182563474Y-76962445D01*
X182332243Y-76890622D01*
X182537429Y-76805841D01*
X182804902Y-76538835D01*
X182949835Y-76189796D01*
X182950165Y-75811862D01*
X182805841Y-75462571D01*
X182538835Y-75195098D01*
X182189796Y-75050165D01*
X181811862Y-75049835D01*
X181462571Y-75194159D01*
X181195098Y-75461165D01*
X181050165Y-75810204D01*
X181049835Y-76188138D01*
X179399999Y-76188138D01*
X179399999Y-74188138D01*
X181049835Y-74188138D01*
X181194159Y-74537429D01*
X181461165Y-74804902D01*
X181810204Y-74949835D01*
X182188138Y-74950165D01*
X182537429Y-74805841D01*
X182804902Y-74538835D01*
X182949835Y-74189796D01*
X182950165Y-73811862D01*
X182805841Y-73462571D01*
X182538835Y-73195098D01*
X182189796Y-73050165D01*
X181811862Y-73049835D01*
X181462571Y-73194159D01*
X181195098Y-73461165D01*
X181050165Y-73810204D01*
X181049835Y-74188138D01*
X179399999Y-74188138D01*
X179399999Y-74047461D01*
X180427930Y-73019530D01*
X186929782Y-73019530D01*
X187121201Y-73482800D01*
X187475335Y-73837553D01*
X187938271Y-74029781D01*
X188439530Y-74030218D01*
X188902800Y-73838799D01*
X189257553Y-73484665D01*
X189449781Y-73021729D01*
X189449782Y-73019530D01*
X189469782Y-73019530D01*
X189661201Y-73482800D01*
X190015335Y-73837553D01*
X190478271Y-74029781D01*
X190979530Y-74030218D01*
X191442800Y-73838799D01*
X191797553Y-73484665D01*
X191989781Y-73021729D01*
X191990218Y-72520470D01*
X191798799Y-72057200D01*
X191444665Y-71702447D01*
X190981729Y-71510219D01*
X190480470Y-71509782D01*
X190017200Y-71701201D01*
X189662447Y-72055335D01*
X189470219Y-72518271D01*
X189469782Y-73019530D01*
X189449782Y-73019530D01*
X189450218Y-72520470D01*
X189258799Y-72057200D01*
X188904665Y-71702447D01*
X188441729Y-71510219D01*
X187940470Y-71509782D01*
X187477200Y-71701201D01*
X187122447Y-72055335D01*
X186930219Y-72518271D01*
X186929782Y-73019530D01*
X180427930Y-73019530D01*
X181111085Y-72336375D01*
X181194159Y-72537429D01*
X181461165Y-72804902D01*
X181810204Y-72949835D01*
X182188138Y-72950165D01*
X182537429Y-72805841D01*
X182804902Y-72538835D01*
X182949835Y-72189796D01*
X182950165Y-71811862D01*
X182805841Y-71462571D01*
X182743380Y-71400001D01*
X183256369Y-71400001D01*
X183195098Y-71461165D01*
X183050165Y-71810204D01*
X183049835Y-72188138D01*
X183194159Y-72537429D01*
X183461165Y-72804902D01*
X183810204Y-72949835D01*
X184188138Y-72950165D01*
X184537429Y-72805841D01*
X184804902Y-72538835D01*
X184949835Y-72189796D01*
X184950165Y-71811862D01*
X184805841Y-71462571D01*
X184743380Y-71400001D01*
X186328776Y-71400001D01*
X186529685Y-71360038D01*
X186700007Y-71246232D01*
X187086770Y-70859469D01*
X187121201Y-70942800D01*
X187475335Y-71297553D01*
X187938271Y-71489781D01*
X188439530Y-71490218D01*
X188902800Y-71298799D01*
X189257553Y-70944665D01*
X189449781Y-70481729D01*
X189449782Y-70479530D01*
X189469782Y-70479530D01*
X189661201Y-70942800D01*
X190015335Y-71297553D01*
X190478271Y-71489781D01*
X190979530Y-71490218D01*
X191442800Y-71298799D01*
X191797553Y-70944665D01*
X191989781Y-70481729D01*
X191990218Y-69980470D01*
X191798799Y-69517200D01*
X191444665Y-69162447D01*
X190981729Y-68970219D01*
X190480470Y-68969782D01*
X190017200Y-69161201D01*
X189662447Y-69515335D01*
X189470219Y-69978271D01*
X189469782Y-70479530D01*
X189449782Y-70479530D01*
X189450218Y-69980470D01*
X189258799Y-69517200D01*
X188904665Y-69162447D01*
X188441729Y-68970219D01*
X187940470Y-68969782D01*
X187477200Y-69161201D01*
X187122447Y-69515335D01*
X187043691Y-69705000D01*
X186973777Y-69705000D01*
X186772868Y-69744963D01*
X186602546Y-69858769D01*
X186111314Y-70350001D01*
X184883312Y-70350001D01*
X184949835Y-70189796D01*
X184950165Y-69811862D01*
X184805841Y-69462571D01*
X184538835Y-69195098D01*
X184189796Y-69050165D01*
X183811862Y-69049835D01*
X183699916Y-69096090D01*
X183700121Y-68861372D01*
X183593777Y-68604000D01*
X183397036Y-68406915D01*
X183145141Y-68302319D01*
X183232460Y-68215000D01*
X187043604Y-68215000D01*
X187121201Y-68402800D01*
X187475335Y-68757553D01*
X187938271Y-68949781D01*
X188439530Y-68950218D01*
X188902800Y-68758799D01*
X189257553Y-68404665D01*
X189449781Y-67941729D01*
X189450218Y-67440470D01*
X189258799Y-66977200D01*
X188904665Y-66622447D01*
X188441729Y-66430219D01*
X187940470Y-66429782D01*
X187477200Y-66621201D01*
X187122447Y-66975335D01*
X187043691Y-67165000D01*
X183014998Y-67165000D01*
X182814089Y-67204963D01*
X182643767Y-67318769D01*
X177603748Y-72358788D01*
X177489942Y-72529110D01*
X177449979Y-72730019D01*
X177449979Y-84557559D01*
X176007537Y-86000001D01*
X164999913Y-86000001D01*
X165000121Y-85761372D01*
X164893777Y-85504000D01*
X164697036Y-85306915D01*
X164454899Y-85206371D01*
X160424264Y-81175736D01*
X160229610Y-81045672D01*
X160000000Y-81000000D01*
X158280383Y-81000000D01*
X158039850Y-80900122D01*
X157761372Y-80899879D01*
X157504000Y-81006223D01*
X157306915Y-81202964D01*
X157200122Y-81460150D01*
X157199879Y-81738628D01*
X157306223Y-81996000D01*
X157502964Y-82193085D01*
X157760150Y-82299878D01*
X158038628Y-82300121D01*
X158280939Y-82200000D01*
X159751472Y-82200000D01*
X163551473Y-86000001D01*
X161974999Y-86000001D01*
X161774090Y-86039964D01*
X161603768Y-86153770D01*
X161157537Y-86600001D01*
X158842463Y-86600001D01*
X157496230Y-85253768D01*
X157325908Y-85139962D01*
X157124999Y-85099999D01*
X142842461Y-85099999D01*
X141381090Y-83638628D01*
X145549879Y-83638628D01*
X145656223Y-83896000D01*
X145852964Y-84093085D01*
X146110150Y-84199878D01*
X146388628Y-84200121D01*
X146646000Y-84093777D01*
X146843085Y-83897036D01*
X146908861Y-83738628D01*
X147399879Y-83738628D01*
X147506223Y-83996000D01*
X147702964Y-84193085D01*
X147960150Y-84299878D01*
X148238628Y-84300121D01*
X148496000Y-84193777D01*
X148693085Y-83997036D01*
X148799878Y-83739850D01*
X148800121Y-83461372D01*
X148700000Y-83219061D01*
X148700000Y-81748528D01*
X150559900Y-79888628D01*
X157299879Y-79888628D01*
X157406223Y-80146000D01*
X157602964Y-80343085D01*
X157860150Y-80449878D01*
X158138628Y-80450121D01*
X158380939Y-80350000D01*
X160501472Y-80350000D01*
X164075736Y-83924264D01*
X164270390Y-84054328D01*
X164500000Y-84100000D01*
X164619617Y-84100000D01*
X164860150Y-84199878D01*
X165138628Y-84200121D01*
X165396000Y-84093777D01*
X165593085Y-83897036D01*
X165699878Y-83639850D01*
X165700121Y-83361372D01*
X165593777Y-83104000D01*
X165397036Y-82906915D01*
X165139850Y-82800122D01*
X164861372Y-82799879D01*
X164710674Y-82862146D01*
X161174264Y-79325736D01*
X160979610Y-79195672D01*
X160750000Y-79150000D01*
X158380383Y-79150000D01*
X158139850Y-79050122D01*
X157861372Y-79049879D01*
X157604000Y-79156223D01*
X157406915Y-79352964D01*
X157300122Y-79610150D01*
X157299879Y-79888628D01*
X150559900Y-79888628D01*
X152555293Y-77893235D01*
X152796000Y-77793777D01*
X152993085Y-77597036D01*
X153099878Y-77339850D01*
X153100121Y-77061372D01*
X152993777Y-76804000D01*
X152797036Y-76606915D01*
X152539850Y-76500122D01*
X152261372Y-76499879D01*
X152004000Y-76606223D01*
X151806915Y-76802964D01*
X151706371Y-77045101D01*
X147675736Y-81075736D01*
X147545672Y-81270390D01*
X147500000Y-81500000D01*
X147500000Y-83219617D01*
X147400122Y-83460150D01*
X147399879Y-83738628D01*
X146908861Y-83738628D01*
X146949878Y-83639850D01*
X146950121Y-83361372D01*
X146850000Y-83119061D01*
X146850000Y-80998528D01*
X150424264Y-77424264D01*
X150554328Y-77229610D01*
X150600000Y-77000000D01*
X150600000Y-76880383D01*
X150699878Y-76639850D01*
X150700121Y-76361372D01*
X150593777Y-76104000D01*
X150397036Y-75906915D01*
X150139850Y-75800122D01*
X149861372Y-75799879D01*
X149604000Y-75906223D01*
X149406915Y-76102964D01*
X149300122Y-76360150D01*
X149299879Y-76638628D01*
X149362146Y-76789326D01*
X145825736Y-80325736D01*
X145695672Y-80520390D01*
X145650000Y-80750000D01*
X145650000Y-83119617D01*
X145550122Y-83360150D01*
X145549879Y-83638628D01*
X141381090Y-83638628D01*
X141275000Y-83532538D01*
X141275000Y-73500000D01*
X141235037Y-73299091D01*
X141121231Y-73128769D01*
X140775000Y-72782538D01*
X140775000Y-54314326D01*
X140735037Y-54113417D01*
X140621231Y-53943095D01*
X136606904Y-49928768D01*
X136436582Y-49814962D01*
X136430440Y-49813740D01*
X136343777Y-49604000D01*
X136147036Y-49406915D01*
X135889850Y-49300122D01*
X135611372Y-49299879D01*
X135354000Y-49406223D01*
X135156915Y-49602964D01*
X135050122Y-49860150D01*
X135049879Y-50138628D01*
X135156223Y-50396000D01*
X135352964Y-50593085D01*
X135610150Y-50699878D01*
X135721788Y-50699975D01*
X135849090Y-50785036D01*
X136010318Y-50817106D01*
X136668212Y-51475000D01*
X134465002Y-51475000D01*
X134397036Y-51406915D01*
X134139850Y-51300122D01*
X133861372Y-51299879D01*
X133604000Y-51406223D01*
X133406915Y-51602964D01*
X133300122Y-51860150D01*
X133299950Y-52057488D01*
X133200037Y-51957575D01*
X133200121Y-51861372D01*
X133093777Y-51604000D01*
X132897036Y-51406915D01*
X132639850Y-51300122D01*
X132361372Y-51299879D01*
X132104000Y-51406223D01*
X131906915Y-51602964D01*
X131800122Y-51860150D01*
X131799879Y-52138628D01*
X131906223Y-52396000D01*
X132102964Y-52593085D01*
X132360150Y-52699878D01*
X132457501Y-52699963D01*
X134128769Y-54371231D01*
X134299091Y-54485037D01*
X134500000Y-54525000D01*
X135300087Y-54525000D01*
X135299879Y-54763629D01*
X135406223Y-55021001D01*
X135475000Y-55089898D01*
X135475000Y-58625000D01*
X135514963Y-58825909D01*
X135628769Y-58996231D01*
X136299963Y-59667425D01*
X136299879Y-59763628D01*
X136406223Y-60021000D01*
X136602964Y-60218085D01*
X136860150Y-60324878D01*
X137138628Y-60325121D01*
X137396000Y-60218777D01*
X137593085Y-60022036D01*
X137699878Y-59764850D01*
X137700121Y-59486372D01*
X137593777Y-59229000D01*
X137397036Y-59031915D01*
X137139850Y-58925122D01*
X137042499Y-58925037D01*
X136525000Y-58407538D01*
X136525000Y-55090003D01*
X136593085Y-55022037D01*
X136699878Y-54764851D01*
X136700087Y-54525000D01*
X137534998Y-54525000D01*
X137602964Y-54593085D01*
X137860150Y-54699878D01*
X138138628Y-54700121D01*
X138396000Y-54593777D01*
X138593085Y-54397036D01*
X138698931Y-54142129D01*
X138871076Y-54314274D01*
X138800122Y-54485150D01*
X138799879Y-54763628D01*
X138906223Y-55021000D01*
X139102964Y-55218085D01*
X139360150Y-55324878D01*
X139638628Y-55325121D01*
X139725000Y-55289433D01*
X139725000Y-72406802D01*
X139128924Y-71810726D01*
X139199878Y-71639850D01*
X139200121Y-71361372D01*
X139093777Y-71104000D01*
X138897036Y-70906915D01*
X138639850Y-70800122D01*
X138361372Y-70799879D01*
X138104000Y-70906223D01*
X137906915Y-71102964D01*
X137800122Y-71360150D01*
X137799879Y-71638628D01*
X137906223Y-71896000D01*
X137985094Y-71975009D01*
X138014963Y-72125173D01*
X138128769Y-72295495D01*
X139725000Y-73891726D01*
X139725000Y-86225000D01*
X136143773Y-86225000D01*
X136093777Y-86104000D01*
X135897036Y-85906915D01*
X135639850Y-85800122D01*
X135361372Y-85799879D01*
X135104000Y-85906223D01*
X134906915Y-86102964D01*
X134800122Y-86360150D01*
X134799879Y-86638628D01*
X134906223Y-86896000D01*
X135010050Y-87000009D01*
X134906915Y-87102964D01*
X134800122Y-87360150D01*
X134799879Y-87638628D01*
X134835567Y-87725000D01*
X133642464Y-87725000D01*
X133246234Y-87328770D01*
X133075912Y-87214964D01*
X132875003Y-87175001D01*
X130049999Y-87175001D01*
X129849090Y-87214964D01*
X129721862Y-87299975D01*
X129611372Y-87299879D01*
X129354000Y-87406223D01*
X129285103Y-87475000D01*
X127250000Y-87475000D01*
X127049091Y-87514963D01*
X126878769Y-87628769D01*
X122357538Y-92150000D01*
X117496526Y-92150000D01*
X117012967Y-91666441D01*
X118151161Y-92139060D01*
X120299414Y-92140935D01*
X122284858Y-91320566D01*
X123805228Y-89802848D01*
X124629060Y-87818839D01*
X124630935Y-85670586D01*
X123810566Y-83685142D01*
X122292848Y-82164772D01*
X120831578Y-81558000D01*
X136700000Y-81558000D01*
X136920982Y-81516419D01*
X137123941Y-81385819D01*
X137260098Y-81186546D01*
X137308000Y-80950000D01*
X137308000Y-66200000D01*
X137266419Y-65979018D01*
X137135819Y-65776059D01*
X136936546Y-65639902D01*
X136700000Y-65592000D01*
X115400000Y-65592000D01*
X115179018Y-65633581D01*
X114976059Y-65764181D01*
X114839902Y-65963454D01*
X114792000Y-66200000D01*
X114792000Y-80950000D01*
X114833581Y-81170982D01*
X114964181Y-81373941D01*
X115163454Y-81510098D01*
X115400000Y-81558000D01*
X117630723Y-81558000D01*
X116175142Y-82159434D01*
X114654772Y-83677152D01*
X113830940Y-85661161D01*
X113829065Y-87809414D01*
X114649434Y-89794858D01*
X116002212Y-91150000D01*
X110399999Y-91150000D01*
X110399999Y-84025000D01*
X112034998Y-84025000D01*
X112102964Y-84093085D01*
X112360150Y-84199878D01*
X112638628Y-84200121D01*
X112896000Y-84093777D01*
X113093085Y-83897036D01*
X113199878Y-83639850D01*
X113200121Y-83361372D01*
X113093777Y-83104000D01*
X112897036Y-82906915D01*
X112639850Y-82800122D01*
X112361372Y-82799879D01*
X112104000Y-82906223D01*
X112035103Y-82975000D01*
X110399999Y-82975000D01*
X110399999Y-62270834D01*
X115834632Y-62270834D01*
X116157462Y-63052143D01*
X116754713Y-63650437D01*
X117535457Y-63974630D01*
X118380834Y-63975368D01*
X119162143Y-63652538D01*
X119760437Y-63055287D01*
X120084630Y-62274543D01*
X120085368Y-61429166D01*
X119762538Y-60647857D01*
X119165287Y-60049563D01*
X118384543Y-59725370D01*
X117539166Y-59724632D01*
X116757857Y-60047462D01*
X116159563Y-60644713D01*
X115835370Y-61425457D01*
X115834632Y-62270834D01*
X110399999Y-62270834D01*
X110399999Y-61872793D01*
X123122792Y-49150000D01*
X129475000Y-49150000D01*
X129475000Y-57754914D01*
X129514963Y-57955823D01*
X129524999Y-57970843D01*
X129524999Y-59335568D01*
X129354000Y-59406223D01*
X129156915Y-59602964D01*
X129050122Y-59860150D01*
X129049879Y-60138628D01*
X129156223Y-60396000D01*
X129352964Y-60593085D01*
X129610150Y-60699878D01*
X129888628Y-60700121D01*
X130146000Y-60593777D01*
X130343085Y-60397036D01*
X130449878Y-60139850D01*
X130449975Y-60028212D01*
X130535036Y-59900910D01*
X130574999Y-59700001D01*
X130574999Y-59072375D01*
X132644683Y-61142059D01*
X132573729Y-61312935D01*
X132573486Y-61591413D01*
X132679830Y-61848785D01*
X132876571Y-62045870D01*
X133133757Y-62152663D01*
X133412235Y-62152906D01*
X133669607Y-62046562D01*
X133866692Y-61849821D01*
X133973485Y-61592635D01*
X133973728Y-61314157D01*
X133867384Y-61056785D01*
X133788513Y-60977776D01*
X133758644Y-60827612D01*
X133644838Y-60657290D01*
X130525000Y-57537452D01*
X130525000Y-51450022D01*
X130638628Y-51450121D01*
X130896000Y-51343777D01*
X131093085Y-51147036D01*
X131199878Y-50889850D01*
X131200121Y-50611372D01*
X131093777Y-50354000D01*
X130897036Y-50156915D01*
X130639850Y-50050122D01*
X130528212Y-50050025D01*
X130525000Y-50047879D01*
X130525000Y-49150000D01*
X145475000Y-49150000D01*
X145475000Y-50255762D01*
X145344415Y-50168508D01*
X145000000Y-50100000D01*
X144655585Y-50168508D01*
X144363604Y-50363604D01*
X144168508Y-50655585D01*
X144100000Y-51000000D01*
X144100000Y-59627208D01*
X142863604Y-60863604D01*
X142668508Y-61155585D01*
X142600000Y-61500000D01*
X142600000Y-63500000D01*
X142668508Y-63844415D01*
X142863604Y-64136396D01*
X143155585Y-64331492D01*
X143500000Y-64400000D01*
X143844415Y-64331492D01*
X144136396Y-64136396D01*
X144331492Y-63844415D01*
X144400000Y-63500000D01*
X144400000Y-61872792D01*
X145636396Y-60636396D01*
X145831492Y-60344416D01*
X145900000Y-60000000D01*
X145900000Y-51699913D01*
X145957501Y-51699963D01*
X147800001Y-53542463D01*
X147800001Y-56150066D01*
X147679806Y-56100157D01*
X147321764Y-56099844D01*
X146990857Y-56236572D01*
X146737462Y-56489525D01*
X146600157Y-56820194D01*
X146599844Y-57178236D01*
X146736572Y-57509143D01*
X146989525Y-57762538D01*
X147320194Y-57899843D01*
X147678236Y-57900156D01*
X147800001Y-57849844D01*
X147800001Y-61283273D01*
X147628769Y-61454505D01*
X147514963Y-61624827D01*
X147485111Y-61774905D01*
X147406915Y-61852964D01*
X147300122Y-62110150D01*
X147299879Y-62388628D01*
X147406223Y-62646000D01*
X147602964Y-62843085D01*
X147860150Y-62949878D01*
X148138628Y-62950121D01*
X148396000Y-62843777D01*
X148593085Y-62647036D01*
X148699878Y-62389850D01*
X148700121Y-62111372D01*
X148628986Y-61939212D01*
X148696232Y-61871966D01*
X148810038Y-61701644D01*
X148850001Y-61500735D01*
X148850001Y-53325001D01*
X148810038Y-53124092D01*
X148696232Y-52953770D01*
X146700037Y-50957575D01*
X146700121Y-50861372D01*
X146593777Y-50604000D01*
X146525000Y-50535103D01*
X146525000Y-49150000D01*
X154000000Y-49150000D01*
X154251363Y-49100001D01*
X159475000Y-49100001D01*
X159475000Y-51784998D01*
G36*
X182231931Y-85985858D02*
X182217789Y-86000000D01*
X182231931Y-86014142D01*
X182014142Y-86231931D01*
X182000000Y-86217789D01*
X181985858Y-86231931D01*
X181768069Y-86014142D01*
X181782211Y-86000000D01*
X181768069Y-85985858D01*
X181985858Y-85768069D01*
X182000000Y-85782211D01*
X182014142Y-85768069D01*
X182231931Y-85985858D01*
X182231931Y-85985858D01*
G37*
X182231931Y-85985858D02*
X182217789Y-86000000D01*
X182231931Y-86014142D01*
X182014142Y-86231931D01*
X182000000Y-86217789D01*
X181985858Y-86231931D01*
X181768069Y-86014142D01*
X181782211Y-86000000D01*
X181768069Y-85985858D01*
X181985858Y-85768069D01*
X182000000Y-85782211D01*
X182014142Y-85768069D01*
X182231931Y-85985858D01*
G36*
X197378767Y-81046231D02*
X197549089Y-81160037D01*
X197663361Y-81182767D01*
X196644304Y-82201824D01*
X196530498Y-82372146D01*
X196490535Y-82573055D01*
X196490534Y-84592741D01*
X196378770Y-84704505D01*
X196264964Y-84874827D01*
X196235112Y-85024905D01*
X196163676Y-85096216D01*
X195508522Y-84441062D01*
X195635646Y-84441173D01*
X195893018Y-84334829D01*
X196090103Y-84138088D01*
X196196896Y-83880902D01*
X196197139Y-83602424D01*
X196193786Y-83594308D01*
X196199999Y-83563071D01*
X196199999Y-79867463D01*
X197378767Y-81046231D01*
X197378767Y-81046231D01*
G37*
X197378767Y-81046231D02*
X197549089Y-81160037D01*
X197663361Y-81182767D01*
X196644304Y-82201824D01*
X196530498Y-82372146D01*
X196490535Y-82573055D01*
X196490534Y-84592741D01*
X196378770Y-84704505D01*
X196264964Y-84874827D01*
X196235112Y-85024905D01*
X196163676Y-85096216D01*
X195508522Y-84441062D01*
X195635646Y-84441173D01*
X195893018Y-84334829D01*
X196090103Y-84138088D01*
X196196896Y-83880902D01*
X196197139Y-83602424D01*
X196193786Y-83594308D01*
X196199999Y-83563071D01*
X196199999Y-79867463D01*
X197378767Y-81046231D01*
G36*
X196228769Y-76995495D02*
X197075000Y-77841726D01*
X197075000Y-78725000D01*
X197114963Y-78925909D01*
X197228769Y-79096231D01*
X197878769Y-79746231D01*
X197892000Y-79755072D01*
X197892000Y-79785500D01*
X198044000Y-79937500D01*
X198399579Y-79937500D01*
X198500000Y-79957836D01*
X199374000Y-79957836D01*
X199374000Y-80092164D01*
X198500000Y-80092164D01*
X198391925Y-80112500D01*
X198044000Y-80112500D01*
X198006500Y-80150000D01*
X197967460Y-80150000D01*
X196199999Y-78382539D01*
X196199999Y-76952438D01*
X196228769Y-76995495D01*
X196228769Y-76995495D01*
G37*
X196228769Y-76995495D02*
X197075000Y-77841726D01*
X197075000Y-78725000D01*
X197114963Y-78925909D01*
X197228769Y-79096231D01*
X197878769Y-79746231D01*
X197892000Y-79755072D01*
X197892000Y-79785500D01*
X198044000Y-79937500D01*
X198399579Y-79937500D01*
X198500000Y-79957836D01*
X199374000Y-79957836D01*
X199374000Y-80092164D01*
X198500000Y-80092164D01*
X198391925Y-80112500D01*
X198044000Y-80112500D01*
X198006500Y-80150000D01*
X197967460Y-80150000D01*
X196199999Y-78382539D01*
X196199999Y-76952438D01*
X196228769Y-76995495D01*
G36*
X137858053Y-53301251D02*
X137604000Y-53406223D01*
X137535103Y-53475000D01*
X134717462Y-53475000D01*
X133942412Y-52699950D01*
X134138628Y-52700121D01*
X134396000Y-52593777D01*
X134464897Y-52525000D01*
X137081802Y-52525000D01*
X137858053Y-53301251D01*
X137858053Y-53301251D01*
G37*
X137858053Y-53301251D02*
X137604000Y-53406223D01*
X137535103Y-53475000D01*
X134717462Y-53475000D01*
X133942412Y-52699950D01*
X134138628Y-52700121D01*
X134396000Y-52593777D01*
X134464897Y-52525000D01*
X137081802Y-52525000D01*
X137858053Y-53301251D01*
D23*
G36*
X176173000Y-72573000D02*
X161677000Y-72573000D01*
X161677000Y-71185167D01*
X166814838Y-71185167D01*
X166956883Y-71528943D01*
X167219673Y-71792192D01*
X167563201Y-71934838D01*
X167935167Y-71935162D01*
X168278943Y-71793117D01*
X168542192Y-71530327D01*
X168547875Y-71516640D01*
X168551397Y-71534345D01*
X168797434Y-71902566D01*
X169165655Y-72148603D01*
X169600000Y-72235000D01*
X170034345Y-72148603D01*
X170402566Y-71902566D01*
X171902566Y-70402566D01*
X172148603Y-70034346D01*
X172235000Y-69600000D01*
X172235000Y-67970132D01*
X174702566Y-65502566D01*
X174948603Y-65134345D01*
X175035000Y-64700000D01*
X174948603Y-64265655D01*
X174702566Y-63897434D01*
X174334345Y-63651397D01*
X173900000Y-63565000D01*
X173465655Y-63651397D01*
X173097434Y-63897434D01*
X172295304Y-64699564D01*
X172335000Y-64500000D01*
X172335000Y-64427234D01*
X172434838Y-64186799D01*
X172435162Y-63814833D01*
X172293117Y-63471057D01*
X172030327Y-63207808D01*
X171686799Y-63065162D01*
X171314833Y-63064838D01*
X170971057Y-63206883D01*
X170707808Y-63469673D01*
X170565162Y-63813201D01*
X170564838Y-64185167D01*
X170585049Y-64234083D01*
X167159566Y-67659566D01*
X166978561Y-67930459D01*
X166915000Y-68250000D01*
X166915000Y-70572766D01*
X166815162Y-70813201D01*
X166814838Y-71185167D01*
X161677000Y-71185167D01*
X161677000Y-51527000D01*
X176173000Y-51527000D01*
X176173000Y-72573000D01*
X176173000Y-72573000D01*
G37*
X176173000Y-72573000D02*
X161677000Y-72573000D01*
X161677000Y-71185167D01*
X166814838Y-71185167D01*
X166956883Y-71528943D01*
X167219673Y-71792192D01*
X167563201Y-71934838D01*
X167935167Y-71935162D01*
X168278943Y-71793117D01*
X168542192Y-71530327D01*
X168547875Y-71516640D01*
X168551397Y-71534345D01*
X168797434Y-71902566D01*
X169165655Y-72148603D01*
X169600000Y-72235000D01*
X170034345Y-72148603D01*
X170402566Y-71902566D01*
X171902566Y-70402566D01*
X172148603Y-70034346D01*
X172235000Y-69600000D01*
X172235000Y-67970132D01*
X174702566Y-65502566D01*
X174948603Y-65134345D01*
X175035000Y-64700000D01*
X174948603Y-64265655D01*
X174702566Y-63897434D01*
X174334345Y-63651397D01*
X173900000Y-63565000D01*
X173465655Y-63651397D01*
X173097434Y-63897434D01*
X172295304Y-64699564D01*
X172335000Y-64500000D01*
X172335000Y-64427234D01*
X172434838Y-64186799D01*
X172435162Y-63814833D01*
X172293117Y-63471057D01*
X172030327Y-63207808D01*
X171686799Y-63065162D01*
X171314833Y-63064838D01*
X170971057Y-63206883D01*
X170707808Y-63469673D01*
X170565162Y-63813201D01*
X170564838Y-64185167D01*
X170585049Y-64234083D01*
X167159566Y-67659566D01*
X166978561Y-67930459D01*
X166915000Y-68250000D01*
X166915000Y-70572766D01*
X166815162Y-70813201D01*
X166814838Y-71185167D01*
X161677000Y-71185167D01*
X161677000Y-51527000D01*
X176173000Y-51527000D01*
X176173000Y-72573000D01*
G36*
X173823000Y-125973000D02*
X159327000Y-125973000D01*
X159327000Y-120336758D01*
X159563201Y-120434838D01*
X159935167Y-120435162D01*
X160278943Y-120293117D01*
X160542192Y-120030327D01*
X160684838Y-119686799D01*
X160685162Y-119314833D01*
X160543117Y-118971057D01*
X160510000Y-118937882D01*
X160510000Y-112985167D01*
X160664838Y-112985167D01*
X160806883Y-113328943D01*
X161069673Y-113592192D01*
X161413201Y-113734838D01*
X161785167Y-113735162D01*
X162128943Y-113593117D01*
X162392192Y-113330327D01*
X162492778Y-113088090D01*
X166490434Y-109090434D01*
X166597325Y-108930460D01*
X166671439Y-108819541D01*
X166735000Y-108500000D01*
X166735000Y-106827234D01*
X166814882Y-106634859D01*
X166814838Y-106685167D01*
X166915000Y-106927578D01*
X166915000Y-108904132D01*
X163409566Y-112409566D01*
X163228561Y-112680459D01*
X163165000Y-113000000D01*
X163165000Y-113072766D01*
X163065162Y-113313201D01*
X163064838Y-113685167D01*
X163206883Y-114028943D01*
X163469673Y-114292192D01*
X163813201Y-114434838D01*
X164185167Y-114435162D01*
X164528943Y-114293117D01*
X164792192Y-114030327D01*
X164934838Y-113686799D01*
X164935162Y-113314833D01*
X164914951Y-113265917D01*
X168340434Y-109840434D01*
X168521439Y-109569541D01*
X168585000Y-109250000D01*
X168585000Y-106927234D01*
X168684838Y-106686799D01*
X168685162Y-106314833D01*
X168543117Y-105971057D01*
X168280327Y-105707808D01*
X167936799Y-105565162D01*
X167564833Y-105564838D01*
X167221057Y-105706883D01*
X166957808Y-105969673D01*
X166835118Y-106265141D01*
X166835162Y-106214833D01*
X166693117Y-105871057D01*
X166430327Y-105607808D01*
X166086799Y-105465162D01*
X165714833Y-105464838D01*
X165371057Y-105606883D01*
X165107808Y-105869673D01*
X164965162Y-106213201D01*
X164964838Y-106585167D01*
X165065000Y-106827578D01*
X165065000Y-108154132D01*
X161311667Y-111907465D01*
X161071057Y-112006883D01*
X160807808Y-112269673D01*
X160665162Y-112613201D01*
X160664838Y-112985167D01*
X160510000Y-112985167D01*
X160510000Y-112939326D01*
X160452148Y-112648487D01*
X160287401Y-112401925D01*
X159327000Y-111441524D01*
X159327000Y-104927000D01*
X173823000Y-104927000D01*
X173823000Y-125973000D01*
X173823000Y-125973000D01*
G37*
X173823000Y-125973000D02*
X159327000Y-125973000D01*
X159327000Y-120336758D01*
X159563201Y-120434838D01*
X159935167Y-120435162D01*
X160278943Y-120293117D01*
X160542192Y-120030327D01*
X160684838Y-119686799D01*
X160685162Y-119314833D01*
X160543117Y-118971057D01*
X160510000Y-118937882D01*
X160510000Y-112985167D01*
X160664838Y-112985167D01*
X160806883Y-113328943D01*
X161069673Y-113592192D01*
X161413201Y-113734838D01*
X161785167Y-113735162D01*
X162128943Y-113593117D01*
X162392192Y-113330327D01*
X162492778Y-113088090D01*
X166490434Y-109090434D01*
X166597325Y-108930460D01*
X166671439Y-108819541D01*
X166735000Y-108500000D01*
X166735000Y-106827234D01*
X166814882Y-106634859D01*
X166814838Y-106685167D01*
X166915000Y-106927578D01*
X166915000Y-108904132D01*
X163409566Y-112409566D01*
X163228561Y-112680459D01*
X163165000Y-113000000D01*
X163165000Y-113072766D01*
X163065162Y-113313201D01*
X163064838Y-113685167D01*
X163206883Y-114028943D01*
X163469673Y-114292192D01*
X163813201Y-114434838D01*
X164185167Y-114435162D01*
X164528943Y-114293117D01*
X164792192Y-114030327D01*
X164934838Y-113686799D01*
X164935162Y-113314833D01*
X164914951Y-113265917D01*
X168340434Y-109840434D01*
X168521439Y-109569541D01*
X168585000Y-109250000D01*
X168585000Y-106927234D01*
X168684838Y-106686799D01*
X168685162Y-106314833D01*
X168543117Y-105971057D01*
X168280327Y-105707808D01*
X167936799Y-105565162D01*
X167564833Y-105564838D01*
X167221057Y-105706883D01*
X166957808Y-105969673D01*
X166835118Y-106265141D01*
X166835162Y-106214833D01*
X166693117Y-105871057D01*
X166430327Y-105607808D01*
X166086799Y-105465162D01*
X165714833Y-105464838D01*
X165371057Y-105606883D01*
X165107808Y-105869673D01*
X164965162Y-106213201D01*
X164964838Y-106585167D01*
X165065000Y-106827578D01*
X165065000Y-108154132D01*
X161311667Y-111907465D01*
X161071057Y-112006883D01*
X160807808Y-112269673D01*
X160665162Y-112613201D01*
X160664838Y-112985167D01*
X160510000Y-112985167D01*
X160510000Y-112939326D01*
X160452148Y-112648487D01*
X160287401Y-112401925D01*
X159327000Y-111441524D01*
X159327000Y-104927000D01*
X173823000Y-104927000D01*
X173823000Y-125973000D01*
G36*
X150323000Y-114994825D02*
X150230721Y-114994745D01*
X149886945Y-115136790D01*
X149623696Y-115399580D01*
X149481050Y-115743108D01*
X149480726Y-116115074D01*
X149622771Y-116458850D01*
X149655888Y-116492025D01*
X149655888Y-116665888D01*
X149713740Y-116956727D01*
X149878487Y-117203289D01*
X149990000Y-117314802D01*
X149990000Y-117949056D01*
X149971057Y-117956883D01*
X149707808Y-118219673D01*
X149565162Y-118563201D01*
X149564838Y-118935167D01*
X149706883Y-119278943D01*
X149774245Y-119346422D01*
X149797852Y-119465103D01*
X149962599Y-119711665D01*
X149990000Y-119739066D01*
X149990000Y-124564991D01*
X149814833Y-124564838D01*
X149471057Y-124706883D01*
X149207808Y-124969673D01*
X149065162Y-125313201D01*
X149065023Y-125473000D01*
X135827000Y-125473000D01*
X135827000Y-112485167D01*
X137164838Y-112485167D01*
X137306883Y-112828943D01*
X137569673Y-113092192D01*
X137913201Y-113234838D01*
X138285167Y-113235162D01*
X138628943Y-113093117D01*
X138892192Y-112830327D01*
X138992778Y-112588090D01*
X142990434Y-108590434D01*
X143097325Y-108430460D01*
X143171439Y-108319541D01*
X143235000Y-108000000D01*
X143235000Y-106327234D01*
X143314882Y-106134859D01*
X143314838Y-106185167D01*
X143415000Y-106427578D01*
X143415000Y-108404132D01*
X139909566Y-111909566D01*
X139728561Y-112180459D01*
X139665000Y-112500000D01*
X139665000Y-112572766D01*
X139565162Y-112813201D01*
X139564838Y-113185167D01*
X139706883Y-113528943D01*
X139969673Y-113792192D01*
X140313201Y-113934838D01*
X140685167Y-113935162D01*
X141028943Y-113793117D01*
X141292192Y-113530327D01*
X141434838Y-113186799D01*
X141435162Y-112814833D01*
X141414951Y-112765917D01*
X144840434Y-109340434D01*
X145021439Y-109069541D01*
X145085000Y-108750000D01*
X145085000Y-106427234D01*
X145184838Y-106186799D01*
X145185162Y-105814833D01*
X145043117Y-105471057D01*
X144780327Y-105207808D01*
X144436799Y-105065162D01*
X144064833Y-105064838D01*
X143721057Y-105206883D01*
X143457808Y-105469673D01*
X143335118Y-105765141D01*
X143335162Y-105714833D01*
X143193117Y-105371057D01*
X142930327Y-105107808D01*
X142586799Y-104965162D01*
X142214833Y-104964838D01*
X141871057Y-105106883D01*
X141607808Y-105369673D01*
X141465162Y-105713201D01*
X141464838Y-106085167D01*
X141565000Y-106327578D01*
X141565000Y-107654132D01*
X137811667Y-111407465D01*
X137571057Y-111506883D01*
X137307808Y-111769673D01*
X137165162Y-112113201D01*
X137164838Y-112485167D01*
X135827000Y-112485167D01*
X135827000Y-104427000D01*
X150323000Y-104427000D01*
X150323000Y-114994825D01*
X150323000Y-114994825D01*
G37*
X150323000Y-114994825D02*
X150230721Y-114994745D01*
X149886945Y-115136790D01*
X149623696Y-115399580D01*
X149481050Y-115743108D01*
X149480726Y-116115074D01*
X149622771Y-116458850D01*
X149655888Y-116492025D01*
X149655888Y-116665888D01*
X149713740Y-116956727D01*
X149878487Y-117203289D01*
X149990000Y-117314802D01*
X149990000Y-117949056D01*
X149971057Y-117956883D01*
X149707808Y-118219673D01*
X149565162Y-118563201D01*
X149564838Y-118935167D01*
X149706883Y-119278943D01*
X149774245Y-119346422D01*
X149797852Y-119465103D01*
X149962599Y-119711665D01*
X149990000Y-119739066D01*
X149990000Y-124564991D01*
X149814833Y-124564838D01*
X149471057Y-124706883D01*
X149207808Y-124969673D01*
X149065162Y-125313201D01*
X149065023Y-125473000D01*
X135827000Y-125473000D01*
X135827000Y-112485167D01*
X137164838Y-112485167D01*
X137306883Y-112828943D01*
X137569673Y-113092192D01*
X137913201Y-113234838D01*
X138285167Y-113235162D01*
X138628943Y-113093117D01*
X138892192Y-112830327D01*
X138992778Y-112588090D01*
X142990434Y-108590434D01*
X143097325Y-108430460D01*
X143171439Y-108319541D01*
X143235000Y-108000000D01*
X143235000Y-106327234D01*
X143314882Y-106134859D01*
X143314838Y-106185167D01*
X143415000Y-106427578D01*
X143415000Y-108404132D01*
X139909566Y-111909566D01*
X139728561Y-112180459D01*
X139665000Y-112500000D01*
X139665000Y-112572766D01*
X139565162Y-112813201D01*
X139564838Y-113185167D01*
X139706883Y-113528943D01*
X139969673Y-113792192D01*
X140313201Y-113934838D01*
X140685167Y-113935162D01*
X141028943Y-113793117D01*
X141292192Y-113530327D01*
X141434838Y-113186799D01*
X141435162Y-112814833D01*
X141414951Y-112765917D01*
X144840434Y-109340434D01*
X145021439Y-109069541D01*
X145085000Y-108750000D01*
X145085000Y-106427234D01*
X145184838Y-106186799D01*
X145185162Y-105814833D01*
X145043117Y-105471057D01*
X144780327Y-105207808D01*
X144436799Y-105065162D01*
X144064833Y-105064838D01*
X143721057Y-105206883D01*
X143457808Y-105469673D01*
X143335118Y-105765141D01*
X143335162Y-105714833D01*
X143193117Y-105371057D01*
X142930327Y-105107808D01*
X142586799Y-104965162D01*
X142214833Y-104964838D01*
X141871057Y-105106883D01*
X141607808Y-105369673D01*
X141465162Y-105713201D01*
X141464838Y-106085167D01*
X141565000Y-106327578D01*
X141565000Y-107654132D01*
X137811667Y-111407465D01*
X137571057Y-111506883D01*
X137307808Y-111769673D01*
X137165162Y-112113201D01*
X137164838Y-112485167D01*
X135827000Y-112485167D01*
X135827000Y-104427000D01*
X150323000Y-104427000D01*
X150323000Y-114994825D01*
G36*
X136573000Y-80823000D02*
X115527000Y-80823000D01*
X115527000Y-71185167D01*
X127064838Y-71185167D01*
X127206883Y-71528943D01*
X127469673Y-71792192D01*
X127813201Y-71934838D01*
X128185167Y-71935162D01*
X128234083Y-71914951D01*
X131659566Y-75340434D01*
X131930459Y-75521439D01*
X132250000Y-75585000D01*
X134572766Y-75585000D01*
X134813201Y-75684838D01*
X135185167Y-75685162D01*
X135528943Y-75543117D01*
X135792192Y-75280327D01*
X135934838Y-74936799D01*
X135935162Y-74564833D01*
X135793117Y-74221057D01*
X135530327Y-73957808D01*
X135516640Y-73952125D01*
X135534345Y-73948603D01*
X135902566Y-73702566D01*
X136148603Y-73334345D01*
X136234999Y-72900000D01*
X136148603Y-72465654D01*
X135902566Y-72097434D01*
X131602566Y-67797434D01*
X131404122Y-67664838D01*
X131234346Y-67551397D01*
X130800000Y-67465000D01*
X128700000Y-67465000D01*
X128265654Y-67551397D01*
X127897434Y-67797434D01*
X127651397Y-68165654D01*
X127565000Y-68600000D01*
X127651397Y-69034346D01*
X127897434Y-69402566D01*
X128265654Y-69648603D01*
X128700000Y-69735000D01*
X130329868Y-69735000D01*
X134297434Y-73702566D01*
X134598956Y-73904037D01*
X134572422Y-73915000D01*
X132595868Y-73915000D01*
X129090434Y-70409566D01*
X128819541Y-70228561D01*
X128500000Y-70165000D01*
X128427234Y-70165000D01*
X128186799Y-70065162D01*
X127814833Y-70064838D01*
X127471057Y-70206883D01*
X127207808Y-70469673D01*
X127065162Y-70813201D01*
X127064838Y-71185167D01*
X115527000Y-71185167D01*
X115527000Y-66327000D01*
X136573000Y-66327000D01*
X136573000Y-80823000D01*
X136573000Y-80823000D01*
G37*
X136573000Y-80823000D02*
X115527000Y-80823000D01*
X115527000Y-71185167D01*
X127064838Y-71185167D01*
X127206883Y-71528943D01*
X127469673Y-71792192D01*
X127813201Y-71934838D01*
X128185167Y-71935162D01*
X128234083Y-71914951D01*
X131659566Y-75340434D01*
X131930459Y-75521439D01*
X132250000Y-75585000D01*
X134572766Y-75585000D01*
X134813201Y-75684838D01*
X135185167Y-75685162D01*
X135528943Y-75543117D01*
X135792192Y-75280327D01*
X135934838Y-74936799D01*
X135935162Y-74564833D01*
X135793117Y-74221057D01*
X135530327Y-73957808D01*
X135516640Y-73952125D01*
X135534345Y-73948603D01*
X135902566Y-73702566D01*
X136148603Y-73334345D01*
X136234999Y-72900000D01*
X136148603Y-72465654D01*
X135902566Y-72097434D01*
X131602566Y-67797434D01*
X131404122Y-67664838D01*
X131234346Y-67551397D01*
X130800000Y-67465000D01*
X128700000Y-67465000D01*
X128265654Y-67551397D01*
X127897434Y-67797434D01*
X127651397Y-68165654D01*
X127565000Y-68600000D01*
X127651397Y-69034346D01*
X127897434Y-69402566D01*
X128265654Y-69648603D01*
X128700000Y-69735000D01*
X130329868Y-69735000D01*
X134297434Y-73702566D01*
X134598956Y-73904037D01*
X134572422Y-73915000D01*
X132595868Y-73915000D01*
X129090434Y-70409566D01*
X128819541Y-70228561D01*
X128500000Y-70165000D01*
X128427234Y-70165000D01*
X128186799Y-70065162D01*
X127814833Y-70064838D01*
X127471057Y-70206883D01*
X127207808Y-70469673D01*
X127065162Y-70813201D01*
X127064838Y-71185167D01*
X115527000Y-71185167D01*
X115527000Y-66327000D01*
X136573000Y-66327000D01*
X136573000Y-80823000D01*
G36*
X177473000Y-103216796D02*
X158773617Y-103216796D01*
X158737411Y-103162609D01*
X156427000Y-100852198D01*
X156427000Y-96643796D01*
X156765000Y-96643796D01*
X156851397Y-97078141D01*
X157097434Y-97446362D01*
X158203638Y-98552566D01*
X158571859Y-98798604D01*
X159006204Y-98885000D01*
X160636072Y-98885000D01*
X163497434Y-101746362D01*
X163865655Y-101992400D01*
X164300000Y-102078796D01*
X164734346Y-101992400D01*
X165102566Y-101746362D01*
X165348604Y-101378142D01*
X165435000Y-100943796D01*
X165348604Y-100509451D01*
X165102566Y-100141230D01*
X164300436Y-99339100D01*
X164500000Y-99378796D01*
X164572766Y-99378796D01*
X164813201Y-99478634D01*
X165185167Y-99478958D01*
X165528943Y-99336913D01*
X165792192Y-99074123D01*
X165934838Y-98730595D01*
X165935162Y-98358629D01*
X165793117Y-98014853D01*
X165530327Y-97751604D01*
X165186799Y-97608958D01*
X164814833Y-97608634D01*
X164765917Y-97628845D01*
X161340434Y-94203362D01*
X161069541Y-94022357D01*
X160750000Y-93958796D01*
X158427234Y-93958796D01*
X158186799Y-93858958D01*
X157814833Y-93858634D01*
X157471057Y-94000679D01*
X157207808Y-94263469D01*
X157065162Y-94606997D01*
X157064838Y-94978963D01*
X157206883Y-95322739D01*
X157469673Y-95585988D01*
X157483360Y-95591671D01*
X157465655Y-95595193D01*
X157097434Y-95841230D01*
X156851397Y-96209451D01*
X156765000Y-96643796D01*
X156427000Y-96643796D01*
X156427000Y-92147802D01*
X157064802Y-91510000D01*
X158250000Y-91510000D01*
X158540839Y-91452148D01*
X158787401Y-91287401D01*
X159364792Y-90710010D01*
X161209220Y-90710010D01*
X161500059Y-90652158D01*
X161746621Y-90487411D01*
X163024022Y-89210010D01*
X177473000Y-89210010D01*
X177473000Y-103216796D01*
X177473000Y-103216796D01*
G37*
X177473000Y-103216796D02*
X158773617Y-103216796D01*
X158737411Y-103162609D01*
X156427000Y-100852198D01*
X156427000Y-96643796D01*
X156765000Y-96643796D01*
X156851397Y-97078141D01*
X157097434Y-97446362D01*
X158203638Y-98552566D01*
X158571859Y-98798604D01*
X159006204Y-98885000D01*
X160636072Y-98885000D01*
X163497434Y-101746362D01*
X163865655Y-101992400D01*
X164300000Y-102078796D01*
X164734346Y-101992400D01*
X165102566Y-101746362D01*
X165348604Y-101378142D01*
X165435000Y-100943796D01*
X165348604Y-100509451D01*
X165102566Y-100141230D01*
X164300436Y-99339100D01*
X164500000Y-99378796D01*
X164572766Y-99378796D01*
X164813201Y-99478634D01*
X165185167Y-99478958D01*
X165528943Y-99336913D01*
X165792192Y-99074123D01*
X165934838Y-98730595D01*
X165935162Y-98358629D01*
X165793117Y-98014853D01*
X165530327Y-97751604D01*
X165186799Y-97608958D01*
X164814833Y-97608634D01*
X164765917Y-97628845D01*
X161340434Y-94203362D01*
X161069541Y-94022357D01*
X160750000Y-93958796D01*
X158427234Y-93958796D01*
X158186799Y-93858958D01*
X157814833Y-93858634D01*
X157471057Y-94000679D01*
X157207808Y-94263469D01*
X157065162Y-94606997D01*
X157064838Y-94978963D01*
X157206883Y-95322739D01*
X157469673Y-95585988D01*
X157483360Y-95591671D01*
X157465655Y-95595193D01*
X157097434Y-95841230D01*
X156851397Y-96209451D01*
X156765000Y-96643796D01*
X156427000Y-96643796D01*
X156427000Y-92147802D01*
X157064802Y-91510000D01*
X158250000Y-91510000D01*
X158540839Y-91452148D01*
X158787401Y-91287401D01*
X159364792Y-90710010D01*
X161209220Y-90710010D01*
X161500059Y-90652158D01*
X161746621Y-90487411D01*
X163024022Y-89210010D01*
X177473000Y-89210010D01*
X177473000Y-103216796D01*
M02*
