M48
;DRILL file {KiCad 4.0.7-e2-6376~58~ubuntu16.04.1} date Thu Mar 22 01:37:31 2018
;FORMAT={-:-/ absolute / inch / decimal}
FMAT,2
INCH,TZ
T1C0.016
T2C0.025
T3C0.039
T4C0.040
T5C0.125
T6C0.136
%
G90
G05
M72
T1
X4.252Y-4.0945
X4.252Y-4.1339
X4.252Y-4.1732
X4.3504Y-3.3465
X4.3622Y-3.5748
X4.3622Y-3.6614
X4.3701Y-3.3169
X4.3996Y-3.4252
X4.4291Y-3.2874
X4.4488Y-3.7008
X4.498Y-3.5433
X4.5059Y-4.126
X4.5316Y-3.6967
X4.5669Y-3.1496
X4.626Y-3.1496
X4.6339Y-2.7087
X4.685Y-3.1496
X4.7303Y-4.3071
X4.7972Y-4.4882
X4.7972Y-4.5551
X4.8583Y-2.8898
X4.872Y-4.1654
X4.9114Y-4.2126
X4.9217Y-3.7602
X4.9252Y-3.0709
X4.9252Y-3.1378
X4.939Y-4.1181
X4.9803Y-3.7992
X5.Y-2.748
X5.Y-3.0906
X5.0098Y-3.8484
X5.0118Y-3.9252
X5.0197Y-3.5433
X5.0197Y-3.5827
X5.0394Y-2.7953
X5.0394Y-3.0906
X5.0669Y-2.7008
X5.0728Y-4.1024
X5.0787Y-3.0906
X5.0906Y-2.4488
X5.1083Y-2.3622
X5.1083Y-3.4646
X5.1083Y-3.7402
X5.1161Y-4.063
X5.128Y-3.6959
X5.1378Y-1.998
X5.1476Y-4.0945
X5.1601Y-3.5482
X5.1683Y-3.8958
X5.187Y-3.7402
X5.1969Y-2.2736
X5.1969Y-3.5236
X5.1969Y-3.9469
X5.1969Y-4.2913
X5.1969Y-4.3602
X5.2008Y-2.685
X5.2165Y-2.0472
X5.2185Y-3.7402
X5.2264Y-3.4843
X5.2323Y-3.9094
X5.2441Y-2.6457
X5.247Y-2.4194
X5.2756Y-2.0472
X5.2756Y-2.6772
X5.2756Y-3.7992
X5.2953Y-3.563
X5.3051Y-2.4606
X5.311Y-2.4331
X5.315Y-2.9429
X5.3189Y-2.8701
X5.3346Y-3.4055
X5.3346Y-3.4449
X5.3445Y-1.9685
X5.3543Y-2.1506
X5.374Y-2.0866
X5.3819Y-4.2441
X5.3937Y-2.3474
X5.4134Y-4.2126
X5.4213Y-4.2874
X5.4331Y-2.126
X5.437Y-4.4213
X5.4449Y-4.8543
X5.4528Y-2.815
X5.4843Y-4.4882
X5.4921Y-2.1506
X5.5217Y-3.4744
X5.5315Y-4.4488
X5.5512Y-2.0079
X5.5512Y-2.0472
X5.5512Y-2.0866
X5.5748Y-2.4646
X5.5906Y-2.8937
X5.6063Y-4.1693
X5.626Y-4.6299
X5.6299Y-2.8976
X5.6299Y-3.4449
X5.6496Y-2.5
X5.6791Y-4.1732
X5.7087Y-2.0079
X5.7087Y-5.
X5.7087Y-5.0394
X5.7087Y-5.0787
X5.748Y-2.0079
X5.7579Y-3.2874
X5.7677Y-2.4016
X5.7677Y-5.0295
X5.7874Y-1.9882
X5.8071Y-4.563
X5.811Y-2.8307
X5.8268Y-2.4508
X5.8268Y-4.3898
X5.8268Y-5.0984
X5.8307Y-3.2913
X5.8661Y-4.3898
X5.874Y-4.563
X5.8957Y-3.4744
X5.9055Y-1.9882
X5.9055Y-2.3819
X5.9055Y-3.0118
X5.9055Y-4.3898
X5.9055Y-4.9409
X5.9219Y-4.5642
X5.9252Y-2.0472
X5.9252Y-4.6752
X5.9449Y-2.5197
X5.9528Y-2.9724
X5.9744Y-4.7638
X5.9921Y-2.6063
X5.9963Y-2.1321
X6.Y-3.0394
X6.0039Y-4.4587
X6.0157Y-3.1732
X6.0236Y-2.5197
X6.0236Y-3.248
X6.0236Y-4.9606
X6.0335Y-3.3957
X6.0433Y-3.6809
X6.0433Y-4.9016
X6.0551Y-3.2165
X6.063Y-4.4587
X6.0925Y-4.6161
X6.1024Y-4.8819
X6.122Y-2.4409
X6.122Y-4.6654
X6.122Y-4.8228
X6.122Y-5.0394
X6.1222Y-2.1458
X6.1319Y-4.5079
X6.1417Y-1.9882
X6.1417Y-2.3819
X6.1614Y-4.6457
X6.1614Y-4.8819
X6.1614Y-5.0984
X6.1909Y-3.4744
X6.2008Y-4.439
X6.2008Y-4.7835
X6.2008Y-4.9213
X6.2165Y-3.2126
X6.2165Y-3.8049
X6.2205Y-3.1398
X6.2205Y-3.732
X6.2205Y-5.1181
X6.2402Y-3.5236
X6.2402Y-4.439
X6.2598Y-1.9882
X6.2598Y-2.3819
X6.2598Y-3.3271
X6.2598Y-3.9978
X6.2795Y-5.0295
X6.2894Y-2.4409
X6.2894Y-3.4055
X6.2894Y-4.7047
X6.2913Y-4.0293
X6.2992Y-2.0571
X6.3071Y-4.2638
X6.3346Y-3.3976
X6.3346Y-3.9899
X6.3386Y-4.2323
X6.3465Y-4.3071
X6.3622Y-4.4409
X6.3701Y-4.874
X6.3976Y-2.0472
X6.3976Y-2.0866
X6.3976Y-2.126
X6.3976Y-2.1654
X6.4094Y-2.4055
X6.4094Y-4.5079
X6.4567Y-2.5591
X6.4567Y-4.4685
X6.4685Y-3.3819
X6.4685Y-3.9742
X6.4764Y-2.4055
X6.4961Y-2.5591
X6.4961Y-3.2874
X6.4961Y-3.8797
X6.5315Y-4.189
X6.5354Y-2.5591
X6.5354Y-3.3346
X6.5354Y-3.5236
X6.5354Y-3.563
X6.5354Y-3.6024
X6.5354Y-3.9269
X6.5512Y-4.6496
X6.5748Y-5.1969
X6.6043Y-2.7953
X6.6043Y-4.1929
X6.6102Y-2.9449
X6.6102Y-3.0118
X6.6102Y-3.5372
X6.6102Y-3.6041
X6.6142Y-5.1969
X6.6535Y-5.1969
X6.6575Y-2.3386
X6.6772Y-2.7992
X6.6772Y-3.1929
X6.6772Y-3.7852
X6.7323Y-4.5827
X6.752Y-2.5197
X6.7992Y-2.4803
X6.7992Y-4.5827
X6.8386Y-2.1142
X6.8465Y-2.5472
X6.8622Y-2.6811
X6.8701Y-2.7559
X6.9016Y-2.7244
X6.9016Y-3.374
X6.9016Y-3.9663
X6.9488Y-3.9764
X6.9882Y-3.9764
X7.0374Y-2.874
X7.0472Y-3.8386
X7.0669Y-2.9724
X7.0669Y-3.0118
X7.0669Y-3.0512
X7.0669Y-3.3268
X7.0669Y-3.4941
X7.1063Y-3.3268
X7.1063Y-3.4744
X7.2047Y-2.7165
X7.2047Y-4.0748
X7.2441Y-4.1142
X7.2835Y-4.1535
X7.2933Y-3.3268
X7.2933Y-3.4843
X7.5562Y-3.5395
X7.5601Y-3.081
X7.5608Y-3.6511
X7.5689Y-3.435
X7.5827Y-2.9528
X7.5827Y-2.9921
X7.6181Y-3.0807
X7.6318Y-3.4246
X7.6457Y-2.8189
X7.6506Y-3.376
X7.6535Y-2.9449
X7.6799Y-3.487
X7.681Y-3.4097
X7.6967Y-3.2969
X7.6969Y-3.6713
X7.6969Y-3.7598
X7.7018Y-3.4449
X7.7067Y-3.3268
X7.7244Y-2.874
X7.7402Y-3.
X7.7461Y-3.1004
X7.7461Y-3.3661
X7.7742Y-3.3802
X7.8047Y-3.3883
X7.811Y-2.9921
X7.8346Y-3.4055
T2
X7.1654Y-2.7559
X7.1654Y-2.8346
X7.1654Y-2.9134
X7.1654Y-2.9921
X7.1654Y-3.0709
X7.1654Y-3.1496
X7.1654Y-3.2283
X7.1654Y-3.3071
X7.1654Y-3.3858
X7.1654Y-3.4646
X7.2441Y-2.7559
X7.2441Y-2.8346
X7.2441Y-2.9134
X7.2441Y-2.9921
X7.2441Y-3.0709
X7.2441Y-3.1496
X7.2441Y-3.2283
X7.2441Y-3.3071
X7.2441Y-3.3858
X7.2441Y-3.4646
T3
X7.Y-4.9409
X7.0984Y-4.9409
X7.1969Y-4.9409
T4
X7.4091Y-1.965
X7.4091Y-2.065
X7.4091Y-2.165
X7.4091Y-2.265
X7.4091Y-2.365
X7.4091Y-2.465
X7.4091Y-2.565
X7.4091Y-2.665
X7.4091Y-2.765
X7.4091Y-2.865
X7.4091Y-2.965
X7.4091Y-3.065
X7.4091Y-3.165
X7.4091Y-3.265
X7.4091Y-3.365
X7.4091Y-3.465
X7.4091Y-3.565
X7.4091Y-3.665
X7.4091Y-3.765
X7.4091Y-3.865
X7.4091Y-3.965
X7.4091Y-4.065
X7.4091Y-4.165
X7.4091Y-4.265
X7.4091Y-4.365
X7.4091Y-4.465
X7.4091Y-4.565
X7.4091Y-4.665
X7.4091Y-4.765
X7.4091Y-4.865
X7.4091Y-4.965
X7.4091Y-5.065
X7.5091Y-1.965
X7.5091Y-2.065
X7.5091Y-2.165
X7.5091Y-2.265
X7.5091Y-2.365
X7.5091Y-2.465
X7.5091Y-2.565
X7.5091Y-2.665
X7.5091Y-2.765
X7.5091Y-2.865
X7.5091Y-2.965
X7.5091Y-3.065
X7.5091Y-3.165
X7.5091Y-3.265
X7.5091Y-3.365
X7.5091Y-3.465
X7.5091Y-3.565
X7.5091Y-3.665
X7.5091Y-3.765
X7.5091Y-3.865
X7.5091Y-3.965
X7.5091Y-4.065
X7.5091Y-4.165
X7.5091Y-4.265
X7.5091Y-4.365
X7.5091Y-4.465
X7.5091Y-4.565
X7.5091Y-4.665
X7.5091Y-4.765
X7.5091Y-4.865
X7.5091Y-4.965
X7.5091Y-5.065
T5
X4.3339Y-2.065
X4.3339Y-4.965
X7.7091Y-1.965
X7.7091Y-5.115
T6
X4.6441Y-2.435
X4.6441Y-3.785
X7.1941Y-2.435
X7.1941Y-3.785
T0
M30
