G04 #@! TF.FileFunction,Legend,Top*
%FSLAX46Y46*%
G04 Gerber Fmt 4.6, Leading zero omitted, Abs format (unit mm)*
G04 Created by KiCad (PCBNEW 4.0.7-e2-6376~58~ubuntu16.04.1) date Thu Mar 22 00:37:00 2018*
%MOMM*%
%LPD*%
G01*
G04 APERTURE LIST*
%ADD10C,0.100000*%
%ADD11C,0.300000*%
%ADD12C,0.150000*%
%ADD13C,0.010000*%
G04 APERTURE END LIST*
D10*
D11*
X140250001Y-128903571D02*
X140250001Y-127403571D01*
X140821429Y-127403571D01*
X140964287Y-127475000D01*
X141035715Y-127546429D01*
X141107144Y-127689286D01*
X141107144Y-127903571D01*
X141035715Y-128046429D01*
X140964287Y-128117857D01*
X140821429Y-128189286D01*
X140250001Y-128189286D01*
X142392858Y-128903571D02*
X142392858Y-128117857D01*
X142321429Y-127975000D01*
X142178572Y-127903571D01*
X141892858Y-127903571D01*
X141750001Y-127975000D01*
X142392858Y-128832143D02*
X142250001Y-128903571D01*
X141892858Y-128903571D01*
X141750001Y-128832143D01*
X141678572Y-128689286D01*
X141678572Y-128546429D01*
X141750001Y-128403571D01*
X141892858Y-128332143D01*
X142250001Y-128332143D01*
X142392858Y-128260714D01*
X143107144Y-127903571D02*
X143107144Y-128903571D01*
X143107144Y-128046429D02*
X143178572Y-127975000D01*
X143321430Y-127903571D01*
X143535715Y-127903571D01*
X143678572Y-127975000D01*
X143750001Y-128117857D01*
X143750001Y-128903571D01*
X144464287Y-127903571D02*
X144464287Y-128903571D01*
X144464287Y-128046429D02*
X144535715Y-127975000D01*
X144678573Y-127903571D01*
X144892858Y-127903571D01*
X145035715Y-127975000D01*
X145107144Y-128117857D01*
X145107144Y-128903571D01*
X146392858Y-128832143D02*
X146250001Y-128903571D01*
X145964287Y-128903571D01*
X145821430Y-128832143D01*
X145750001Y-128689286D01*
X145750001Y-128117857D01*
X145821430Y-127975000D01*
X145964287Y-127903571D01*
X146250001Y-127903571D01*
X146392858Y-127975000D01*
X146464287Y-128117857D01*
X146464287Y-128260714D01*
X145750001Y-128403571D01*
X147321430Y-128903571D02*
X147178572Y-128832143D01*
X147107144Y-128689286D01*
X147107144Y-127403571D01*
X149892858Y-128760714D02*
X149821429Y-128832143D01*
X149607143Y-128903571D01*
X149464286Y-128903571D01*
X149250001Y-128832143D01*
X149107143Y-128689286D01*
X149035715Y-128546429D01*
X148964286Y-128260714D01*
X148964286Y-128046429D01*
X149035715Y-127760714D01*
X149107143Y-127617857D01*
X149250001Y-127475000D01*
X149464286Y-127403571D01*
X149607143Y-127403571D01*
X149821429Y-127475000D01*
X149892858Y-127546429D01*
X150750001Y-128903571D02*
X150607143Y-128832143D01*
X150535715Y-128760714D01*
X150464286Y-128617857D01*
X150464286Y-128189286D01*
X150535715Y-128046429D01*
X150607143Y-127975000D01*
X150750001Y-127903571D01*
X150964286Y-127903571D01*
X151107143Y-127975000D01*
X151178572Y-128046429D01*
X151250001Y-128189286D01*
X151250001Y-128617857D01*
X151178572Y-128760714D01*
X151107143Y-128832143D01*
X150964286Y-128903571D01*
X150750001Y-128903571D01*
X151892858Y-127903571D02*
X151892858Y-128903571D01*
X151892858Y-128046429D02*
X151964286Y-127975000D01*
X152107144Y-127903571D01*
X152321429Y-127903571D01*
X152464286Y-127975000D01*
X152535715Y-128117857D01*
X152535715Y-128903571D01*
X153250001Y-127903571D02*
X153250001Y-128903571D01*
X153250001Y-128046429D02*
X153321429Y-127975000D01*
X153464287Y-127903571D01*
X153678572Y-127903571D01*
X153821429Y-127975000D01*
X153892858Y-128117857D01*
X153892858Y-128903571D01*
X155178572Y-128832143D02*
X155035715Y-128903571D01*
X154750001Y-128903571D01*
X154607144Y-128832143D01*
X154535715Y-128689286D01*
X154535715Y-128117857D01*
X154607144Y-127975000D01*
X154750001Y-127903571D01*
X155035715Y-127903571D01*
X155178572Y-127975000D01*
X155250001Y-128117857D01*
X155250001Y-128260714D01*
X154535715Y-128403571D01*
X156535715Y-128832143D02*
X156392858Y-128903571D01*
X156107144Y-128903571D01*
X155964286Y-128832143D01*
X155892858Y-128760714D01*
X155821429Y-128617857D01*
X155821429Y-128189286D01*
X155892858Y-128046429D01*
X155964286Y-127975000D01*
X156107144Y-127903571D01*
X156392858Y-127903571D01*
X156535715Y-127975000D01*
X156964286Y-127903571D02*
X157535715Y-127903571D01*
X157178572Y-127403571D02*
X157178572Y-128689286D01*
X157250000Y-128832143D01*
X157392858Y-128903571D01*
X157535715Y-128903571D01*
X158250001Y-128903571D02*
X158107143Y-128832143D01*
X158035715Y-128760714D01*
X157964286Y-128617857D01*
X157964286Y-128189286D01*
X158035715Y-128046429D01*
X158107143Y-127975000D01*
X158250001Y-127903571D01*
X158464286Y-127903571D01*
X158607143Y-127975000D01*
X158678572Y-128046429D01*
X158750001Y-128189286D01*
X158750001Y-128617857D01*
X158678572Y-128760714D01*
X158607143Y-128832143D01*
X158464286Y-128903571D01*
X158250001Y-128903571D01*
X159392858Y-128903571D02*
X159392858Y-127903571D01*
X159392858Y-128189286D02*
X159464286Y-128046429D01*
X159535715Y-127975000D01*
X159678572Y-127903571D01*
X159821429Y-127903571D01*
X161964286Y-128117857D02*
X162178572Y-128189286D01*
X162250000Y-128260714D01*
X162321429Y-128403571D01*
X162321429Y-128617857D01*
X162250000Y-128760714D01*
X162178572Y-128832143D01*
X162035714Y-128903571D01*
X161464286Y-128903571D01*
X161464286Y-127403571D01*
X161964286Y-127403571D01*
X162107143Y-127475000D01*
X162178572Y-127546429D01*
X162250000Y-127689286D01*
X162250000Y-127832143D01*
X162178572Y-127975000D01*
X162107143Y-128046429D01*
X161964286Y-128117857D01*
X161464286Y-128117857D01*
X163178572Y-128903571D02*
X163035714Y-128832143D01*
X162964286Y-128760714D01*
X162892857Y-128617857D01*
X162892857Y-128189286D01*
X162964286Y-128046429D01*
X163035714Y-127975000D01*
X163178572Y-127903571D01*
X163392857Y-127903571D01*
X163535714Y-127975000D01*
X163607143Y-128046429D01*
X163678572Y-128189286D01*
X163678572Y-128617857D01*
X163607143Y-128760714D01*
X163535714Y-128832143D01*
X163392857Y-128903571D01*
X163178572Y-128903571D01*
X164964286Y-128903571D02*
X164964286Y-128117857D01*
X164892857Y-127975000D01*
X164750000Y-127903571D01*
X164464286Y-127903571D01*
X164321429Y-127975000D01*
X164964286Y-128832143D02*
X164821429Y-128903571D01*
X164464286Y-128903571D01*
X164321429Y-128832143D01*
X164250000Y-128689286D01*
X164250000Y-128546429D01*
X164321429Y-128403571D01*
X164464286Y-128332143D01*
X164821429Y-128332143D01*
X164964286Y-128260714D01*
X165678572Y-128903571D02*
X165678572Y-127903571D01*
X165678572Y-128189286D02*
X165750000Y-128046429D01*
X165821429Y-127975000D01*
X165964286Y-127903571D01*
X166107143Y-127903571D01*
X167250000Y-128903571D02*
X167250000Y-127403571D01*
X167250000Y-128832143D02*
X167107143Y-128903571D01*
X166821429Y-128903571D01*
X166678571Y-128832143D01*
X166607143Y-128760714D01*
X166535714Y-128617857D01*
X166535714Y-128189286D01*
X166607143Y-128046429D01*
X166678571Y-127975000D01*
X166821429Y-127903571D01*
X167107143Y-127903571D01*
X167250000Y-127975000D01*
X151928572Y-131453571D02*
X151428572Y-130739286D01*
X151071429Y-131453571D02*
X151071429Y-129953571D01*
X151642857Y-129953571D01*
X151785715Y-130025000D01*
X151857143Y-130096429D01*
X151928572Y-130239286D01*
X151928572Y-130453571D01*
X151857143Y-130596429D01*
X151785715Y-130667857D01*
X151642857Y-130739286D01*
X151071429Y-130739286D01*
X153142857Y-131382143D02*
X153000000Y-131453571D01*
X152714286Y-131453571D01*
X152571429Y-131382143D01*
X152500000Y-131239286D01*
X152500000Y-130667857D01*
X152571429Y-130525000D01*
X152714286Y-130453571D01*
X153000000Y-130453571D01*
X153142857Y-130525000D01*
X153214286Y-130667857D01*
X153214286Y-130810714D01*
X152500000Y-130953571D01*
X153714286Y-130453571D02*
X154071429Y-131453571D01*
X154428571Y-130453571D01*
X155000000Y-131310714D02*
X155071428Y-131382143D01*
X155000000Y-131453571D01*
X154928571Y-131382143D01*
X155000000Y-131310714D01*
X155000000Y-131453571D01*
X156500000Y-131453571D02*
X155642857Y-131453571D01*
X156071429Y-131453571D02*
X156071429Y-129953571D01*
X155928572Y-130167857D01*
X155785714Y-130310714D01*
X155642857Y-130382143D01*
X190785715Y-132178571D02*
X189928572Y-132178571D01*
X190357144Y-132178571D02*
X190357144Y-130678571D01*
X190214287Y-130892857D01*
X190071429Y-131035714D01*
X189928572Y-131107143D01*
X191357143Y-131750000D02*
X192071429Y-131750000D01*
X191214286Y-132178571D02*
X191714286Y-130678571D01*
X192214286Y-132178571D01*
X185428572Y-68178571D02*
X184571429Y-68178571D01*
X185000001Y-68178571D02*
X185000001Y-66678571D01*
X184857144Y-66892857D01*
X184714286Y-67035714D01*
X184571429Y-67107143D01*
X182228572Y-129207143D02*
X183371429Y-129207143D01*
X179728572Y-129207143D02*
X180871429Y-129207143D01*
X177228572Y-129207143D02*
X178371429Y-129207143D01*
X177800000Y-129778571D02*
X177800000Y-128635714D01*
D12*
X185880000Y-101860000D02*
X114780000Y-101860000D01*
X185880000Y-56160000D02*
X185880000Y-101860000D01*
X114780000Y-56160000D02*
X185880000Y-56160000D01*
X114780000Y-101860000D02*
X114780000Y-56160000D01*
X193920711Y-78050000D02*
G75*
G03X193920711Y-78050000I-70711J0D01*
G01*
X198250000Y-83500000D02*
X194750000Y-83500000D01*
X198250000Y-78500000D02*
X194750000Y-78500000D01*
X175350000Y-127850000D02*
X185250000Y-127850000D01*
X185300000Y-122100000D02*
X185300000Y-127850000D01*
X175350000Y-122100000D02*
X185250000Y-122100000D01*
X175300000Y-122100000D02*
X175300000Y-127850000D01*
D13*
G36*
X152893536Y-118759689D02*
X153011410Y-118945070D01*
X153161358Y-119210617D01*
X153210995Y-119303833D01*
X153367392Y-119596523D01*
X153497378Y-119830473D01*
X153578464Y-119965485D01*
X153589380Y-119980127D01*
X153691113Y-119982612D01*
X153879424Y-119914229D01*
X153959387Y-119874293D01*
X154171217Y-119769287D01*
X154320648Y-119710520D01*
X154345715Y-119706000D01*
X154374059Y-119780781D01*
X154367548Y-119972818D01*
X154346022Y-120129333D01*
X154284795Y-120489116D01*
X154220079Y-120869255D01*
X154202975Y-120969692D01*
X154168074Y-121222330D01*
X154180088Y-121355608D01*
X154246788Y-121414915D01*
X154281048Y-121425708D01*
X154446091Y-121391060D01*
X154648717Y-121236252D01*
X154664246Y-121220349D01*
X154791817Y-121068826D01*
X154831303Y-120981559D01*
X154819007Y-120973425D01*
X154815584Y-120937892D01*
X154897916Y-120878909D01*
X155061432Y-120848791D01*
X155167333Y-120969044D01*
X155204037Y-121211749D01*
X155216237Y-121322450D01*
X155278818Y-121371935D01*
X155433678Y-121372997D01*
X155649834Y-121347882D01*
X155946877Y-121300462D01*
X156203168Y-121244186D01*
X156294271Y-121216473D01*
X156427858Y-121179915D01*
X156470957Y-121234949D01*
X156452782Y-121418909D01*
X156452768Y-121419007D01*
X156404693Y-121665838D01*
X156329452Y-121979889D01*
X156287365Y-122136443D01*
X156163404Y-122577220D01*
X156455398Y-122693683D01*
X156747392Y-122810145D01*
X156251529Y-123223889D01*
X156009511Y-123425246D01*
X155821096Y-123580918D01*
X155721249Y-123662043D01*
X155715349Y-123666523D01*
X155760991Y-123731204D01*
X155911545Y-123895423D01*
X156149765Y-124141456D01*
X156458404Y-124451579D01*
X156820213Y-124808067D01*
X156934543Y-124919457D01*
X157308695Y-125287147D01*
X157634316Y-125614979D01*
X157894201Y-125884975D01*
X158071144Y-126079153D01*
X158147940Y-126179535D01*
X158148989Y-126188566D01*
X158053809Y-126180697D01*
X157873586Y-126105013D01*
X157818796Y-126075986D01*
X157604188Y-125969962D01*
X157290913Y-125830247D01*
X156938627Y-125683222D01*
X156856334Y-125650345D01*
X155574190Y-125232605D01*
X154260311Y-124977200D01*
X152929486Y-124883650D01*
X151596505Y-124951474D01*
X150276157Y-125180191D01*
X148983232Y-125569321D01*
X148106953Y-125934779D01*
X147811458Y-126069528D01*
X147576845Y-126170137D01*
X147443394Y-126219533D01*
X147429620Y-126221861D01*
X147456488Y-126168948D01*
X147582125Y-126034502D01*
X147754667Y-125870510D01*
X147959403Y-125703791D01*
X148144037Y-125703791D01*
X148186773Y-125718656D01*
X148350250Y-125675222D01*
X148599981Y-125582850D01*
X148620723Y-125574416D01*
X149010742Y-125426173D01*
X149445219Y-125277457D01*
X149702000Y-125198160D01*
X150660226Y-124978799D01*
X151709892Y-124839034D01*
X152791500Y-124782181D01*
X153845555Y-124811553D01*
X154739667Y-124917554D01*
X155141485Y-125003378D01*
X155646677Y-125135745D01*
X156201381Y-125298341D01*
X156751736Y-125474848D01*
X157243883Y-125648951D01*
X157530134Y-125762881D01*
X157525652Y-125730353D01*
X157414193Y-125597563D01*
X157211332Y-125381106D01*
X156932644Y-125097575D01*
X156593704Y-124763563D01*
X156576316Y-124746671D01*
X155456698Y-123659692D01*
X155690849Y-123512183D01*
X155906587Y-123360823D01*
X156155384Y-123165609D01*
X156221334Y-123110103D01*
X156517667Y-122855531D01*
X156284834Y-122748842D01*
X156151417Y-122683249D01*
X156081071Y-122612343D01*
X156068924Y-122495948D01*
X156110109Y-122293886D01*
X156192931Y-121990542D01*
X156258370Y-121717049D01*
X156287792Y-121511982D01*
X156278119Y-121427897D01*
X156171388Y-121414466D01*
X155954428Y-121438241D01*
X155757465Y-121476196D01*
X155430276Y-121534404D01*
X155233576Y-121524636D01*
X155139897Y-121439924D01*
X155120667Y-121314666D01*
X155085780Y-121148697D01*
X154978626Y-121130569D01*
X154795466Y-121260600D01*
X154703808Y-121350320D01*
X154522132Y-121521298D01*
X154388452Y-121584295D01*
X154243395Y-121562270D01*
X154197859Y-121545968D01*
X153966266Y-121458551D01*
X154076970Y-120857442D01*
X154138849Y-120528798D01*
X154194934Y-120243544D01*
X154233147Y-120063101D01*
X154233318Y-120062376D01*
X154254766Y-119935983D01*
X154207726Y-119914034D01*
X154053983Y-119984785D01*
X154026685Y-119998876D01*
X153805531Y-120095337D01*
X153638675Y-120104513D01*
X153493371Y-120008238D01*
X153336871Y-119788345D01*
X153196079Y-119538104D01*
X153040036Y-119261188D01*
X152910353Y-119053327D01*
X152829876Y-118950517D01*
X152819896Y-118945437D01*
X152757123Y-119014745D01*
X152643880Y-119199105D01*
X152502975Y-119460913D01*
X152481229Y-119503811D01*
X152329339Y-119782667D01*
X152190803Y-119997115D01*
X152093200Y-120104945D01*
X152086138Y-120108489D01*
X151940231Y-120103911D01*
X151726549Y-120034995D01*
X151683971Y-120015714D01*
X151496017Y-119932324D01*
X151414739Y-119928928D01*
X151395620Y-120009271D01*
X151395334Y-120039989D01*
X151440444Y-120212354D01*
X151591631Y-120387573D01*
X151872680Y-120591417D01*
X151947875Y-120638698D01*
X152124569Y-120761781D01*
X152210159Y-120849575D01*
X152210070Y-120866819D01*
X152124362Y-120845436D01*
X151945728Y-120747569D01*
X151779605Y-120639584D01*
X151275534Y-120334226D01*
X150757360Y-120092940D01*
X150279970Y-119939798D01*
X150112913Y-119908639D01*
X149848484Y-119890132D01*
X149664309Y-119939206D01*
X149495073Y-120061447D01*
X149333083Y-120244126D01*
X149246610Y-120477599D01*
X149215745Y-120694814D01*
X149207422Y-120984537D01*
X149244928Y-121155625D01*
X149267982Y-121181063D01*
X149327643Y-121179233D01*
X149314765Y-121117281D01*
X149315258Y-120964979D01*
X149320677Y-120944921D01*
X149500841Y-120944921D01*
X149506144Y-121159708D01*
X149569807Y-121264046D01*
X149735542Y-121316185D01*
X149786667Y-121325820D01*
X150117341Y-121369577D01*
X150319166Y-121347281D01*
X150422453Y-121250698D01*
X150450946Y-121145333D01*
X150505671Y-120940773D01*
X150560620Y-120837807D01*
X150743304Y-120837807D01*
X150774564Y-120916747D01*
X150896367Y-121087845D01*
X151084822Y-121318443D01*
X151148696Y-121391971D01*
X151359594Y-121625829D01*
X151523698Y-121797019D01*
X151613233Y-121876924D01*
X151621329Y-121878893D01*
X151616405Y-121790758D01*
X151574526Y-121602602D01*
X151561304Y-121553283D01*
X151414522Y-121267421D01*
X151132496Y-121022535D01*
X150924933Y-120898640D01*
X150779521Y-120836740D01*
X150743304Y-120837807D01*
X150560620Y-120837807D01*
X150563777Y-120831893D01*
X150572621Y-120742836D01*
X150438647Y-120646570D01*
X150333658Y-120599060D01*
X149971415Y-120484790D01*
X149718317Y-120495428D01*
X149565120Y-120634813D01*
X149502581Y-120906783D01*
X149500841Y-120944921D01*
X149320677Y-120944921D01*
X149375495Y-120742051D01*
X149396081Y-120689550D01*
X149495804Y-120491648D01*
X149616785Y-120404463D01*
X149827786Y-120383513D01*
X149869428Y-120383333D01*
X150185303Y-120436090D01*
X150586989Y-120582486D01*
X151032814Y-120804710D01*
X151432010Y-121051191D01*
X151599573Y-121200307D01*
X151683513Y-121394327D01*
X151712710Y-121605933D01*
X151716730Y-121852439D01*
X151668941Y-121968778D01*
X151557763Y-121953083D01*
X151371615Y-121803488D01*
X151098915Y-121518128D01*
X151087217Y-121505166D01*
X150863902Y-121260633D01*
X150724778Y-121137210D01*
X150638674Y-121132051D01*
X150574420Y-121242310D01*
X150505030Y-121451989D01*
X150433669Y-121541743D01*
X150273632Y-121546382D01*
X150187530Y-121530103D01*
X149902729Y-121474715D01*
X149605375Y-121425201D01*
X149297084Y-121379507D01*
X149467206Y-121999921D01*
X149544598Y-122322907D01*
X149575902Y-122548864D01*
X149556950Y-122646917D01*
X149554671Y-122647887D01*
X149423016Y-122717158D01*
X149323870Y-122783765D01*
X149273904Y-122838584D01*
X149281425Y-122909383D01*
X149363497Y-123015859D01*
X149537182Y-123177711D01*
X149819542Y-123414637D01*
X149992807Y-123556035D01*
X150297528Y-123811946D01*
X150539628Y-124031335D01*
X150696334Y-124192339D01*
X150744876Y-124273097D01*
X150742777Y-124276026D01*
X150636057Y-124331274D01*
X150414489Y-124426644D01*
X150122000Y-124543401D01*
X150060335Y-124567106D01*
X149757944Y-124699174D01*
X149403504Y-124879086D01*
X149033718Y-125085071D01*
X148685289Y-125295359D01*
X148394917Y-125488180D01*
X148199306Y-125641763D01*
X148144037Y-125703791D01*
X147959403Y-125703791D01*
X148244400Y-125471716D01*
X148818973Y-125079916D01*
X149413331Y-124736101D01*
X149954501Y-124484360D01*
X150238091Y-124366784D01*
X150447015Y-124268117D01*
X150542783Y-124206818D01*
X150545031Y-124201124D01*
X150480827Y-124132506D01*
X150308634Y-123982557D01*
X150054596Y-123773303D01*
X149744857Y-123526768D01*
X149740697Y-123523508D01*
X149364073Y-123222594D01*
X149114547Y-123007355D01*
X148981081Y-122865523D01*
X148952636Y-122784831D01*
X149018175Y-122753013D01*
X149045834Y-122751307D01*
X149194786Y-122701306D01*
X149302483Y-122634202D01*
X149395843Y-122530477D01*
X149410176Y-122383446D01*
X149371591Y-122192395D01*
X149306351Y-121931453D01*
X149220849Y-121590060D01*
X149151792Y-121314667D01*
X149072966Y-120784568D01*
X149122464Y-120360905D01*
X149291821Y-120050302D01*
X149572569Y-119859386D01*
X149956243Y-119794783D01*
X150434375Y-119863118D01*
X150833296Y-119998737D01*
X151329591Y-120202788D01*
X151279912Y-119954394D01*
X151253139Y-119791707D01*
X151278453Y-119724736D01*
X151386823Y-119747720D01*
X151609220Y-119854899D01*
X151664192Y-119882913D01*
X151826716Y-119966278D01*
X151941851Y-120004320D01*
X152035331Y-119977098D01*
X152132891Y-119864667D01*
X152260264Y-119647086D01*
X152443186Y-119304410D01*
X152466054Y-119261500D01*
X152618272Y-118989572D01*
X152744792Y-118787826D01*
X152822276Y-118692930D01*
X152829797Y-118690000D01*
X152893536Y-118759689D01*
X152893536Y-118759689D01*
G37*
X152893536Y-118759689D02*
X153011410Y-118945070D01*
X153161358Y-119210617D01*
X153210995Y-119303833D01*
X153367392Y-119596523D01*
X153497378Y-119830473D01*
X153578464Y-119965485D01*
X153589380Y-119980127D01*
X153691113Y-119982612D01*
X153879424Y-119914229D01*
X153959387Y-119874293D01*
X154171217Y-119769287D01*
X154320648Y-119710520D01*
X154345715Y-119706000D01*
X154374059Y-119780781D01*
X154367548Y-119972818D01*
X154346022Y-120129333D01*
X154284795Y-120489116D01*
X154220079Y-120869255D01*
X154202975Y-120969692D01*
X154168074Y-121222330D01*
X154180088Y-121355608D01*
X154246788Y-121414915D01*
X154281048Y-121425708D01*
X154446091Y-121391060D01*
X154648717Y-121236252D01*
X154664246Y-121220349D01*
X154791817Y-121068826D01*
X154831303Y-120981559D01*
X154819007Y-120973425D01*
X154815584Y-120937892D01*
X154897916Y-120878909D01*
X155061432Y-120848791D01*
X155167333Y-120969044D01*
X155204037Y-121211749D01*
X155216237Y-121322450D01*
X155278818Y-121371935D01*
X155433678Y-121372997D01*
X155649834Y-121347882D01*
X155946877Y-121300462D01*
X156203168Y-121244186D01*
X156294271Y-121216473D01*
X156427858Y-121179915D01*
X156470957Y-121234949D01*
X156452782Y-121418909D01*
X156452768Y-121419007D01*
X156404693Y-121665838D01*
X156329452Y-121979889D01*
X156287365Y-122136443D01*
X156163404Y-122577220D01*
X156455398Y-122693683D01*
X156747392Y-122810145D01*
X156251529Y-123223889D01*
X156009511Y-123425246D01*
X155821096Y-123580918D01*
X155721249Y-123662043D01*
X155715349Y-123666523D01*
X155760991Y-123731204D01*
X155911545Y-123895423D01*
X156149765Y-124141456D01*
X156458404Y-124451579D01*
X156820213Y-124808067D01*
X156934543Y-124919457D01*
X157308695Y-125287147D01*
X157634316Y-125614979D01*
X157894201Y-125884975D01*
X158071144Y-126079153D01*
X158147940Y-126179535D01*
X158148989Y-126188566D01*
X158053809Y-126180697D01*
X157873586Y-126105013D01*
X157818796Y-126075986D01*
X157604188Y-125969962D01*
X157290913Y-125830247D01*
X156938627Y-125683222D01*
X156856334Y-125650345D01*
X155574190Y-125232605D01*
X154260311Y-124977200D01*
X152929486Y-124883650D01*
X151596505Y-124951474D01*
X150276157Y-125180191D01*
X148983232Y-125569321D01*
X148106953Y-125934779D01*
X147811458Y-126069528D01*
X147576845Y-126170137D01*
X147443394Y-126219533D01*
X147429620Y-126221861D01*
X147456488Y-126168948D01*
X147582125Y-126034502D01*
X147754667Y-125870510D01*
X147959403Y-125703791D01*
X148144037Y-125703791D01*
X148186773Y-125718656D01*
X148350250Y-125675222D01*
X148599981Y-125582850D01*
X148620723Y-125574416D01*
X149010742Y-125426173D01*
X149445219Y-125277457D01*
X149702000Y-125198160D01*
X150660226Y-124978799D01*
X151709892Y-124839034D01*
X152791500Y-124782181D01*
X153845555Y-124811553D01*
X154739667Y-124917554D01*
X155141485Y-125003378D01*
X155646677Y-125135745D01*
X156201381Y-125298341D01*
X156751736Y-125474848D01*
X157243883Y-125648951D01*
X157530134Y-125762881D01*
X157525652Y-125730353D01*
X157414193Y-125597563D01*
X157211332Y-125381106D01*
X156932644Y-125097575D01*
X156593704Y-124763563D01*
X156576316Y-124746671D01*
X155456698Y-123659692D01*
X155690849Y-123512183D01*
X155906587Y-123360823D01*
X156155384Y-123165609D01*
X156221334Y-123110103D01*
X156517667Y-122855531D01*
X156284834Y-122748842D01*
X156151417Y-122683249D01*
X156081071Y-122612343D01*
X156068924Y-122495948D01*
X156110109Y-122293886D01*
X156192931Y-121990542D01*
X156258370Y-121717049D01*
X156287792Y-121511982D01*
X156278119Y-121427897D01*
X156171388Y-121414466D01*
X155954428Y-121438241D01*
X155757465Y-121476196D01*
X155430276Y-121534404D01*
X155233576Y-121524636D01*
X155139897Y-121439924D01*
X155120667Y-121314666D01*
X155085780Y-121148697D01*
X154978626Y-121130569D01*
X154795466Y-121260600D01*
X154703808Y-121350320D01*
X154522132Y-121521298D01*
X154388452Y-121584295D01*
X154243395Y-121562270D01*
X154197859Y-121545968D01*
X153966266Y-121458551D01*
X154076970Y-120857442D01*
X154138849Y-120528798D01*
X154194934Y-120243544D01*
X154233147Y-120063101D01*
X154233318Y-120062376D01*
X154254766Y-119935983D01*
X154207726Y-119914034D01*
X154053983Y-119984785D01*
X154026685Y-119998876D01*
X153805531Y-120095337D01*
X153638675Y-120104513D01*
X153493371Y-120008238D01*
X153336871Y-119788345D01*
X153196079Y-119538104D01*
X153040036Y-119261188D01*
X152910353Y-119053327D01*
X152829876Y-118950517D01*
X152819896Y-118945437D01*
X152757123Y-119014745D01*
X152643880Y-119199105D01*
X152502975Y-119460913D01*
X152481229Y-119503811D01*
X152329339Y-119782667D01*
X152190803Y-119997115D01*
X152093200Y-120104945D01*
X152086138Y-120108489D01*
X151940231Y-120103911D01*
X151726549Y-120034995D01*
X151683971Y-120015714D01*
X151496017Y-119932324D01*
X151414739Y-119928928D01*
X151395620Y-120009271D01*
X151395334Y-120039989D01*
X151440444Y-120212354D01*
X151591631Y-120387573D01*
X151872680Y-120591417D01*
X151947875Y-120638698D01*
X152124569Y-120761781D01*
X152210159Y-120849575D01*
X152210070Y-120866819D01*
X152124362Y-120845436D01*
X151945728Y-120747569D01*
X151779605Y-120639584D01*
X151275534Y-120334226D01*
X150757360Y-120092940D01*
X150279970Y-119939798D01*
X150112913Y-119908639D01*
X149848484Y-119890132D01*
X149664309Y-119939206D01*
X149495073Y-120061447D01*
X149333083Y-120244126D01*
X149246610Y-120477599D01*
X149215745Y-120694814D01*
X149207422Y-120984537D01*
X149244928Y-121155625D01*
X149267982Y-121181063D01*
X149327643Y-121179233D01*
X149314765Y-121117281D01*
X149315258Y-120964979D01*
X149320677Y-120944921D01*
X149500841Y-120944921D01*
X149506144Y-121159708D01*
X149569807Y-121264046D01*
X149735542Y-121316185D01*
X149786667Y-121325820D01*
X150117341Y-121369577D01*
X150319166Y-121347281D01*
X150422453Y-121250698D01*
X150450946Y-121145333D01*
X150505671Y-120940773D01*
X150560620Y-120837807D01*
X150743304Y-120837807D01*
X150774564Y-120916747D01*
X150896367Y-121087845D01*
X151084822Y-121318443D01*
X151148696Y-121391971D01*
X151359594Y-121625829D01*
X151523698Y-121797019D01*
X151613233Y-121876924D01*
X151621329Y-121878893D01*
X151616405Y-121790758D01*
X151574526Y-121602602D01*
X151561304Y-121553283D01*
X151414522Y-121267421D01*
X151132496Y-121022535D01*
X150924933Y-120898640D01*
X150779521Y-120836740D01*
X150743304Y-120837807D01*
X150560620Y-120837807D01*
X150563777Y-120831893D01*
X150572621Y-120742836D01*
X150438647Y-120646570D01*
X150333658Y-120599060D01*
X149971415Y-120484790D01*
X149718317Y-120495428D01*
X149565120Y-120634813D01*
X149502581Y-120906783D01*
X149500841Y-120944921D01*
X149320677Y-120944921D01*
X149375495Y-120742051D01*
X149396081Y-120689550D01*
X149495804Y-120491648D01*
X149616785Y-120404463D01*
X149827786Y-120383513D01*
X149869428Y-120383333D01*
X150185303Y-120436090D01*
X150586989Y-120582486D01*
X151032814Y-120804710D01*
X151432010Y-121051191D01*
X151599573Y-121200307D01*
X151683513Y-121394327D01*
X151712710Y-121605933D01*
X151716730Y-121852439D01*
X151668941Y-121968778D01*
X151557763Y-121953083D01*
X151371615Y-121803488D01*
X151098915Y-121518128D01*
X151087217Y-121505166D01*
X150863902Y-121260633D01*
X150724778Y-121137210D01*
X150638674Y-121132051D01*
X150574420Y-121242310D01*
X150505030Y-121451989D01*
X150433669Y-121541743D01*
X150273632Y-121546382D01*
X150187530Y-121530103D01*
X149902729Y-121474715D01*
X149605375Y-121425201D01*
X149297084Y-121379507D01*
X149467206Y-121999921D01*
X149544598Y-122322907D01*
X149575902Y-122548864D01*
X149556950Y-122646917D01*
X149554671Y-122647887D01*
X149423016Y-122717158D01*
X149323870Y-122783765D01*
X149273904Y-122838584D01*
X149281425Y-122909383D01*
X149363497Y-123015859D01*
X149537182Y-123177711D01*
X149819542Y-123414637D01*
X149992807Y-123556035D01*
X150297528Y-123811946D01*
X150539628Y-124031335D01*
X150696334Y-124192339D01*
X150744876Y-124273097D01*
X150742777Y-124276026D01*
X150636057Y-124331274D01*
X150414489Y-124426644D01*
X150122000Y-124543401D01*
X150060335Y-124567106D01*
X149757944Y-124699174D01*
X149403504Y-124879086D01*
X149033718Y-125085071D01*
X148685289Y-125295359D01*
X148394917Y-125488180D01*
X148199306Y-125641763D01*
X148144037Y-125703791D01*
X147959403Y-125703791D01*
X148244400Y-125471716D01*
X148818973Y-125079916D01*
X149413331Y-124736101D01*
X149954501Y-124484360D01*
X150238091Y-124366784D01*
X150447015Y-124268117D01*
X150542783Y-124206818D01*
X150545031Y-124201124D01*
X150480827Y-124132506D01*
X150308634Y-123982557D01*
X150054596Y-123773303D01*
X149744857Y-123526768D01*
X149740697Y-123523508D01*
X149364073Y-123222594D01*
X149114547Y-123007355D01*
X148981081Y-122865523D01*
X148952636Y-122784831D01*
X149018175Y-122753013D01*
X149045834Y-122751307D01*
X149194786Y-122701306D01*
X149302483Y-122634202D01*
X149395843Y-122530477D01*
X149410176Y-122383446D01*
X149371591Y-122192395D01*
X149306351Y-121931453D01*
X149220849Y-121590060D01*
X149151792Y-121314667D01*
X149072966Y-120784568D01*
X149122464Y-120360905D01*
X149291821Y-120050302D01*
X149572569Y-119859386D01*
X149956243Y-119794783D01*
X150434375Y-119863118D01*
X150833296Y-119998737D01*
X151329591Y-120202788D01*
X151279912Y-119954394D01*
X151253139Y-119791707D01*
X151278453Y-119724736D01*
X151386823Y-119747720D01*
X151609220Y-119854899D01*
X151664192Y-119882913D01*
X151826716Y-119966278D01*
X151941851Y-120004320D01*
X152035331Y-119977098D01*
X152132891Y-119864667D01*
X152260264Y-119647086D01*
X152443186Y-119304410D01*
X152466054Y-119261500D01*
X152618272Y-118989572D01*
X152744792Y-118787826D01*
X152822276Y-118692930D01*
X152829797Y-118690000D01*
X152893536Y-118759689D01*
G36*
X152902590Y-123809703D02*
X153001422Y-123902340D01*
X153108940Y-124027860D01*
X153089616Y-124110716D01*
X152977268Y-124198463D01*
X152829657Y-124283346D01*
X152724457Y-124253544D01*
X152651055Y-124184184D01*
X152559408Y-124065893D01*
X152590280Y-123970997D01*
X152675210Y-123888062D01*
X152805136Y-123789027D01*
X152902590Y-123809703D01*
X152902590Y-123809703D01*
G37*
X152902590Y-123809703D02*
X153001422Y-123902340D01*
X153108940Y-124027860D01*
X153089616Y-124110716D01*
X152977268Y-124198463D01*
X152829657Y-124283346D01*
X152724457Y-124253544D01*
X152651055Y-124184184D01*
X152559408Y-124065893D01*
X152590280Y-123970997D01*
X152675210Y-123888062D01*
X152805136Y-123789027D01*
X152902590Y-123809703D01*
G36*
X155118207Y-124173096D02*
X155120667Y-124193333D01*
X155056238Y-124275540D01*
X155036000Y-124278000D01*
X154953794Y-124213571D01*
X154951334Y-124193333D01*
X155015763Y-124111127D01*
X155036000Y-124108667D01*
X155118207Y-124173096D01*
X155118207Y-124173096D01*
G37*
X155118207Y-124173096D02*
X155120667Y-124193333D01*
X155056238Y-124275540D01*
X155036000Y-124278000D01*
X154953794Y-124213571D01*
X154951334Y-124193333D01*
X155015763Y-124111127D01*
X155036000Y-124108667D01*
X155118207Y-124173096D01*
G36*
X152448416Y-121025012D02*
X152640386Y-121154303D01*
X152885287Y-121337249D01*
X152917199Y-121362195D01*
X153187131Y-121589365D01*
X153331707Y-121754122D01*
X153370901Y-121880964D01*
X153365840Y-121912528D01*
X153357648Y-122049365D01*
X153441743Y-122051339D01*
X153621102Y-121917617D01*
X153738684Y-121808111D01*
X153922498Y-121645695D01*
X154053884Y-121590046D01*
X154191975Y-121620547D01*
X154229548Y-121636963D01*
X154402991Y-121788593D01*
X154433741Y-121998233D01*
X154321699Y-122232558D01*
X154231667Y-122330667D01*
X154064469Y-122517293D01*
X154033805Y-122628706D01*
X154140333Y-122655209D01*
X154210500Y-122642547D01*
X154347014Y-122648689D01*
X154522692Y-122738974D01*
X154767335Y-122930996D01*
X154904768Y-123052489D01*
X155408537Y-123507574D01*
X155244382Y-123688963D01*
X155067857Y-123864443D01*
X154919995Y-123937400D01*
X154763091Y-123901955D01*
X154559442Y-123752230D01*
X154339201Y-123547824D01*
X154104766Y-123303417D01*
X153950927Y-123103754D01*
X153900707Y-122979266D01*
X153902720Y-122970869D01*
X153907332Y-122840588D01*
X153816196Y-122809829D01*
X153676040Y-122886607D01*
X153637193Y-122925330D01*
X153432004Y-123061727D01*
X153211046Y-123080573D01*
X153025125Y-122994265D01*
X152925051Y-122815197D01*
X152919334Y-122750189D01*
X152978218Y-122591045D01*
X153086670Y-122459473D01*
X153194763Y-122311920D01*
X153186534Y-122205829D01*
X153072213Y-122185423D01*
X153026556Y-122199540D01*
X152908824Y-122173130D01*
X152705717Y-122067419D01*
X152461442Y-121912115D01*
X152220204Y-121736926D01*
X152026208Y-121571559D01*
X151934184Y-121465421D01*
X151954658Y-121361227D01*
X152058793Y-121207627D01*
X152198428Y-121061501D01*
X152325403Y-120979729D01*
X152348576Y-120976000D01*
X152448416Y-121025012D01*
X152448416Y-121025012D01*
G37*
X152448416Y-121025012D02*
X152640386Y-121154303D01*
X152885287Y-121337249D01*
X152917199Y-121362195D01*
X153187131Y-121589365D01*
X153331707Y-121754122D01*
X153370901Y-121880964D01*
X153365840Y-121912528D01*
X153357648Y-122049365D01*
X153441743Y-122051339D01*
X153621102Y-121917617D01*
X153738684Y-121808111D01*
X153922498Y-121645695D01*
X154053884Y-121590046D01*
X154191975Y-121620547D01*
X154229548Y-121636963D01*
X154402991Y-121788593D01*
X154433741Y-121998233D01*
X154321699Y-122232558D01*
X154231667Y-122330667D01*
X154064469Y-122517293D01*
X154033805Y-122628706D01*
X154140333Y-122655209D01*
X154210500Y-122642547D01*
X154347014Y-122648689D01*
X154522692Y-122738974D01*
X154767335Y-122930996D01*
X154904768Y-123052489D01*
X155408537Y-123507574D01*
X155244382Y-123688963D01*
X155067857Y-123864443D01*
X154919995Y-123937400D01*
X154763091Y-123901955D01*
X154559442Y-123752230D01*
X154339201Y-123547824D01*
X154104766Y-123303417D01*
X153950927Y-123103754D01*
X153900707Y-122979266D01*
X153902720Y-122970869D01*
X153907332Y-122840588D01*
X153816196Y-122809829D01*
X153676040Y-122886607D01*
X153637193Y-122925330D01*
X153432004Y-123061727D01*
X153211046Y-123080573D01*
X153025125Y-122994265D01*
X152925051Y-122815197D01*
X152919334Y-122750189D01*
X152978218Y-122591045D01*
X153086670Y-122459473D01*
X153194763Y-122311920D01*
X153186534Y-122205829D01*
X153072213Y-122185423D01*
X153026556Y-122199540D01*
X152908824Y-122173130D01*
X152705717Y-122067419D01*
X152461442Y-121912115D01*
X152220204Y-121736926D01*
X152026208Y-121571559D01*
X151934184Y-121465421D01*
X151954658Y-121361227D01*
X152058793Y-121207627D01*
X152198428Y-121061501D01*
X152325403Y-120979729D01*
X152348576Y-120976000D01*
X152448416Y-121025012D01*
G36*
X153292257Y-123470006D02*
X153268168Y-123584215D01*
X153191752Y-123646641D01*
X153098249Y-123569878D01*
X153040812Y-123448360D01*
X153091933Y-123386981D01*
X153221065Y-123375014D01*
X153292257Y-123470006D01*
X153292257Y-123470006D01*
G37*
X153292257Y-123470006D02*
X153268168Y-123584215D01*
X153191752Y-123646641D01*
X153098249Y-123569878D01*
X153040812Y-123448360D01*
X153091933Y-123386981D01*
X153221065Y-123375014D01*
X153292257Y-123470006D01*
G36*
X152698860Y-123109094D02*
X152739322Y-123150568D01*
X152813214Y-123271268D01*
X152749596Y-123381247D01*
X152739322Y-123391480D01*
X152618987Y-123462607D01*
X152481661Y-123400687D01*
X152475622Y-123396234D01*
X152375120Y-123303260D01*
X152406407Y-123220475D01*
X152475622Y-123155322D01*
X152601716Y-123069078D01*
X152698860Y-123109094D01*
X152698860Y-123109094D01*
G37*
X152698860Y-123109094D02*
X152739322Y-123150568D01*
X152813214Y-123271268D01*
X152749596Y-123381247D01*
X152739322Y-123391480D01*
X152618987Y-123462607D01*
X152481661Y-123400687D01*
X152475622Y-123396234D01*
X152375120Y-123303260D01*
X152406407Y-123220475D01*
X152475622Y-123155322D01*
X152601716Y-123069078D01*
X152698860Y-123109094D01*
D12*
X186960000Y-130250000D02*
X191960000Y-130250000D01*
X186960000Y-48310000D02*
X186960000Y-130250000D01*
X191960000Y-48310000D02*
X191960000Y-130250000D01*
X186960000Y-48310000D02*
X191960000Y-48310000D01*
X152756667Y-77972381D02*
X152756667Y-78686667D01*
X152709047Y-78829524D01*
X152613809Y-78924762D01*
X152470952Y-78972381D01*
X152375714Y-78972381D01*
X153661429Y-77972381D02*
X153470952Y-77972381D01*
X153375714Y-78020000D01*
X153328095Y-78067619D01*
X153232857Y-78210476D01*
X153185238Y-78400952D01*
X153185238Y-78781905D01*
X153232857Y-78877143D01*
X153280476Y-78924762D01*
X153375714Y-78972381D01*
X153566191Y-78972381D01*
X153661429Y-78924762D01*
X153709048Y-78877143D01*
X153756667Y-78781905D01*
X153756667Y-78543810D01*
X153709048Y-78448571D01*
X153661429Y-78400952D01*
X153566191Y-78353333D01*
X153375714Y-78353333D01*
X153280476Y-78400952D01*
X153232857Y-78448571D01*
X153185238Y-78543810D01*
X194785714Y-84052381D02*
X194785714Y-84861905D01*
X194833333Y-84957143D01*
X194880952Y-85004762D01*
X194976190Y-85052381D01*
X195166667Y-85052381D01*
X195261905Y-85004762D01*
X195309524Y-84957143D01*
X195357143Y-84861905D01*
X195357143Y-84052381D01*
X195785714Y-84147619D02*
X195833333Y-84100000D01*
X195928571Y-84052381D01*
X196166667Y-84052381D01*
X196261905Y-84100000D01*
X196309524Y-84147619D01*
X196357143Y-84242857D01*
X196357143Y-84338095D01*
X196309524Y-84480952D01*
X195738095Y-85052381D01*
X196357143Y-85052381D01*
X196976190Y-84052381D02*
X197071429Y-84052381D01*
X197166667Y-84100000D01*
X197214286Y-84147619D01*
X197261905Y-84242857D01*
X197309524Y-84433333D01*
X197309524Y-84671429D01*
X197261905Y-84861905D01*
X197214286Y-84957143D01*
X197166667Y-85004762D01*
X197071429Y-85052381D01*
X196976190Y-85052381D01*
X196880952Y-85004762D01*
X196833333Y-84957143D01*
X196785714Y-84861905D01*
X196738095Y-84671429D01*
X196738095Y-84433333D01*
X196785714Y-84242857D01*
X196833333Y-84147619D01*
X196880952Y-84100000D01*
X196976190Y-84052381D01*
X197928571Y-84052381D02*
X198023810Y-84052381D01*
X198119048Y-84100000D01*
X198166667Y-84147619D01*
X198214286Y-84242857D01*
X198261905Y-84433333D01*
X198261905Y-84671429D01*
X198214286Y-84861905D01*
X198166667Y-84957143D01*
X198119048Y-85004762D01*
X198023810Y-85052381D01*
X197928571Y-85052381D01*
X197833333Y-85004762D01*
X197785714Y-84957143D01*
X197738095Y-84861905D01*
X197690476Y-84671429D01*
X197690476Y-84433333D01*
X197738095Y-84242857D01*
X197785714Y-84147619D01*
X197833333Y-84100000D01*
X197928571Y-84052381D01*
M02*
