G04 #@! TF.FileFunction,Legend,Bot*
%FSLAX46Y46*%
G04 Gerber Fmt 4.6, Leading zero omitted, Abs format (unit mm)*
G04 Created by KiCad (PCBNEW 4.0.7-e2-6376~58~ubuntu16.04.1) date Sun Mar 18 18:41:19 2018*
%MOMM*%
%LPD*%
G01*
G04 APERTURE LIST*
%ADD10C,0.100000*%
%ADD11C,0.300000*%
%ADD12C,0.200000*%
%ADD13C,0.150000*%
%ADD14C,0.120000*%
G04 APERTURE END LIST*
D10*
D11*
X145592857Y-52071428D02*
X145592857Y-50928571D01*
X145021429Y-51500000D02*
X146164286Y-51500000D01*
X141992857Y-52071428D02*
X141992857Y-50928571D01*
X166492857Y-51271428D02*
X166492857Y-50128571D01*
X165921429Y-50700000D02*
X167064286Y-50700000D01*
X162892857Y-51271428D02*
X162892857Y-50128571D01*
X195828572Y-83792857D02*
X196971429Y-83792857D01*
X196400000Y-83221429D02*
X196400000Y-84364286D01*
X195728572Y-79492857D02*
X196871429Y-79492857D01*
X193828572Y-101792857D02*
X194971429Y-101792857D01*
X194400000Y-101221429D02*
X194400000Y-102364286D01*
X193828572Y-98192857D02*
X194971429Y-98192857D01*
X161307143Y-127828572D02*
X161307143Y-128971429D01*
X161878571Y-128400000D02*
X160735714Y-128400000D01*
X164907143Y-127828572D02*
X164907143Y-128971429D01*
X140807143Y-127828572D02*
X140807143Y-128971429D01*
X141378571Y-128400000D02*
X140235714Y-128400000D01*
X144407143Y-127828572D02*
X144407143Y-128971429D01*
X112371428Y-101807143D02*
X111228571Y-101807143D01*
X112371428Y-98207143D02*
X111228571Y-98207143D01*
X111800000Y-98778571D02*
X111800000Y-97635714D01*
X112471428Y-81707143D02*
X111328571Y-81707143D01*
X112571428Y-78107143D02*
X111428571Y-78107143D01*
X112000000Y-78678571D02*
X112000000Y-77535714D01*
D12*
X154600000Y-90400000D02*
X154600000Y-104400000D01*
X138600000Y-90400000D02*
X154600000Y-90400000D01*
X138600000Y-104400000D02*
X138600000Y-90400000D01*
X154600000Y-104400000D02*
X138600000Y-104400000D01*
D13*
X142066666Y-95557143D02*
X142114285Y-95604762D01*
X142257142Y-95652381D01*
X142352380Y-95652381D01*
X142495238Y-95604762D01*
X142590476Y-95509524D01*
X142638095Y-95414286D01*
X142685714Y-95223810D01*
X142685714Y-95080952D01*
X142638095Y-94890476D01*
X142590476Y-94795238D01*
X142495238Y-94700000D01*
X142352380Y-94652381D01*
X142257142Y-94652381D01*
X142114285Y-94700000D01*
X142066666Y-94747619D01*
X141447619Y-94652381D02*
X141352380Y-94652381D01*
X141257142Y-94700000D01*
X141209523Y-94747619D01*
X141161904Y-94842857D01*
X141114285Y-95033333D01*
X141114285Y-95271429D01*
X141161904Y-95461905D01*
X141209523Y-95557143D01*
X141257142Y-95604762D01*
X141352380Y-95652381D01*
X141447619Y-95652381D01*
X141542857Y-95604762D01*
X141590476Y-95557143D01*
X141638095Y-95461905D01*
X141685714Y-95271429D01*
X141685714Y-95033333D01*
X141638095Y-94842857D01*
X141590476Y-94747619D01*
X141542857Y-94700000D01*
X141447619Y-94652381D01*
X144566666Y-96057143D02*
X144614285Y-96104762D01*
X144757142Y-96152381D01*
X144852380Y-96152381D01*
X144995238Y-96104762D01*
X145090476Y-96009524D01*
X145138095Y-95914286D01*
X145185714Y-95723810D01*
X145185714Y-95580952D01*
X145138095Y-95390476D01*
X145090476Y-95295238D01*
X144995238Y-95200000D01*
X144852380Y-95152381D01*
X144757142Y-95152381D01*
X144614285Y-95200000D01*
X144566666Y-95247619D01*
X143614285Y-96152381D02*
X144185714Y-96152381D01*
X143900000Y-96152381D02*
X143900000Y-95152381D01*
X143995238Y-95295238D01*
X144090476Y-95390476D01*
X144185714Y-95438095D01*
X144566666Y-94652381D02*
X144900000Y-94176190D01*
X145138095Y-94652381D02*
X145138095Y-93652381D01*
X144757142Y-93652381D01*
X144661904Y-93700000D01*
X144614285Y-93747619D01*
X144566666Y-93842857D01*
X144566666Y-93985714D01*
X144614285Y-94080952D01*
X144661904Y-94128571D01*
X144757142Y-94176190D01*
X145138095Y-94176190D01*
X143947619Y-93652381D02*
X143852380Y-93652381D01*
X143757142Y-93700000D01*
X143709523Y-93747619D01*
X143661904Y-93842857D01*
X143614285Y-94033333D01*
X143614285Y-94271429D01*
X143661904Y-94461905D01*
X143709523Y-94557143D01*
X143757142Y-94604762D01*
X143852380Y-94652381D01*
X143947619Y-94652381D01*
X144042857Y-94604762D01*
X144090476Y-94557143D01*
X144138095Y-94461905D01*
X144185714Y-94271429D01*
X144185714Y-94033333D01*
X144138095Y-93842857D01*
X144090476Y-93747619D01*
X144042857Y-93700000D01*
X143947619Y-93652381D01*
X147066666Y-91952381D02*
X147542857Y-91952381D01*
X147542857Y-90952381D01*
X146542857Y-90952381D02*
X146447618Y-90952381D01*
X146352380Y-91000000D01*
X146304761Y-91047619D01*
X146257142Y-91142857D01*
X146209523Y-91333333D01*
X146209523Y-91571429D01*
X146257142Y-91761905D01*
X146304761Y-91857143D01*
X146352380Y-91904762D01*
X146447618Y-91952381D01*
X146542857Y-91952381D01*
X146638095Y-91904762D01*
X146685714Y-91857143D01*
X146733333Y-91761905D01*
X146780952Y-91571429D01*
X146780952Y-91333333D01*
X146733333Y-91142857D01*
X146685714Y-91047619D01*
X146638095Y-91000000D01*
X146542857Y-90952381D01*
X152938095Y-94752381D02*
X152938095Y-93752381D01*
X152700000Y-93752381D01*
X152557142Y-93800000D01*
X152461904Y-93895238D01*
X152414285Y-93990476D01*
X152366666Y-94180952D01*
X152366666Y-94323810D01*
X152414285Y-94514286D01*
X152461904Y-94609524D01*
X152557142Y-94704762D01*
X152700000Y-94752381D01*
X152938095Y-94752381D01*
X151747619Y-93752381D02*
X151652380Y-93752381D01*
X151557142Y-93800000D01*
X151509523Y-93847619D01*
X151461904Y-93942857D01*
X151414285Y-94133333D01*
X151414285Y-94371429D01*
X151461904Y-94561905D01*
X151509523Y-94657143D01*
X151557142Y-94704762D01*
X151652380Y-94752381D01*
X151747619Y-94752381D01*
X151842857Y-94704762D01*
X151890476Y-94657143D01*
X151938095Y-94561905D01*
X151985714Y-94371429D01*
X151985714Y-94133333D01*
X151938095Y-93942857D01*
X151890476Y-93847619D01*
X151842857Y-93800000D01*
X151747619Y-93752381D01*
X144466666Y-99152381D02*
X144800000Y-98676190D01*
X145038095Y-99152381D02*
X145038095Y-98152381D01*
X144657142Y-98152381D01*
X144561904Y-98200000D01*
X144514285Y-98247619D01*
X144466666Y-98342857D01*
X144466666Y-98485714D01*
X144514285Y-98580952D01*
X144561904Y-98628571D01*
X144657142Y-98676190D01*
X145038095Y-98676190D01*
X143514285Y-99152381D02*
X144085714Y-99152381D01*
X143800000Y-99152381D02*
X143800000Y-98152381D01*
X143895238Y-98295238D01*
X143990476Y-98390476D01*
X144085714Y-98438095D01*
X147961905Y-96352381D02*
X147961905Y-97161905D01*
X147914286Y-97257143D01*
X147866667Y-97304762D01*
X147771429Y-97352381D01*
X147580952Y-97352381D01*
X147485714Y-97304762D01*
X147438095Y-97257143D01*
X147390476Y-97161905D01*
X147390476Y-96352381D01*
X146723810Y-96352381D02*
X146628571Y-96352381D01*
X146533333Y-96400000D01*
X146485714Y-96447619D01*
X146438095Y-96542857D01*
X146390476Y-96733333D01*
X146390476Y-96971429D01*
X146438095Y-97161905D01*
X146485714Y-97257143D01*
X146533333Y-97304762D01*
X146628571Y-97352381D01*
X146723810Y-97352381D01*
X146819048Y-97304762D01*
X146866667Y-97257143D01*
X146914286Y-97161905D01*
X146961905Y-96971429D01*
X146961905Y-96733333D01*
X146914286Y-96542857D01*
X146866667Y-96447619D01*
X146819048Y-96400000D01*
X146723810Y-96352381D01*
X151166666Y-96757143D02*
X151214285Y-96804762D01*
X151357142Y-96852381D01*
X151452380Y-96852381D01*
X151595238Y-96804762D01*
X151690476Y-96709524D01*
X151738095Y-96614286D01*
X151785714Y-96423810D01*
X151785714Y-96280952D01*
X151738095Y-96090476D01*
X151690476Y-95995238D01*
X151595238Y-95900000D01*
X151452380Y-95852381D01*
X151357142Y-95852381D01*
X151214285Y-95900000D01*
X151166666Y-95947619D01*
X150261904Y-95852381D02*
X150738095Y-95852381D01*
X150785714Y-96328571D01*
X150738095Y-96280952D01*
X150642857Y-96233333D01*
X150404761Y-96233333D01*
X150309523Y-96280952D01*
X150261904Y-96328571D01*
X150214285Y-96423810D01*
X150214285Y-96661905D01*
X150261904Y-96757143D01*
X150309523Y-96804762D01*
X150404761Y-96852381D01*
X150642857Y-96852381D01*
X150738095Y-96804762D01*
X150785714Y-96757143D01*
X153566666Y-96852381D02*
X153900000Y-96376190D01*
X154138095Y-96852381D02*
X154138095Y-95852381D01*
X153757142Y-95852381D01*
X153661904Y-95900000D01*
X153614285Y-95947619D01*
X153566666Y-96042857D01*
X153566666Y-96185714D01*
X153614285Y-96280952D01*
X153661904Y-96328571D01*
X153757142Y-96376190D01*
X154138095Y-96376190D01*
X152709523Y-96185714D02*
X152709523Y-96852381D01*
X152947619Y-95804762D02*
X153185714Y-96519048D01*
X152566666Y-96519048D01*
X153366666Y-101157143D02*
X153414285Y-101204762D01*
X153557142Y-101252381D01*
X153652380Y-101252381D01*
X153795238Y-101204762D01*
X153890476Y-101109524D01*
X153938095Y-101014286D01*
X153985714Y-100823810D01*
X153985714Y-100680952D01*
X153938095Y-100490476D01*
X153890476Y-100395238D01*
X153795238Y-100300000D01*
X153652380Y-100252381D01*
X153557142Y-100252381D01*
X153414285Y-100300000D01*
X153366666Y-100347619D01*
X152509523Y-100585714D02*
X152509523Y-101252381D01*
X152747619Y-100204762D02*
X152985714Y-100919048D01*
X152366666Y-100919048D01*
X150866666Y-100352381D02*
X151200000Y-99876190D01*
X151438095Y-100352381D02*
X151438095Y-99352381D01*
X151057142Y-99352381D01*
X150961904Y-99400000D01*
X150914285Y-99447619D01*
X150866666Y-99542857D01*
X150866666Y-99685714D01*
X150914285Y-99780952D01*
X150961904Y-99828571D01*
X151057142Y-99876190D01*
X151438095Y-99876190D01*
X149961904Y-99352381D02*
X150438095Y-99352381D01*
X150485714Y-99828571D01*
X150438095Y-99780952D01*
X150342857Y-99733333D01*
X150104761Y-99733333D01*
X150009523Y-99780952D01*
X149961904Y-99828571D01*
X149914285Y-99923810D01*
X149914285Y-100161905D01*
X149961904Y-100257143D01*
X150009523Y-100304762D01*
X150104761Y-100352381D01*
X150342857Y-100352381D01*
X150438095Y-100304762D01*
X150485714Y-100257143D01*
X150866666Y-101857143D02*
X150914285Y-101904762D01*
X151057142Y-101952381D01*
X151152380Y-101952381D01*
X151295238Y-101904762D01*
X151390476Y-101809524D01*
X151438095Y-101714286D01*
X151485714Y-101523810D01*
X151485714Y-101380952D01*
X151438095Y-101190476D01*
X151390476Y-101095238D01*
X151295238Y-101000000D01*
X151152380Y-100952381D01*
X151057142Y-100952381D01*
X150914285Y-101000000D01*
X150866666Y-101047619D01*
X150485714Y-101047619D02*
X150438095Y-101000000D01*
X150342857Y-100952381D01*
X150104761Y-100952381D01*
X150009523Y-101000000D01*
X149961904Y-101047619D01*
X149914285Y-101142857D01*
X149914285Y-101238095D01*
X149961904Y-101380952D01*
X150533333Y-101952381D01*
X149914285Y-101952381D01*
X150866666Y-103752381D02*
X151200000Y-103276190D01*
X151438095Y-103752381D02*
X151438095Y-102752381D01*
X151057142Y-102752381D01*
X150961904Y-102800000D01*
X150914285Y-102847619D01*
X150866666Y-102942857D01*
X150866666Y-103085714D01*
X150914285Y-103180952D01*
X150961904Y-103228571D01*
X151057142Y-103276190D01*
X151438095Y-103276190D01*
X150009523Y-102752381D02*
X150200000Y-102752381D01*
X150295238Y-102800000D01*
X150342857Y-102847619D01*
X150438095Y-102990476D01*
X150485714Y-103180952D01*
X150485714Y-103561905D01*
X150438095Y-103657143D01*
X150390476Y-103704762D01*
X150295238Y-103752381D01*
X150104761Y-103752381D01*
X150009523Y-103704762D01*
X149961904Y-103657143D01*
X149914285Y-103561905D01*
X149914285Y-103323810D01*
X149961904Y-103228571D01*
X150009523Y-103180952D01*
X150104761Y-103133333D01*
X150295238Y-103133333D01*
X150390476Y-103180952D01*
X150438095Y-103228571D01*
X150485714Y-103323810D01*
X147266666Y-100857143D02*
X147314285Y-100904762D01*
X147457142Y-100952381D01*
X147552380Y-100952381D01*
X147695238Y-100904762D01*
X147790476Y-100809524D01*
X147838095Y-100714286D01*
X147885714Y-100523810D01*
X147885714Y-100380952D01*
X147838095Y-100190476D01*
X147790476Y-100095238D01*
X147695238Y-100000000D01*
X147552380Y-99952381D01*
X147457142Y-99952381D01*
X147314285Y-100000000D01*
X147266666Y-100047619D01*
X146933333Y-99952381D02*
X146314285Y-99952381D01*
X146647619Y-100333333D01*
X146504761Y-100333333D01*
X146409523Y-100380952D01*
X146361904Y-100428571D01*
X146314285Y-100523810D01*
X146314285Y-100761905D01*
X146361904Y-100857143D01*
X146409523Y-100904762D01*
X146504761Y-100952381D01*
X146790476Y-100952381D01*
X146885714Y-100904762D01*
X146933333Y-100857143D01*
X148466666Y-102852381D02*
X148800000Y-102376190D01*
X149038095Y-102852381D02*
X149038095Y-101852381D01*
X148657142Y-101852381D01*
X148561904Y-101900000D01*
X148514285Y-101947619D01*
X148466666Y-102042857D01*
X148466666Y-102185714D01*
X148514285Y-102280952D01*
X148561904Y-102328571D01*
X148657142Y-102376190D01*
X149038095Y-102376190D01*
X148133333Y-101852381D02*
X147514285Y-101852381D01*
X147847619Y-102233333D01*
X147704761Y-102233333D01*
X147609523Y-102280952D01*
X147561904Y-102328571D01*
X147514285Y-102423810D01*
X147514285Y-102661905D01*
X147561904Y-102757143D01*
X147609523Y-102804762D01*
X147704761Y-102852381D01*
X147990476Y-102852381D01*
X148085714Y-102804762D01*
X148133333Y-102757143D01*
X146166666Y-102852381D02*
X146500000Y-102376190D01*
X146738095Y-102852381D02*
X146738095Y-101852381D01*
X146357142Y-101852381D01*
X146261904Y-101900000D01*
X146214285Y-101947619D01*
X146166666Y-102042857D01*
X146166666Y-102185714D01*
X146214285Y-102280952D01*
X146261904Y-102328571D01*
X146357142Y-102376190D01*
X146738095Y-102376190D01*
X145785714Y-101947619D02*
X145738095Y-101900000D01*
X145642857Y-101852381D01*
X145404761Y-101852381D01*
X145309523Y-101900000D01*
X145261904Y-101947619D01*
X145214285Y-102042857D01*
X145214285Y-102138095D01*
X145261904Y-102280952D01*
X145833333Y-102852381D01*
X145214285Y-102852381D01*
D12*
X124400000Y-48500000D02*
X124400000Y-57500000D01*
X117400000Y-48500000D02*
X124400000Y-48500000D01*
X117400000Y-57500000D02*
X117400000Y-48500000D01*
X124400000Y-57500000D02*
X117400000Y-57500000D01*
D13*
X118766666Y-57052381D02*
X119100000Y-56576190D01*
X119338095Y-57052381D02*
X119338095Y-56052381D01*
X118957142Y-56052381D01*
X118861904Y-56100000D01*
X118814285Y-56147619D01*
X118766666Y-56242857D01*
X118766666Y-56385714D01*
X118814285Y-56480952D01*
X118861904Y-56528571D01*
X118957142Y-56576190D01*
X119338095Y-56576190D01*
X117909523Y-56385714D02*
X117909523Y-57052381D01*
X118147619Y-56004762D02*
X118385714Y-56719048D01*
X117766666Y-56719048D01*
X121166666Y-57052381D02*
X121500000Y-56576190D01*
X121738095Y-57052381D02*
X121738095Y-56052381D01*
X121357142Y-56052381D01*
X121261904Y-56100000D01*
X121214285Y-56147619D01*
X121166666Y-56242857D01*
X121166666Y-56385714D01*
X121214285Y-56480952D01*
X121261904Y-56528571D01*
X121357142Y-56576190D01*
X121738095Y-56576190D01*
X120261904Y-56052381D02*
X120738095Y-56052381D01*
X120785714Y-56528571D01*
X120738095Y-56480952D01*
X120642857Y-56433333D01*
X120404761Y-56433333D01*
X120309523Y-56480952D01*
X120261904Y-56528571D01*
X120214285Y-56623810D01*
X120214285Y-56861905D01*
X120261904Y-56957143D01*
X120309523Y-57004762D01*
X120404761Y-57052381D01*
X120642857Y-57052381D01*
X120738095Y-57004762D01*
X120785714Y-56957143D01*
X118766666Y-55352381D02*
X119100000Y-54876190D01*
X119338095Y-55352381D02*
X119338095Y-54352381D01*
X118957142Y-54352381D01*
X118861904Y-54400000D01*
X118814285Y-54447619D01*
X118766666Y-54542857D01*
X118766666Y-54685714D01*
X118814285Y-54780952D01*
X118861904Y-54828571D01*
X118957142Y-54876190D01*
X119338095Y-54876190D01*
X118385714Y-54447619D02*
X118338095Y-54400000D01*
X118242857Y-54352381D01*
X118004761Y-54352381D01*
X117909523Y-54400000D01*
X117861904Y-54447619D01*
X117814285Y-54542857D01*
X117814285Y-54638095D01*
X117861904Y-54780952D01*
X118433333Y-55352381D01*
X117814285Y-55352381D01*
X121166666Y-55352381D02*
X121500000Y-54876190D01*
X121738095Y-55352381D02*
X121738095Y-54352381D01*
X121357142Y-54352381D01*
X121261904Y-54400000D01*
X121214285Y-54447619D01*
X121166666Y-54542857D01*
X121166666Y-54685714D01*
X121214285Y-54780952D01*
X121261904Y-54828571D01*
X121357142Y-54876190D01*
X121738095Y-54876190D01*
X120833333Y-54352381D02*
X120214285Y-54352381D01*
X120547619Y-54733333D01*
X120404761Y-54733333D01*
X120309523Y-54780952D01*
X120261904Y-54828571D01*
X120214285Y-54923810D01*
X120214285Y-55161905D01*
X120261904Y-55257143D01*
X120309523Y-55304762D01*
X120404761Y-55352381D01*
X120690476Y-55352381D01*
X120785714Y-55304762D01*
X120833333Y-55257143D01*
X123466666Y-55157143D02*
X123514285Y-55204762D01*
X123657142Y-55252381D01*
X123752380Y-55252381D01*
X123895238Y-55204762D01*
X123990476Y-55109524D01*
X124038095Y-55014286D01*
X124085714Y-54823810D01*
X124085714Y-54680952D01*
X124038095Y-54490476D01*
X123990476Y-54395238D01*
X123895238Y-54300000D01*
X123752380Y-54252381D01*
X123657142Y-54252381D01*
X123514285Y-54300000D01*
X123466666Y-54347619D01*
X122514285Y-55252381D02*
X123085714Y-55252381D01*
X122800000Y-55252381D02*
X122800000Y-54252381D01*
X122895238Y-54395238D01*
X122990476Y-54490476D01*
X123085714Y-54538095D01*
X121761905Y-52352381D02*
X121761905Y-53161905D01*
X121714286Y-53257143D01*
X121666667Y-53304762D01*
X121571429Y-53352381D01*
X121380952Y-53352381D01*
X121285714Y-53304762D01*
X121238095Y-53257143D01*
X121190476Y-53161905D01*
X121190476Y-52352381D01*
X120523810Y-52352381D02*
X120428571Y-52352381D01*
X120333333Y-52400000D01*
X120285714Y-52447619D01*
X120238095Y-52542857D01*
X120190476Y-52733333D01*
X120190476Y-52971429D01*
X120238095Y-53161905D01*
X120285714Y-53257143D01*
X120333333Y-53304762D01*
X120428571Y-53352381D01*
X120523810Y-53352381D01*
X120619048Y-53304762D01*
X120666667Y-53257143D01*
X120714286Y-53161905D01*
X120761905Y-52971429D01*
X120761905Y-52733333D01*
X120714286Y-52542857D01*
X120666667Y-52447619D01*
X120619048Y-52400000D01*
X120523810Y-52352381D01*
X123266666Y-51357143D02*
X123314285Y-51404762D01*
X123457142Y-51452381D01*
X123552380Y-51452381D01*
X123695238Y-51404762D01*
X123790476Y-51309524D01*
X123838095Y-51214286D01*
X123885714Y-51023810D01*
X123885714Y-50880952D01*
X123838095Y-50690476D01*
X123790476Y-50595238D01*
X123695238Y-50500000D01*
X123552380Y-50452381D01*
X123457142Y-50452381D01*
X123314285Y-50500000D01*
X123266666Y-50547619D01*
X122885714Y-50547619D02*
X122838095Y-50500000D01*
X122742857Y-50452381D01*
X122504761Y-50452381D01*
X122409523Y-50500000D01*
X122361904Y-50547619D01*
X122314285Y-50642857D01*
X122314285Y-50738095D01*
X122361904Y-50880952D01*
X122933333Y-51452381D01*
X122314285Y-51452381D01*
X123266666Y-50052381D02*
X123600000Y-49576190D01*
X123838095Y-50052381D02*
X123838095Y-49052381D01*
X123457142Y-49052381D01*
X123361904Y-49100000D01*
X123314285Y-49147619D01*
X123266666Y-49242857D01*
X123266666Y-49385714D01*
X123314285Y-49480952D01*
X123361904Y-49528571D01*
X123457142Y-49576190D01*
X123838095Y-49576190D01*
X122647619Y-49052381D02*
X122552380Y-49052381D01*
X122457142Y-49100000D01*
X122409523Y-49147619D01*
X122361904Y-49242857D01*
X122314285Y-49433333D01*
X122314285Y-49671429D01*
X122361904Y-49861905D01*
X122409523Y-49957143D01*
X122457142Y-50004762D01*
X122552380Y-50052381D01*
X122647619Y-50052381D01*
X122742857Y-50004762D01*
X122790476Y-49957143D01*
X122838095Y-49861905D01*
X122885714Y-49671429D01*
X122885714Y-49433333D01*
X122838095Y-49242857D01*
X122790476Y-49147619D01*
X122742857Y-49100000D01*
X122647619Y-49052381D01*
X118966666Y-50052381D02*
X119300000Y-49576190D01*
X119538095Y-50052381D02*
X119538095Y-49052381D01*
X119157142Y-49052381D01*
X119061904Y-49100000D01*
X119014285Y-49147619D01*
X118966666Y-49242857D01*
X118966666Y-49385714D01*
X119014285Y-49480952D01*
X119061904Y-49528571D01*
X119157142Y-49576190D01*
X119538095Y-49576190D01*
X118014285Y-50052381D02*
X118585714Y-50052381D01*
X118300000Y-50052381D02*
X118300000Y-49052381D01*
X118395238Y-49195238D01*
X118490476Y-49290476D01*
X118585714Y-49338095D01*
D11*
X166142857Y-65721429D02*
X166071428Y-65650000D01*
X165928571Y-65578571D01*
X165571428Y-65578571D01*
X165428571Y-65650000D01*
X165357142Y-65721429D01*
X165285714Y-65864286D01*
X165285714Y-66007143D01*
X165357142Y-66221429D01*
X166214285Y-67078571D01*
X165285714Y-67078571D01*
X164785714Y-67078571D02*
X164000000Y-66078571D01*
X164785714Y-66078571D02*
X164000000Y-67078571D01*
X163571428Y-67078571D02*
X162785714Y-66078571D01*
X163571428Y-66078571D02*
X162785714Y-67078571D01*
X162178571Y-77942857D02*
X162250000Y-77871428D01*
X162321429Y-77728571D01*
X162321429Y-77371428D01*
X162250000Y-77228571D01*
X162178571Y-77157142D01*
X162035714Y-77085714D01*
X161892857Y-77085714D01*
X161678571Y-77157142D01*
X160821429Y-78014285D01*
X160821429Y-77085714D01*
X160821429Y-76585714D02*
X161821429Y-75800000D01*
X161821429Y-76585714D02*
X160821429Y-75800000D01*
X160821429Y-75371428D02*
X161821429Y-74585714D01*
X161821429Y-75371428D02*
X160821429Y-74585714D01*
X167678571Y-92642857D02*
X167750000Y-92571428D01*
X167821429Y-92428571D01*
X167821429Y-92071428D01*
X167750000Y-91928571D01*
X167678571Y-91857142D01*
X167535714Y-91785714D01*
X167392857Y-91785714D01*
X167178571Y-91857142D01*
X166321429Y-92714285D01*
X166321429Y-91785714D01*
X166321429Y-91285714D02*
X167321429Y-90500000D01*
X167321429Y-91285714D02*
X166321429Y-90500000D01*
X166321429Y-90071428D02*
X167321429Y-89285714D01*
X167321429Y-90071428D02*
X166321429Y-89285714D01*
X169757143Y-110178571D02*
X169828572Y-110250000D01*
X169971429Y-110321429D01*
X170328572Y-110321429D01*
X170471429Y-110250000D01*
X170542858Y-110178571D01*
X170614286Y-110035714D01*
X170614286Y-109892857D01*
X170542858Y-109678571D01*
X169685715Y-108821429D01*
X170614286Y-108821429D01*
X171114286Y-108821429D02*
X171900000Y-109821429D01*
X171114286Y-109821429D02*
X171900000Y-108821429D01*
X172328572Y-108821429D02*
X173114286Y-109821429D01*
X172328572Y-109821429D02*
X173114286Y-108821429D01*
X146357143Y-113778571D02*
X146428572Y-113850000D01*
X146571429Y-113921429D01*
X146928572Y-113921429D01*
X147071429Y-113850000D01*
X147142858Y-113778571D01*
X147214286Y-113635714D01*
X147214286Y-113492857D01*
X147142858Y-113278571D01*
X146285715Y-112421429D01*
X147214286Y-112421429D01*
X147714286Y-112421429D02*
X148500000Y-113421429D01*
X147714286Y-113421429D02*
X148500000Y-112421429D01*
X148928572Y-112421429D02*
X149714286Y-113421429D01*
X148928572Y-113421429D02*
X149714286Y-112421429D01*
X127221429Y-112657143D02*
X127150000Y-112728572D01*
X127078571Y-112871429D01*
X127078571Y-113228572D01*
X127150000Y-113371429D01*
X127221429Y-113442858D01*
X127364286Y-113514286D01*
X127507143Y-113514286D01*
X127721429Y-113442858D01*
X128578571Y-112585715D01*
X128578571Y-113514286D01*
X128578571Y-114014286D02*
X127578571Y-114800000D01*
X127578571Y-114014286D02*
X128578571Y-114800000D01*
X128578571Y-115228572D02*
X127578571Y-116014286D01*
X127578571Y-115228572D02*
X128578571Y-116014286D01*
X129721429Y-76757143D02*
X129650000Y-76828572D01*
X129578571Y-76971429D01*
X129578571Y-77328572D01*
X129650000Y-77471429D01*
X129721429Y-77542858D01*
X129864286Y-77614286D01*
X130007143Y-77614286D01*
X130221429Y-77542858D01*
X131078571Y-76685715D01*
X131078571Y-77614286D01*
X131078571Y-78114286D02*
X130078571Y-78900000D01*
X130078571Y-78114286D02*
X131078571Y-78900000D01*
X131078571Y-79328572D02*
X130078571Y-80114286D01*
X130078571Y-79328572D02*
X131078571Y-80114286D01*
X144142857Y-80321429D02*
X144071428Y-80250000D01*
X143928571Y-80178571D01*
X143571428Y-80178571D01*
X143428571Y-80250000D01*
X143357142Y-80321429D01*
X143285714Y-80464286D01*
X143285714Y-80607143D01*
X143357142Y-80821429D01*
X144214285Y-81678571D01*
X143285714Y-81678571D01*
X142785714Y-81678571D02*
X142000000Y-80678571D01*
X142785714Y-80678571D02*
X142000000Y-81678571D01*
X141571428Y-81678571D02*
X140785714Y-80678571D01*
X141571428Y-80678571D02*
X140785714Y-81678571D01*
X129585714Y-87078571D02*
X130442857Y-87078571D01*
X130014285Y-87078571D02*
X130014285Y-85578571D01*
X130157142Y-85792857D01*
X130300000Y-85935714D01*
X130442857Y-86007143D01*
X129085714Y-87078571D02*
X128300000Y-86078571D01*
X129085714Y-86078571D02*
X128300000Y-87078571D01*
X127871428Y-87078571D02*
X127085714Y-86078571D01*
X127871428Y-86078571D02*
X127085714Y-87078571D01*
X131785714Y-49278571D02*
X132642857Y-49278571D01*
X132214285Y-49278571D02*
X132214285Y-47778571D01*
X132357142Y-47992857D01*
X132500000Y-48135714D01*
X132642857Y-48207143D01*
X131285714Y-49278571D02*
X130500000Y-48278571D01*
X131285714Y-48278571D02*
X130500000Y-49278571D01*
X130071428Y-49278571D02*
X129285714Y-48278571D01*
X130071428Y-48278571D02*
X129285714Y-49278571D01*
X120085714Y-47878571D02*
X120942857Y-47878571D01*
X120514285Y-47878571D02*
X120514285Y-46378571D01*
X120657142Y-46592857D01*
X120800000Y-46735714D01*
X120942857Y-46807143D01*
X119585714Y-47878571D02*
X118800000Y-46878571D01*
X119585714Y-46878571D02*
X118800000Y-47878571D01*
X118371428Y-47878571D02*
X117585714Y-46878571D01*
X118371428Y-46878571D02*
X117585714Y-47878571D01*
D12*
X159400000Y-122100000D02*
X158800000Y-121700000D01*
X159400000Y-123200000D02*
X159400000Y-122100000D01*
X159400000Y-127300000D02*
X159400000Y-123200000D01*
X192500000Y-72500000D02*
X192500000Y-74500000D01*
X197500000Y-70000000D02*
X197500000Y-71500000D01*
X196500000Y-71500000D02*
X196500000Y-74000000D01*
D11*
X158321429Y-92464285D02*
X159821429Y-92464285D01*
X159821429Y-91892857D01*
X159750000Y-91749999D01*
X159678571Y-91678571D01*
X159535714Y-91607142D01*
X159321429Y-91607142D01*
X159178571Y-91678571D01*
X159107143Y-91749999D01*
X159035714Y-91892857D01*
X159035714Y-92464285D01*
X159821429Y-91178571D02*
X158321429Y-90678571D01*
X159821429Y-90178571D01*
X158892857Y-89678571D02*
X158892857Y-88535714D01*
X151321429Y-108364285D02*
X152821429Y-108364285D01*
X152821429Y-107792857D01*
X152750000Y-107649999D01*
X152678571Y-107578571D01*
X152535714Y-107507142D01*
X152321429Y-107507142D01*
X152178571Y-107578571D01*
X152107143Y-107649999D01*
X152035714Y-107792857D01*
X152035714Y-108364285D01*
X152821429Y-107078571D02*
X151321429Y-106578571D01*
X152821429Y-106078571D01*
X151892857Y-105578571D02*
X151892857Y-104435714D01*
X136321429Y-79964285D02*
X137821429Y-79964285D01*
X137821429Y-79392857D01*
X137750000Y-79249999D01*
X137678571Y-79178571D01*
X137535714Y-79107142D01*
X137321429Y-79107142D01*
X137178571Y-79178571D01*
X137107143Y-79249999D01*
X137035714Y-79392857D01*
X137035714Y-79964285D01*
X137821429Y-78678571D02*
X136321429Y-78178571D01*
X137821429Y-77678571D01*
X136892857Y-77178571D02*
X136892857Y-76035714D01*
X160678571Y-67535715D02*
X159178571Y-67535715D01*
X159178571Y-68107143D01*
X159250000Y-68250001D01*
X159321429Y-68321429D01*
X159464286Y-68392858D01*
X159678571Y-68392858D01*
X159821429Y-68321429D01*
X159892857Y-68250001D01*
X159964286Y-68107143D01*
X159964286Y-67535715D01*
X159178571Y-68821429D02*
X160678571Y-69321429D01*
X159178571Y-69821429D01*
X160107143Y-70321429D02*
X160107143Y-71464286D01*
D12*
X161500000Y-51500000D02*
X162000000Y-51500000D01*
X161500000Y-71500000D02*
X161500000Y-51500000D01*
X176500000Y-71500000D02*
X161500000Y-71500000D01*
X176500000Y-51500000D02*
X176500000Y-71500000D01*
X162000000Y-51500000D02*
X176500000Y-51500000D01*
X155000000Y-64000000D02*
X140000000Y-64000000D01*
X155000000Y-84000000D02*
X155000000Y-64000000D01*
X140000000Y-84000000D02*
X155000000Y-84000000D01*
X140000000Y-64000000D02*
X140000000Y-84000000D01*
X157500000Y-73500000D02*
X157500000Y-88500000D01*
X177500000Y-73500000D02*
X157500000Y-73500000D01*
X177500000Y-88500000D02*
X177500000Y-73500000D01*
X157500000Y-103500000D02*
X158000000Y-103500000D01*
X157500000Y-88500000D02*
X157500000Y-103500000D01*
X177500000Y-88500000D02*
X157500000Y-88500000D01*
X177500000Y-103500000D02*
X177500000Y-88500000D01*
X158000000Y-103500000D02*
X177500000Y-103500000D01*
X174000000Y-106000000D02*
X173500000Y-106000000D01*
X174000000Y-126000000D02*
X174000000Y-106000000D01*
X173000000Y-126000000D02*
X174000000Y-126000000D01*
X159500000Y-126000000D02*
X173000000Y-126000000D01*
X159500000Y-112500000D02*
X159500000Y-126000000D01*
X159000000Y-112500000D02*
X159500000Y-112500000D01*
X159000000Y-106000000D02*
X159000000Y-112500000D01*
X159000000Y-106000000D02*
X173500000Y-106000000D01*
X150500000Y-105500000D02*
X135500000Y-105500000D01*
X150500000Y-125500000D02*
X150500000Y-105500000D01*
X135500000Y-125500000D02*
X150500000Y-125500000D01*
X135500000Y-105500000D02*
X135500000Y-125500000D01*
X112000000Y-102000000D02*
X112000000Y-117000000D01*
X132000000Y-102000000D02*
X112000000Y-102000000D01*
X132000000Y-117000000D02*
X132000000Y-102000000D01*
X112000000Y-117000000D02*
X132000000Y-117000000D01*
X136000000Y-66000000D02*
X115000000Y-66000000D01*
X136000000Y-81000000D02*
X136000000Y-66000000D01*
X115000000Y-81000000D02*
X136000000Y-81000000D01*
X115000000Y-66000000D02*
X115000000Y-81000000D01*
X159250000Y-113000000D02*
X159250000Y-113500000D01*
X151750000Y-113000000D02*
X159250000Y-113000000D01*
X159250000Y-119000000D02*
X159250000Y-113500000D01*
X159250000Y-124500000D02*
X159250000Y-119000000D01*
X159000000Y-124500000D02*
X159250000Y-124500000D01*
X151750000Y-124500000D02*
X159000000Y-124500000D01*
X151750000Y-113000000D02*
X151750000Y-124500000D01*
X127000000Y-101000000D02*
X127000000Y-100000000D01*
X135000000Y-101000000D02*
X127000000Y-101000000D01*
X135000000Y-100000000D02*
X135000000Y-101000000D01*
X135000000Y-88000000D02*
X135000000Y-100000000D01*
X127000000Y-88000000D02*
X135000000Y-88000000D01*
X127000000Y-100000000D02*
X127000000Y-88000000D01*
X137000000Y-63000000D02*
X129000000Y-63000000D01*
X137000000Y-50000000D02*
X137000000Y-63000000D01*
X129000000Y-50000000D02*
X137000000Y-50000000D01*
X129000000Y-63000000D02*
X129000000Y-50000000D01*
D11*
X142642857Y-100721429D02*
X142571428Y-100650000D01*
X142428571Y-100578571D01*
X142071428Y-100578571D01*
X141928571Y-100650000D01*
X141857142Y-100721429D01*
X141785714Y-100864286D01*
X141785714Y-101007143D01*
X141857142Y-101221429D01*
X142714285Y-102078571D01*
X141785714Y-102078571D01*
X141285714Y-102078571D02*
X140500000Y-101078571D01*
X141285714Y-101078571D02*
X140500000Y-102078571D01*
X140071428Y-102078571D02*
X139285714Y-101078571D01*
X140071428Y-101078571D02*
X139285714Y-102078571D01*
X191214285Y-132178571D02*
X192071428Y-132178571D01*
X191642856Y-132178571D02*
X191642856Y-130678571D01*
X191785713Y-130892857D01*
X191928571Y-131035714D01*
X192071428Y-131107143D01*
X190642857Y-131750000D02*
X189928571Y-131750000D01*
X190785714Y-132178571D02*
X190285714Y-130678571D01*
X189785714Y-132178571D01*
X199095238Y-111154762D02*
X197095238Y-109821428D01*
X199095238Y-109821428D02*
X197095238Y-111154762D01*
X197857143Y-109059524D02*
X197857143Y-107535714D01*
X197095238Y-108297619D02*
X198619048Y-108297619D01*
X134988095Y-131952381D02*
X134988095Y-132904762D01*
X135654762Y-130904762D02*
X134988095Y-131952381D01*
X134321428Y-130904762D01*
X133654762Y-132142857D02*
X132130952Y-132142857D01*
X132892857Y-132904762D02*
X132892857Y-131380952D01*
X107154762Y-69845238D02*
X109154762Y-71178572D01*
X107154762Y-71178572D02*
X109154762Y-69845238D01*
X108392857Y-71940476D02*
X108392857Y-73464286D01*
X174238095Y-47452381D02*
X174238095Y-48404762D01*
X174904762Y-46404762D02*
X174238095Y-47452381D01*
X173571428Y-46404762D01*
X172904762Y-47642857D02*
X171380952Y-47642857D01*
D13*
X158420711Y-115350000D02*
G75*
G03X158420711Y-115350000I-70711J0D01*
G01*
X153950000Y-120800000D02*
X157450000Y-120800000D01*
X153950000Y-115800000D02*
X157450000Y-115800000D01*
D14*
X193450000Y-73630000D02*
X193950000Y-73630000D01*
X193950000Y-74570000D02*
X193450000Y-74570000D01*
X134250000Y-90070000D02*
X133750000Y-90070000D01*
X133750000Y-89130000D02*
X134250000Y-89130000D01*
X157750000Y-121930000D02*
X158250000Y-121930000D01*
X158250000Y-122870000D02*
X157750000Y-122870000D01*
X136250000Y-52570000D02*
X135750000Y-52570000D01*
X135750000Y-51630000D02*
X136250000Y-51630000D01*
X141500000Y-88780000D02*
X141000000Y-88780000D01*
X141000000Y-87720000D02*
X141500000Y-87720000D01*
X151750000Y-88780000D02*
X151250000Y-88780000D01*
X151250000Y-87720000D02*
X151750000Y-87720000D01*
X197270000Y-75250000D02*
X197270000Y-74750000D01*
X198330000Y-74750000D02*
X198330000Y-75250000D01*
X199530000Y-74750000D02*
X199530000Y-75250000D01*
X198470000Y-75250000D02*
X198470000Y-74750000D01*
X128750000Y-98930000D02*
X128250000Y-98930000D01*
X128250000Y-97870000D02*
X128750000Y-97870000D01*
X128250000Y-99170000D02*
X128750000Y-99170000D01*
X128750000Y-100230000D02*
X128250000Y-100230000D01*
X150570000Y-116250000D02*
X150570000Y-115750000D01*
X151630000Y-115750000D02*
X151630000Y-116250000D01*
X153030000Y-114250000D02*
X153030000Y-114750000D01*
X151970000Y-114750000D02*
X151970000Y-114250000D01*
X130750000Y-61430000D02*
X130250000Y-61430000D01*
X130250000Y-60370000D02*
X130750000Y-60370000D01*
X130250000Y-61670000D02*
X130750000Y-61670000D01*
X130750000Y-62730000D02*
X130250000Y-62730000D01*
X196070000Y-75250000D02*
X196070000Y-74750000D01*
X197130000Y-74750000D02*
X197130000Y-75250000D01*
X195930000Y-74750000D02*
X195930000Y-75250000D01*
X194870000Y-75250000D02*
X194870000Y-74750000D01*
X130100000Y-97870000D02*
X130600000Y-97870000D01*
X130600000Y-98930000D02*
X130100000Y-98930000D01*
X130650000Y-100230000D02*
X130150000Y-100230000D01*
X130150000Y-99170000D02*
X130650000Y-99170000D01*
X151630000Y-117600000D02*
X151630000Y-118100000D01*
X150570000Y-118100000D02*
X150570000Y-117600000D01*
X154530000Y-114250000D02*
X154530000Y-114750000D01*
X153470000Y-114750000D02*
X153470000Y-114250000D01*
X132100000Y-60370000D02*
X132600000Y-60370000D01*
X132600000Y-61430000D02*
X132100000Y-61430000D01*
X132650000Y-62730000D02*
X132150000Y-62730000D01*
X132150000Y-61670000D02*
X132650000Y-61670000D01*
X194030000Y-75350000D02*
X194030000Y-75850000D01*
X192970000Y-75850000D02*
X192970000Y-75350000D01*
X193500000Y-72470000D02*
X194000000Y-72470000D01*
X194000000Y-73530000D02*
X193500000Y-73530000D01*
X129630000Y-89050000D02*
X129630000Y-89550000D01*
X128570000Y-89550000D02*
X128570000Y-89050000D01*
X134250000Y-88830000D02*
X133750000Y-88830000D01*
X133750000Y-87770000D02*
X134250000Y-87770000D01*
X156750000Y-113970000D02*
X157250000Y-113970000D01*
X157250000Y-115030000D02*
X156750000Y-115030000D01*
X157750000Y-123170000D02*
X158250000Y-123170000D01*
X158250000Y-124230000D02*
X157750000Y-124230000D01*
X131630000Y-51550000D02*
X131630000Y-52050000D01*
X130570000Y-52050000D02*
X130570000Y-51550000D01*
X136250000Y-51330000D02*
X135750000Y-51330000D01*
X135750000Y-50270000D02*
X136250000Y-50270000D01*
D13*
X170424800Y-94806396D02*
X170424800Y-94906396D01*
X165774800Y-94806396D02*
X165774800Y-95006396D01*
X165774800Y-98056396D02*
X165774800Y-97856396D01*
X170424800Y-98056396D02*
X170424800Y-97856396D01*
X170424800Y-94806396D02*
X165774800Y-94806396D01*
X170424800Y-98056396D02*
X165774800Y-98056396D01*
X170424800Y-94906396D02*
X171774800Y-94906396D01*
X170424800Y-79762600D02*
X170424800Y-79862600D01*
X165774800Y-79762600D02*
X165774800Y-79962600D01*
X165774800Y-83012600D02*
X165774800Y-82812600D01*
X170424800Y-83012600D02*
X170424800Y-82812600D01*
X170424800Y-79762600D02*
X165774800Y-79762600D01*
X170424800Y-83012600D02*
X165774800Y-83012600D01*
X170424800Y-79862600D02*
X171774800Y-79862600D01*
X122575200Y-74737400D02*
X122575200Y-74637400D01*
X127225200Y-74737400D02*
X127225200Y-74537400D01*
X127225200Y-71487400D02*
X127225200Y-71687400D01*
X122575200Y-71487400D02*
X122575200Y-71687400D01*
X122575200Y-74737400D02*
X127225200Y-74737400D01*
X122575200Y-71487400D02*
X127225200Y-71487400D01*
X122575200Y-74637400D02*
X121225200Y-74637400D01*
X119325200Y-110737400D02*
X119325200Y-110637400D01*
X123975200Y-110737400D02*
X123975200Y-110537400D01*
X123975200Y-107487400D02*
X123975200Y-107687400D01*
X119325200Y-107487400D02*
X119325200Y-107687400D01*
X119325200Y-110737400D02*
X123975200Y-110737400D01*
X119325200Y-107487400D02*
X123975200Y-107487400D01*
X119325200Y-110637400D02*
X117975200Y-110637400D01*
X144237400Y-118424800D02*
X144137400Y-118424800D01*
X144237400Y-113774800D02*
X144037400Y-113774800D01*
X140987400Y-113774800D02*
X141187400Y-113774800D01*
X140987400Y-118424800D02*
X141187400Y-118424800D01*
X144237400Y-118424800D02*
X144237400Y-113774800D01*
X140987400Y-118424800D02*
X140987400Y-113774800D01*
X144137400Y-118424800D02*
X144137400Y-119774800D01*
X167737400Y-118924800D02*
X167637400Y-118924800D01*
X167737400Y-114274800D02*
X167537400Y-114274800D01*
X164487400Y-114274800D02*
X164687400Y-114274800D01*
X164487400Y-118924800D02*
X164687400Y-118924800D01*
X167737400Y-118924800D02*
X167737400Y-114274800D01*
X164487400Y-118924800D02*
X164487400Y-114274800D01*
X167637400Y-118924800D02*
X167637400Y-120274800D01*
X167762600Y-58575200D02*
X167862600Y-58575200D01*
X167762600Y-63225200D02*
X167962600Y-63225200D01*
X171012600Y-63225200D02*
X170812600Y-63225200D01*
X171012600Y-58575200D02*
X170812600Y-58575200D01*
X167762600Y-58575200D02*
X167762600Y-63225200D01*
X171012600Y-58575200D02*
X171012600Y-63225200D01*
X167862600Y-58575200D02*
X167862600Y-57225200D01*
X146262600Y-71075200D02*
X146362600Y-71075200D01*
X146262600Y-75725200D02*
X146462600Y-75725200D01*
X149512600Y-75725200D02*
X149312600Y-75725200D01*
X149512600Y-71075200D02*
X149312600Y-71075200D01*
X146262600Y-71075200D02*
X146262600Y-75725200D01*
X149512600Y-71075200D02*
X149512600Y-75725200D01*
X146362600Y-71075200D02*
X146362600Y-69725200D01*
D14*
X134550000Y-61370000D02*
X134050000Y-61370000D01*
X134050000Y-60430000D02*
X134550000Y-60430000D01*
X197670000Y-72550000D02*
X197670000Y-73050000D01*
X196730000Y-73050000D02*
X196730000Y-72550000D01*
X132550000Y-98870000D02*
X132050000Y-98870000D01*
X132050000Y-97930000D02*
X132550000Y-97930000D01*
X150630000Y-120050000D02*
X150630000Y-119550000D01*
X151570000Y-119550000D02*
X151570000Y-120050000D01*
X169600000Y-73950000D02*
X170600000Y-73950000D01*
X170600000Y-75650000D02*
X169600000Y-75650000D01*
X169950000Y-77050000D02*
X169950000Y-78050000D01*
X168250000Y-78050000D02*
X168250000Y-77050000D01*
X160064800Y-85008600D02*
X160064800Y-84008600D01*
X161764800Y-84008600D02*
X161764800Y-85008600D01*
X161893600Y-81198600D02*
X161893600Y-80198600D01*
X163593600Y-80198600D02*
X163593600Y-81198600D01*
X161400000Y-86450000D02*
X162400000Y-86450000D01*
X162400000Y-88150000D02*
X161400000Y-88150000D01*
X167676000Y-83865000D02*
X168676000Y-83865000D01*
X168676000Y-85565000D02*
X167676000Y-85565000D01*
X123400000Y-80550000D02*
X122400000Y-80550000D01*
X122400000Y-78850000D02*
X123400000Y-78850000D01*
X123050000Y-77450000D02*
X123050000Y-76450000D01*
X124750000Y-76450000D02*
X124750000Y-77450000D01*
X132935200Y-69491400D02*
X132935200Y-70491400D01*
X131235200Y-70491400D02*
X131235200Y-69491400D01*
X131106400Y-73301400D02*
X131106400Y-74301400D01*
X129406400Y-74301400D02*
X129406400Y-73301400D01*
X131600000Y-68050000D02*
X130600000Y-68050000D01*
X130600000Y-66350000D02*
X131600000Y-66350000D01*
X125324000Y-70635000D02*
X124324000Y-70635000D01*
X124324000Y-68935000D02*
X125324000Y-68935000D01*
X120150000Y-116550000D02*
X119150000Y-116550000D01*
X119150000Y-114850000D02*
X120150000Y-114850000D01*
X119800000Y-113450000D02*
X119800000Y-112450000D01*
X121500000Y-112450000D02*
X121500000Y-113450000D01*
X129685200Y-105491400D02*
X129685200Y-106491400D01*
X127985200Y-106491400D02*
X127985200Y-105491400D01*
X127856400Y-109301400D02*
X127856400Y-110301400D01*
X126156400Y-110301400D02*
X126156400Y-109301400D01*
X128350000Y-104050000D02*
X127350000Y-104050000D01*
X127350000Y-102350000D02*
X128350000Y-102350000D01*
X122074000Y-106635000D02*
X121074000Y-106635000D01*
X121074000Y-104935000D02*
X122074000Y-104935000D01*
X150050000Y-117600000D02*
X150050000Y-118600000D01*
X148350000Y-118600000D02*
X148350000Y-117600000D01*
X146950000Y-117950000D02*
X145950000Y-117950000D01*
X145950000Y-116250000D02*
X146950000Y-116250000D01*
X138991400Y-108064800D02*
X139991400Y-108064800D01*
X139991400Y-109764800D02*
X138991400Y-109764800D01*
X142801400Y-109893600D02*
X143801400Y-109893600D01*
X143801400Y-111593600D02*
X142801400Y-111593600D01*
X137550000Y-109400000D02*
X137550000Y-110400000D01*
X135850000Y-110400000D02*
X135850000Y-109400000D01*
X140135000Y-115676000D02*
X140135000Y-116676000D01*
X138435000Y-116676000D02*
X138435000Y-115676000D01*
X173550000Y-118100000D02*
X173550000Y-119100000D01*
X171850000Y-119100000D02*
X171850000Y-118100000D01*
X170450000Y-118450000D02*
X169450000Y-118450000D01*
X169450000Y-116750000D02*
X170450000Y-116750000D01*
X162491400Y-108564800D02*
X163491400Y-108564800D01*
X163491400Y-110264800D02*
X162491400Y-110264800D01*
X166301400Y-110393600D02*
X167301400Y-110393600D01*
X167301400Y-112093600D02*
X166301400Y-112093600D01*
X161050000Y-109900000D02*
X161050000Y-110900000D01*
X159350000Y-110900000D02*
X159350000Y-109900000D01*
X163635000Y-116176000D02*
X163635000Y-117176000D01*
X161935000Y-117176000D02*
X161935000Y-116176000D01*
X161950000Y-59400000D02*
X161950000Y-58400000D01*
X163650000Y-58400000D02*
X163650000Y-59400000D01*
X165050000Y-59050000D02*
X166050000Y-59050000D01*
X166050000Y-60750000D02*
X165050000Y-60750000D01*
X173008600Y-68935200D02*
X172008600Y-68935200D01*
X172008600Y-67235200D02*
X173008600Y-67235200D01*
X169198600Y-67106400D02*
X168198600Y-67106400D01*
X168198600Y-65406400D02*
X169198600Y-65406400D01*
X174450000Y-67600000D02*
X174450000Y-66600000D01*
X176150000Y-66600000D02*
X176150000Y-67600000D01*
X171865000Y-61324000D02*
X171865000Y-60324000D01*
X173565000Y-60324000D02*
X173565000Y-61324000D01*
X140450000Y-71900000D02*
X140450000Y-70900000D01*
X142150000Y-70900000D02*
X142150000Y-71900000D01*
X143550000Y-71550000D02*
X144550000Y-71550000D01*
X144550000Y-73250000D02*
X143550000Y-73250000D01*
X151508600Y-81435200D02*
X150508600Y-81435200D01*
X150508600Y-79735200D02*
X151508600Y-79735200D01*
X147698600Y-79606400D02*
X146698600Y-79606400D01*
X146698600Y-77906400D02*
X147698600Y-77906400D01*
X152950000Y-80100000D02*
X152950000Y-79100000D01*
X154650000Y-79100000D02*
X154650000Y-80100000D01*
X150365000Y-73824000D02*
X150365000Y-72824000D01*
X152065000Y-72824000D02*
X152065000Y-73824000D01*
D13*
X177381600Y-96508996D02*
X177381600Y-93508996D01*
X172381600Y-93508996D02*
X172381600Y-96508996D01*
X177381600Y-81465200D02*
X177381600Y-78465200D01*
X172381600Y-78465200D02*
X172381600Y-81465200D01*
X115618400Y-73034800D02*
X115618400Y-76034800D01*
X120618400Y-76034800D02*
X120618400Y-73034800D01*
X112368400Y-109034800D02*
X112368400Y-112034800D01*
X117368400Y-112034800D02*
X117368400Y-109034800D01*
X142534800Y-125381600D02*
X145534800Y-125381600D01*
X145534800Y-120381600D02*
X142534800Y-120381600D01*
X166034800Y-125881600D02*
X169034800Y-125881600D01*
X169034800Y-120881600D02*
X166034800Y-120881600D01*
X169465200Y-51618400D02*
X166465200Y-51618400D01*
X166465200Y-56618400D02*
X169465200Y-56618400D01*
X147965200Y-64118400D02*
X144965200Y-64118400D01*
X144965200Y-69118400D02*
X147965200Y-69118400D01*
D14*
X170250000Y-93093796D02*
X170250000Y-92093796D01*
X171950000Y-92093796D02*
X171950000Y-93093796D01*
X166241600Y-94370596D02*
X165741600Y-94370596D01*
X165741600Y-93310596D02*
X166241600Y-93310596D01*
X160348000Y-95652596D02*
X159348000Y-95652596D01*
X159348000Y-93952596D02*
X160348000Y-93952596D01*
X160348000Y-97557596D02*
X159348000Y-97557596D01*
X159348000Y-95857596D02*
X160348000Y-95857596D01*
X166668000Y-100897796D02*
X168668000Y-100897796D01*
X168668000Y-102937796D02*
X166668000Y-102937796D01*
X163720600Y-99077796D02*
X163720600Y-100077796D01*
X162020600Y-100077796D02*
X162020600Y-99077796D01*
X158109000Y-100052396D02*
X158109000Y-99052396D01*
X159809000Y-99052396D02*
X159809000Y-100052396D01*
X170250000Y-78050000D02*
X170250000Y-77050000D01*
X171950000Y-77050000D02*
X171950000Y-78050000D01*
X166241600Y-79326800D02*
X165741600Y-79326800D01*
X165741600Y-78266800D02*
X166241600Y-78266800D01*
X160348000Y-80608800D02*
X159348000Y-80608800D01*
X159348000Y-78908800D02*
X160348000Y-78908800D01*
X160348000Y-82513800D02*
X159348000Y-82513800D01*
X159348000Y-80813800D02*
X160348000Y-80813800D01*
X166668000Y-85854000D02*
X168668000Y-85854000D01*
X168668000Y-87894000D02*
X166668000Y-87894000D01*
X163720600Y-84034000D02*
X163720600Y-85034000D01*
X162020600Y-85034000D02*
X162020600Y-84034000D01*
X158109000Y-85008600D02*
X158109000Y-84008600D01*
X159809000Y-84008600D02*
X159809000Y-85008600D01*
X122750000Y-76450000D02*
X122750000Y-77450000D01*
X121050000Y-77450000D02*
X121050000Y-76450000D01*
X126758400Y-75173200D02*
X127258400Y-75173200D01*
X127258400Y-76233200D02*
X126758400Y-76233200D01*
X132652000Y-73891200D02*
X133652000Y-73891200D01*
X133652000Y-75591200D02*
X132652000Y-75591200D01*
X132652000Y-71986200D02*
X133652000Y-71986200D01*
X133652000Y-73686200D02*
X132652000Y-73686200D01*
X126332000Y-68646000D02*
X124332000Y-68646000D01*
X124332000Y-66606000D02*
X126332000Y-66606000D01*
X129279400Y-70466000D02*
X129279400Y-69466000D01*
X130979400Y-69466000D02*
X130979400Y-70466000D01*
X134891000Y-69491400D02*
X134891000Y-70491400D01*
X133191000Y-70491400D02*
X133191000Y-69491400D01*
X119500000Y-112450000D02*
X119500000Y-113450000D01*
X117800000Y-113450000D02*
X117800000Y-112450000D01*
X123508400Y-111173200D02*
X124008400Y-111173200D01*
X124008400Y-112233200D02*
X123508400Y-112233200D01*
X129402000Y-109891200D02*
X130402000Y-109891200D01*
X130402000Y-111591200D02*
X129402000Y-111591200D01*
X129402000Y-107986200D02*
X130402000Y-107986200D01*
X130402000Y-109686200D02*
X129402000Y-109686200D01*
X123082000Y-104646000D02*
X121082000Y-104646000D01*
X121082000Y-102606000D02*
X123082000Y-102606000D01*
X126029400Y-106466000D02*
X126029400Y-105466000D01*
X127729400Y-105466000D02*
X127729400Y-106466000D01*
X131641000Y-105491400D02*
X131641000Y-106491400D01*
X129941000Y-106491400D02*
X129941000Y-105491400D01*
X145950000Y-118250000D02*
X146950000Y-118250000D01*
X146950000Y-119950000D02*
X145950000Y-119950000D01*
X144673200Y-114241600D02*
X144673200Y-113741600D01*
X145733200Y-113741600D02*
X145733200Y-114241600D01*
X143391200Y-108348000D02*
X143391200Y-107348000D01*
X145091200Y-107348000D02*
X145091200Y-108348000D01*
X141486200Y-108348000D02*
X141486200Y-107348000D01*
X143186200Y-107348000D02*
X143186200Y-108348000D01*
X138146000Y-114668000D02*
X138146000Y-116668000D01*
X136106000Y-116668000D02*
X136106000Y-114668000D01*
X139966000Y-111720600D02*
X138966000Y-111720600D01*
X138966000Y-110020600D02*
X139966000Y-110020600D01*
X138991400Y-106109000D02*
X139991400Y-106109000D01*
X139991400Y-107809000D02*
X138991400Y-107809000D01*
X169450000Y-118750000D02*
X170450000Y-118750000D01*
X170450000Y-120450000D02*
X169450000Y-120450000D01*
X168173200Y-114741600D02*
X168173200Y-114241600D01*
X169233200Y-114241600D02*
X169233200Y-114741600D01*
X166891200Y-108848000D02*
X166891200Y-107848000D01*
X168591200Y-107848000D02*
X168591200Y-108848000D01*
X164986200Y-108848000D02*
X164986200Y-107848000D01*
X166686200Y-107848000D02*
X166686200Y-108848000D01*
X161646000Y-115168000D02*
X161646000Y-117168000D01*
X159606000Y-117168000D02*
X159606000Y-115168000D01*
X163466000Y-112220600D02*
X162466000Y-112220600D01*
X162466000Y-110520600D02*
X163466000Y-110520600D01*
X162491400Y-106609000D02*
X163491400Y-106609000D01*
X163491400Y-108309000D02*
X162491400Y-108309000D01*
X166050000Y-58750000D02*
X165050000Y-58750000D01*
X165050000Y-57050000D02*
X166050000Y-57050000D01*
X167326800Y-62758400D02*
X167326800Y-63258400D01*
X166266800Y-63258400D02*
X166266800Y-62758400D01*
X168608800Y-68652000D02*
X168608800Y-69652000D01*
X166908800Y-69652000D02*
X166908800Y-68652000D01*
X170513800Y-68652000D02*
X170513800Y-69652000D01*
X168813800Y-69652000D02*
X168813800Y-68652000D01*
X173854000Y-62332000D02*
X173854000Y-60332000D01*
X175894000Y-60332000D02*
X175894000Y-62332000D01*
X172034000Y-65279400D02*
X173034000Y-65279400D01*
X173034000Y-66979400D02*
X172034000Y-66979400D01*
X173008600Y-70891000D02*
X172008600Y-70891000D01*
X172008600Y-69191000D02*
X173008600Y-69191000D01*
X144550000Y-71250000D02*
X143550000Y-71250000D01*
X143550000Y-69550000D02*
X144550000Y-69550000D01*
X145826800Y-75258400D02*
X145826800Y-75758400D01*
X144766800Y-75758400D02*
X144766800Y-75258400D01*
X147108800Y-81152000D02*
X147108800Y-82152000D01*
X145408800Y-82152000D02*
X145408800Y-81152000D01*
X149013800Y-81152000D02*
X149013800Y-82152000D01*
X147313800Y-82152000D02*
X147313800Y-81152000D01*
X152354000Y-74832000D02*
X152354000Y-72832000D01*
X154394000Y-72832000D02*
X154394000Y-74832000D01*
X150534000Y-77779400D02*
X151534000Y-77779400D01*
X151534000Y-79479400D02*
X150534000Y-79479400D01*
X151508600Y-83391000D02*
X150508600Y-83391000D01*
X150508600Y-81691000D02*
X151508600Y-81691000D01*
D13*
X152713600Y-67520100D02*
X153094600Y-67520100D01*
X153094600Y-67520100D02*
X153158100Y-67520100D01*
X153158100Y-67520100D02*
X153158100Y-68345600D01*
X151253100Y-67520100D02*
X151697600Y-67520100D01*
X151253100Y-67520100D02*
X151253100Y-68282100D01*
X196500000Y-86250000D02*
X196500000Y-93750000D01*
X192750000Y-85500000D02*
X195750000Y-85500000D01*
X192750000Y-86250000D02*
X192750000Y-85500000D01*
X192750000Y-94500000D02*
X195750000Y-94500000D01*
X192750000Y-94250000D02*
X192750000Y-94500000D01*
X192750000Y-94000000D02*
X192750000Y-94250000D01*
X192750000Y-93750000D02*
X192750000Y-94000000D01*
X149250000Y-59500000D02*
X156750000Y-59500000D01*
X148500000Y-63250000D02*
X148500000Y-60250000D01*
X149250000Y-63250000D02*
X148500000Y-63250000D01*
X157500000Y-63250000D02*
X157500000Y-60250000D01*
X157250000Y-63250000D02*
X157500000Y-63250000D01*
X157000000Y-63250000D02*
X157250000Y-63250000D01*
X156750000Y-63250000D02*
X157000000Y-63250000D01*
X109500000Y-93750000D02*
X109500000Y-86250000D01*
X113250000Y-94500000D02*
X110250000Y-94500000D01*
X113250000Y-93750000D02*
X113250000Y-94500000D01*
X113250000Y-85500000D02*
X110250000Y-85500000D01*
X113250000Y-85750000D02*
X113250000Y-85500000D01*
X113250000Y-86000000D02*
X113250000Y-85750000D01*
X113250000Y-86250000D02*
X113250000Y-86000000D01*
X156750000Y-130500000D02*
X149250000Y-130500000D01*
X157500000Y-126750000D02*
X157500000Y-129750000D01*
X156750000Y-126750000D02*
X157500000Y-126750000D01*
X148500000Y-126750000D02*
X148500000Y-129750000D01*
X148750000Y-126750000D02*
X148500000Y-126750000D01*
X149000000Y-126750000D02*
X148750000Y-126750000D01*
X149250000Y-126750000D02*
X149000000Y-126750000D01*
X149250000Y-49500000D02*
X156750000Y-49500000D01*
X148500000Y-53250000D02*
X148500000Y-50250000D01*
X149250000Y-53250000D02*
X148500000Y-53250000D01*
X157500000Y-53250000D02*
X157500000Y-50250000D01*
X157250000Y-53250000D02*
X157500000Y-53250000D01*
X157000000Y-53250000D02*
X157250000Y-53250000D01*
X156750000Y-53250000D02*
X157000000Y-53250000D01*
X127920711Y-91150000D02*
G75*
G03X127920711Y-91150000I-70711J0D01*
G01*
X133300000Y-95550000D02*
X133300000Y-92050000D01*
X128300000Y-95550000D02*
X128300000Y-92050000D01*
X129920711Y-53650000D02*
G75*
G03X129920711Y-53650000I-70711J0D01*
G01*
X135300000Y-58050000D02*
X135300000Y-54550000D01*
X130300000Y-58050000D02*
X130300000Y-54550000D01*
D14*
X158530000Y-52250000D02*
X158530000Y-51750000D01*
X159470000Y-51750000D02*
X159470000Y-52250000D01*
X147470000Y-51750000D02*
X147470000Y-52250000D01*
X146530000Y-52250000D02*
X146530000Y-51750000D01*
X169600000Y-88993796D02*
X170600000Y-88993796D01*
X170600000Y-90693796D02*
X169600000Y-90693796D01*
X169950000Y-92093796D02*
X169950000Y-93093796D01*
X168250000Y-93093796D02*
X168250000Y-92093796D01*
X160064800Y-100052396D02*
X160064800Y-99052396D01*
X161764800Y-99052396D02*
X161764800Y-100052396D01*
X161893600Y-96242396D02*
X161893600Y-95242396D01*
X163593600Y-95242396D02*
X163593600Y-96242396D01*
X161400000Y-101493796D02*
X162400000Y-101493796D01*
X162400000Y-103193796D02*
X161400000Y-103193796D01*
X167676000Y-98908796D02*
X168676000Y-98908796D01*
X168676000Y-100608796D02*
X167676000Y-100608796D01*
X193950000Y-95030000D02*
X194450000Y-95030000D01*
X194450000Y-95970000D02*
X193950000Y-95970000D01*
X194500000Y-84970000D02*
X194000000Y-84970000D01*
X194000000Y-84030000D02*
X194500000Y-84030000D01*
X114030000Y-94250000D02*
X114030000Y-93750000D01*
X114970000Y-93750000D02*
X114970000Y-94250000D01*
X112200000Y-84030000D02*
X112700000Y-84030000D01*
X112700000Y-84970000D02*
X112200000Y-84970000D01*
X147970000Y-127750000D02*
X147970000Y-128250000D01*
X147030000Y-128250000D02*
X147030000Y-127750000D01*
X158030000Y-128250000D02*
X158030000Y-127750000D01*
X158970000Y-127750000D02*
X158970000Y-128250000D01*
D13*
X174213600Y-55020100D02*
X174594600Y-55020100D01*
X174594600Y-55020100D02*
X174658100Y-55020100D01*
X174658100Y-55020100D02*
X174658100Y-55845600D01*
X172753100Y-55020100D02*
X173197600Y-55020100D01*
X172753100Y-55020100D02*
X172753100Y-55782100D01*
X119020100Y-68286400D02*
X119020100Y-67905400D01*
X119020100Y-67905400D02*
X119020100Y-67841900D01*
X119020100Y-67841900D02*
X119845600Y-67841900D01*
X119020100Y-69746900D02*
X119020100Y-69302400D01*
X119020100Y-69746900D02*
X119782100Y-69746900D01*
X115770100Y-104286400D02*
X115770100Y-103905400D01*
X115770100Y-103905400D02*
X115770100Y-103841900D01*
X115770100Y-103841900D02*
X116595600Y-103841900D01*
X115770100Y-105746900D02*
X115770100Y-105302400D01*
X115770100Y-105746900D02*
X116532100Y-105746900D01*
X137786400Y-121979900D02*
X137405400Y-121979900D01*
X137405400Y-121979900D02*
X137341900Y-121979900D01*
X137341900Y-121979900D02*
X137341900Y-121154400D01*
X139246900Y-121979900D02*
X138802400Y-121979900D01*
X139246900Y-121979900D02*
X139246900Y-121217900D01*
X161286400Y-122479900D02*
X160905400Y-122479900D01*
X160905400Y-122479900D02*
X160841900Y-122479900D01*
X160841900Y-122479900D02*
X160841900Y-121654400D01*
X162746900Y-122479900D02*
X162302400Y-122479900D01*
X162746900Y-122479900D02*
X162746900Y-121717900D01*
X173979900Y-86213600D02*
X173979900Y-86594600D01*
X173979900Y-86594600D02*
X173979900Y-86658100D01*
X173979900Y-86658100D02*
X173154400Y-86658100D01*
X173979900Y-84753100D02*
X173979900Y-85197600D01*
X173979900Y-84753100D02*
X173217900Y-84753100D01*
X173979900Y-101257396D02*
X173979900Y-101638396D01*
X173979900Y-101638396D02*
X173979900Y-101701896D01*
X173979900Y-101701896D02*
X173154400Y-101701896D01*
X173979900Y-99796896D02*
X173979900Y-100241396D01*
X173979900Y-99796896D02*
X173217900Y-99796896D01*
D14*
X158530000Y-62250000D02*
X158530000Y-61750000D01*
X159470000Y-61750000D02*
X159470000Y-62250000D01*
X146530000Y-62250000D02*
X146530000Y-61750000D01*
X147470000Y-61750000D02*
X147470000Y-62250000D01*
X185750000Y-78970000D02*
X186250000Y-78970000D01*
X186250000Y-80030000D02*
X185750000Y-80030000D01*
X186250000Y-81530000D02*
X185750000Y-81530000D01*
X185750000Y-80470000D02*
X186250000Y-80470000D01*
D13*
X156314286Y-121252381D02*
X156314286Y-122061905D01*
X156266667Y-122157143D01*
X156219048Y-122204762D01*
X156123810Y-122252381D01*
X155933333Y-122252381D01*
X155838095Y-122204762D01*
X155790476Y-122157143D01*
X155742857Y-122061905D01*
X155742857Y-121252381D01*
X155314286Y-121347619D02*
X155266667Y-121300000D01*
X155171429Y-121252381D01*
X154933333Y-121252381D01*
X154838095Y-121300000D01*
X154790476Y-121347619D01*
X154742857Y-121442857D01*
X154742857Y-121538095D01*
X154790476Y-121680952D01*
X155361905Y-122252381D01*
X154742857Y-122252381D01*
X154361905Y-121347619D02*
X154314286Y-121300000D01*
X154219048Y-121252381D01*
X153980952Y-121252381D01*
X153885714Y-121300000D01*
X153838095Y-121347619D01*
X153790476Y-121442857D01*
X153790476Y-121538095D01*
X153838095Y-121680952D01*
X154409524Y-122252381D01*
X153790476Y-122252381D01*
X153171429Y-121252381D02*
X153076190Y-121252381D01*
X152980952Y-121300000D01*
X152933333Y-121347619D01*
X152885714Y-121442857D01*
X152838095Y-121633333D01*
X152838095Y-121871429D01*
X152885714Y-122061905D01*
X152933333Y-122157143D01*
X152980952Y-122204762D01*
X153076190Y-122252381D01*
X153171429Y-122252381D01*
X153266667Y-122204762D01*
X153314286Y-122157143D01*
X153361905Y-122061905D01*
X153409524Y-121871429D01*
X153409524Y-121633333D01*
X153361905Y-121442857D01*
X153314286Y-121347619D01*
X153266667Y-121300000D01*
X153171429Y-121252381D01*
X195119047Y-71857143D02*
X195166666Y-71904762D01*
X195309523Y-71952381D01*
X195404761Y-71952381D01*
X195547619Y-71904762D01*
X195642857Y-71809524D01*
X195690476Y-71714286D01*
X195738095Y-71523810D01*
X195738095Y-71380952D01*
X195690476Y-71190476D01*
X195642857Y-71095238D01*
X195547619Y-71000000D01*
X195404761Y-70952381D01*
X195309523Y-70952381D01*
X195166666Y-71000000D01*
X195119047Y-71047619D01*
X194738095Y-71047619D02*
X194690476Y-71000000D01*
X194595238Y-70952381D01*
X194357142Y-70952381D01*
X194261904Y-71000000D01*
X194214285Y-71047619D01*
X194166666Y-71142857D01*
X194166666Y-71238095D01*
X194214285Y-71380952D01*
X194785714Y-71952381D01*
X194166666Y-71952381D01*
X193547619Y-70952381D02*
X193452380Y-70952381D01*
X193357142Y-71000000D01*
X193309523Y-71047619D01*
X193261904Y-71142857D01*
X193214285Y-71333333D01*
X193214285Y-71571429D01*
X193261904Y-71761905D01*
X193309523Y-71857143D01*
X193357142Y-71904762D01*
X193452380Y-71952381D01*
X193547619Y-71952381D01*
X193642857Y-71904762D01*
X193690476Y-71857143D01*
X193738095Y-71761905D01*
X193785714Y-71571429D01*
X193785714Y-71333333D01*
X193738095Y-71142857D01*
X193690476Y-71047619D01*
X193642857Y-71000000D01*
X193547619Y-70952381D01*
X192833333Y-71047619D02*
X192785714Y-71000000D01*
X192690476Y-70952381D01*
X192452380Y-70952381D01*
X192357142Y-71000000D01*
X192309523Y-71047619D01*
X192261904Y-71142857D01*
X192261904Y-71238095D01*
X192309523Y-71380952D01*
X192880952Y-71952381D01*
X192261904Y-71952381D01*
X162619047Y-125657143D02*
X162666666Y-125704762D01*
X162809523Y-125752381D01*
X162904761Y-125752381D01*
X163047619Y-125704762D01*
X163142857Y-125609524D01*
X163190476Y-125514286D01*
X163238095Y-125323810D01*
X163238095Y-125180952D01*
X163190476Y-124990476D01*
X163142857Y-124895238D01*
X163047619Y-124800000D01*
X162904761Y-124752381D01*
X162809523Y-124752381D01*
X162666666Y-124800000D01*
X162619047Y-124847619D01*
X162238095Y-124847619D02*
X162190476Y-124800000D01*
X162095238Y-124752381D01*
X161857142Y-124752381D01*
X161761904Y-124800000D01*
X161714285Y-124847619D01*
X161666666Y-124942857D01*
X161666666Y-125038095D01*
X161714285Y-125180952D01*
X162285714Y-125752381D01*
X161666666Y-125752381D01*
X161285714Y-124847619D02*
X161238095Y-124800000D01*
X161142857Y-124752381D01*
X160904761Y-124752381D01*
X160809523Y-124800000D01*
X160761904Y-124847619D01*
X160714285Y-124942857D01*
X160714285Y-125038095D01*
X160761904Y-125180952D01*
X161333333Y-125752381D01*
X160714285Y-125752381D01*
X160333333Y-124847619D02*
X160285714Y-124800000D01*
X160190476Y-124752381D01*
X159952380Y-124752381D01*
X159857142Y-124800000D01*
X159809523Y-124847619D01*
X159761904Y-124942857D01*
X159761904Y-125038095D01*
X159809523Y-125180952D01*
X160380952Y-125752381D01*
X159761904Y-125752381D01*
X141416666Y-87152381D02*
X141750000Y-86676190D01*
X141988095Y-87152381D02*
X141988095Y-86152381D01*
X141607142Y-86152381D01*
X141511904Y-86200000D01*
X141464285Y-86247619D01*
X141416666Y-86342857D01*
X141416666Y-86485714D01*
X141464285Y-86580952D01*
X141511904Y-86628571D01*
X141607142Y-86676190D01*
X141988095Y-86676190D01*
X140464285Y-87152381D02*
X141035714Y-87152381D01*
X140750000Y-87152381D02*
X140750000Y-86152381D01*
X140845238Y-86295238D01*
X140940476Y-86390476D01*
X141035714Y-86438095D01*
X151666666Y-87052381D02*
X152000000Y-86576190D01*
X152238095Y-87052381D02*
X152238095Y-86052381D01*
X151857142Y-86052381D01*
X151761904Y-86100000D01*
X151714285Y-86147619D01*
X151666666Y-86242857D01*
X151666666Y-86385714D01*
X151714285Y-86480952D01*
X151761904Y-86528571D01*
X151857142Y-86576190D01*
X152238095Y-86576190D01*
X151285714Y-86147619D02*
X151238095Y-86100000D01*
X151142857Y-86052381D01*
X150904761Y-86052381D01*
X150809523Y-86100000D01*
X150761904Y-86147619D01*
X150714285Y-86242857D01*
X150714285Y-86338095D01*
X150761904Y-86480952D01*
X151333333Y-87052381D01*
X150714285Y-87052381D01*
X198952381Y-70880953D02*
X198476190Y-70547619D01*
X198952381Y-70309524D02*
X197952381Y-70309524D01*
X197952381Y-70690477D01*
X198000000Y-70785715D01*
X198047619Y-70833334D01*
X198142857Y-70880953D01*
X198285714Y-70880953D01*
X198380952Y-70833334D01*
X198428571Y-70785715D01*
X198476190Y-70690477D01*
X198476190Y-70309524D01*
X198047619Y-71261905D02*
X198000000Y-71309524D01*
X197952381Y-71404762D01*
X197952381Y-71642858D01*
X198000000Y-71738096D01*
X198047619Y-71785715D01*
X198142857Y-71833334D01*
X198238095Y-71833334D01*
X198380952Y-71785715D01*
X198952381Y-71214286D01*
X198952381Y-71833334D01*
X197952381Y-72452381D02*
X197952381Y-72547620D01*
X198000000Y-72642858D01*
X198047619Y-72690477D01*
X198142857Y-72738096D01*
X198333333Y-72785715D01*
X198571429Y-72785715D01*
X198761905Y-72738096D01*
X198857143Y-72690477D01*
X198904762Y-72642858D01*
X198952381Y-72547620D01*
X198952381Y-72452381D01*
X198904762Y-72357143D01*
X198857143Y-72309524D01*
X198761905Y-72261905D01*
X198571429Y-72214286D01*
X198333333Y-72214286D01*
X198142857Y-72261905D01*
X198047619Y-72309524D01*
X198000000Y-72357143D01*
X197952381Y-72452381D01*
X198047619Y-73166667D02*
X198000000Y-73214286D01*
X197952381Y-73309524D01*
X197952381Y-73547620D01*
X198000000Y-73642858D01*
X198047619Y-73690477D01*
X198142857Y-73738096D01*
X198238095Y-73738096D01*
X198380952Y-73690477D01*
X198952381Y-73119048D01*
X198952381Y-73738096D01*
X200452381Y-70880953D02*
X199976190Y-70547619D01*
X200452381Y-70309524D02*
X199452381Y-70309524D01*
X199452381Y-70690477D01*
X199500000Y-70785715D01*
X199547619Y-70833334D01*
X199642857Y-70880953D01*
X199785714Y-70880953D01*
X199880952Y-70833334D01*
X199928571Y-70785715D01*
X199976190Y-70690477D01*
X199976190Y-70309524D01*
X199547619Y-71261905D02*
X199500000Y-71309524D01*
X199452381Y-71404762D01*
X199452381Y-71642858D01*
X199500000Y-71738096D01*
X199547619Y-71785715D01*
X199642857Y-71833334D01*
X199738095Y-71833334D01*
X199880952Y-71785715D01*
X200452381Y-71214286D01*
X200452381Y-71833334D01*
X199452381Y-72452381D02*
X199452381Y-72547620D01*
X199500000Y-72642858D01*
X199547619Y-72690477D01*
X199642857Y-72738096D01*
X199833333Y-72785715D01*
X200071429Y-72785715D01*
X200261905Y-72738096D01*
X200357143Y-72690477D01*
X200404762Y-72642858D01*
X200452381Y-72547620D01*
X200452381Y-72452381D01*
X200404762Y-72357143D01*
X200357143Y-72309524D01*
X200261905Y-72261905D01*
X200071429Y-72214286D01*
X199833333Y-72214286D01*
X199642857Y-72261905D01*
X199547619Y-72309524D01*
X199500000Y-72357143D01*
X199452381Y-72452381D01*
X199785714Y-73642858D02*
X200452381Y-73642858D01*
X199404762Y-73404762D02*
X200119048Y-73166667D01*
X200119048Y-73785715D01*
X151552381Y-111980953D02*
X151076190Y-111647619D01*
X151552381Y-111409524D02*
X150552381Y-111409524D01*
X150552381Y-111790477D01*
X150600000Y-111885715D01*
X150647619Y-111933334D01*
X150742857Y-111980953D01*
X150885714Y-111980953D01*
X150980952Y-111933334D01*
X151028571Y-111885715D01*
X151076190Y-111790477D01*
X151076190Y-111409524D01*
X150647619Y-112361905D02*
X150600000Y-112409524D01*
X150552381Y-112504762D01*
X150552381Y-112742858D01*
X150600000Y-112838096D01*
X150647619Y-112885715D01*
X150742857Y-112933334D01*
X150838095Y-112933334D01*
X150980952Y-112885715D01*
X151552381Y-112314286D01*
X151552381Y-112933334D01*
X150647619Y-113314286D02*
X150600000Y-113361905D01*
X150552381Y-113457143D01*
X150552381Y-113695239D01*
X150600000Y-113790477D01*
X150647619Y-113838096D01*
X150742857Y-113885715D01*
X150838095Y-113885715D01*
X150980952Y-113838096D01*
X151552381Y-113266667D01*
X151552381Y-113885715D01*
X150647619Y-114266667D02*
X150600000Y-114314286D01*
X150552381Y-114409524D01*
X150552381Y-114647620D01*
X150600000Y-114742858D01*
X150647619Y-114790477D01*
X150742857Y-114838096D01*
X150838095Y-114838096D01*
X150980952Y-114790477D01*
X151552381Y-114219048D01*
X151552381Y-114838096D01*
X152952381Y-109580953D02*
X152476190Y-109247619D01*
X152952381Y-109009524D02*
X151952381Y-109009524D01*
X151952381Y-109390477D01*
X152000000Y-109485715D01*
X152047619Y-109533334D01*
X152142857Y-109580953D01*
X152285714Y-109580953D01*
X152380952Y-109533334D01*
X152428571Y-109485715D01*
X152476190Y-109390477D01*
X152476190Y-109009524D01*
X152047619Y-109961905D02*
X152000000Y-110009524D01*
X151952381Y-110104762D01*
X151952381Y-110342858D01*
X152000000Y-110438096D01*
X152047619Y-110485715D01*
X152142857Y-110533334D01*
X152238095Y-110533334D01*
X152380952Y-110485715D01*
X152952381Y-109914286D01*
X152952381Y-110533334D01*
X152047619Y-110914286D02*
X152000000Y-110961905D01*
X151952381Y-111057143D01*
X151952381Y-111295239D01*
X152000000Y-111390477D01*
X152047619Y-111438096D01*
X152142857Y-111485715D01*
X152238095Y-111485715D01*
X152380952Y-111438096D01*
X152952381Y-110866667D01*
X152952381Y-111485715D01*
X152285714Y-112342858D02*
X152952381Y-112342858D01*
X151904762Y-112104762D02*
X152619048Y-111866667D01*
X152619048Y-112485715D01*
X196952381Y-68380953D02*
X196476190Y-68047619D01*
X196952381Y-67809524D02*
X195952381Y-67809524D01*
X195952381Y-68190477D01*
X196000000Y-68285715D01*
X196047619Y-68333334D01*
X196142857Y-68380953D01*
X196285714Y-68380953D01*
X196380952Y-68333334D01*
X196428571Y-68285715D01*
X196476190Y-68190477D01*
X196476190Y-67809524D01*
X196047619Y-68761905D02*
X196000000Y-68809524D01*
X195952381Y-68904762D01*
X195952381Y-69142858D01*
X196000000Y-69238096D01*
X196047619Y-69285715D01*
X196142857Y-69333334D01*
X196238095Y-69333334D01*
X196380952Y-69285715D01*
X196952381Y-68714286D01*
X196952381Y-69333334D01*
X195952381Y-69952381D02*
X195952381Y-70047620D01*
X196000000Y-70142858D01*
X196047619Y-70190477D01*
X196142857Y-70238096D01*
X196333333Y-70285715D01*
X196571429Y-70285715D01*
X196761905Y-70238096D01*
X196857143Y-70190477D01*
X196904762Y-70142858D01*
X196952381Y-70047620D01*
X196952381Y-69952381D01*
X196904762Y-69857143D01*
X196857143Y-69809524D01*
X196761905Y-69761905D01*
X196571429Y-69714286D01*
X196333333Y-69714286D01*
X196142857Y-69761905D01*
X196047619Y-69809524D01*
X196000000Y-69857143D01*
X195952381Y-69952381D01*
X195952381Y-70619048D02*
X195952381Y-71238096D01*
X196333333Y-70904762D01*
X196333333Y-71047620D01*
X196380952Y-71142858D01*
X196428571Y-71190477D01*
X196523810Y-71238096D01*
X196761905Y-71238096D01*
X196857143Y-71190477D01*
X196904762Y-71142858D01*
X196952381Y-71047620D01*
X196952381Y-70761905D01*
X196904762Y-70666667D01*
X196857143Y-70619048D01*
X195452381Y-76880953D02*
X194976190Y-76547619D01*
X195452381Y-76309524D02*
X194452381Y-76309524D01*
X194452381Y-76690477D01*
X194500000Y-76785715D01*
X194547619Y-76833334D01*
X194642857Y-76880953D01*
X194785714Y-76880953D01*
X194880952Y-76833334D01*
X194928571Y-76785715D01*
X194976190Y-76690477D01*
X194976190Y-76309524D01*
X194547619Y-77261905D02*
X194500000Y-77309524D01*
X194452381Y-77404762D01*
X194452381Y-77642858D01*
X194500000Y-77738096D01*
X194547619Y-77785715D01*
X194642857Y-77833334D01*
X194738095Y-77833334D01*
X194880952Y-77785715D01*
X195452381Y-77214286D01*
X195452381Y-77833334D01*
X194452381Y-78452381D02*
X194452381Y-78547620D01*
X194500000Y-78642858D01*
X194547619Y-78690477D01*
X194642857Y-78738096D01*
X194833333Y-78785715D01*
X195071429Y-78785715D01*
X195261905Y-78738096D01*
X195357143Y-78690477D01*
X195404762Y-78642858D01*
X195452381Y-78547620D01*
X195452381Y-78452381D01*
X195404762Y-78357143D01*
X195357143Y-78309524D01*
X195261905Y-78261905D01*
X195071429Y-78214286D01*
X194833333Y-78214286D01*
X194642857Y-78261905D01*
X194547619Y-78309524D01*
X194500000Y-78357143D01*
X194452381Y-78452381D01*
X194452381Y-79690477D02*
X194452381Y-79214286D01*
X194928571Y-79166667D01*
X194880952Y-79214286D01*
X194833333Y-79309524D01*
X194833333Y-79547620D01*
X194880952Y-79642858D01*
X194928571Y-79690477D01*
X195023810Y-79738096D01*
X195261905Y-79738096D01*
X195357143Y-79690477D01*
X195404762Y-79642858D01*
X195452381Y-79547620D01*
X195452381Y-79309524D01*
X195404762Y-79214286D01*
X195357143Y-79166667D01*
X152902381Y-116730953D02*
X152426190Y-116397619D01*
X152902381Y-116159524D02*
X151902381Y-116159524D01*
X151902381Y-116540477D01*
X151950000Y-116635715D01*
X151997619Y-116683334D01*
X152092857Y-116730953D01*
X152235714Y-116730953D01*
X152330952Y-116683334D01*
X152378571Y-116635715D01*
X152426190Y-116540477D01*
X152426190Y-116159524D01*
X151997619Y-117111905D02*
X151950000Y-117159524D01*
X151902381Y-117254762D01*
X151902381Y-117492858D01*
X151950000Y-117588096D01*
X151997619Y-117635715D01*
X152092857Y-117683334D01*
X152188095Y-117683334D01*
X152330952Y-117635715D01*
X152902381Y-117064286D01*
X152902381Y-117683334D01*
X151997619Y-118064286D02*
X151950000Y-118111905D01*
X151902381Y-118207143D01*
X151902381Y-118445239D01*
X151950000Y-118540477D01*
X151997619Y-118588096D01*
X152092857Y-118635715D01*
X152188095Y-118635715D01*
X152330952Y-118588096D01*
X152902381Y-118016667D01*
X152902381Y-118635715D01*
X151902381Y-118969048D02*
X151902381Y-119588096D01*
X152283333Y-119254762D01*
X152283333Y-119397620D01*
X152330952Y-119492858D01*
X152378571Y-119540477D01*
X152473810Y-119588096D01*
X152711905Y-119588096D01*
X152807143Y-119540477D01*
X152854762Y-119492858D01*
X152902381Y-119397620D01*
X152902381Y-119111905D01*
X152854762Y-119016667D01*
X152807143Y-118969048D01*
X154452381Y-109580953D02*
X153976190Y-109247619D01*
X154452381Y-109009524D02*
X153452381Y-109009524D01*
X153452381Y-109390477D01*
X153500000Y-109485715D01*
X153547619Y-109533334D01*
X153642857Y-109580953D01*
X153785714Y-109580953D01*
X153880952Y-109533334D01*
X153928571Y-109485715D01*
X153976190Y-109390477D01*
X153976190Y-109009524D01*
X153547619Y-109961905D02*
X153500000Y-110009524D01*
X153452381Y-110104762D01*
X153452381Y-110342858D01*
X153500000Y-110438096D01*
X153547619Y-110485715D01*
X153642857Y-110533334D01*
X153738095Y-110533334D01*
X153880952Y-110485715D01*
X154452381Y-109914286D01*
X154452381Y-110533334D01*
X153547619Y-110914286D02*
X153500000Y-110961905D01*
X153452381Y-111057143D01*
X153452381Y-111295239D01*
X153500000Y-111390477D01*
X153547619Y-111438096D01*
X153642857Y-111485715D01*
X153738095Y-111485715D01*
X153880952Y-111438096D01*
X154452381Y-110866667D01*
X154452381Y-111485715D01*
X153452381Y-112390477D02*
X153452381Y-111914286D01*
X153928571Y-111866667D01*
X153880952Y-111914286D01*
X153833333Y-112009524D01*
X153833333Y-112247620D01*
X153880952Y-112342858D01*
X153928571Y-112390477D01*
X154023810Y-112438096D01*
X154261905Y-112438096D01*
X154357143Y-112390477D01*
X154404762Y-112342858D01*
X154452381Y-112247620D01*
X154452381Y-112009524D01*
X154404762Y-111914286D01*
X154357143Y-111866667D01*
X193952381Y-77380953D02*
X193476190Y-77047619D01*
X193952381Y-76809524D02*
X192952381Y-76809524D01*
X192952381Y-77190477D01*
X193000000Y-77285715D01*
X193047619Y-77333334D01*
X193142857Y-77380953D01*
X193285714Y-77380953D01*
X193380952Y-77333334D01*
X193428571Y-77285715D01*
X193476190Y-77190477D01*
X193476190Y-76809524D01*
X193047619Y-77761905D02*
X193000000Y-77809524D01*
X192952381Y-77904762D01*
X192952381Y-78142858D01*
X193000000Y-78238096D01*
X193047619Y-78285715D01*
X193142857Y-78333334D01*
X193238095Y-78333334D01*
X193380952Y-78285715D01*
X193952381Y-77714286D01*
X193952381Y-78333334D01*
X192952381Y-78952381D02*
X192952381Y-79047620D01*
X193000000Y-79142858D01*
X193047619Y-79190477D01*
X193142857Y-79238096D01*
X193333333Y-79285715D01*
X193571429Y-79285715D01*
X193761905Y-79238096D01*
X193857143Y-79190477D01*
X193904762Y-79142858D01*
X193952381Y-79047620D01*
X193952381Y-78952381D01*
X193904762Y-78857143D01*
X193857143Y-78809524D01*
X193761905Y-78761905D01*
X193571429Y-78714286D01*
X193333333Y-78714286D01*
X193142857Y-78761905D01*
X193047619Y-78809524D01*
X193000000Y-78857143D01*
X192952381Y-78952381D01*
X193952381Y-80238096D02*
X193952381Y-79666667D01*
X193952381Y-79952381D02*
X192952381Y-79952381D01*
X193095238Y-79857143D01*
X193190476Y-79761905D01*
X193238095Y-79666667D01*
X195119047Y-70452381D02*
X195452381Y-69976190D01*
X195690476Y-70452381D02*
X195690476Y-69452381D01*
X195309523Y-69452381D01*
X195214285Y-69500000D01*
X195166666Y-69547619D01*
X195119047Y-69642857D01*
X195119047Y-69785714D01*
X195166666Y-69880952D01*
X195214285Y-69928571D01*
X195309523Y-69976190D01*
X195690476Y-69976190D01*
X194738095Y-69547619D02*
X194690476Y-69500000D01*
X194595238Y-69452381D01*
X194357142Y-69452381D01*
X194261904Y-69500000D01*
X194214285Y-69547619D01*
X194166666Y-69642857D01*
X194166666Y-69738095D01*
X194214285Y-69880952D01*
X194785714Y-70452381D01*
X194166666Y-70452381D01*
X193547619Y-69452381D02*
X193452380Y-69452381D01*
X193357142Y-69500000D01*
X193309523Y-69547619D01*
X193261904Y-69642857D01*
X193214285Y-69833333D01*
X193214285Y-70071429D01*
X193261904Y-70261905D01*
X193309523Y-70357143D01*
X193357142Y-70404762D01*
X193452380Y-70452381D01*
X193547619Y-70452381D01*
X193642857Y-70404762D01*
X193690476Y-70357143D01*
X193738095Y-70261905D01*
X193785714Y-70071429D01*
X193785714Y-69833333D01*
X193738095Y-69642857D01*
X193690476Y-69547619D01*
X193642857Y-69500000D01*
X193547619Y-69452381D01*
X192595238Y-69452381D02*
X192499999Y-69452381D01*
X192404761Y-69500000D01*
X192357142Y-69547619D01*
X192309523Y-69642857D01*
X192261904Y-69833333D01*
X192261904Y-70071429D01*
X192309523Y-70261905D01*
X192357142Y-70357143D01*
X192404761Y-70404762D01*
X192499999Y-70452381D01*
X192595238Y-70452381D01*
X192690476Y-70404762D01*
X192738095Y-70357143D01*
X192785714Y-70261905D01*
X192833333Y-70071429D01*
X192833333Y-69833333D01*
X192785714Y-69642857D01*
X192738095Y-69547619D01*
X192690476Y-69500000D01*
X192595238Y-69452381D01*
X156752381Y-109780953D02*
X156276190Y-109447619D01*
X156752381Y-109209524D02*
X155752381Y-109209524D01*
X155752381Y-109590477D01*
X155800000Y-109685715D01*
X155847619Y-109733334D01*
X155942857Y-109780953D01*
X156085714Y-109780953D01*
X156180952Y-109733334D01*
X156228571Y-109685715D01*
X156276190Y-109590477D01*
X156276190Y-109209524D01*
X155847619Y-110161905D02*
X155800000Y-110209524D01*
X155752381Y-110304762D01*
X155752381Y-110542858D01*
X155800000Y-110638096D01*
X155847619Y-110685715D01*
X155942857Y-110733334D01*
X156038095Y-110733334D01*
X156180952Y-110685715D01*
X156752381Y-110114286D01*
X156752381Y-110733334D01*
X155847619Y-111114286D02*
X155800000Y-111161905D01*
X155752381Y-111257143D01*
X155752381Y-111495239D01*
X155800000Y-111590477D01*
X155847619Y-111638096D01*
X155942857Y-111685715D01*
X156038095Y-111685715D01*
X156180952Y-111638096D01*
X156752381Y-111066667D01*
X156752381Y-111685715D01*
X156752381Y-112638096D02*
X156752381Y-112066667D01*
X156752381Y-112352381D02*
X155752381Y-112352381D01*
X155895238Y-112257143D01*
X155990476Y-112161905D01*
X156038095Y-112066667D01*
X162619047Y-127352381D02*
X162952381Y-126876190D01*
X163190476Y-127352381D02*
X163190476Y-126352381D01*
X162809523Y-126352381D01*
X162714285Y-126400000D01*
X162666666Y-126447619D01*
X162619047Y-126542857D01*
X162619047Y-126685714D01*
X162666666Y-126780952D01*
X162714285Y-126828571D01*
X162809523Y-126876190D01*
X163190476Y-126876190D01*
X162238095Y-126447619D02*
X162190476Y-126400000D01*
X162095238Y-126352381D01*
X161857142Y-126352381D01*
X161761904Y-126400000D01*
X161714285Y-126447619D01*
X161666666Y-126542857D01*
X161666666Y-126638095D01*
X161714285Y-126780952D01*
X162285714Y-127352381D01*
X161666666Y-127352381D01*
X161285714Y-126447619D02*
X161238095Y-126400000D01*
X161142857Y-126352381D01*
X160904761Y-126352381D01*
X160809523Y-126400000D01*
X160761904Y-126447619D01*
X160714285Y-126542857D01*
X160714285Y-126638095D01*
X160761904Y-126780952D01*
X161333333Y-127352381D01*
X160714285Y-127352381D01*
X160095238Y-126352381D02*
X159999999Y-126352381D01*
X159904761Y-126400000D01*
X159857142Y-126447619D01*
X159809523Y-126542857D01*
X159761904Y-126733333D01*
X159761904Y-126971429D01*
X159809523Y-127161905D01*
X159857142Y-127257143D01*
X159904761Y-127304762D01*
X159999999Y-127352381D01*
X160095238Y-127352381D01*
X160190476Y-127304762D01*
X160238095Y-127257143D01*
X160285714Y-127161905D01*
X160333333Y-126971429D01*
X160333333Y-126733333D01*
X160285714Y-126542857D01*
X160238095Y-126447619D01*
X160190476Y-126400000D01*
X160095238Y-126352381D01*
X198357143Y-66880953D02*
X198404762Y-66833334D01*
X198452381Y-66690477D01*
X198452381Y-66595239D01*
X198404762Y-66452381D01*
X198309524Y-66357143D01*
X198214286Y-66309524D01*
X198023810Y-66261905D01*
X197880952Y-66261905D01*
X197690476Y-66309524D01*
X197595238Y-66357143D01*
X197500000Y-66452381D01*
X197452381Y-66595239D01*
X197452381Y-66690477D01*
X197500000Y-66833334D01*
X197547619Y-66880953D01*
X197547619Y-67261905D02*
X197500000Y-67309524D01*
X197452381Y-67404762D01*
X197452381Y-67642858D01*
X197500000Y-67738096D01*
X197547619Y-67785715D01*
X197642857Y-67833334D01*
X197738095Y-67833334D01*
X197880952Y-67785715D01*
X198452381Y-67214286D01*
X198452381Y-67833334D01*
X197452381Y-68452381D02*
X197452381Y-68547620D01*
X197500000Y-68642858D01*
X197547619Y-68690477D01*
X197642857Y-68738096D01*
X197833333Y-68785715D01*
X198071429Y-68785715D01*
X198261905Y-68738096D01*
X198357143Y-68690477D01*
X198404762Y-68642858D01*
X198452381Y-68547620D01*
X198452381Y-68452381D01*
X198404762Y-68357143D01*
X198357143Y-68309524D01*
X198261905Y-68261905D01*
X198071429Y-68214286D01*
X197833333Y-68214286D01*
X197642857Y-68261905D01*
X197547619Y-68309524D01*
X197500000Y-68357143D01*
X197452381Y-68452381D01*
X198452381Y-69738096D02*
X198452381Y-69166667D01*
X198452381Y-69452381D02*
X197452381Y-69452381D01*
X197595238Y-69357143D01*
X197690476Y-69261905D01*
X197738095Y-69166667D01*
X151557143Y-121880953D02*
X151604762Y-121833334D01*
X151652381Y-121690477D01*
X151652381Y-121595239D01*
X151604762Y-121452381D01*
X151509524Y-121357143D01*
X151414286Y-121309524D01*
X151223810Y-121261905D01*
X151080952Y-121261905D01*
X150890476Y-121309524D01*
X150795238Y-121357143D01*
X150700000Y-121452381D01*
X150652381Y-121595239D01*
X150652381Y-121690477D01*
X150700000Y-121833334D01*
X150747619Y-121880953D01*
X150747619Y-122261905D02*
X150700000Y-122309524D01*
X150652381Y-122404762D01*
X150652381Y-122642858D01*
X150700000Y-122738096D01*
X150747619Y-122785715D01*
X150842857Y-122833334D01*
X150938095Y-122833334D01*
X151080952Y-122785715D01*
X151652381Y-122214286D01*
X151652381Y-122833334D01*
X150747619Y-123214286D02*
X150700000Y-123261905D01*
X150652381Y-123357143D01*
X150652381Y-123595239D01*
X150700000Y-123690477D01*
X150747619Y-123738096D01*
X150842857Y-123785715D01*
X150938095Y-123785715D01*
X151080952Y-123738096D01*
X151652381Y-123166667D01*
X151652381Y-123785715D01*
X151652381Y-124738096D02*
X151652381Y-124166667D01*
X151652381Y-124452381D02*
X150652381Y-124452381D01*
X150795238Y-124357143D01*
X150890476Y-124261905D01*
X150938095Y-124166667D01*
X145153847Y-126833981D02*
X145630038Y-126833981D01*
X145630038Y-125833981D01*
X144296704Y-126833981D02*
X144868133Y-126833981D01*
X144582419Y-126833981D02*
X144582419Y-125833981D01*
X144677657Y-125976838D01*
X144772895Y-126072076D01*
X144868133Y-126119695D01*
X143439561Y-126167314D02*
X143439561Y-126833981D01*
X143677657Y-125786362D02*
X143915752Y-126500648D01*
X143296704Y-126500648D01*
X142725276Y-125833981D02*
X142630037Y-125833981D01*
X142534799Y-125881600D01*
X142487180Y-125929219D01*
X142439561Y-126024457D01*
X142391942Y-126214933D01*
X142391942Y-126453029D01*
X142439561Y-126643505D01*
X142487180Y-126738743D01*
X142534799Y-126786362D01*
X142630037Y-126833981D01*
X142725276Y-126833981D01*
X142820514Y-126786362D01*
X142868133Y-126738743D01*
X142915752Y-126643505D01*
X142963371Y-126453029D01*
X142963371Y-126214933D01*
X142915752Y-126024457D01*
X142868133Y-125929219D01*
X142820514Y-125881600D01*
X142725276Y-125833981D01*
X197452381Y-89214286D02*
X198166667Y-89214286D01*
X198309524Y-89166666D01*
X198404762Y-89071428D01*
X198452381Y-88928571D01*
X198452381Y-88833333D01*
X197547619Y-89642857D02*
X197500000Y-89690476D01*
X197452381Y-89785714D01*
X197452381Y-90023810D01*
X197500000Y-90119048D01*
X197547619Y-90166667D01*
X197642857Y-90214286D01*
X197738095Y-90214286D01*
X197880952Y-90166667D01*
X198452381Y-89595238D01*
X198452381Y-90214286D01*
X197452381Y-90833333D02*
X197452381Y-90928572D01*
X197500000Y-91023810D01*
X197547619Y-91071429D01*
X197642857Y-91119048D01*
X197833333Y-91166667D01*
X198071429Y-91166667D01*
X198261905Y-91119048D01*
X198357143Y-91071429D01*
X198404762Y-91023810D01*
X198452381Y-90928572D01*
X198452381Y-90833333D01*
X198404762Y-90738095D01*
X198357143Y-90690476D01*
X198261905Y-90642857D01*
X198071429Y-90595238D01*
X197833333Y-90595238D01*
X197642857Y-90642857D01*
X197547619Y-90690476D01*
X197500000Y-90738095D01*
X197452381Y-90833333D01*
X197452381Y-91785714D02*
X197452381Y-91880953D01*
X197500000Y-91976191D01*
X197547619Y-92023810D01*
X197642857Y-92071429D01*
X197833333Y-92119048D01*
X198071429Y-92119048D01*
X198261905Y-92071429D01*
X198357143Y-92023810D01*
X198404762Y-91976191D01*
X198452381Y-91880953D01*
X198452381Y-91785714D01*
X198404762Y-91690476D01*
X198357143Y-91642857D01*
X198261905Y-91595238D01*
X198071429Y-91547619D01*
X197833333Y-91547619D01*
X197642857Y-91595238D01*
X197547619Y-91642857D01*
X197500000Y-91690476D01*
X197452381Y-91785714D01*
X152035714Y-63952381D02*
X152035714Y-64666667D01*
X152083334Y-64809524D01*
X152178572Y-64904762D01*
X152321429Y-64952381D01*
X152416667Y-64952381D01*
X151035714Y-64952381D02*
X151607143Y-64952381D01*
X151321429Y-64952381D02*
X151321429Y-63952381D01*
X151416667Y-64095238D01*
X151511905Y-64190476D01*
X151607143Y-64238095D01*
X150416667Y-63952381D02*
X150321428Y-63952381D01*
X150226190Y-64000000D01*
X150178571Y-64047619D01*
X150130952Y-64142857D01*
X150083333Y-64333333D01*
X150083333Y-64571429D01*
X150130952Y-64761905D01*
X150178571Y-64857143D01*
X150226190Y-64904762D01*
X150321428Y-64952381D01*
X150416667Y-64952381D01*
X150511905Y-64904762D01*
X150559524Y-64857143D01*
X150607143Y-64761905D01*
X150654762Y-64571429D01*
X150654762Y-64333333D01*
X150607143Y-64142857D01*
X150559524Y-64047619D01*
X150511905Y-64000000D01*
X150416667Y-63952381D01*
X149178571Y-63952381D02*
X149654762Y-63952381D01*
X149702381Y-64428571D01*
X149654762Y-64380952D01*
X149559524Y-64333333D01*
X149321428Y-64333333D01*
X149226190Y-64380952D01*
X149178571Y-64428571D01*
X149130952Y-64523810D01*
X149130952Y-64761905D01*
X149178571Y-64857143D01*
X149226190Y-64904762D01*
X149321428Y-64952381D01*
X149559524Y-64952381D01*
X149654762Y-64904762D01*
X149702381Y-64857143D01*
X107652381Y-88414286D02*
X108366667Y-88414286D01*
X108509524Y-88366666D01*
X108604762Y-88271428D01*
X108652381Y-88128571D01*
X108652381Y-88033333D01*
X107747619Y-88842857D02*
X107700000Y-88890476D01*
X107652381Y-88985714D01*
X107652381Y-89223810D01*
X107700000Y-89319048D01*
X107747619Y-89366667D01*
X107842857Y-89414286D01*
X107938095Y-89414286D01*
X108080952Y-89366667D01*
X108652381Y-88795238D01*
X108652381Y-89414286D01*
X108652381Y-90366667D02*
X108652381Y-89795238D01*
X108652381Y-90080952D02*
X107652381Y-90080952D01*
X107795238Y-89985714D01*
X107890476Y-89890476D01*
X107938095Y-89795238D01*
X107652381Y-90985714D02*
X107652381Y-91080953D01*
X107700000Y-91176191D01*
X107747619Y-91223810D01*
X107842857Y-91271429D01*
X108033333Y-91319048D01*
X108271429Y-91319048D01*
X108461905Y-91271429D01*
X108557143Y-91223810D01*
X108604762Y-91176191D01*
X108652381Y-91080953D01*
X108652381Y-90985714D01*
X108604762Y-90890476D01*
X108557143Y-90842857D01*
X108461905Y-90795238D01*
X108271429Y-90747619D01*
X108033333Y-90747619D01*
X107842857Y-90795238D01*
X107747619Y-90842857D01*
X107700000Y-90890476D01*
X107652381Y-90985714D01*
X154285714Y-131452381D02*
X154285714Y-132166667D01*
X154333334Y-132309524D01*
X154428572Y-132404762D01*
X154571429Y-132452381D01*
X154666667Y-132452381D01*
X153857143Y-131547619D02*
X153809524Y-131500000D01*
X153714286Y-131452381D01*
X153476190Y-131452381D01*
X153380952Y-131500000D01*
X153333333Y-131547619D01*
X153285714Y-131642857D01*
X153285714Y-131738095D01*
X153333333Y-131880952D01*
X153904762Y-132452381D01*
X153285714Y-132452381D01*
X152904762Y-131547619D02*
X152857143Y-131500000D01*
X152761905Y-131452381D01*
X152523809Y-131452381D01*
X152428571Y-131500000D01*
X152380952Y-131547619D01*
X152333333Y-131642857D01*
X152333333Y-131738095D01*
X152380952Y-131880952D01*
X152952381Y-132452381D01*
X152333333Y-132452381D01*
X151714286Y-131452381D02*
X151619047Y-131452381D01*
X151523809Y-131500000D01*
X151476190Y-131547619D01*
X151428571Y-131642857D01*
X151380952Y-131833333D01*
X151380952Y-132071429D01*
X151428571Y-132261905D01*
X151476190Y-132357143D01*
X151523809Y-132404762D01*
X151619047Y-132452381D01*
X151714286Y-132452381D01*
X151809524Y-132404762D01*
X151857143Y-132357143D01*
X151904762Y-132261905D01*
X151952381Y-132071429D01*
X151952381Y-131833333D01*
X151904762Y-131642857D01*
X151857143Y-131547619D01*
X151809524Y-131500000D01*
X151714286Y-131452381D01*
X154285714Y-54752381D02*
X154285714Y-55466667D01*
X154333334Y-55609524D01*
X154428572Y-55704762D01*
X154571429Y-55752381D01*
X154666667Y-55752381D01*
X153857143Y-54847619D02*
X153809524Y-54800000D01*
X153714286Y-54752381D01*
X153476190Y-54752381D01*
X153380952Y-54800000D01*
X153333333Y-54847619D01*
X153285714Y-54942857D01*
X153285714Y-55038095D01*
X153333333Y-55180952D01*
X153904762Y-55752381D01*
X153285714Y-55752381D01*
X152952381Y-54752381D02*
X152333333Y-54752381D01*
X152666667Y-55133333D01*
X152523809Y-55133333D01*
X152428571Y-55180952D01*
X152380952Y-55228571D01*
X152333333Y-55323810D01*
X152333333Y-55561905D01*
X152380952Y-55657143D01*
X152428571Y-55704762D01*
X152523809Y-55752381D01*
X152809524Y-55752381D01*
X152904762Y-55704762D01*
X152952381Y-55657143D01*
X151714286Y-54752381D02*
X151619047Y-54752381D01*
X151523809Y-54800000D01*
X151476190Y-54847619D01*
X151428571Y-54942857D01*
X151380952Y-55133333D01*
X151380952Y-55371429D01*
X151428571Y-55561905D01*
X151476190Y-55657143D01*
X151523809Y-55704762D01*
X151619047Y-55752381D01*
X151714286Y-55752381D01*
X151809524Y-55704762D01*
X151857143Y-55657143D01*
X151904762Y-55561905D01*
X151952381Y-55371429D01*
X151952381Y-55133333D01*
X151904762Y-54942857D01*
X151857143Y-54847619D01*
X151809524Y-54800000D01*
X151714286Y-54752381D01*
X159919047Y-55057143D02*
X159966666Y-55104762D01*
X160109523Y-55152381D01*
X160204761Y-55152381D01*
X160347619Y-55104762D01*
X160442857Y-55009524D01*
X160490476Y-54914286D01*
X160538095Y-54723810D01*
X160538095Y-54580952D01*
X160490476Y-54390476D01*
X160442857Y-54295238D01*
X160347619Y-54200000D01*
X160204761Y-54152381D01*
X160109523Y-54152381D01*
X159966666Y-54200000D01*
X159919047Y-54247619D01*
X159538095Y-54247619D02*
X159490476Y-54200000D01*
X159395238Y-54152381D01*
X159157142Y-54152381D01*
X159061904Y-54200000D01*
X159014285Y-54247619D01*
X158966666Y-54342857D01*
X158966666Y-54438095D01*
X159014285Y-54580952D01*
X159585714Y-55152381D01*
X158966666Y-55152381D01*
X158633333Y-54152381D02*
X158014285Y-54152381D01*
X158347619Y-54533333D01*
X158204761Y-54533333D01*
X158109523Y-54580952D01*
X158061904Y-54628571D01*
X158014285Y-54723810D01*
X158014285Y-54961905D01*
X158061904Y-55057143D01*
X158109523Y-55104762D01*
X158204761Y-55152381D01*
X158490476Y-55152381D01*
X158585714Y-55104762D01*
X158633333Y-55057143D01*
X157395238Y-54152381D02*
X157299999Y-54152381D01*
X157204761Y-54200000D01*
X157157142Y-54247619D01*
X157109523Y-54342857D01*
X157061904Y-54533333D01*
X157061904Y-54771429D01*
X157109523Y-54961905D01*
X157157142Y-55057143D01*
X157204761Y-55104762D01*
X157299999Y-55152381D01*
X157395238Y-55152381D01*
X157490476Y-55104762D01*
X157538095Y-55057143D01*
X157585714Y-54961905D01*
X157633333Y-54771429D01*
X157633333Y-54533333D01*
X157585714Y-54342857D01*
X157538095Y-54247619D01*
X157490476Y-54200000D01*
X157395238Y-54152381D01*
X147519047Y-54657143D02*
X147566666Y-54704762D01*
X147709523Y-54752381D01*
X147804761Y-54752381D01*
X147947619Y-54704762D01*
X148042857Y-54609524D01*
X148090476Y-54514286D01*
X148138095Y-54323810D01*
X148138095Y-54180952D01*
X148090476Y-53990476D01*
X148042857Y-53895238D01*
X147947619Y-53800000D01*
X147804761Y-53752381D01*
X147709523Y-53752381D01*
X147566666Y-53800000D01*
X147519047Y-53847619D01*
X147138095Y-53847619D02*
X147090476Y-53800000D01*
X146995238Y-53752381D01*
X146757142Y-53752381D01*
X146661904Y-53800000D01*
X146614285Y-53847619D01*
X146566666Y-53942857D01*
X146566666Y-54038095D01*
X146614285Y-54180952D01*
X147185714Y-54752381D01*
X146566666Y-54752381D01*
X146233333Y-53752381D02*
X145614285Y-53752381D01*
X145947619Y-54133333D01*
X145804761Y-54133333D01*
X145709523Y-54180952D01*
X145661904Y-54228571D01*
X145614285Y-54323810D01*
X145614285Y-54561905D01*
X145661904Y-54657143D01*
X145709523Y-54704762D01*
X145804761Y-54752381D01*
X146090476Y-54752381D01*
X146185714Y-54704762D01*
X146233333Y-54657143D01*
X145280952Y-53752381D02*
X144661904Y-53752381D01*
X144995238Y-54133333D01*
X144852380Y-54133333D01*
X144757142Y-54180952D01*
X144709523Y-54228571D01*
X144661904Y-54323810D01*
X144661904Y-54561905D01*
X144709523Y-54657143D01*
X144757142Y-54704762D01*
X144852380Y-54752381D01*
X145138095Y-54752381D01*
X145233333Y-54704762D01*
X145280952Y-54657143D01*
X193257143Y-96880953D02*
X193304762Y-96833334D01*
X193352381Y-96690477D01*
X193352381Y-96595239D01*
X193304762Y-96452381D01*
X193209524Y-96357143D01*
X193114286Y-96309524D01*
X192923810Y-96261905D01*
X192780952Y-96261905D01*
X192590476Y-96309524D01*
X192495238Y-96357143D01*
X192400000Y-96452381D01*
X192352381Y-96595239D01*
X192352381Y-96690477D01*
X192400000Y-96833334D01*
X192447619Y-96880953D01*
X192447619Y-97261905D02*
X192400000Y-97309524D01*
X192352381Y-97404762D01*
X192352381Y-97642858D01*
X192400000Y-97738096D01*
X192447619Y-97785715D01*
X192542857Y-97833334D01*
X192638095Y-97833334D01*
X192780952Y-97785715D01*
X193352381Y-97214286D01*
X193352381Y-97833334D01*
X192352381Y-98452381D02*
X192352381Y-98547620D01*
X192400000Y-98642858D01*
X192447619Y-98690477D01*
X192542857Y-98738096D01*
X192733333Y-98785715D01*
X192971429Y-98785715D01*
X193161905Y-98738096D01*
X193257143Y-98690477D01*
X193304762Y-98642858D01*
X193352381Y-98547620D01*
X193352381Y-98452381D01*
X193304762Y-98357143D01*
X193257143Y-98309524D01*
X193161905Y-98261905D01*
X192971429Y-98214286D01*
X192733333Y-98214286D01*
X192542857Y-98261905D01*
X192447619Y-98309524D01*
X192400000Y-98357143D01*
X192352381Y-98452381D01*
X192352381Y-99404762D02*
X192352381Y-99500001D01*
X192400000Y-99595239D01*
X192447619Y-99642858D01*
X192542857Y-99690477D01*
X192733333Y-99738096D01*
X192971429Y-99738096D01*
X193161905Y-99690477D01*
X193257143Y-99642858D01*
X193304762Y-99595239D01*
X193352381Y-99500001D01*
X193352381Y-99404762D01*
X193304762Y-99309524D01*
X193257143Y-99261905D01*
X193161905Y-99214286D01*
X192971429Y-99166667D01*
X192733333Y-99166667D01*
X192542857Y-99214286D01*
X192447619Y-99261905D01*
X192400000Y-99309524D01*
X192352381Y-99404762D01*
X199619047Y-84857143D02*
X199666666Y-84904762D01*
X199809523Y-84952381D01*
X199904761Y-84952381D01*
X200047619Y-84904762D01*
X200142857Y-84809524D01*
X200190476Y-84714286D01*
X200238095Y-84523810D01*
X200238095Y-84380952D01*
X200190476Y-84190476D01*
X200142857Y-84095238D01*
X200047619Y-84000000D01*
X199904761Y-83952381D01*
X199809523Y-83952381D01*
X199666666Y-84000000D01*
X199619047Y-84047619D01*
X199238095Y-84047619D02*
X199190476Y-84000000D01*
X199095238Y-83952381D01*
X198857142Y-83952381D01*
X198761904Y-84000000D01*
X198714285Y-84047619D01*
X198666666Y-84142857D01*
X198666666Y-84238095D01*
X198714285Y-84380952D01*
X199285714Y-84952381D01*
X198666666Y-84952381D01*
X198047619Y-83952381D02*
X197952380Y-83952381D01*
X197857142Y-84000000D01*
X197809523Y-84047619D01*
X197761904Y-84142857D01*
X197714285Y-84333333D01*
X197714285Y-84571429D01*
X197761904Y-84761905D01*
X197809523Y-84857143D01*
X197857142Y-84904762D01*
X197952380Y-84952381D01*
X198047619Y-84952381D01*
X198142857Y-84904762D01*
X198190476Y-84857143D01*
X198238095Y-84761905D01*
X198285714Y-84571429D01*
X198285714Y-84333333D01*
X198238095Y-84142857D01*
X198190476Y-84047619D01*
X198142857Y-84000000D01*
X198047619Y-83952381D01*
X197380952Y-83952381D02*
X196761904Y-83952381D01*
X197095238Y-84333333D01*
X196952380Y-84333333D01*
X196857142Y-84380952D01*
X196809523Y-84428571D01*
X196761904Y-84523810D01*
X196761904Y-84761905D01*
X196809523Y-84857143D01*
X196857142Y-84904762D01*
X196952380Y-84952381D01*
X197238095Y-84952381D01*
X197333333Y-84904762D01*
X197380952Y-84857143D01*
X114757143Y-96280953D02*
X114804762Y-96233334D01*
X114852381Y-96090477D01*
X114852381Y-95995239D01*
X114804762Y-95852381D01*
X114709524Y-95757143D01*
X114614286Y-95709524D01*
X114423810Y-95661905D01*
X114280952Y-95661905D01*
X114090476Y-95709524D01*
X113995238Y-95757143D01*
X113900000Y-95852381D01*
X113852381Y-95995239D01*
X113852381Y-96090477D01*
X113900000Y-96233334D01*
X113947619Y-96280953D01*
X113947619Y-96661905D02*
X113900000Y-96709524D01*
X113852381Y-96804762D01*
X113852381Y-97042858D01*
X113900000Y-97138096D01*
X113947619Y-97185715D01*
X114042857Y-97233334D01*
X114138095Y-97233334D01*
X114280952Y-97185715D01*
X114852381Y-96614286D01*
X114852381Y-97233334D01*
X114852381Y-98185715D02*
X114852381Y-97614286D01*
X114852381Y-97900000D02*
X113852381Y-97900000D01*
X113995238Y-97804762D01*
X114090476Y-97709524D01*
X114138095Y-97614286D01*
X113852381Y-98804762D02*
X113852381Y-98900001D01*
X113900000Y-98995239D01*
X113947619Y-99042858D01*
X114042857Y-99090477D01*
X114233333Y-99138096D01*
X114471429Y-99138096D01*
X114661905Y-99090477D01*
X114757143Y-99042858D01*
X114804762Y-98995239D01*
X114852381Y-98900001D01*
X114852381Y-98804762D01*
X114804762Y-98709524D01*
X114757143Y-98661905D01*
X114661905Y-98614286D01*
X114471429Y-98566667D01*
X114233333Y-98566667D01*
X114042857Y-98614286D01*
X113947619Y-98661905D01*
X113900000Y-98709524D01*
X113852381Y-98804762D01*
X114219047Y-83657143D02*
X114266666Y-83704762D01*
X114409523Y-83752381D01*
X114504761Y-83752381D01*
X114647619Y-83704762D01*
X114742857Y-83609524D01*
X114790476Y-83514286D01*
X114838095Y-83323810D01*
X114838095Y-83180952D01*
X114790476Y-82990476D01*
X114742857Y-82895238D01*
X114647619Y-82800000D01*
X114504761Y-82752381D01*
X114409523Y-82752381D01*
X114266666Y-82800000D01*
X114219047Y-82847619D01*
X113838095Y-82847619D02*
X113790476Y-82800000D01*
X113695238Y-82752381D01*
X113457142Y-82752381D01*
X113361904Y-82800000D01*
X113314285Y-82847619D01*
X113266666Y-82942857D01*
X113266666Y-83038095D01*
X113314285Y-83180952D01*
X113885714Y-83752381D01*
X113266666Y-83752381D01*
X112314285Y-83752381D02*
X112885714Y-83752381D01*
X112600000Y-83752381D02*
X112600000Y-82752381D01*
X112695238Y-82895238D01*
X112790476Y-82990476D01*
X112885714Y-83038095D01*
X111980952Y-82752381D02*
X111361904Y-82752381D01*
X111695238Y-83133333D01*
X111552380Y-83133333D01*
X111457142Y-83180952D01*
X111409523Y-83228571D01*
X111361904Y-83323810D01*
X111361904Y-83561905D01*
X111409523Y-83657143D01*
X111457142Y-83704762D01*
X111552380Y-83752381D01*
X111838095Y-83752381D01*
X111933333Y-83704762D01*
X111980952Y-83657143D01*
X149119047Y-131857143D02*
X149166666Y-131904762D01*
X149309523Y-131952381D01*
X149404761Y-131952381D01*
X149547619Y-131904762D01*
X149642857Y-131809524D01*
X149690476Y-131714286D01*
X149738095Y-131523810D01*
X149738095Y-131380952D01*
X149690476Y-131190476D01*
X149642857Y-131095238D01*
X149547619Y-131000000D01*
X149404761Y-130952381D01*
X149309523Y-130952381D01*
X149166666Y-131000000D01*
X149119047Y-131047619D01*
X148738095Y-131047619D02*
X148690476Y-131000000D01*
X148595238Y-130952381D01*
X148357142Y-130952381D01*
X148261904Y-131000000D01*
X148214285Y-131047619D01*
X148166666Y-131142857D01*
X148166666Y-131238095D01*
X148214285Y-131380952D01*
X148785714Y-131952381D01*
X148166666Y-131952381D01*
X147785714Y-131047619D02*
X147738095Y-131000000D01*
X147642857Y-130952381D01*
X147404761Y-130952381D01*
X147309523Y-131000000D01*
X147261904Y-131047619D01*
X147214285Y-131142857D01*
X147214285Y-131238095D01*
X147261904Y-131380952D01*
X147833333Y-131952381D01*
X147214285Y-131952381D01*
X146595238Y-130952381D02*
X146499999Y-130952381D01*
X146404761Y-131000000D01*
X146357142Y-131047619D01*
X146309523Y-131142857D01*
X146261904Y-131333333D01*
X146261904Y-131571429D01*
X146309523Y-131761905D01*
X146357142Y-131857143D01*
X146404761Y-131904762D01*
X146499999Y-131952381D01*
X146595238Y-131952381D01*
X146690476Y-131904762D01*
X146738095Y-131857143D01*
X146785714Y-131761905D01*
X146833333Y-131571429D01*
X146833333Y-131333333D01*
X146785714Y-131142857D01*
X146738095Y-131047619D01*
X146690476Y-131000000D01*
X146595238Y-130952381D01*
X159119047Y-131857143D02*
X159166666Y-131904762D01*
X159309523Y-131952381D01*
X159404761Y-131952381D01*
X159547619Y-131904762D01*
X159642857Y-131809524D01*
X159690476Y-131714286D01*
X159738095Y-131523810D01*
X159738095Y-131380952D01*
X159690476Y-131190476D01*
X159642857Y-131095238D01*
X159547619Y-131000000D01*
X159404761Y-130952381D01*
X159309523Y-130952381D01*
X159166666Y-131000000D01*
X159119047Y-131047619D01*
X158738095Y-131047619D02*
X158690476Y-131000000D01*
X158595238Y-130952381D01*
X158357142Y-130952381D01*
X158261904Y-131000000D01*
X158214285Y-131047619D01*
X158166666Y-131142857D01*
X158166666Y-131238095D01*
X158214285Y-131380952D01*
X158785714Y-131952381D01*
X158166666Y-131952381D01*
X157785714Y-131047619D02*
X157738095Y-131000000D01*
X157642857Y-130952381D01*
X157404761Y-130952381D01*
X157309523Y-131000000D01*
X157261904Y-131047619D01*
X157214285Y-131142857D01*
X157214285Y-131238095D01*
X157261904Y-131380952D01*
X157833333Y-131952381D01*
X157214285Y-131952381D01*
X156880952Y-130952381D02*
X156261904Y-130952381D01*
X156595238Y-131333333D01*
X156452380Y-131333333D01*
X156357142Y-131380952D01*
X156309523Y-131428571D01*
X156261904Y-131523810D01*
X156261904Y-131761905D01*
X156309523Y-131857143D01*
X156357142Y-131904762D01*
X156452380Y-131952381D01*
X156738095Y-131952381D01*
X156833333Y-131904762D01*
X156880952Y-131857143D01*
X158087143Y-61833334D02*
X158134762Y-61785715D01*
X158182381Y-61642858D01*
X158182381Y-61547620D01*
X158134762Y-61404762D01*
X158039524Y-61309524D01*
X157944286Y-61261905D01*
X157753810Y-61214286D01*
X157610952Y-61214286D01*
X157420476Y-61261905D01*
X157325238Y-61309524D01*
X157230000Y-61404762D01*
X157182381Y-61547620D01*
X157182381Y-61642858D01*
X157230000Y-61785715D01*
X157277619Y-61833334D01*
X158182381Y-62785715D02*
X158182381Y-62214286D01*
X158182381Y-62500000D02*
X157182381Y-62500000D01*
X157325238Y-62404762D01*
X157420476Y-62309524D01*
X157468095Y-62214286D01*
X146087143Y-61833334D02*
X146134762Y-61785715D01*
X146182381Y-61642858D01*
X146182381Y-61547620D01*
X146134762Y-61404762D01*
X146039524Y-61309524D01*
X145944286Y-61261905D01*
X145753810Y-61214286D01*
X145610952Y-61214286D01*
X145420476Y-61261905D01*
X145325238Y-61309524D01*
X145230000Y-61404762D01*
X145182381Y-61547620D01*
X145182381Y-61642858D01*
X145230000Y-61785715D01*
X145277619Y-61833334D01*
X145277619Y-62214286D02*
X145230000Y-62261905D01*
X145182381Y-62357143D01*
X145182381Y-62595239D01*
X145230000Y-62690477D01*
X145277619Y-62738096D01*
X145372857Y-62785715D01*
X145468095Y-62785715D01*
X145610952Y-62738096D01*
X146182381Y-62166667D01*
X146182381Y-62785715D01*
X186166666Y-78602381D02*
X186500000Y-78126190D01*
X186738095Y-78602381D02*
X186738095Y-77602381D01*
X186357142Y-77602381D01*
X186261904Y-77650000D01*
X186214285Y-77697619D01*
X186166666Y-77792857D01*
X186166666Y-77935714D01*
X186214285Y-78030952D01*
X186261904Y-78078571D01*
X186357142Y-78126190D01*
X186738095Y-78126190D01*
X185833333Y-77602381D02*
X185214285Y-77602381D01*
X185547619Y-77983333D01*
X185404761Y-77983333D01*
X185309523Y-78030952D01*
X185261904Y-78078571D01*
X185214285Y-78173810D01*
X185214285Y-78411905D01*
X185261904Y-78507143D01*
X185309523Y-78554762D01*
X185404761Y-78602381D01*
X185690476Y-78602381D01*
X185785714Y-78554762D01*
X185833333Y-78507143D01*
X186166666Y-82802381D02*
X186500000Y-82326190D01*
X186738095Y-82802381D02*
X186738095Y-81802381D01*
X186357142Y-81802381D01*
X186261904Y-81850000D01*
X186214285Y-81897619D01*
X186166666Y-81992857D01*
X186166666Y-82135714D01*
X186214285Y-82230952D01*
X186261904Y-82278571D01*
X186357142Y-82326190D01*
X186738095Y-82326190D01*
X185309523Y-82135714D02*
X185309523Y-82802381D01*
X185547619Y-81754762D02*
X185785714Y-82469048D01*
X185166666Y-82469048D01*
M02*
