G04 #@! TF.FileFunction,Soldermask,Top*
%FSLAX46Y46*%
G04 Gerber Fmt 4.6, Leading zero omitted, Abs format (unit mm)*
G04 Created by KiCad (PCBNEW 4.0.7-e2-6376~58~ubuntu16.04.1) date Thu Mar 22 01:37:30 2018*
%MOMM*%
%LPD*%
G01*
G04 APERTURE LIST*
%ADD10C,0.100000*%
%ADD11C,5.060000*%
%ADD12C,1.160000*%
%ADD13C,10.060000*%
%ADD14C,1.060000*%
%ADD15C,6.410000*%
%ADD16R,1.460000X0.410000*%
%ADD17C,1.660000*%
%ADD18C,1.780000*%
G04 APERTURE END LIST*
D10*
D11*
X117960000Y-96140000D03*
X117960000Y-61850000D03*
X182730000Y-61850000D03*
X182730000Y-96140000D03*
D12*
X184000000Y-70000000D03*
X184000000Y-72000000D03*
X184000000Y-74000000D03*
X184000000Y-76000000D03*
X184000000Y-78000000D03*
X184000000Y-80000000D03*
X184000000Y-82000000D03*
X184000000Y-84000000D03*
X184000000Y-86000000D03*
X184000000Y-88000000D03*
X182000000Y-70000000D03*
X182000000Y-72000000D03*
X182000000Y-74000000D03*
X182000000Y-76000000D03*
X182000000Y-78000000D03*
X182000000Y-80000000D03*
X182000000Y-82000000D03*
X182000000Y-84000000D03*
X182000000Y-86000000D03*
X182000000Y-88000000D03*
D13*
X119230000Y-86740000D03*
D14*
X199000000Y-95500000D03*
X199000000Y-84500000D03*
X158500000Y-57000000D03*
X147500000Y-57000000D03*
X158500000Y-47000000D03*
X147500000Y-47000000D03*
X158500000Y-133000000D03*
X147500000Y-133000000D03*
X107000000Y-84346702D03*
D15*
X110080000Y-126110000D03*
X110080000Y-52450000D03*
X195810000Y-49910000D03*
X195810000Y-129920000D03*
D16*
X193800000Y-80675000D03*
X193800000Y-81325000D03*
X193800000Y-82625000D03*
X193800000Y-81975000D03*
X193800000Y-80025000D03*
X193800000Y-78725000D03*
X193800000Y-79375000D03*
X193800000Y-83275000D03*
X199200000Y-80025000D03*
X199200000Y-81325000D03*
X199200000Y-82625000D03*
X199200000Y-81975000D03*
X199200000Y-83275000D03*
X199200000Y-78725000D03*
X199200000Y-79375000D03*
X199200000Y-80675000D03*
D17*
X177800000Y-125500000D03*
X182800000Y-125500000D03*
X180300000Y-125500000D03*
D14*
X107000000Y-95346702D03*
D18*
X188190000Y-49910000D03*
X188190000Y-52450000D03*
X188190000Y-54990000D03*
X188190000Y-57530000D03*
X188190000Y-60070000D03*
X188190000Y-62610000D03*
X188190000Y-65150000D03*
X188190000Y-67690000D03*
X188190000Y-70230000D03*
X188190000Y-72770000D03*
X188190000Y-75310000D03*
X188190000Y-77850000D03*
X188190000Y-80390000D03*
X188190000Y-82930000D03*
X188190000Y-85470000D03*
X188190000Y-88010000D03*
X188190000Y-90550000D03*
X188190000Y-93090000D03*
X188190000Y-95630000D03*
X188190000Y-98170000D03*
X188190000Y-100710000D03*
X188190000Y-103250000D03*
X188190000Y-105790000D03*
X188190000Y-108330000D03*
X188190000Y-110870000D03*
X188190000Y-113410000D03*
X188190000Y-115950000D03*
X188190000Y-118490000D03*
X188190000Y-121030000D03*
X188190000Y-123570000D03*
X188190000Y-126110000D03*
X188190000Y-128650000D03*
X190730000Y-49910000D03*
X190730000Y-52450000D03*
X190730000Y-54990000D03*
X190730000Y-57530000D03*
X190730000Y-60070000D03*
X190730000Y-62610000D03*
X190730000Y-65150000D03*
X190730000Y-67690000D03*
X190730000Y-70230000D03*
X190730000Y-72770000D03*
X190730000Y-75310000D03*
X190730000Y-77850000D03*
X190730000Y-80390000D03*
X190730000Y-82930000D03*
X190730000Y-85470000D03*
X190730000Y-88010000D03*
X190730000Y-90550000D03*
X190730000Y-93090000D03*
X190730000Y-95630000D03*
X190730000Y-98170000D03*
X190730000Y-100710000D03*
X190730000Y-103250000D03*
X190730000Y-105790000D03*
X190730000Y-108330000D03*
X190730000Y-110870000D03*
X190730000Y-113410000D03*
X190730000Y-115950000D03*
X190730000Y-118490000D03*
X190730000Y-121030000D03*
X190730000Y-123570000D03*
X190730000Y-126110000D03*
X190730000Y-128650000D03*
M02*
