G04 #@! TF.FileFunction,Soldermask,Bot*
%FSLAX46Y46*%
G04 Gerber Fmt 4.6, Leading zero omitted, Abs format (unit mm)*
G04 Created by KiCad (PCBNEW 4.0.7-e2-6376~58~ubuntu16.04.1) date Thu Mar 22 01:37:30 2018*
%MOMM*%
%LPD*%
G01*
G04 APERTURE LIST*
%ADD10C,0.100000*%
%ADD11C,5.060000*%
%ADD12C,1.160000*%
%ADD13C,10.060000*%
%ADD14R,1.460000X0.410000*%
%ADD15C,1.060000*%
%ADD16C,6.410000*%
%ADD17R,5.060000X2.060000*%
%ADD18R,2.060000X5.060000*%
%ADD19R,0.660000X0.560000*%
%ADD20R,0.460000X0.660000*%
%ADD21R,0.660000X0.460000*%
%ADD22R,1.510000X0.510000*%
%ADD23R,0.510000X1.510000*%
%ADD24R,0.560000X0.660000*%
%ADD25R,1.060000X1.310000*%
%ADD26R,1.310000X1.060000*%
%ADD27R,4.560000X2.060000*%
%ADD28R,2.060000X4.560000*%
%ADD29R,1.060000X1.660000*%
%ADD30R,1.660000X1.060000*%
%ADD31R,0.710000X0.910000*%
%ADD32R,2.010000X2.060000*%
%ADD33R,1.010000X0.710000*%
%ADD34R,0.760000X0.360000*%
%ADD35R,1.060000X0.360000*%
%ADD36R,0.360000X0.760000*%
%ADD37R,0.360000X1.060000*%
%ADD38R,0.410000X1.460000*%
%ADD39R,0.910000X0.710000*%
%ADD40R,2.060000X2.010000*%
%ADD41R,0.710000X1.010000*%
%ADD42C,1.660000*%
%ADD43C,3.060000*%
%ADD44C,1.780000*%
G04 APERTURE END LIST*
D10*
D11*
X117960000Y-96140000D03*
X117960000Y-61850000D03*
X182730000Y-61850000D03*
X182730000Y-96140000D03*
D12*
X184000000Y-70000000D03*
X184000000Y-72000000D03*
X184000000Y-74000000D03*
X184000000Y-76000000D03*
X184000000Y-78000000D03*
X184000000Y-80000000D03*
X184000000Y-82000000D03*
X184000000Y-84000000D03*
X184000000Y-86000000D03*
X184000000Y-88000000D03*
X182000000Y-70000000D03*
X182000000Y-72000000D03*
X182000000Y-74000000D03*
X182000000Y-76000000D03*
X182000000Y-78000000D03*
X182000000Y-80000000D03*
X182000000Y-82000000D03*
X182000000Y-84000000D03*
X182000000Y-86000000D03*
X182000000Y-88000000D03*
D13*
X119230000Y-86740000D03*
D14*
X158400000Y-117975000D03*
X158400000Y-118625000D03*
X158400000Y-119925000D03*
X158400000Y-119275000D03*
X158400000Y-117325000D03*
X158400000Y-116025000D03*
X158400000Y-116675000D03*
X158400000Y-120575000D03*
X153000000Y-117325000D03*
X153000000Y-118625000D03*
X153000000Y-119925000D03*
X153000000Y-119275000D03*
X153000000Y-120575000D03*
X153000000Y-116025000D03*
X153000000Y-116675000D03*
X153000000Y-117975000D03*
D15*
X199000000Y-95500000D03*
X199000000Y-84500000D03*
X158500000Y-57000000D03*
X147500000Y-57000000D03*
X158500000Y-47000000D03*
X147500000Y-47000000D03*
X158500000Y-133000000D03*
X147500000Y-133000000D03*
X107000000Y-84346702D03*
D16*
X110080000Y-126110000D03*
X110080000Y-52450000D03*
X195810000Y-49910000D03*
X195810000Y-129920000D03*
D17*
X198000000Y-78000000D03*
X198000000Y-102000000D03*
X198000000Y-98000000D03*
X108000000Y-98000000D03*
X108000000Y-102000000D03*
X108000000Y-78000000D03*
X108000000Y-82000000D03*
D18*
X161000000Y-132000000D03*
X165000000Y-132000000D03*
X141000000Y-132000000D03*
X165000000Y-47705792D03*
X161000000Y-48000000D03*
X145000000Y-47745792D03*
X141000000Y-47745792D03*
D17*
X198000000Y-82000000D03*
D18*
X145000000Y-132000000D03*
D19*
X194225000Y-74100000D03*
X193175000Y-74100000D03*
X133475000Y-89600000D03*
X134525000Y-89600000D03*
X158525000Y-122400000D03*
X157475000Y-122400000D03*
X135475000Y-52100000D03*
X136525000Y-52100000D03*
D20*
X140800000Y-88250000D03*
X141700000Y-88250000D03*
X151050000Y-88250000D03*
X151950000Y-88250000D03*
D21*
X197800000Y-74550000D03*
X197800000Y-75450000D03*
X199000000Y-75450000D03*
X199000000Y-74550000D03*
D20*
X128050000Y-98400000D03*
X128950000Y-98400000D03*
X128950000Y-99700000D03*
X128050000Y-99700000D03*
D21*
X151100000Y-115550000D03*
X151100000Y-116450000D03*
X152500000Y-114950000D03*
X152500000Y-114050000D03*
D20*
X130050000Y-60900000D03*
X130950000Y-60900000D03*
X130950000Y-62200000D03*
X130050000Y-62200000D03*
D21*
X196600000Y-74550000D03*
X196600000Y-75450000D03*
X195400000Y-75450000D03*
X195400000Y-74550000D03*
D20*
X130800000Y-98400000D03*
X129900000Y-98400000D03*
X129950000Y-99700000D03*
X130850000Y-99700000D03*
D21*
X151100000Y-118300000D03*
X151100000Y-117400000D03*
X154000000Y-114950000D03*
X154000000Y-114050000D03*
D20*
X132800000Y-60900000D03*
X131900000Y-60900000D03*
X131950000Y-62200000D03*
X132850000Y-62200000D03*
D21*
X193500000Y-76050000D03*
X193500000Y-75150000D03*
D20*
X194200000Y-73000000D03*
X193300000Y-73000000D03*
D21*
X129100000Y-89750000D03*
X129100000Y-88850000D03*
D20*
X133550000Y-88300000D03*
X134450000Y-88300000D03*
X157450000Y-114500000D03*
X156550000Y-114500000D03*
X158450000Y-123700000D03*
X157550000Y-123700000D03*
D21*
X131100000Y-52250000D03*
X131100000Y-51350000D03*
D20*
X135550000Y-50800000D03*
X136450000Y-50800000D03*
D22*
X171049800Y-95456396D03*
X171049800Y-96106396D03*
X171049800Y-96756396D03*
X171049800Y-97406396D03*
X165149800Y-97406396D03*
X165149800Y-96756396D03*
X165149800Y-96106396D03*
X165149800Y-95456396D03*
X171049800Y-80412600D03*
X171049800Y-81062600D03*
X171049800Y-81712600D03*
X171049800Y-82362600D03*
X165149800Y-82362600D03*
X165149800Y-81712600D03*
X165149800Y-81062600D03*
X165149800Y-80412600D03*
X121950200Y-74087400D03*
X121950200Y-73437400D03*
X121950200Y-72787400D03*
X121950200Y-72137400D03*
X127850200Y-72137400D03*
X127850200Y-72787400D03*
X127850200Y-73437400D03*
X127850200Y-74087400D03*
X118700200Y-110087400D03*
X118700200Y-109437400D03*
X118700200Y-108787400D03*
X118700200Y-108137400D03*
X124600200Y-108137400D03*
X124600200Y-108787400D03*
X124600200Y-109437400D03*
X124600200Y-110087400D03*
D23*
X143587400Y-119049800D03*
X142937400Y-119049800D03*
X142287400Y-119049800D03*
X141637400Y-119049800D03*
X141637400Y-113149800D03*
X142287400Y-113149800D03*
X142937400Y-113149800D03*
X143587400Y-113149800D03*
X167087400Y-119549800D03*
X166437400Y-119549800D03*
X165787400Y-119549800D03*
X165137400Y-119549800D03*
X165137400Y-113649800D03*
X165787400Y-113649800D03*
X166437400Y-113649800D03*
X167087400Y-113649800D03*
X168412600Y-57950200D03*
X169062600Y-57950200D03*
X169712600Y-57950200D03*
X170362600Y-57950200D03*
X170362600Y-63850200D03*
X169712600Y-63850200D03*
X169062600Y-63850200D03*
X168412600Y-63850200D03*
X146912600Y-70450200D03*
X147562600Y-70450200D03*
X148212600Y-70450200D03*
X148862600Y-70450200D03*
X148862600Y-76350200D03*
X148212600Y-76350200D03*
X147562600Y-76350200D03*
X146912600Y-76350200D03*
D19*
X133750000Y-60900000D03*
X134850000Y-60900000D03*
D24*
X197200000Y-73350000D03*
X197200000Y-72250000D03*
D19*
X131750000Y-98400000D03*
X132850000Y-98400000D03*
D24*
X151100000Y-119250000D03*
X151100000Y-120350000D03*
D25*
X171100000Y-74800000D03*
X169100000Y-74800000D03*
D26*
X169100000Y-78550000D03*
X169100000Y-76550000D03*
X160914800Y-83508600D03*
X160914800Y-85508600D03*
X162743600Y-79698600D03*
X162743600Y-81698600D03*
D25*
X162900000Y-87300000D03*
X160900000Y-87300000D03*
X169176000Y-84715000D03*
X167176000Y-84715000D03*
X121900000Y-79700000D03*
X123900000Y-79700000D03*
D26*
X123900000Y-75950000D03*
X123900000Y-77950000D03*
X132085200Y-70991400D03*
X132085200Y-68991400D03*
X130256400Y-74801400D03*
X130256400Y-72801400D03*
D25*
X130100000Y-67200000D03*
X132100000Y-67200000D03*
X123824000Y-69785000D03*
X125824000Y-69785000D03*
X118650000Y-115700000D03*
X120650000Y-115700000D03*
D26*
X120650000Y-111950000D03*
X120650000Y-113950000D03*
X128835200Y-106991400D03*
X128835200Y-104991400D03*
X127006400Y-110801400D03*
X127006400Y-108801400D03*
D25*
X126850000Y-103200000D03*
X128850000Y-103200000D03*
X120574000Y-105785000D03*
X122574000Y-105785000D03*
D26*
X149200000Y-119100000D03*
X149200000Y-117100000D03*
D25*
X145450000Y-117100000D03*
X147450000Y-117100000D03*
X140491400Y-108914800D03*
X138491400Y-108914800D03*
X144301400Y-110743600D03*
X142301400Y-110743600D03*
D26*
X136700000Y-110900000D03*
X136700000Y-108900000D03*
X139285000Y-117176000D03*
X139285000Y-115176000D03*
X172700000Y-119600000D03*
X172700000Y-117600000D03*
D25*
X168950000Y-117600000D03*
X170950000Y-117600000D03*
X163991400Y-109414800D03*
X161991400Y-109414800D03*
X167801400Y-111243600D03*
X165801400Y-111243600D03*
D26*
X160200000Y-111400000D03*
X160200000Y-109400000D03*
X162785000Y-117676000D03*
X162785000Y-115676000D03*
X162800000Y-57900000D03*
X162800000Y-59900000D03*
D25*
X166550000Y-59900000D03*
X164550000Y-59900000D03*
X171508600Y-68085200D03*
X173508600Y-68085200D03*
X167698600Y-66256400D03*
X169698600Y-66256400D03*
D26*
X175300000Y-66100000D03*
X175300000Y-68100000D03*
X172715000Y-59824000D03*
X172715000Y-61824000D03*
X141300000Y-70400000D03*
X141300000Y-72400000D03*
D25*
X145050000Y-72400000D03*
X143050000Y-72400000D03*
X150008600Y-80585200D03*
X152008600Y-80585200D03*
X146198600Y-78756400D03*
X148198600Y-78756400D03*
D26*
X153800000Y-78600000D03*
X153800000Y-80600000D03*
X151215000Y-72324000D03*
X151215000Y-74324000D03*
D27*
X174881600Y-92008996D03*
X174881600Y-98008996D03*
X174881600Y-76965200D03*
X174881600Y-82965200D03*
X118118400Y-77534800D03*
X118118400Y-71534800D03*
X114868400Y-113534800D03*
X114868400Y-107534800D03*
D28*
X147034800Y-122881600D03*
X141034800Y-122881600D03*
X170534800Y-123381600D03*
X164534800Y-123381600D03*
X164965200Y-54118400D03*
X170965200Y-54118400D03*
X143465200Y-66618400D03*
X149465200Y-66618400D03*
D26*
X171100000Y-91593796D03*
X171100000Y-93593796D03*
D20*
X165541600Y-93840596D03*
X166441600Y-93840596D03*
D25*
X158848000Y-94802596D03*
X160848000Y-94802596D03*
X158848000Y-96707596D03*
X160848000Y-96707596D03*
D29*
X169168000Y-101917796D03*
X166168000Y-101917796D03*
D26*
X162870600Y-100577796D03*
X162870600Y-98577796D03*
X158959000Y-98552396D03*
X158959000Y-100552396D03*
X171100000Y-76550000D03*
X171100000Y-78550000D03*
D20*
X165541600Y-78796800D03*
X166441600Y-78796800D03*
D25*
X158848000Y-79758800D03*
X160848000Y-79758800D03*
X158848000Y-81663800D03*
X160848000Y-81663800D03*
D29*
X169168000Y-86874000D03*
X166168000Y-86874000D03*
D26*
X162870600Y-85534000D03*
X162870600Y-83534000D03*
X158959000Y-83508600D03*
X158959000Y-85508600D03*
X121900000Y-77950000D03*
X121900000Y-75950000D03*
D20*
X127458400Y-75703200D03*
X126558400Y-75703200D03*
D25*
X134152000Y-74741200D03*
X132152000Y-74741200D03*
X134152000Y-72836200D03*
X132152000Y-72836200D03*
D29*
X123832000Y-67626000D03*
X126832000Y-67626000D03*
D26*
X130129400Y-68966000D03*
X130129400Y-70966000D03*
X134041000Y-70991400D03*
X134041000Y-68991400D03*
X118650000Y-113950000D03*
X118650000Y-111950000D03*
D20*
X124208400Y-111703200D03*
X123308400Y-111703200D03*
D25*
X130902000Y-110741200D03*
X128902000Y-110741200D03*
X130902000Y-108836200D03*
X128902000Y-108836200D03*
D29*
X120582000Y-103626000D03*
X123582000Y-103626000D03*
D26*
X126879400Y-104966000D03*
X126879400Y-106966000D03*
X130791000Y-106991400D03*
X130791000Y-104991400D03*
D25*
X147450000Y-119100000D03*
X145450000Y-119100000D03*
D21*
X145203200Y-113541600D03*
X145203200Y-114441600D03*
D26*
X144241200Y-106848000D03*
X144241200Y-108848000D03*
X142336200Y-106848000D03*
X142336200Y-108848000D03*
D30*
X137126000Y-117168000D03*
X137126000Y-114168000D03*
D25*
X138466000Y-110870600D03*
X140466000Y-110870600D03*
X140491400Y-106959000D03*
X138491400Y-106959000D03*
X170950000Y-119600000D03*
X168950000Y-119600000D03*
D21*
X168703200Y-114041600D03*
X168703200Y-114941600D03*
D26*
X167741200Y-107348000D03*
X167741200Y-109348000D03*
X165836200Y-107348000D03*
X165836200Y-109348000D03*
D30*
X160626000Y-117668000D03*
X160626000Y-114668000D03*
D25*
X161966000Y-111370600D03*
X163966000Y-111370600D03*
X163991400Y-107459000D03*
X161991400Y-107459000D03*
X164550000Y-57900000D03*
X166550000Y-57900000D03*
D21*
X166796800Y-63458400D03*
X166796800Y-62558400D03*
D26*
X167758800Y-70152000D03*
X167758800Y-68152000D03*
X169663800Y-70152000D03*
X169663800Y-68152000D03*
D30*
X174874000Y-59832000D03*
X174874000Y-62832000D03*
D25*
X173534000Y-66129400D03*
X171534000Y-66129400D03*
X171508600Y-70041000D03*
X173508600Y-70041000D03*
X143050000Y-70400000D03*
X145050000Y-70400000D03*
D21*
X145296800Y-75958400D03*
X145296800Y-75058400D03*
D26*
X146258800Y-82652000D03*
X146258800Y-80652000D03*
X148163800Y-82652000D03*
X148163800Y-80652000D03*
D30*
X153374000Y-72332000D03*
X153374000Y-75332000D03*
D25*
X152034000Y-78629400D03*
X150034000Y-78629400D03*
X150008600Y-82541000D03*
X152008600Y-82541000D03*
D31*
X152205600Y-67437100D03*
D32*
X152205600Y-69492100D03*
D33*
X152205600Y-70817100D03*
D34*
X193000000Y-89750000D03*
X193000000Y-89250000D03*
X193000000Y-88750000D03*
X193000000Y-88250000D03*
X193000000Y-87750000D03*
X193000000Y-87250000D03*
X193000000Y-86750000D03*
X193000000Y-93250000D03*
X193000000Y-91750000D03*
X193000000Y-92250000D03*
X193000000Y-92750000D03*
X193000000Y-91250000D03*
X193000000Y-90750000D03*
X193000000Y-90250000D03*
D35*
X195650000Y-85960000D03*
X195650000Y-94040000D03*
D36*
X152750000Y-63000000D03*
X152250000Y-63000000D03*
X151750000Y-63000000D03*
X151250000Y-63000000D03*
X150750000Y-63000000D03*
X150250000Y-63000000D03*
X149750000Y-63000000D03*
X156250000Y-63000000D03*
X154750000Y-63000000D03*
X155250000Y-63000000D03*
X155750000Y-63000000D03*
X154250000Y-63000000D03*
X153750000Y-63000000D03*
X153250000Y-63000000D03*
D37*
X148960000Y-60350000D03*
X157040000Y-60350000D03*
D34*
X113000000Y-90250000D03*
X113000000Y-90750000D03*
X113000000Y-91250000D03*
X113000000Y-91750000D03*
X113000000Y-92250000D03*
X113000000Y-92750000D03*
X113000000Y-93250000D03*
X113000000Y-86750000D03*
X113000000Y-88250000D03*
X113000000Y-87750000D03*
X113000000Y-87250000D03*
X113000000Y-88750000D03*
X113000000Y-89250000D03*
X113000000Y-89750000D03*
D35*
X110350000Y-94040000D03*
X110350000Y-85960000D03*
D36*
X153250000Y-127000000D03*
X153750000Y-127000000D03*
X154250000Y-127000000D03*
X154750000Y-127000000D03*
X155250000Y-127000000D03*
X155750000Y-127000000D03*
X156250000Y-127000000D03*
X149750000Y-127000000D03*
X151250000Y-127000000D03*
X150750000Y-127000000D03*
X150250000Y-127000000D03*
X151750000Y-127000000D03*
X152250000Y-127000000D03*
X152750000Y-127000000D03*
D37*
X157040000Y-129650000D03*
X148960000Y-129650000D03*
D36*
X152750000Y-53000000D03*
X152250000Y-53000000D03*
X151750000Y-53000000D03*
X151250000Y-53000000D03*
X150750000Y-53000000D03*
X150250000Y-53000000D03*
X149750000Y-53000000D03*
X156250000Y-53000000D03*
X154750000Y-53000000D03*
X155250000Y-53000000D03*
X155750000Y-53000000D03*
X154250000Y-53000000D03*
X153750000Y-53000000D03*
X153250000Y-53000000D03*
D37*
X148960000Y-50350000D03*
X157040000Y-50350000D03*
D38*
X130475000Y-91100000D03*
X131125000Y-91100000D03*
X132425000Y-91100000D03*
X131775000Y-91100000D03*
X129825000Y-91100000D03*
X128525000Y-91100000D03*
X129175000Y-91100000D03*
X133075000Y-91100000D03*
X129825000Y-96500000D03*
X131125000Y-96500000D03*
X132425000Y-96500000D03*
X131775000Y-96500000D03*
X133075000Y-96500000D03*
X128525000Y-96500000D03*
X129175000Y-96500000D03*
X130475000Y-96500000D03*
X132475000Y-53600000D03*
X133125000Y-53600000D03*
X134425000Y-53600000D03*
X133775000Y-53600000D03*
X131825000Y-53600000D03*
X130525000Y-53600000D03*
X131175000Y-53600000D03*
X135075000Y-53600000D03*
X131825000Y-59000000D03*
X133125000Y-59000000D03*
X134425000Y-59000000D03*
X133775000Y-59000000D03*
X135075000Y-59000000D03*
X130525000Y-59000000D03*
X131175000Y-59000000D03*
X132475000Y-59000000D03*
D24*
X159000000Y-51450000D03*
X159000000Y-52550000D03*
X147000000Y-52550000D03*
X147000000Y-51450000D03*
D25*
X171100000Y-89843796D03*
X169100000Y-89843796D03*
D26*
X169100000Y-93593796D03*
X169100000Y-91593796D03*
X160914800Y-98552396D03*
X160914800Y-100552396D03*
X162743600Y-94742396D03*
X162743600Y-96742396D03*
D25*
X162900000Y-102343796D03*
X160900000Y-102343796D03*
X169176000Y-99758796D03*
X167176000Y-99758796D03*
D19*
X194750000Y-95500000D03*
X193650000Y-95500000D03*
X193700000Y-84500000D03*
X194800000Y-84500000D03*
D24*
X114500000Y-93450000D03*
X114500000Y-94550000D03*
D19*
X113000000Y-84500000D03*
X111900000Y-84500000D03*
D24*
X147500000Y-128550000D03*
X147500000Y-127450000D03*
X158500000Y-127450000D03*
X158500000Y-128550000D03*
D31*
X173705600Y-54937100D03*
D32*
X173705600Y-56992100D03*
D33*
X173705600Y-58317100D03*
D39*
X118937100Y-68794400D03*
D40*
X120992100Y-68794400D03*
D41*
X122317100Y-68794400D03*
D39*
X115687100Y-104794400D03*
D40*
X117742100Y-104794400D03*
D41*
X119067100Y-104794400D03*
D31*
X138294400Y-122062900D03*
D32*
X138294400Y-120007900D03*
D33*
X138294400Y-118682900D03*
D31*
X161794400Y-122562900D03*
D32*
X161794400Y-120507900D03*
D33*
X161794400Y-119182900D03*
D39*
X174062900Y-85705600D03*
D40*
X172007900Y-85705600D03*
D41*
X170682900Y-85705600D03*
D39*
X174062900Y-100749396D03*
D40*
X172007900Y-100749396D03*
D41*
X170682900Y-100749396D03*
D24*
X159000000Y-61450000D03*
X159000000Y-62550000D03*
X147000000Y-61450000D03*
X147000000Y-62550000D03*
D42*
X177800000Y-125500000D03*
X182800000Y-125500000D03*
X180300000Y-125500000D03*
D20*
X186450000Y-79500000D03*
X185550000Y-79500000D03*
X185550000Y-81000000D03*
X186450000Y-81000000D03*
D43*
X162800000Y-91600000D03*
X133500000Y-78500000D03*
X163500000Y-69000000D03*
X148500000Y-107500000D03*
X176550000Y-132600000D03*
X181800000Y-132600000D03*
D15*
X107000000Y-95346702D03*
D44*
X188190000Y-49910000D03*
X188190000Y-52450000D03*
X188190000Y-54990000D03*
X188190000Y-57530000D03*
X188190000Y-60070000D03*
X188190000Y-62610000D03*
X188190000Y-65150000D03*
X188190000Y-67690000D03*
X188190000Y-70230000D03*
X188190000Y-72770000D03*
X188190000Y-75310000D03*
X188190000Y-77850000D03*
X188190000Y-80390000D03*
X188190000Y-82930000D03*
X188190000Y-85470000D03*
X188190000Y-88010000D03*
X188190000Y-90550000D03*
X188190000Y-93090000D03*
X188190000Y-95630000D03*
X188190000Y-98170000D03*
X188190000Y-100710000D03*
X188190000Y-103250000D03*
X188190000Y-105790000D03*
X188190000Y-108330000D03*
X188190000Y-110870000D03*
X188190000Y-113410000D03*
X188190000Y-115950000D03*
X188190000Y-118490000D03*
X188190000Y-121030000D03*
X188190000Y-123570000D03*
X188190000Y-126110000D03*
X188190000Y-128650000D03*
X190730000Y-49910000D03*
X190730000Y-52450000D03*
X190730000Y-54990000D03*
X190730000Y-57530000D03*
X190730000Y-60070000D03*
X190730000Y-62610000D03*
X190730000Y-65150000D03*
X190730000Y-67690000D03*
X190730000Y-70230000D03*
X190730000Y-72770000D03*
X190730000Y-75310000D03*
X190730000Y-77850000D03*
X190730000Y-80390000D03*
X190730000Y-82930000D03*
X190730000Y-85470000D03*
X190730000Y-88010000D03*
X190730000Y-90550000D03*
X190730000Y-93090000D03*
X190730000Y-95630000D03*
X190730000Y-98170000D03*
X190730000Y-100710000D03*
X190730000Y-103250000D03*
X190730000Y-105790000D03*
X190730000Y-108330000D03*
X190730000Y-110870000D03*
X190730000Y-113410000D03*
X190730000Y-115950000D03*
X190730000Y-118490000D03*
X190730000Y-121030000D03*
X190730000Y-123570000D03*
X190730000Y-126110000D03*
X190730000Y-128650000D03*
M02*
